<?xml version="1.0" encoding="UTF-8" standalone="no"?><svg xmlns="http://www.w3.org/2000/svg" xmlns:xlink="http://www.w3.org/1999/xlink" contentStyleType="text/css" height="437px" preserveAspectRatio="none" style="width:1014px;height:437px;background:#FFFFFF;" version="1.1" viewBox="0 0 1014 437" width="1014px" zoomAndPan="magnify"><defs/><g><!--class __1_Domain_Model--><g id="elem___1_Domain_Model"><rect codeLine="8" fill="#FFFFFF" height="22.6489" id="__1_Domain_Model" rx="2.5" ry="2.5" style="stroke:#181818;stroke-width:0.5;" width="84" x="566.5" y="7"/><text fill="#000000" font-family="Arial" font-size="11" font-weight="bold" lengthAdjust="spacing" textLength="78" x="569.5" y="22.3179">Domain Model</text></g><!--class __2_Domain_Model_Element--><g id="elem___2_Domain_Model_Element"><rect codeLine="9" fill="#FFFFFF" height="22.6489" id="__2_Domain_Model_Element" rx="2.5" ry="2.5" style="stroke:#181818;stroke-width:0.5;" width="132" x="542.5" y="104"/><text fill="#000000" font-family="Arial" font-size="11" font-weight="bold" lengthAdjust="spacing" textLength="126" x="545.5" y="119.3179">Domain Model Element</text></g><!--class __3_Model_Element_Group--><g id="elem___3_Model_Element_Group"><rect codeLine="10" fill="#FFFFFF" height="22.6489" id="__3_Model_Element_Group" rx="2.5" ry="2.5" style="stroke:#181818;stroke-width:0.5;" width="125" x="285" y="263"/><text fill="#000000" font-family="Arial" font-size="11" font-weight="bold" lengthAdjust="spacing" textLength="119" x="288" y="278.3179">Model Element Group</text></g><!--class __4_Shared_Kernel--><g id="elem___4_Shared_Kernel"><rect codeLine="11" fill="#FFFFFF" height="22.6489" id="__4_Shared_Kernel" rx="2.5" ry="2.5" style="stroke:#181818;stroke-width:0.5;" width="84" x="379.5" y="409"/><text fill="#000000" font-family="Arial" font-size="11" font-weight="bold" lengthAdjust="spacing" textLength="78" x="382.5" y="424.3179">Shared Kernel</text></g><!--class __5_Bounded_Context--><g id="elem___5_Bounded_Context"><rect codeLine="12" fill="#FFFFFF" height="22.6489" id="__5_Bounded_Context" rx="2.5" ry="2.5" style="stroke:#181818;stroke-width:0.5;" width="101" x="499" y="409"/><text fill="#000000" font-family="Arial" font-size="11" font-weight="bold" lengthAdjust="spacing" textLength="95" x="502" y="424.3179">Bounded Context</text></g><!--class __6_Identified_Interface_Elements--><g id="elem___6_Identified_Interface_Elements"><rect codeLine="13" fill="#FFFFFF" height="22.6489" id="__6_Identified_Interface_Elements" rx="2.5" ry="2.5" style="stroke:#181818;stroke-width:0.5;" width="165" x="7" y="409"/><text fill="#000000" font-family="Arial" font-size="11" font-weight="bold" lengthAdjust="spacing" textLength="159" x="10" y="424.3179">Identified Interface Elements</text></g><!--class __7_Aggregate--><g id="elem___7_Aggregate"><rect codeLine="14" fill="#FFFFFF" height="22.6489" id="__7_Aggregate" rx="2.5" ry="2.5" style="stroke:#181818;stroke-width:0.5;" width="64" x="207.5" y="409"/><text fill="#000000" font-family="Arial" font-size="11" font-weight="bold" lengthAdjust="spacing" textLength="58" x="210.5" y="424.3179">Aggregate</text></g><!--class __8_Layer--><g id="elem___8_Layer"><rect codeLine="15" fill="#FFFFFF" height="22.6489" id="__8_Layer" rx="2.5" ry="2.5" style="stroke:#181818;stroke-width:0.5;" width="37" x="307" y="409"/><text fill="#000000" font-family="Arial" font-size="11" font-weight="bold" lengthAdjust="spacing" textLength="31" x="310" y="424.3179">Layer</text></g><!--class __9_Link--><g id="elem___9_Link"><rect codeLine="16" fill="#FFFFFF" height="22.6489" id="__9_Link" rx="2.5" ry="2.5" style="stroke:#181818;stroke-width:0.5;" width="30" x="655.5" y="409"/><text fill="#000000" font-family="Arial" font-size="11" font-weight="bold" lengthAdjust="spacing" textLength="24" x="658.5" y="424.3179">Link</text></g><!--class __10_Entity--><g id="elem___10_Entity"><rect codeLine="17" fill="#FFFFFF" height="22.6489" id="__10_Entity" rx="2.5" ry="2.5" style="stroke:#181818;stroke-width:0.5;" width="36" x="453.5" y="263"/><text fill="#000000" font-family="Arial" font-size="11" font-weight="bold" lengthAdjust="spacing" textLength="30" x="456.5" y="278.3179">Entity</text></g><!--class __11_Value_Object--><g id="elem___11_Value_Object"><rect codeLine="18" fill="#FFFFFF" height="22.6489" id="__11_Value_Object" rx="2.5" ry="2.5" style="stroke:#181818;stroke-width:0.5;" width="75" x="525" y="263"/><text fill="#000000" font-family="Arial" font-size="11" font-weight="bold" lengthAdjust="spacing" textLength="69" x="528" y="278.3179">Value Object</text></g><!--class __12_Service--><g id="elem___12_Service"><rect codeLine="19" fill="#FFFFFF" height="22.6489" id="__12_Service" rx="2.5" ry="2.5" style="stroke:#181818;stroke-width:0.5;" width="47" x="754" y="263"/><text fill="#000000" font-family="Arial" font-size="11" font-weight="bold" lengthAdjust="spacing" textLength="41" x="757" y="278.3179">Service</text></g><!--class __13_Repository--><g id="elem___13_Repository"><rect codeLine="20" fill="#FFFFFF" height="22.6489" id="__13_Repository" rx="2.5" ry="2.5" style="stroke:#181818;stroke-width:0.5;" width="66" x="836.5" y="263"/><text fill="#000000" font-family="Arial" font-size="11" font-weight="bold" lengthAdjust="spacing" textLength="60" x="839.5" y="278.3179">Repository</text></g><!--reverse link __2_Domain_Model_Element to __3_Model_Element_Group--><g id="link___2_Domain_Model_Element___3_Model_Element_Group"><path codeLine="21" d="M573.75,137.4 C517.41,171.3 408.1,237.05 365.3,262.79 " fill="none" id="__2_Domain_Model_Element-backto-__3_Model_Element_Group" style="stroke:#181818;stroke-width:1.0;"/><polygon fill="none" points="570.22,131.36,590.97,127.04,577.44,143.35,570.22,131.36" style="stroke:#181818;stroke-width:1.0;"/></g><!--link __3_Model_Element_Group to __2_Domain_Model_Element--><g id="link___3_Model_Element_Group___2_Domain_Model_Element"><path codeLine="34" d="M353.4,262.75 C363.73,244.84 386.78,208.8 415.5,188 C457.07,157.89 512.77,139.06 553.64,128.33 " fill="none" id="__3_Model_Element_Group-to-__2_Domain_Model_Element" style="stroke:#181818;stroke-width:1.0;"/><polygon fill="#181818" points="558.55,127.06,548.8382,125.4228,553.7069,128.3029,550.8268,133.1717,558.55,127.06" style="stroke:#181818;stroke-width:1.0;"/><text fill="#000000" font-family="Arial" font-size="11" lengthAdjust="spacing" textLength="44" x="416.5" y="199.3179">members</text><text fill="#000000" font-family="Arial" font-size="11" lengthAdjust="spacing" textLength="4" x="346.8387" y="252.6585">*</text><text fill="#000000" font-family="Arial" font-size="11" lengthAdjust="spacing" textLength="4" x="528.8831" y="144.8276">*</text></g><!--reverse link __2_Domain_Model_Element to __10_Entity--><g id="link___2_Domain_Model_Element___10_Entity"><path codeLine="22" d="M585.8,142.51 C555.3,177.46 502.46,238.02 480.98,262.63 " fill="none" id="__2_Domain_Model_Element-backto-__10_Entity" style="stroke:#181818;stroke-width:1.0;"/><polygon fill="none" points="580.66,137.76,599.08,127.29,591.21,146.96,580.66,137.76" style="stroke:#181818;stroke-width:1.0;"/></g><!--reverse link __2_Domain_Model_Element to __11_Value_Object--><g id="link___2_Domain_Model_Element___11_Value_Object"><path codeLine="23" d="M599.65,146.7 C589.28,182.11 572.61,238.98 565.68,262.63 " fill="none" id="__2_Domain_Model_Element-backto-__11_Value_Object" style="stroke:#181818;stroke-width:1.0;"/><polygon fill="none" points="593,144.52,605.34,127.29,606.43,148.45,593,144.52" style="stroke:#181818;stroke-width:1.0;"/></g><!--reverse link __2_Domain_Model_Element to __12_Service--><g id="link___2_Domain_Model_Element___12_Service"><path codeLine="24" d="M660.39,134.85 C672.99,140.75 685.88,148.11 696.5,157 C733.7,188.16 761.61,240.35 772.5,262.75 " fill="none" id="__2_Domain_Model_Element-backto-__12_Service" style="stroke:#181818;stroke-width:1.0;"/><polygon fill="none" points="657.52,141.24,641.81,127.02,662.96,128.34,657.52,141.24" style="stroke:#181818;stroke-width:1.0;"/></g><!--reverse link __2_Domain_Model_Element to __13_Repository--><g id="link___2_Domain_Model_Element___13_Repository"><path codeLine="25" d="M667.43,133.31 C685.64,139.58 705.39,147.52 722.5,157 C778.62,188.08 835.42,240.31 858.62,262.74 " fill="none" id="__2_Domain_Model_Element-backto-__13_Repository" style="stroke:#181818;stroke-width:1.0;"/><polygon fill="none" points="665,139.88,648.13,127.06,669.31,126.56,665,139.88" style="stroke:#181818;stroke-width:1.0;"/></g><!--reverse link __3_Model_Element_Group to __4_Shared_Kernel--><g id="link___3_Model_Element_Group___4_Shared_Kernel"><path codeLine="26" d="M362.35,304.4 C378.93,336.65 404.89,387.18 416.07,408.94 " fill="none" id="__3_Model_Element_Group-backto-__4_Shared_Kernel" style="stroke:#181818;stroke-width:1.0;"/><polygon fill="none" points="355.98,307.31,353.06,286.32,368.43,300.91,355.98,307.31" style="stroke:#181818;stroke-width:1.0;"/></g><!--reverse link __3_Model_Element_Group to __5_Bounded_Context--><g id="link___3_Model_Element_Group___5_Bounded_Context"><path codeLine="27" d="M378.65,297.71 C422.8,329.18 501.84,385.53 534.62,408.9 " fill="none" id="__3_Model_Element_Group-backto-__5_Bounded_Context" style="stroke:#181818;stroke-width:1.0;"/><polygon fill="none" points="374.58,303.4,362.35,286.09,382.7,292,374.58,303.4" style="stroke:#181818;stroke-width:1.0;"/></g><!--reverse link __3_Model_Element_Group to __6_Identified_Interface_Elements--><g id="link___3_Model_Element_Group___6_Identified_Interface_Elements"><path codeLine="28" d="M311.05,295.85 C255.39,326.91 151.21,385.06 108.5,408.9 " fill="none" id="__3_Model_Element_Group-backto-__6_Identified_Interface_Elements" style="stroke:#181818;stroke-width:1.0;"/><polygon fill="none" points="307.65,289.72,328.53,286.09,314.48,301.95,307.65,289.72" style="stroke:#181818;stroke-width:1.0;"/></g><!--reverse link __3_Model_Element_Group to __7_Aggregate--><g id="link___3_Model_Element_Group___7_Aggregate"><path codeLine="29" d="M327.19,302.57 C303.09,334.72 264.05,386.76 247.42,408.94 " fill="none" id="__3_Model_Element_Group-backto-__7_Aggregate" style="stroke:#181818;stroke-width:1.0;"/><polygon fill="none" points="321.78,298.12,339.38,286.32,332.98,306.52,321.78,298.12" style="stroke:#181818;stroke-width:1.0;"/></g><!--reverse link __3_Model_Element_Group to __8_Layer--><g id="link___3_Model_Element_Group___8_Layer"><path codeLine="30" d="M342.8,306.26 C337.86,338.57 330.38,387.59 327.11,408.94 " fill="none" id="__3_Model_Element_Group-backto-__8_Layer" style="stroke:#181818;stroke-width:1.0;"/><polygon fill="none" points="335.91,305.04,345.85,286.32,349.75,307.15,335.91,305.04" style="stroke:#181818;stroke-width:1.0;"/></g><!--reverse link __3_Model_Element_Group to __9_Link--><g id="link___3_Model_Element_Group___9_Link"><path codeLine="31" d="M389.7,294.31 C462.49,326.77 608.39,391.81 655.48,412.8 " fill="none" id="__3_Model_Element_Group-backto-__9_Link" style="stroke:#181818;stroke-width:1.0;"/><polygon fill="none" points="386.67,300.63,371.25,286.09,392.37,287.84,386.67,300.63" style="stroke:#181818;stroke-width:1.0;"/></g><!--link __1_Domain_Model to __2_Domain_Model_Element--><g id="link___1_Domain_Model___2_Domain_Model_Element"><path codeLine="32" d="M608.5,30.03 C608.5,46.72 608.5,79.35 608.5,98.81 " fill="none" id="__1_Domain_Model-to-__2_Domain_Model_Element" style="stroke:#181818;stroke-width:1.0;"/><polygon fill="#181818" points="608.5,103.92,612.5,94.92,608.5,98.92,604.5,94.92,608.5,103.92" style="stroke:#181818;stroke-width:1.0;"/><text fill="#000000" font-family="Arial" font-size="11" lengthAdjust="spacing" textLength="43" x="609.5" y="71.3179">elements</text><text fill="#000000" font-family="Arial" font-size="11" lengthAdjust="spacing" textLength="4" x="599.4375" y="47.7852">*</text><text fill="#000000" font-family="Arial" font-size="11" lengthAdjust="spacing" textLength="4" x="598.9375" y="93.4844">*</text></g><!--link __2_Domain_Model_Element to __9_Link--><g id="link___2_Domain_Model_Element___9_Link"><path codeLine="33" d="M625.11,127.18 C643.48,140.43 670.5,164.88 670.5,194 C670.5,194 670.5,194 670.5,348 C670.5,367.07 670.5,389 670.5,403.49 " fill="none" id="__2_Domain_Model_Element-to-__9_Link" style="stroke:#181818;stroke-width:1.0;"/><polygon fill="#181818" points="670.5,408.84,674.5,399.84,670.5,403.84,666.5,399.84,670.5,408.84" style="stroke:#181818;stroke-width:1.0;"/><text fill="#000000" font-family="Arial" font-size="11" lengthAdjust="spacing" textLength="46" x="671.5" y="278.8179">links from</text><text fill="#000000" font-family="Arial" font-size="11" lengthAdjust="spacing" textLength="4" x="622.8991" y="144.9971">*</text><text fill="#000000" font-family="Arial" font-size="11" lengthAdjust="spacing" textLength="6" x="658.575" y="398.7924">1</text></g><!--link __9_Link to __2_Domain_Model_Element--><g id="link___9_Link___2_Domain_Model_Element"><path codeLine="35" d="M685.89,419.19 C747.43,417.57 972.5,407.54 972.5,348 C972.5,194 972.5,194 972.5,194 C972.5,134.83 786.17,120.66 680.14,117.38 " fill="none" id="__9_Link-to-__2_Domain_Model_Element" style="stroke:#181818;stroke-width:1.0;"/><polygon fill="#181818" points="674.84,117.22,683.7221,121.4754,679.838,117.3628,683.9506,113.4787,674.84,117.22" style="stroke:#181818;stroke-width:1.0;"/><text fill="#000000" font-family="Arial" font-size="11" lengthAdjust="spacing" textLength="33" x="973.5" y="278.8179">links to</text><text fill="#000000" font-family="Arial" font-size="11" lengthAdjust="spacing" textLength="6" x="696.5102" y="415.0818">1</text><text fill="#000000" font-family="Arial" font-size="11" lengthAdjust="spacing" textLength="4" x="685.6428" y="115.1244">*</text></g><!--SRC=[bLHPJ-Cm47xlhnZbSQL817OvLWW9kbrKSKaWBOyZDvcqtZfnPRk88duyRdpqe9NX8Khy7NFO4-ifRsTCiGOQsSfoecH3ODISUZeoVS6qlcBbTApalAtwKaW5pnDkg3VX5G4rCxE0XfeHAUsWagjIhCUeg6PpOVxArjmpc-9ISIPsyq_yZQ0eriXoMK1jAMqMWc0aHTNhCCZ-o8Rn5kvaHI83fW6nG0TY1-uIma1GGwtnXiCD0teo63SSS6stOEPzHvi6xBXWUvemHHNSa6fZPJ_HeUZG8BrQxghLzcs7z1gg-eKUHuy7-R2ooNZDhMDe2LMpaa9zsfkFSQN2g0gLwX3gSZnMD6Q6lEq48n8ajsn1ojEdsAqYnTkfPyvmkGZ4m6OsYt0S1-ZMWVt7n9pWOVIVoj1hKM27eaFZ7f9wuMKehZX43mJ-aMPISoDLp7M4AwotxsJX_3tFyxq7cBIjEafBjnfB6rPDfhLRtUvi9wgtXo-b_pn_AKTgw5B-zUbBQSCefdH-CBTl1SZWXtqWpo_0V-_Rxj-GKVovzX_APi2Y2-YIsm32lZJKzdBjGkmk-Lib-Tks2-VI-AnVzBkAZCpW0m00]--></g></svg>