<?xml version="1.0" encoding="UTF-8" standalone="no"?><svg xmlns="http://www.w3.org/2000/svg" xmlns:xlink="http://www.w3.org/1999/xlink" contentStyleType="text/css" height="753px" preserveAspectRatio="none" style="width:1942px;height:753px;background:#FFFFFF;" version="1.1" viewBox="0 0 1942 753" width="1942px" zoomAndPan="magnify"><defs/><g><!--class __1_How_can_the_consumer_interact_with_the_information_from_the_data_product_--><g id="elem___1_How_can_the_consumer_interact_with_the_information_from_the_data_product_"><rect codeLine="9" fill="#FFFFFF" height="47.9468" id="__1_How_can_the_consumer_interact_with_the_information_from_the_data_product_" rx="2.5" ry="2.5" style="stroke:#181818;stroke-width:0.5;" width="293" x="7" y="231.5"/><text fill="#000000" font-family="Arial" font-size="11" font-weight="bold" lengthAdjust="spacing" textLength="287" x="10" y="246.8179">How can the consumer interact with the information</text><text fill="#000000" font-family="Arial" font-size="11" font-weight="bold" lengthAdjust="spacing" textLength="127" x="90" y="259.4668">from the data product?</text><text fill="#000000" font-family="Arial" font-size="11" font-weight="bold" lengthAdjust="spacing" textLength="53" x="128.5" y="272.1157">: Decision</text></g><!--class __2_Attach_a_SQL_access_point_to_each_Data_Product--><g id="elem___2_Attach_a_SQL_access_point_to_each_Data_Product"><rect codeLine="10" fill="#FFFFFF" height="35.2979" id="__2_Attach_a_SQL_access_point_to_each_Data_Product" rx="2.5" ry="2.5" style="stroke:#181818;stroke-width:0.5;" width="263" x="522" y="171"/><text fill="#000000" font-family="Arial" font-size="11" font-weight="bold" lengthAdjust="spacing" textLength="257" x="525" y="186.3179">Attach a SQL access point to each Data Product</text><text fill="#000000" font-family="Arial" font-size="11" font-weight="bold" lengthAdjust="spacing" textLength="50" x="630" y="198.9668">: Practice</text></g><!--class __3_Attach_REST_APIs_to_each_data_product--><g id="elem___3_Attach_REST_APIs_to_each_data_product"><rect codeLine="11" fill="#FFFFFF" height="35.2979" id="__3_Attach_REST_APIs_to_each_data_product" rx="2.5" ry="2.5" style="stroke:#181818;stroke-width:0.5;" width="214" x="546.5" y="368"/><text fill="#000000" font-family="Arial" font-size="11" font-weight="bold" lengthAdjust="spacing" textLength="208" x="549.5" y="383.3179">Attach REST APIs to each data product</text><text fill="#000000" font-family="Arial" font-size="11" font-weight="bold" lengthAdjust="spacing" textLength="50" x="630" y="395.9668">: Practice</text></g><!--class __4_API_Invocation--><g id="elem___4_API_Invocation"><rect codeLine="12" fill="#FFFFFF" height="22.6489" id="__4_API_Invocation" rx="2.5" ry="2.5" style="stroke:#181818;stroke-width:0.5;" width="132" x="87.5" y="475"/><text fill="#000000" font-family="Arial" font-size="11" font-weight="bold" lengthAdjust="spacing" textLength="126" x="90.5" y="490.3179">API Invocation : Pattern</text></g><!--class __5_Storage_Read_API--><g id="elem___5_Storage_Read_API"><rect codeLine="13" fill="#FFFFFF" height="22.6489" id="__5_Storage_Read_API" rx="2.5" ry="2.5" style="stroke:#181818;stroke-width:0.5;" width="149" x="579" y="640"/><text fill="#000000" font-family="Arial" font-size="11" font-weight="bold" lengthAdjust="spacing" textLength="143" x="582" y="655.3179">Storage Read API : Pattern</text></g><!--class __6_Shared_Storage--><g id="elem___6_Shared_Storage"><rect codeLine="14" fill="#FFFFFF" height="22.6489" id="__6_Shared_Storage" rx="2.5" ry="2.5" style="stroke:#181818;stroke-width:0.5;" width="144" x="81.5" y="675"/><text fill="#000000" font-family="Arial" font-size="11" font-weight="bold" lengthAdjust="spacing" textLength="138" x="84.5" y="690.3179">Shared Storage : Practice</text></g><!--class __7_Cloud_Storage_API--><g id="elem___7_Cloud_Storage_API"><rect codeLine="15" fill="#FFFFFF" height="22.6489" id="__7_Cloud_Storage_API" rx="2.5" ry="2.5" style="stroke:#181818;stroke-width:0.5;" width="154" x="576.5" y="578"/><text fill="#000000" font-family="Arial" font-size="11" font-weight="bold" lengthAdjust="spacing" textLength="148" x="579.5" y="593.3179">Cloud Storage API : Pattern</text></g><!--class __8_gRPC--><g id="elem___8_gRPC"><rect codeLine="16" fill="#FFFFFF" height="22.6489" id="__8_gRPC" rx="2.5" ry="2.5" style="stroke:#181818;stroke-width:0.5;" width="88" x="609.5" y="441"/><text fill="#000000" font-family="Arial" font-size="11" font-weight="bold" lengthAdjust="spacing" textLength="82" x="612.5" y="456.3179">gRPC : Practice</text></g><!--class __9_Observation_Port--><g id="elem___9_Observation_Port"><rect codeLine="17" fill="#FFFFFF" height="22.6489" id="__9_Observation_Port" rx="2.5" ry="2.5" style="stroke:#181818;stroke-width:0.5;" width="148" x="959" y="342"/><text fill="#000000" font-family="Arial" font-size="11" font-weight="bold" lengthAdjust="spacing" textLength="142" x="962" y="357.3179">Observation Port : Pattern</text></g><!--class __10_Provide_a_single_integrated_experience_for_monitoring--><g id="elem___10_Provide_a_single_integrated_experience_for_monitoring"><rect codeLine="18" fill="#FFFFFF" height="35.2979" id="__10_Provide_a_single_integrated_experience_for_monitoring" rx="2.5" ry="2.5" style="stroke:#181818;stroke-width:0.5;" width="302" x="1281" y="336"/><text fill="#000000" font-family="Arial" font-size="11" font-weight="bold" lengthAdjust="spacing" textLength="296" x="1284" y="351.3179">Provide a single integrated experience for monitoring</text><text fill="#000000" font-family="Arial" font-size="11" font-weight="bold" lengthAdjust="spacing" textLength="50" x="1408.5" y="363.9668">: Practice</text></g><!--class __11_Discovery_Port--><g id="elem___11_Discovery_Port"><rect codeLine="19" fill="#FFFFFF" height="22.6489" id="__11_Discovery_Port" rx="2.5" ry="2.5" style="stroke:#181818;stroke-width:0.5;" width="135" x="965.5" y="409"/><text fill="#000000" font-family="Arial" font-size="11" font-weight="bold" lengthAdjust="spacing" textLength="129" x="968.5" y="424.3179">Discovery Port : Pattern</text></g><!--class __12_Data_Marketplace--><g id="elem___12_Data_Marketplace"><rect codeLine="20" fill="#FFFFFF" height="22.6489" id="__12_Data_Marketplace" rx="2.5" ry="2.5" style="stroke:#181818;stroke-width:0.5;" width="153" x="1355.5" y="409"/><text fill="#000000" font-family="Arial" font-size="11" font-weight="bold" lengthAdjust="spacing" textLength="147" x="1358.5" y="424.3179">Data Marketplace : Practice</text></g><!--class __13_Control_Port--><g id="elem___13_Control_Port"><rect codeLine="21" fill="#FFFFFF" height="22.6489" id="__13_Control_Port" rx="2.5" ry="2.5" style="stroke:#181818;stroke-width:0.5;" width="122" x="972" y="476"/><text fill="#000000" font-family="Arial" font-size="11" font-weight="bold" lengthAdjust="spacing" textLength="116" x="975" y="491.3179">Control Port : Pattern</text></g><!--class __14_Non_Functional_Components--><g id="elem___14_Non_Functional_Components"><rect codeLine="22" fill="#FFFFFF" height="22.6489" id="__14_Non_Functional_Components" rx="2.5" ry="2.5" style="stroke:#181818;stroke-width:0.5;" width="215" x="546" y="243"/><text fill="#000000" font-family="Arial" font-size="11" font-weight="bold" lengthAdjust="spacing" textLength="209" x="549" y="258.3179">Non-Functional Components : Practice</text></g><!--class __15_Implement_a_highly_available_in_memory_cache--><g id="elem___15_Implement_a_highly_available_in_memory_cache"><rect codeLine="23" fill="#FFFFFF" height="35.2979" id="__15_Implement_a_highly_available_in_memory_cache" rx="2.5" ry="2.5" style="stroke:#181818;stroke-width:0.5;" width="260" x="903" y="135"/><text fill="#000000" font-family="Arial" font-size="11" font-weight="bold" lengthAdjust="spacing" textLength="254" x="906" y="150.3179">Implement a highly available in-memory cache</text><text fill="#000000" font-family="Arial" font-size="11" font-weight="bold" lengthAdjust="spacing" textLength="50" x="1009.5" y="162.9668">: Practice</text></g><!--class __16_Security_Controls--><g id="elem___16_Security_Controls"><rect codeLine="24" fill="#FFFFFF" height="22.6489" id="__16_Security_Controls" rx="2.5" ry="2.5" style="stroke:#181818;stroke-width:0.5;" width="155" x="955.5" y="208"/><text fill="#000000" font-family="Arial" font-size="11" font-weight="bold" lengthAdjust="spacing" textLength="149" x="958.5" y="223.3179">Security Controls : Practice</text></g><!--class __17_Fine_grained_Access_Control--><g id="elem___17_Fine_grained_Access_Control"><rect codeLine="25" fill="#FFFFFF" height="22.6489" id="__17_Fine_grained_Access_Control" rx="2.5" ry="2.5" style="stroke:#181818;stroke-width:0.5;" width="216" x="1324" y="175"/><text fill="#000000" font-family="Arial" font-size="11" font-weight="bold" lengthAdjust="spacing" textLength="210" x="1327" y="190.3179">Fine-grained Access Control : Practice</text></g><!--class __18_Attribute_based_Access_Control--><g id="elem___18_Attribute_based_Access_Control"><rect codeLine="26" fill="#FFFFFF" height="22.6489" id="__18_Attribute_based_Access_Control" rx="2.5" ry="2.5" style="stroke:#181818;stroke-width:0.5;" width="234" x="1701" y="7"/><text fill="#000000" font-family="Arial" font-size="11" font-weight="bold" lengthAdjust="spacing" textLength="228" x="1704" y="22.3179">Attribute-based Access Control : Practice</text></g><!--class __19_Role_based_Access_Control--><g id="elem___19_Role_based_Access_Control"><rect codeLine="27" fill="#FFFFFF" height="22.6489" id="__19_Role_based_Access_Control" rx="2.5" ry="2.5" style="stroke:#181818;stroke-width:0.5;" width="209" x="1713.5" y="74"/><text fill="#000000" font-family="Arial" font-size="11" font-weight="bold" lengthAdjust="spacing" textLength="203" x="1716.5" y="89.3179">Role-based Access Control : Practice</text></g><!--class __20_Row_based_Access_Control--><g id="elem___20_Row_based_Access_Control"><rect codeLine="28" fill="#FFFFFF" height="22.6489" id="__20_Row_based_Access_Control" rx="2.5" ry="2.5" style="stroke:#181818;stroke-width:0.5;" width="209" x="1713.5" y="141"/><text fill="#000000" font-family="Arial" font-size="11" font-weight="bold" lengthAdjust="spacing" textLength="203" x="1716.5" y="156.3179">Row-based Access Control : Practice</text></g><!--class __21_API_Access_Control--><g id="elem___21_API_Access_Control"><rect codeLine="29" fill="#FFFFFF" height="22.6489" id="__21_API_Access_Control" rx="2.5" ry="2.5" style="stroke:#181818;stroke-width:0.5;" width="165" x="1735.5" y="208"/><text fill="#000000" font-family="Arial" font-size="11" font-weight="bold" lengthAdjust="spacing" textLength="159" x="1738.5" y="223.3179">API Access Control : Practice</text></g><!--class __22_Run_time_Environment_Access_Control--><g id="elem___22_Run_time_Environment_Access_Control"><rect codeLine="30" fill="#FFFFFF" height="35.2979" id="__22_Run_time_Environment_Access_Control" rx="2.5" ry="2.5" style="stroke:#181818;stroke-width:0.5;" width="217" x="1709.5" y="269"/><text fill="#000000" font-family="Arial" font-size="11" font-weight="bold" lengthAdjust="spacing" textLength="211" x="1712.5" y="284.3179">Run-time Environment Access Control</text><text fill="#000000" font-family="Arial" font-size="11" font-weight="bold" lengthAdjust="spacing" textLength="50" x="1794.5" y="296.9668">: Practice</text></g><!--class __23_Stream_Access_Control--><g id="elem___23_Stream_Access_Control"><rect codeLine="31" fill="#FFFFFF" height="22.6489" id="__23_Stream_Access_Control" rx="2.5" ry="2.5" style="stroke:#181818;stroke-width:0.5;" width="187" x="1724.5" y="342"/><text fill="#000000" font-family="Arial" font-size="11" font-weight="bold" lengthAdjust="spacing" textLength="181" x="1727.5" y="357.3179">Stream Access Control : Practice</text></g><!--class __24_Encryption--><g id="elem___24_Encryption"><rect codeLine="32" fill="#FFFFFF" height="22.6489" id="__24_Encryption" rx="2.5" ry="2.5" style="stroke:#181818;stroke-width:0.5;" width="117" x="1373.5" y="242"/><text fill="#000000" font-family="Arial" font-size="11" font-weight="bold" lengthAdjust="spacing" textLength="111" x="1376.5" y="257.3179">Encryption : Practice</text></g><!--class __25_Query_Catalogue--><g id="elem___25_Query_Catalogue"><rect codeLine="33" fill="#FFFFFF" height="22.6489" id="__25_Query_Catalogue" rx="2.5" ry="2.5" style="stroke:#181818;stroke-width:0.5;" width="146" x="960" y="275"/><text fill="#000000" font-family="Arial" font-size="11" font-weight="bold" lengthAdjust="spacing" textLength="140" x="963" y="290.3179">Query Catalogue : Pattern</text></g><!--link __1_How_can_the_consumer_interact_with_the_information_from_the_data_product_ to __2_Attach_a_SQL_access_point_to_each_Data_Product--><g id="link___1_How_can_the_consumer_interact_with_the_information_from_the_data_product____2_Attach_a_SQL_access_point_to_each_Data_Product"><path codeLine="34" d="M300,231.85 C310.15,230.33 320.22,228.87 330,227.5 C391.13,218.93 458.93,210.56 516.54,203.78 " fill="none" id="__1_How_can_the_consumer_interact_with_the_information_from_the_data_product_-to-__2_Attach_a_SQL_access_point_to_each_Data_Product" style="stroke:#181818;stroke-width:1.0;"/><polygon fill="#181818" points="521.72,203.17,512.3128,200.2537,516.7545,203.7567,513.2515,208.1984,521.72,203.17" style="stroke:#181818;stroke-width:1.0;"/><text fill="#000000" font-family="Arial" font-size="11" lengthAdjust="spacing" textLength="136" x="343" y="204.8179">Implement a SQL component</text><text fill="#000000" font-family="Arial" font-size="11" lengthAdjust="spacing" textLength="43" x="308.2102" y="215.4254">«Option»</text><text fill="#000000" font-family="Arial" font-size="11" lengthAdjust="spacing" textLength="39" x="310.2102" y="228.0743">{name =</text><text fill="#000000" font-family="Arial" font-size="11" lengthAdjust="spacing" textLength="4" x="509.9858" y="215.0586">}</text><text fill="#000000" font-family="Arial" font-size="11" lengthAdjust="spacing" textLength="3" x="510.4858" y="227.7076"> </text></g><!--link __1_How_can_the_consumer_interact_with_the_information_from_the_data_product_ to __3_Attach_REST_APIs_to_each_data_product--><g id="link___1_How_can_the_consumer_interact_with_the_information_from_the_data_product____3_Attach_REST_APIs_to_each_data_product"><path codeLine="35" d="M246.71,279.57 C343.02,304.71 492.08,343.62 580.21,366.63 " fill="none" id="__1_How_can_the_consumer_interact_with_the_information_from_the_data_product_-to-__3_Attach_REST_APIs_to_each_data_product" style="stroke:#181818;stroke-width:1.0;"/><polygon fill="#181818" points="585.14,367.91,577.4382,361.7714,580.3013,366.6502,575.4225,369.5134,585.14,367.91" style="stroke:#181818;stroke-width:1.0;"/><text fill="#000000" font-family="Arial" font-size="11" lengthAdjust="spacing" textLength="160" x="331" y="301.8179">Implement a REST API component</text><text fill="#000000" font-family="Arial" font-size="11" lengthAdjust="spacing" textLength="43" x="216.0684" y="297.926">«Option»</text><text fill="#000000" font-family="Arial" font-size="11" lengthAdjust="spacing" textLength="39" x="218.0684" y="310.5749">{name =</text><text fill="#000000" font-family="Arial" font-size="11" lengthAdjust="spacing" textLength="4" x="562.2308" y="345.1412">}</text><text fill="#000000" font-family="Arial" font-size="11" lengthAdjust="spacing" textLength="3" x="562.7308" y="357.7901"> </text></g><!--link __1_How_can_the_consumer_interact_with_the_information_from_the_data_product_ to __14_Non_Functional_Components--><g id="link___1_How_can_the_consumer_interact_with_the_information_from_the_data_product____14_Non_Functional_Components"><path codeLine="36" d="M300.06,258.18 C310.19,258.3 320.25,258.41 330,258.5 C402,259.11 420.01,259.39 492,258.5 C507.79,258.3 524.44,258 540.81,257.64 " fill="none" id="__1_How_can_the_consumer_interact_with_the_information_from_the_data_product_-to-__14_Non_Functional_Components" style="stroke:#181818;stroke-width:1.0;"/><polygon fill="#181818" points="545.88,257.53,536.8018,253.7108,540.881,257.63,536.9618,261.7092,545.88,257.53" style="stroke:#181818;stroke-width:1.0;"/><text fill="#000000" font-family="Arial" font-size="11" lengthAdjust="spacing" textLength="129" x="346.5" y="242.8179">Implement a Non-functional</text><text fill="#000000" font-family="Arial" font-size="11" lengthAdjust="spacing" textLength="53" x="384.5" y="255.4668">component</text><text fill="#000000" font-family="Arial" font-size="11" lengthAdjust="spacing" textLength="43" x="307.7432" y="269.1937">«Option»</text><text fill="#000000" font-family="Arial" font-size="11" lengthAdjust="spacing" textLength="39" x="309.7432" y="281.8426">{name =</text><text fill="#000000" font-family="Arial" font-size="11" lengthAdjust="spacing" textLength="4" x="533.8298" y="269.0122">}</text><text fill="#000000" font-family="Arial" font-size="11" lengthAdjust="spacing" textLength="3" x="534.3298" y="281.6611"> </text></g><!--link __3_Attach_REST_APIs_to_each_data_product to __9_Observation_Port--><g id="link___3_Attach_REST_APIs_to_each_data_product___9_Observation_Port"><path codeLine="37" d="M760.66,376.5 C822.05,371.29 897.96,364.86 953.86,360.12 " fill="none" id="__3_Attach_REST_APIs_to_each_data_product-to-__9_Observation_Port" style="stroke:#181818;stroke-width:1.0;"/><polygon fill="#181818" points="958.87,359.7,949.5689,356.4612,953.8873,360.1152,950.2333,364.4336,958.87,359.7" style="stroke:#181818;stroke-width:1.0;"/><text fill="#000000" font-family="Arial" font-size="11" lengthAdjust="spacing" textLength="52" x="816.5" y="351.8179">«Includes»</text><text fill="#000000" font-family="Arial" font-size="11" lengthAdjust="spacing" textLength="3" x="842.5" y="364.4668"> </text></g><!--link __3_Attach_REST_APIs_to_each_data_product to __11_Discovery_Port--><g id="link___3_Attach_REST_APIs_to_each_data_product___11_Discovery_Port"><path codeLine="38" d="M760.6,399.55 C778.73,401.72 797.39,403.79 815,405.5 C863.4,410.18 918.01,413.95 960.34,416.54 " fill="none" id="__3_Attach_REST_APIs_to_each_data_product-to-__11_Discovery_Port" style="stroke:#181818;stroke-width:1.0;"/><polygon fill="#181818" points="965.44,416.85,956.7095,412.2917,960.4499,416.5354,956.2062,420.2759,965.44,416.85" style="stroke:#181818;stroke-width:1.0;"/><text fill="#000000" font-family="Arial" font-size="11" lengthAdjust="spacing" textLength="52" x="816.5" y="389.8179">«Includes»</text><text fill="#000000" font-family="Arial" font-size="11" lengthAdjust="spacing" textLength="3" x="842.5" y="402.4668"> </text></g><!--link __3_Attach_REST_APIs_to_each_data_product to __13_Control_Port--><g id="link___3_Attach_REST_APIs_to_each_data_product___13_Control_Port"><path codeLine="39" d="M730.25,403.01 C748.61,408.48 767.87,415.29 785,423.5 C799.68,430.53 800.03,438.11 815,444.5 C863.47,465.17 922.32,476.04 966.5,481.67 " fill="none" id="__3_Attach_REST_APIs_to_each_data_product-to-__13_Control_Port" style="stroke:#181818;stroke-width:1.0;"/><polygon fill="#181818" points="971.54,482.3,963.0985,477.2265,966.5777,481.6868,962.1174,485.1661,971.54,482.3" style="stroke:#181818;stroke-width:1.0;"/><text fill="#000000" font-family="Arial" font-size="11" lengthAdjust="spacing" textLength="52" x="816.5" y="428.8179">«Includes»</text><text fill="#000000" font-family="Arial" font-size="11" lengthAdjust="spacing" textLength="3" x="842.5" y="441.4668"> </text></g><!--link __4_API_Invocation to __5_Storage_Read_API--><g id="link___4_API_Invocation___5_Storage_Read_API"><path codeLine="40" d="M169.99,498.24 C199.47,519.99 266.38,566.48 330,590.5 C353,599.18 491.53,623.87 579.38,639.05 " fill="none" id="__4_API_Invocation-to-__5_Storage_Read_API" style="stroke:#181818;stroke-width:1.0;"/><polygon fill="#181818" points="584.57,639.94,576.3731,634.4801,579.6415,639.0972,575.0245,642.3657,584.57,639.94" style="stroke:#181818;stroke-width:1.0;"/><text fill="#000000" font-family="Arial" font-size="11" lengthAdjust="spacing" textLength="57" x="381" y="574.8179">«Leads To»</text><text fill="#000000" font-family="Arial" font-size="11" lengthAdjust="spacing" textLength="3" x="409.5" y="587.4668"> </text></g><!--link __4_API_Invocation to __7_Cloud_Storage_API--><g id="link___4_API_Invocation___7_Cloud_Storage_API"><path codeLine="41" d="M210.18,498.01 C304.31,517.48 494.15,556.75 591.66,576.91 " fill="none" id="__4_API_Invocation-to-__7_Cloud_Storage_API" style="stroke:#181818;stroke-width:1.0;"/><polygon fill="#181818" points="596.8,577.98,588.7976,572.2387,591.9038,576.9665,587.176,580.0727,596.8,577.98" style="stroke:#181818;stroke-width:1.0;"/><text fill="#000000" font-family="Arial" font-size="11" lengthAdjust="spacing" textLength="57" x="381" y="509.8179">«Leads To»</text><text fill="#000000" font-family="Arial" font-size="11" lengthAdjust="spacing" textLength="3" x="409.5" y="522.4668"> </text></g><!--link __4_API_Invocation to __3_Attach_REST_APIs_to_each_data_product--><g id="link___4_API_Invocation___3_Attach_REST_APIs_to_each_data_product"><path codeLine="42" d="M183.19,474.92 C217.54,461.52 277.07,439.72 330,427.5 C399.3,411.5 478.48,401.07 541.04,394.61 " fill="none" id="__4_API_Invocation-to-__3_Attach_REST_APIs_to_each_data_product" style="stroke:#181818;stroke-width:1.0;"/><polygon fill="#181818" points="546.27,394.08,536.9062,391.0273,541.2965,394.5945,537.7294,398.9849,546.27,394.08" style="stroke:#181818;stroke-width:1.0;"/><text fill="#000000" font-family="Arial" font-size="11" lengthAdjust="spacing" textLength="114" x="352.5" y="384.8179">«Can be Realized With»</text><text fill="#000000" font-family="Arial" font-size="11" lengthAdjust="spacing" textLength="3" x="409.5" y="397.4668"> </text></g><!--link __4_API_Invocation to __8_gRPC--><g id="link___4_API_Invocation___8_gRPC"><path codeLine="43" d="M219.6,482.05 C320.94,475.13 514.07,461.95 604.08,455.8 " fill="none" id="__4_API_Invocation-to-__8_gRPC" style="stroke:#181818;stroke-width:1.0;"/><polygon fill="#181818" points="609.34,455.44,600.0868,452.0669,604.3518,455.783,600.6356,460.048,609.34,455.44" style="stroke:#181818;stroke-width:1.0;"/><text fill="#000000" font-family="Arial" font-size="11" lengthAdjust="spacing" textLength="114" x="352.5" y="446.8179">«Can be Realized With»</text><text fill="#000000" font-family="Arial" font-size="11" lengthAdjust="spacing" textLength="3" x="409.5" y="459.4668"> </text></g><!--link __6_Shared_Storage to __5_Storage_Read_API--><g id="link___6_Shared_Storage___5_Storage_Read_API"><path codeLine="44" d="M191.35,698.14 C253.81,716.19 384.21,746.57 492,723.5 C543.59,712.46 598.64,683.53 628.99,665.88 " fill="none" id="__6_Shared_Storage-to-__5_Storage_Read_API" style="stroke:#181818;stroke-width:1.0;"/><polygon fill="#181818" points="633.64,663.15,623.8527,664.2499,629.3263,665.6782,627.8979,671.1518,633.64,663.15" style="stroke:#181818;stroke-width:1.0;"/><text fill="#000000" font-family="Arial" font-size="11" lengthAdjust="spacing" textLength="114" x="352.5" y="707.8179">«Can be Realized With»</text><text fill="#000000" font-family="Arial" font-size="11" lengthAdjust="spacing" textLength="3" x="409.5" y="720.4668"> </text></g><!--link __6_Shared_Storage to __7_Cloud_Storage_API--><g id="link___6_Shared_Storage___7_Cloud_Storage_API"><path codeLine="45" d="M225.83,686.29 C310.82,684.99 446.99,679.26 492,656.5 C509.98,647.4 504.8,632.99 522,622.5 C536.83,613.45 554.04,606.88 571.01,602.1 " fill="none" id="__6_Shared_Storage-to-__7_Cloud_Storage_API" style="stroke:#181818;stroke-width:1.0;"/><polygon fill="#181818" points="576.26,600.68,566.5254,599.1841,571.4355,601.9932,568.6265,606.9033,576.26,600.68" style="stroke:#181818;stroke-width:1.0;"/><text fill="#000000" font-family="Arial" font-size="11" lengthAdjust="spacing" textLength="114" x="352.5" y="640.8179">«Can be Realized With»</text><text fill="#000000" font-family="Arial" font-size="11" lengthAdjust="spacing" textLength="3" x="409.5" y="653.4668"> </text></g><!--link __9_Observation_Port to __10_Provide_a_single_integrated_experience_for_monitoring--><g id="link___9_Observation_Port___10_Provide_a_single_integrated_experience_for_monitoring"><path codeLine="46" d="M1107.28,353.5 C1154.47,353.5 1217.63,353.5 1275.62,353.5 " fill="none" id="__9_Observation_Port-to-__10_Provide_a_single_integrated_experience_for_monitoring" style="stroke:#181818;stroke-width:1.0;"/><polygon fill="#181818" points="1280.86,353.5,1271.86,349.5,1275.86,353.5,1271.86,357.5,1280.86,353.5" style="stroke:#181818;stroke-width:1.0;"/><text fill="#000000" font-family="Arial" font-size="11" lengthAdjust="spacing" textLength="53" x="1194" y="337.8179">«Realizes»</text><text fill="#000000" font-family="Arial" font-size="11" lengthAdjust="spacing" textLength="3" x="1220.5" y="350.4668"> </text></g><!--link __11_Discovery_Port to __12_Data_Marketplace--><g id="link___11_Discovery_Port___12_Data_Marketplace"><path codeLine="47" d="M1100.9,420.5 C1169.63,420.5 1276.68,420.5 1350.12,420.5 " fill="none" id="__11_Discovery_Port-to-__12_Data_Marketplace" style="stroke:#181818;stroke-width:1.0;"/><polygon fill="#181818" points="1355.35,420.5,1346.35,416.5,1350.35,420.5,1346.35,424.5,1355.35,420.5" style="stroke:#181818;stroke-width:1.0;"/><text fill="#000000" font-family="Arial" font-size="11" lengthAdjust="spacing" textLength="50" x="1195.5" y="404.8179">«Enables»</text><text fill="#000000" font-family="Arial" font-size="11" lengthAdjust="spacing" textLength="3" x="1220.5" y="417.4668"> </text></g><!--link __14_Non_Functional_Components to __15_Implement_a_highly_available_in_memory_cache--><g id="link___14_Non_Functional_Components___15_Implement_a_highly_available_in_memory_cache"><path codeLine="48" d="M727.12,242.93 C746.49,238.34 767.02,232.04 785,223.5 C800.17,216.29 799.77,207.59 815,200.5 C842.53,187.68 873.63,178.2 903.52,171.23 " fill="none" id="__14_Non_Functional_Components-to-__15_Implement_a_highly_available_in_memory_cache" style="stroke:#181818;stroke-width:1.0;"/><polygon fill="#181818" points="908.7,170.04,899.0359,168.1414,903.8252,171.1518,900.8148,175.9411,908.7,170.04" style="stroke:#181818;stroke-width:1.0;"/><text fill="#000000" font-family="Arial" font-size="11" lengthAdjust="spacing" textLength="53" x="816" y="163.8179">«Can Use»</text><text fill="#000000" font-family="Arial" font-size="11" lengthAdjust="spacing" textLength="3" x="842.5" y="176.4668"> </text></g><!--link __14_Non_Functional_Components to __16_Security_Controls--><g id="link___14_Non_Functional_Components___16_Security_Controls"><path codeLine="49" d="M761.16,244.61 C821.04,239.06 894.61,232.24 949.95,227.1 " fill="none" id="__14_Non_Functional_Components-to-__16_Security_Controls" style="stroke:#181818;stroke-width:1.0;"/><polygon fill="#181818" points="955.25,226.61,945.9224,223.4485,950.2709,227.0665,946.6528,231.4151,955.25,226.61" style="stroke:#181818;stroke-width:1.0;"/><text fill="#000000" font-family="Arial" font-size="11" lengthAdjust="spacing" textLength="53" x="816" y="219.8179">«Can Use»</text><text fill="#000000" font-family="Arial" font-size="11" lengthAdjust="spacing" textLength="3" x="842.5" y="232.4668"> </text></g><!--link __14_Non_Functional_Components to __25_Query_Catalogue--><g id="link___14_Non_Functional_Components___25_Query_Catalogue"><path codeLine="50" d="M695.67,266.03 C727.85,274.43 773.88,285.07 815,289.5 C861.26,294.48 913.38,293.96 954.94,292.08 " fill="none" id="__14_Non_Functional_Components-to-__25_Query_Catalogue" style="stroke:#181818;stroke-width:1.0;"/><polygon fill="#181818" points="959.96,291.85,950.7863,288.2664,954.9652,292.079,951.1526,296.258,959.96,291.85" style="stroke:#181818;stroke-width:1.0;"/><text fill="#000000" font-family="Arial" font-size="11" lengthAdjust="spacing" textLength="53" x="816" y="273.8179">«Can Use»</text><text fill="#000000" font-family="Arial" font-size="11" lengthAdjust="spacing" textLength="3" x="842.5" y="286.4668"> </text></g><!--link __16_Security_Controls to __17_Fine_grained_Access_Control--><g id="link___16_Security_Controls___17_Fine_grained_Access_Control"><path codeLine="51" d="M1110.55,213.13 C1169.62,208.22 1252.22,201.36 1318.76,195.83 " fill="none" id="__16_Security_Controls-to-__17_Fine_grained_Access_Control" style="stroke:#181818;stroke-width:1.0;"/><polygon fill="#181818" points="1323.93,195.4,1314.6297,192.159,1318.9472,195.814,1315.2921,200.1315,1323.93,195.4" style="stroke:#181818;stroke-width:1.0;"/><text fill="#000000" font-family="Arial" font-size="11" lengthAdjust="spacing" textLength="53" x="1194" y="186.8179">«Can Use»</text><text fill="#000000" font-family="Arial" font-size="11" lengthAdjust="spacing" textLength="3" x="1220.5" y="199.4668"> </text></g><!--link __16_Security_Controls to __24_Encryption--><g id="link___16_Security_Controls___24_Encryption"><path codeLine="52" d="M1107.46,231.02 C1134.32,234.88 1164.98,238.86 1193,241.5 C1252.21,247.08 1319.98,250.17 1368.02,251.82 " fill="none" id="__16_Security_Controls-to-__24_Encryption" style="stroke:#181818;stroke-width:1.0;"/><polygon fill="#181818" points="1373.19,251.99,1364.3323,247.684,1368.1929,251.8187,1364.0582,255.6793,1373.19,251.99" style="stroke:#181818;stroke-width:1.0;"/><text fill="#000000" font-family="Arial" font-size="11" lengthAdjust="spacing" textLength="53" x="1194" y="225.8179">«Can Use»</text><text fill="#000000" font-family="Arial" font-size="11" lengthAdjust="spacing" textLength="3" x="1220.5" y="238.4668"> </text></g><!--link __17_Fine_grained_Access_Control to __18_Attribute_based_Access_Control--><g id="link___17_Fine_grained_Access_Control___18_Attribute_based_Access_Control"><path codeLine="53" d="M1450.2,174.82 C1481.48,154.01 1550.22,110.08 1613,82.5 C1663.13,60.47 1723.22,42.58 1765.14,31.37 " fill="none" id="__17_Fine_grained_Access_Control-to-__18_Attribute_based_Access_Control" style="stroke:#181818;stroke-width:1.0;"/><polygon fill="#181818" points="1770.17,30.04,1760.4438,28.4904,1765.3384,31.3265,1762.5023,36.2211,1770.17,30.04" style="stroke:#181818;stroke-width:1.0;"/><text fill="#000000" font-family="Arial" font-size="11" lengthAdjust="spacing" textLength="53" x="1614" y="45.8179">«Can Use»</text><text fill="#000000" font-family="Arial" font-size="11" lengthAdjust="spacing" textLength="3" x="1640.5" y="58.4668"> </text></g><!--link __17_Fine_grained_Access_Control to __19_Role_based_Access_Control--><g id="link___17_Fine_grained_Access_Control___19_Role_based_Access_Control"><path codeLine="54" d="M1467.26,174.89 C1503.29,162.91 1561.75,144.09 1613,130.5 C1659.63,118.12 1712.89,106.46 1753.29,98.11 " fill="none" id="__17_Fine_grained_Access_Control-to-__19_Role_based_Access_Control" style="stroke:#181818;stroke-width:1.0;"/><polygon fill="#181818" points="1758.65,97,1749.026,94.9073,1753.7538,98.0135,1750.6476,102.7413,1758.65,97" style="stroke:#181818;stroke-width:1.0;"/><text fill="#000000" font-family="Arial" font-size="11" lengthAdjust="spacing" textLength="53" x="1614" y="101.8179">«Can Use»</text><text fill="#000000" font-family="Arial" font-size="11" lengthAdjust="spacing" textLength="3" x="1640.5" y="114.4668"> </text></g><!--link __17_Fine_grained_Access_Control to __20_Row_based_Access_Control--><g id="link___17_Fine_grained_Access_Control___20_Row_based_Access_Control"><path codeLine="55" d="M1540.22,177 C1592.67,172.36 1655.69,166.78 1708.33,162.12 " fill="none" id="__17_Fine_grained_Access_Control-to-__20_Row_based_Access_Control" style="stroke:#181818;stroke-width:1.0;"/><polygon fill="#181818" points="1713.39,161.67,1704.0805,158.4555,1708.4084,162.0982,1704.7656,166.4261,1713.39,161.67" style="stroke:#181818;stroke-width:1.0;"/><text fill="#000000" font-family="Arial" font-size="11" lengthAdjust="spacing" textLength="53" x="1614" y="149.8179">«Can Use»</text><text fill="#000000" font-family="Arial" font-size="11" lengthAdjust="spacing" textLength="3" x="1640.5" y="162.4668"> </text></g><!--link __17_Fine_grained_Access_Control to __21_API_Access_Control--><g id="link___17_Fine_grained_Access_Control___21_API_Access_Control"><path codeLine="56" d="M1477.75,198.01 C1513.95,206.7 1566.38,217.88 1613,222.5 C1638.65,225.04 1645.22,222.76 1671,222.5 C1690,222.3 1710.39,221.96 1729.73,221.58 " fill="none" id="__17_Fine_grained_Access_Control-to-__21_API_Access_Control" style="stroke:#181818;stroke-width:1.0;"/><polygon fill="#181818" points="1735.15,221.48,1726.0716,217.6613,1730.151,221.5803,1726.232,225.6597,1735.15,221.48" style="stroke:#181818;stroke-width:1.0;"/><text fill="#000000" font-family="Arial" font-size="11" lengthAdjust="spacing" textLength="53" x="1614" y="206.8179">«Can Use»</text><text fill="#000000" font-family="Arial" font-size="11" lengthAdjust="spacing" textLength="3" x="1640.5" y="219.4668"> </text></g><!--link __17_Fine_grained_Access_Control to __22_Run_time_Environment_Access_Control--><g id="link___17_Fine_grained_Access_Control___22_Run_time_Environment_Access_Control"><path codeLine="57" d="M1516.06,198.02 C1538.91,203.65 1562.91,212.04 1583,224.5 C1600.41,235.3 1594.99,249.73 1613,259.5 C1640.65,274.49 1673.41,282.36 1704.49,286.24 " fill="none" id="__17_Fine_grained_Access_Control-to-__22_Run_time_Environment_Access_Control" style="stroke:#181818;stroke-width:1.0;"/><polygon fill="#181818" points="1709.47,286.83,1701.0015,281.8016,1704.5045,286.2433,1700.0628,289.7463,1709.47,286.83" style="stroke:#181818;stroke-width:1.0;"/><text fill="#000000" font-family="Arial" font-size="11" lengthAdjust="spacing" textLength="53" x="1614" y="243.8179">«Can Use»</text><text fill="#000000" font-family="Arial" font-size="11" lengthAdjust="spacing" textLength="3" x="1640.5" y="256.4668"> </text></g><!--link __17_Fine_grained_Access_Control to __23_Stream_Access_Control--><g id="link___17_Fine_grained_Access_Control___23_Stream_Access_Control"><path codeLine="58" d="M1536.41,198.11 C1553.53,203.9 1569.93,212.32 1583,224.5 C1614.15,253.53 1580.93,287.47 1613,315.5 C1641.95,340.8 1682.21,351.61 1719.32,355.61 " fill="none" id="__17_Fine_grained_Access_Control-to-__23_Stream_Access_Control" style="stroke:#181818;stroke-width:1.0;"/><polygon fill="#181818" points="1724.3,356.11,1715.7455,351.2294,1719.3251,355.6097,1714.9449,359.1893,1724.3,356.11" style="stroke:#181818;stroke-width:1.0;"/><text fill="#000000" font-family="Arial" font-size="11" lengthAdjust="spacing" textLength="53" x="1614" y="299.8179">«Can Use»</text><text fill="#000000" font-family="Arial" font-size="11" lengthAdjust="spacing" textLength="3" x="1640.5" y="312.4668"> </text></g><!--SRC=[lPRDRXit4CVlUWh2Tm6HR3SVG5kuieqAI1F5If6BW0757Kc4kQJ0vSfrWpvH7w6tF5c7tELgvLrzfpq9MlxdDyFXS3ZPezHBRddAKgEDM5YJ8dCsnqvMhGmKpx9Vk7YSMvFhP62KiUpBGZhiB6I23DEbUsOffbEqMV59I2jKdP7WZEVAtHljFd1oSMCbL-thO_adibwljYXy03DQojopGZOrAkaed3dc3BDold0iaHQ5aqPtWfPT_6gUcE2QkGK5OtIMfsYPr0uj5uuzIRS8IrBFZ4svjvpe6Mq-V4suusnfJP8Bz_D4itVi5eNCI7J1UCO0Ua1y83wG728V8XyyFopL-E3nuQF7Guc76F2DSrmi66VZJ-yP5mBfuz8GqMyI_TAjZsfKc8MWHjwN55W6rOU20Ho80GK30WES0Sy0pu2IySBpmztuCxiP3RFAOJqDRGuleqDl2jwqybFVOkLdD6H3lJ8YfCFZkADynPnUUGAi1T5ix8pbSsGFo1CVNyFm6ae9U8cdLAOBRZ5XaT3Om0zGA28WsWsKoTTcRJvVGz1KdcjEvm-ZGTFL6_3Ve-RZD4ExAl8mCjOr-6-X9W4lYQPqU2j_mpZBf9uh34KzjzpHHl6F9Lg9MY2ZilCtMb9y96ixlTuhA5bKC0KBrYnOiu1Oi6R5G6vb9imAxNFx3dezg1GR6mXb_1ktZ-YMYekMO-drYpgjYQgJeIPWZThYyXBAzGs77upktkSwj0UksC2aIwEHcacBvoiWDQpLi5P7t31TAapf2nt1WfgFUcPynQNYqt0ONUg3Xf8Yw1fWQzwleK9GvWi4L0Ww0oWG411LBQF8hQG-MswnBNggvr8L4r55VIyrTkbewOTkKT5UOZAReDVWzL3geT17PgrlM3dD7NQdF3k4-WOg4mWcMy0FHXtCV0jUlGVtT22j_ufeJpjXlXdinVH2AziIJQwxJj8BUATNqXeTAccJsDhS-q2Mu2sXPhd5oTXPf7TpRw2NK2YtOEwqiC_BsArVs5x1UZaQVCfzFnZGvLLcdcFZXlQl8KYWadI-wsFAkjsVJdW9tx6BRtz_33lvzW-RwA_QZoW_Rjvr_owBs0qk_fhGdlwJu0zyLG-AERxf_qlWkvhdGT7wHZshh2Uw6VI1kIa3QZwY8OoX5YfFC0k1d81jl6pVXxhvU6rXlXoIIkFc21JitzEVZ7qsU-rRnfdZ0CSKxO36yccOvnHD-WdxGfMsrq4nFnrW_tAcsvsXarZRihKRrgp6UF8d3cB1P-ciLYADyenkcbDL8DnfFtRK0JlkSMGTDyDKsVazm-Fyj4mq9yEQZyyML8lJ6C_EmUXetCORkiLwfySOrhx9wXpsZWdh3EoEKUiSQjlaTGxleAdh70TR9h0MvBy0]--></g></svg>