<?xml version="1.0" encoding="UTF-8" standalone="no"?><svg xmlns="http://www.w3.org/2000/svg" xmlns:xlink="http://www.w3.org/1999/xlink" contentStyleType="text/css" height="728px" preserveAspectRatio="none" style="width:1168px;height:728px;background:#FFFFFF;" version="1.1" viewBox="0 0 1168 728" width="1168px" zoomAndPan="magnify"><defs/><g><!--class __1_What_type_of_data_product_can_be_developed_--><g id="elem___1_What_type_of_data_product_can_be_developed_"><rect codeLine="9" fill="#FFFFFF" height="35.2979" id="__1_What_type_of_data_product_can_be_developed_" rx="2.5" ry="2.5" style="stroke:#181818;stroke-width:0.5;" width="253" x="7" y="422"/><text fill="#000000" font-family="Arial" font-size="11" font-weight="bold" lengthAdjust="spacing" textLength="247" x="10" y="437.3179">What type of data product can be developed?</text><text fill="#000000" font-family="Arial" font-size="11" font-weight="bold" lengthAdjust="spacing" textLength="53" x="108.5" y="449.9668">: Decision</text></g><!--class __2_Expose_Data_Product_as_Raw_Data--><g id="elem___2_Expose_Data_Product_as_Raw_Data"><rect codeLine="10" fill="#FFFFFF" height="22.6489" id="__2_Expose_Data_Product_as_Raw_Data" rx="2.5" ry="2.5" style="stroke:#181818;stroke-width:0.5;" width="239" x="493" y="429"/><text fill="#000000" font-family="Arial" font-size="11" font-weight="bold" lengthAdjust="spacing" textLength="233" x="496" y="444.3179">Expose Data Product as Raw Data : Practice</text></g><!--class __3_Source_aligned_Data_Product--><g id="elem___3_Source_aligned_Data_Product"><rect codeLine="11" fill="#FFFFFF" height="22.6489" id="__3_Source_aligned_Data_Product" rx="2.5" ry="2.5" style="stroke:#181818;stroke-width:0.5;" width="214" x="898.5" y="348"/><text fill="#000000" font-family="Arial" font-size="11" font-weight="bold" lengthAdjust="spacing" textLength="208" x="901.5" y="363.3179">Source-aligned Data Product : Practice</text></g><!--class __4_Expose_Data_Product_as_Derived_Data--><g id="elem___4_Expose_Data_Product_as_Derived_Data"><rect codeLine="12" fill="#FFFFFF" height="35.2979" id="__4_Expose_Data_Product_as_Derived_Data" rx="2.5" ry="2.5" style="stroke:#181818;stroke-width:0.5;" width="205" x="510" y="208"/><text fill="#000000" font-family="Arial" font-size="11" font-weight="bold" lengthAdjust="spacing" textLength="199" x="513" y="223.3179">Expose Data Product as Derived Data</text><text fill="#000000" font-family="Arial" font-size="11" font-weight="bold" lengthAdjust="spacing" textLength="50" x="589" y="235.9668">: Practice</text></g><!--class __5_Multiple_raw_data_sets_untransformed--><g id="elem___5_Multiple_raw_data_sets_untransformed"><rect codeLine="13" fill="#FFFFFF" height="35.2979" id="__5_Multiple_raw_data_sets_untransformed" rx="2.5" ry="2.5" style="stroke:#181818;stroke-width:0.5;" width="215" x="898" y="7"/><text fill="#000000" font-family="Arial" font-size="11" font-weight="bold" lengthAdjust="spacing" textLength="209" x="901" y="22.3179">Multiple raw data sets untransformed</text><text fill="#000000" font-family="Arial" font-size="11" font-weight="bold" lengthAdjust="spacing" textLength="50" x="982" y="34.9668">: Practice</text></g><!--class __6_Pre_transformed_data--><g id="elem___6_Pre_transformed_data"><rect codeLine="14" fill="#FFFFFF" height="22.6489" id="__6_Pre_transformed_data" rx="2.5" ry="2.5" style="stroke:#181818;stroke-width:0.5;" width="178" x="916.5" y="80"/><text fill="#000000" font-family="Arial" font-size="11" font-weight="bold" lengthAdjust="spacing" textLength="172" x="919.5" y="95.3179">Pre-transformed data : Practice</text></g><!--class __7_Low_level_aggregations--><g id="elem___7_Low_level_aggregations"><rect codeLine="15" fill="#FFFFFF" height="22.6489" id="__7_Low_level_aggregations" rx="2.5" ry="2.5" style="stroke:#181818;stroke-width:0.5;" width="189" x="911" y="147"/><text fill="#000000" font-family="Arial" font-size="11" font-weight="bold" lengthAdjust="spacing" textLength="183" x="914" y="162.3179">Low-level aggregations : Practice</text></g><!--class __8_Aggregations--><g id="elem___8_Aggregations"><rect codeLine="16" fill="#FFFFFF" height="22.6489" id="__8_Aggregations" rx="2.5" ry="2.5" style="stroke:#181818;stroke-width:0.5;" width="134" x="938.5" y="214"/><text fill="#000000" font-family="Arial" font-size="11" font-weight="bold" lengthAdjust="spacing" textLength="128" x="941.5" y="229.3179">Aggregations : Practice</text></g><!--class __9_Consumer_aligned_Data_Product--><g id="elem___9_Consumer_aligned_Data_Product"><rect codeLine="17" fill="#FFFFFF" height="22.6489" id="__9_Consumer_aligned_Data_Product" rx="2.5" ry="2.5" style="stroke:#181818;stroke-width:0.5;" width="234" x="888.5" y="482"/><text fill="#000000" font-family="Arial" font-size="11" font-weight="bold" lengthAdjust="spacing" textLength="228" x="891.5" y="497.3179">Consumer-aligned Data Product : Practice</text></g><!--class __10_Expose_Data_Product_as_an_algorithm--><g id="elem___10_Expose_Data_Product_as_an_algorithm"><rect codeLine="18" fill="#FFFFFF" height="35.2979" id="__10_Expose_Data_Product_as_an_algorithm" rx="2.5" ry="2.5" style="stroke:#181818;stroke-width:0.5;" width="206" x="509.5" y="583"/><text fill="#000000" font-family="Arial" font-size="11" font-weight="bold" lengthAdjust="spacing" textLength="200" x="512.5" y="598.3179">Expose Data Product as an algorithm</text><text fill="#000000" font-family="Arial" font-size="11" font-weight="bold" lengthAdjust="spacing" textLength="50" x="589" y="610.9668">: Practice</text></g><!--class __11_Expose_Data_Product_as_an_Optimisation_based_Decision_Support_System--><g id="elem___11_Expose_Data_Product_as_an_Optimisation_based_Decision_Support_System"><rect codeLine="19" fill="#FFFFFF" height="47.9468" id="__11_Expose_Data_Product_as_an_Optimisation_based_Decision_Support_System" rx="2.5" ry="2.5" style="stroke:#181818;stroke-width:0.5;" width="311" x="850" y="603.5"/><text fill="#000000" font-family="Arial" font-size="11" font-weight="bold" lengthAdjust="spacing" textLength="305" x="853" y="618.8179">Expose Data Product as an Optimisation-based Decision</text><text fill="#000000" font-family="Arial" font-size="11" font-weight="bold" lengthAdjust="spacing" textLength="89" x="961" y="631.4668">Support System</text><text fill="#000000" font-family="Arial" font-size="11" font-weight="bold" lengthAdjust="spacing" textLength="50" x="982" y="644.1157">: Practice</text></g><!--class __12_Expose_Data_Product_as_an_AI_ML_Model--><g id="elem___12_Expose_Data_Product_as_an_AI_ML_Model"><rect codeLine="20" fill="#FFFFFF" height="35.2979" id="__12_Expose_Data_Product_as_an_AI_ML_Model" rx="2.5" ry="2.5" style="stroke:#181818;stroke-width:0.5;" width="221" x="895" y="687"/><text fill="#000000" font-family="Arial" font-size="11" font-weight="bold" lengthAdjust="spacing" textLength="215" x="898" y="702.3179">Expose Data Product as an AI/ML Model</text><text fill="#000000" font-family="Arial" font-size="11" font-weight="bold" lengthAdjust="spacing" textLength="50" x="982" y="714.9668">: Practice</text></g><!--class __13_Expose_Data_Product_as_a_Hybrid_Product--><g id="elem___13_Expose_Data_Product_as_a_Hybrid_Product"><rect codeLine="21" fill="#FFFFFF" height="35.2979" id="__13_Expose_Data_Product_as_a_Hybrid_Product" rx="2.5" ry="2.5" style="stroke:#181818;stroke-width:0.5;" width="227" x="20" y="155"/><text fill="#000000" font-family="Arial" font-size="11" font-weight="bold" lengthAdjust="spacing" textLength="221" x="23" y="170.3179">Expose Data Product as a Hybrid Product</text><text fill="#000000" font-family="Arial" font-size="11" font-weight="bold" lengthAdjust="spacing" textLength="50" x="110" y="182.9668">: Practice</text></g><!--class __14_Expose_Data_Product_as_a_Composite_Product--><g id="elem___14_Expose_Data_Product_as_a_Composite_Product"><rect codeLine="22" fill="#FFFFFF" height="35.2979" id="__14_Expose_Data_Product_as_a_Composite_Product" rx="2.5" ry="2.5" style="stroke:#181818;stroke-width:0.5;" width="253" x="7" y="492"/><text fill="#000000" font-family="Arial" font-size="11" font-weight="bold" lengthAdjust="spacing" textLength="247" x="10" y="507.3179">Expose Data Product as a Composite Product</text><text fill="#000000" font-family="Arial" font-size="11" font-weight="bold" lengthAdjust="spacing" textLength="50" x="110" y="519.9668">: Practice</text></g><!--link __1_What_type_of_data_product_can_be_developed_ to __2_Expose_Data_Product_as_Raw_Data--><g id="link___1_What_type_of_data_product_can_be_developed____2_Expose_Data_Product_as_Raw_Data"><path codeLine="23" d="M260.1,443.01 C270.22,443.21 280.28,443.37 290,443.5 C366.88,444.49 386.12,444.28 463,443.5 C471.01,443.42 479.26,443.31 487.57,443.19 " fill="none" id="__1_What_type_of_data_product_can_be_developed_-to-__2_Expose_Data_Product_as_Raw_Data" style="stroke:#181818;stroke-width:1.0;"/><polygon fill="#181818" points="492.76,443.11,483.6928,439.2649,487.7607,443.1957,483.8299,447.2637,492.76,443.11" style="stroke:#181818;stroke-width:1.0;"/><text fill="#000000" font-family="Arial" font-size="11" lengthAdjust="spacing" textLength="133" x="310" y="427.8179">Use raw data from the data</text><text fill="#000000" font-family="Arial" font-size="11" lengthAdjust="spacing" textLength="37" x="358" y="440.4668">product</text><text fill="#000000" font-family="Arial" font-size="11" lengthAdjust="spacing" textLength="43" x="267.8137" y="454.1534">«Option»</text><text fill="#000000" font-family="Arial" font-size="11" lengthAdjust="spacing" textLength="39" x="269.8137" y="466.8023">{name =</text><text fill="#000000" font-family="Arial" font-size="11" lengthAdjust="spacing" textLength="4" x="480.961" y="454.4166">}</text><text fill="#000000" font-family="Arial" font-size="11" lengthAdjust="spacing" textLength="3" x="481.461" y="467.0656"> </text></g><!--link __1_What_type_of_data_product_can_be_developed_ to __4_Expose_Data_Product_as_Derived_Data--><g id="link___1_What_type_of_data_product_can_be_developed____4_Expose_Data_Product_as_Derived_Data"><path codeLine="24" d="M145.7,421.91 C168.36,387.92 223.24,313.52 290,278.5 C309.03,268.52 418.77,251.71 504.81,239.7 " fill="none" id="__1_What_type_of_data_product_can_be_developed_-to-__4_Expose_Data_Product_as_Derived_Data" style="stroke:#181818;stroke-width:1.0;"/><polygon fill="#181818" points="509.92,238.98,500.4568,236.2509,504.9672,239.6651,501.553,244.1755,509.92,238.98" style="stroke:#181818;stroke-width:1.0;"/><text fill="#000000" font-family="Arial" font-size="11" lengthAdjust="spacing" textLength="125" x="314" y="229.8179">Use derived data from the</text><text fill="#000000" font-family="Arial" font-size="11" lengthAdjust="spacing" textLength="61" x="346" y="242.4668">data product</text><text fill="#000000" font-family="Arial" font-size="11" lengthAdjust="spacing" textLength="43" x="96.7975" y="399.1412">«Option»</text><text fill="#000000" font-family="Arial" font-size="11" lengthAdjust="spacing" textLength="39" x="98.7975" y="411.7901">{name =</text><text fill="#000000" font-family="Arial" font-size="11" lengthAdjust="spacing" textLength="4" x="497.9131" y="251.287">}</text><text fill="#000000" font-family="Arial" font-size="11" lengthAdjust="spacing" textLength="3" x="498.4131" y="263.9359"> </text></g><!--link __1_What_type_of_data_product_can_be_developed_ to __10_Expose_Data_Product_as_an_algorithm--><g id="link___1_What_type_of_data_product_can_be_developed____10_Expose_Data_Product_as_an_algorithm"><path codeLine="25" d="M232.31,457.03 C242.37,461.58 251.87,467.31 260,474.5 C285.97,497.46 262.85,524.94 290,546.5 C349.82,594.01 435.95,606.44 504,607.56 " fill="none" id="__1_What_type_of_data_product_can_be_developed_-to-__10_Expose_Data_Product_as_an_algorithm" style="stroke:#181818;stroke-width:1.0;"/><polygon fill="#181818" points="509.28,607.63,500.3263,603.5274,504.2803,607.5729,500.2349,611.5269,509.28,607.63" style="stroke:#181818;stroke-width:1.0;"/><text fill="#000000" font-family="Arial" font-size="11" lengthAdjust="spacing" textLength="171" x="291" y="518.8179">Use algorithms to return information</text><text fill="#000000" font-family="Arial" font-size="11" lengthAdjust="spacing" textLength="10" x="371.5" y="531.4668">or</text><text fill="#000000" font-family="Arial" font-size="11" lengthAdjust="spacing" textLength="37" x="358" y="544.1157">insights</text><text fill="#000000" font-family="Arial" font-size="11" lengthAdjust="spacing" textLength="43" x="228.8791" y="468.8979">«Option»</text><text fill="#000000" font-family="Arial" font-size="11" lengthAdjust="spacing" textLength="39" x="230.8791" y="481.5468">{name =</text><text fill="#000000" font-family="Arial" font-size="11" lengthAdjust="spacing" textLength="4" x="497.5529" y="619.3894">}</text><text fill="#000000" font-family="Arial" font-size="11" lengthAdjust="spacing" textLength="3" x="498.0529" y="632.0384"> </text></g><!--link __2_Expose_Data_Product_as_Raw_Data to __3_Source_aligned_Data_Product--><g id="link___2_Expose_Data_Product_as_Raw_Data___3_Source_aligned_Data_Product"><path codeLine="26" d="M732.26,440.46 C761.19,438.73 791.9,435.43 820,429.5 C877.59,417.35 940.97,389.99 976.43,373.3 " fill="none" id="__2_Expose_Data_Product_as_Raw_Data-to-__3_Source_aligned_Data_Product" style="stroke:#181818;stroke-width:1.0;"/><polygon fill="#181818" points="981.04,371.12,971.1939,371.3538,976.5204,373.2586,974.6157,378.5851,981.04,371.12" style="stroke:#181818;stroke-width:1.0;"/><text fill="#000000" font-family="Arial" font-size="11" lengthAdjust="spacing" textLength="53" x="763" y="413.8179">«Realizes»</text><text fill="#000000" font-family="Arial" font-size="11" lengthAdjust="spacing" textLength="3" x="789.5" y="426.4668"> </text></g><!--link __2_Expose_Data_Product_as_Raw_Data to __9_Consumer_aligned_Data_Product--><g id="link___2_Expose_Data_Product_as_Raw_Data___9_Consumer_aligned_Data_Product"><path codeLine="27" d="M636.16,452.01 C664.66,465.77 715.51,488.03 762,496.5 C801.05,503.62 844.22,505.09 883.18,504.1 " fill="none" id="__2_Expose_Data_Product_as_Raw_Data-to-__9_Consumer_aligned_Data_Product" style="stroke:#181818;stroke-width:1.0;"/><polygon fill="#181818" points="888.41,503.95,879.2994,500.2087,883.412,504.0928,879.5279,508.2054,888.41,503.95" style="stroke:#181818;stroke-width:1.0;"/><text fill="#000000" font-family="Arial" font-size="11" lengthAdjust="spacing" textLength="53" x="763" y="480.8179">«Realizes»</text><text fill="#000000" font-family="Arial" font-size="11" lengthAdjust="spacing" textLength="3" x="789.5" y="493.4668"> </text></g><!--link __4_Expose_Data_Product_as_Derived_Data to __5_Multiple_raw_data_sets_untransformed--><g id="link___4_Expose_Data_Product_as_Derived_Data___5_Multiple_raw_data_sets_untransformed"><path codeLine="28" d="M631.42,207.65 C658.1,181.76 710.66,133.43 762,101.5 C798.33,78.9 809.52,76.33 850,62.5 C871.26,55.24 894.61,48.75 916.58,43.29 " fill="none" id="__4_Expose_Data_Product_as_Derived_Data-to-__5_Multiple_raw_data_sets_untransformed" style="stroke:#181818;stroke-width:1.0;"/><polygon fill="#181818" points="921.54,42.06,911.8433,40.3354,916.6859,43.2592,913.7621,48.1019,921.54,42.06" style="stroke:#181818;stroke-width:1.0;"/><text fill="#000000" font-family="Arial" font-size="11" lengthAdjust="spacing" textLength="47" x="766" y="57.8179">«Variant»</text><text fill="#000000" font-family="Arial" font-size="11" lengthAdjust="spacing" textLength="3" x="789.5" y="70.4668"> </text></g><!--link __4_Expose_Data_Product_as_Derived_Data to __6_Pre_transformed_data--><g id="link___4_Expose_Data_Product_as_Derived_Data___6_Pre_transformed_data"><path codeLine="29" d="M645.47,207.85 C675.05,192.05 720.55,169.05 762,153.5 C820.61,131.52 890.04,114.64 939.56,104.09 " fill="none" id="__4_Expose_Data_Product_as_Derived_Data-to-__6_Pre_transformed_data" style="stroke:#181818;stroke-width:1.0;"/><polygon fill="#181818" points="944.59,103.02,934.959,100.9599,939.6973,104.0501,936.6071,108.7883,944.59,103.02" style="stroke:#181818;stroke-width:1.0;"/><text fill="#000000" font-family="Arial" font-size="11" lengthAdjust="spacing" textLength="47" x="766" y="120.8179">«Variant»</text><text fill="#000000" font-family="Arial" font-size="11" lengthAdjust="spacing" textLength="3" x="789.5" y="133.4668"> </text></g><!--link __4_Expose_Data_Product_as_Derived_Data to __7_Low_level_aggregations--><g id="link___4_Expose_Data_Product_as_Derived_Data___7_Low_level_aggregations"><path codeLine="30" d="M704.53,207.94 C723.5,204.39 743.39,200.75 762,197.5 C816.11,188.05 877.16,178.24 924.47,170.82 " fill="none" id="__4_Expose_Data_Product_as_Derived_Data-to-__7_Low_level_aggregations" style="stroke:#181818;stroke-width:1.0;"/><polygon fill="#181818" points="929.58,170.02,920.0708,167.4557,924.6398,170.791,921.3045,175.36,929.58,170.02" style="stroke:#181818;stroke-width:1.0;"/><text fill="#000000" font-family="Arial" font-size="11" lengthAdjust="spacing" textLength="47" x="766" y="172.8179">«Variant»</text><text fill="#000000" font-family="Arial" font-size="11" lengthAdjust="spacing" textLength="3" x="789.5" y="185.4668"> </text></g><!--link __4_Expose_Data_Product_as_Derived_Data to __8_Aggregations--><g id="link___4_Expose_Data_Product_as_Derived_Data___8_Aggregations"><path codeLine="31" d="M715.35,227.83 C730.97,228.11 746.92,228.35 762,228.5 C819.58,229.08 884.85,228.19 933.16,227.22 " fill="none" id="__4_Expose_Data_Product_as_Derived_Data-to-__8_Aggregations" style="stroke:#181818;stroke-width:1.0;"/><polygon fill="#181818" points="938.37,227.12,929.2918,223.3008,933.371,227.22,929.4518,231.2992,938.37,227.12" style="stroke:#181818;stroke-width:1.0;"/><text fill="#000000" font-family="Arial" font-size="11" lengthAdjust="spacing" textLength="47" x="766" y="212.8179">«Variant»</text><text fill="#000000" font-family="Arial" font-size="11" lengthAdjust="spacing" textLength="3" x="789.5" y="225.4668"> </text></g><!--link __4_Expose_Data_Product_as_Derived_Data to __3_Source_aligned_Data_Product--><g id="link___4_Expose_Data_Product_as_Derived_Data___3_Source_aligned_Data_Product"><path codeLine="32" d="M664.62,243.02 C743.96,270.21 894.99,321.97 965.91,346.27 " fill="none" id="__4_Expose_Data_Product_as_Derived_Data-to-__3_Source_aligned_Data_Product" style="stroke:#181818;stroke-width:1.0;"/><polygon fill="#181818" points="970.88,347.98,963.655,341.2868,966.1481,346.3646,961.0703,348.8578,970.88,347.98" style="stroke:#181818;stroke-width:1.0;"/><text fill="#000000" font-family="Arial" font-size="11" lengthAdjust="spacing" textLength="53" x="763" y="260.8179">«Realizes»</text><text fill="#000000" font-family="Arial" font-size="11" lengthAdjust="spacing" textLength="3" x="789.5" y="273.4668"> </text></g><!--link __4_Expose_Data_Product_as_Derived_Data to __9_Consumer_aligned_Data_Product--><g id="link___4_Expose_Data_Product_as_Derived_Data___9_Consumer_aligned_Data_Product"><path codeLine="33" d="M639.01,243.16 C682.32,273.13 773.05,335.83 850,388.5 C897.45,420.97 953.27,458.82 983.12,479.03 " fill="none" id="__4_Expose_Data_Product_as_Derived_Data-to-__9_Consumer_aligned_Data_Product" style="stroke:#181818;stroke-width:1.0;"/><polygon fill="#181818" points="987.33,481.88,982.1132,473.5263,983.1874,479.0802,977.6335,480.1544,987.33,481.88" style="stroke:#181818;stroke-width:1.0;"/><text fill="#000000" font-family="Arial" font-size="11" lengthAdjust="spacing" textLength="53" x="763" y="313.8179">«Realizes»</text><text fill="#000000" font-family="Arial" font-size="11" lengthAdjust="spacing" textLength="3" x="789.5" y="326.4668"> </text></g><!--link __10_Expose_Data_Product_as_an_algorithm to __11_Expose_Data_Product_as_an_Optimisation_based_Decision_Support_System--><g id="link___10_Expose_Data_Product_as_an_algorithm___11_Expose_Data_Product_as_an_Optimisation_based_Decision_Support_System"><path codeLine="34" d="M685.57,618.06 C709.71,623.14 736.88,627.99 762,630.5 C788.62,633.16 816.97,634.32 844.54,634.55 " fill="none" id="__10_Expose_Data_Product_as_an_algorithm-to-__11_Expose_Data_Product_as_an_Optimisation_based_Decision_Support_System" style="stroke:#181818;stroke-width:1.0;"/><polygon fill="#181818" points="849.68,634.58,840.7146,630.503,844.6802,634.5371,840.646,638.5027,849.68,634.58" style="stroke:#181818;stroke-width:1.0;"/><text fill="#000000" font-family="Arial" font-size="11" lengthAdjust="spacing" textLength="47" x="766" y="614.8179">«Variant»</text><text fill="#000000" font-family="Arial" font-size="11" lengthAdjust="spacing" textLength="3" x="789.5" y="627.4668"> </text></g><!--link __10_Expose_Data_Product_as_an_algorithm to __12_Expose_Data_Product_as_an_AI_ML_Model--><g id="link___10_Expose_Data_Product_as_an_algorithm___12_Expose_Data_Product_as_an_AI_ML_Model"><path codeLine="35" d="M644.93,618.06 C674.31,633.71 719.86,656 762,668.5 C802.88,680.63 848.9,688.78 889.77,694.2 " fill="none" id="__10_Expose_Data_Product_as_an_algorithm-to-__12_Expose_Data_Product_as_an_AI_ML_Model" style="stroke:#181818;stroke-width:1.0;"/><polygon fill="#181818" points="894.73,694.85,886.3192,689.7258,889.7715,694.207,885.2903,697.6593,894.73,694.85" style="stroke:#181818;stroke-width:1.0;"/><text fill="#000000" font-family="Arial" font-size="11" lengthAdjust="spacing" textLength="47" x="766" y="652.8179">«Variant»</text><text fill="#000000" font-family="Arial" font-size="11" lengthAdjust="spacing" textLength="3" x="789.5" y="665.4668"> </text></g><!--link __10_Expose_Data_Product_as_an_algorithm to __9_Consumer_aligned_Data_Product--><g id="link___10_Expose_Data_Product_as_an_algorithm___9_Consumer_aligned_Data_Product"><path codeLine="36" d="M677.63,582.95 C756.23,561.44 887.56,525.5 957.43,506.38 " fill="none" id="__10_Expose_Data_Product_as_an_algorithm-to-__9_Consumer_aligned_Data_Product" style="stroke:#181818;stroke-width:1.0;"/><polygon fill="#181818" points="962.35,505.04,952.6102,503.5783,957.5302,506.3701,954.7384,511.2901,962.35,505.04" style="stroke:#181818;stroke-width:1.0;"/><text fill="#000000" font-family="Arial" font-size="11" lengthAdjust="spacing" textLength="53" x="763" y="530.8179">«Realizes»</text><text fill="#000000" font-family="Arial" font-size="11" lengthAdjust="spacing" textLength="3" x="789.5" y="543.4668"> </text></g><!--link __13_Expose_Data_Product_as_a_Hybrid_Product to __2_Expose_Data_Product_as_Raw_Data--><g id="link___13_Expose_Data_Product_as_a_Hybrid_Product___2_Expose_Data_Product_as_Raw_Data"><path codeLine="37" d="M247.06,181.01 C334.84,188.45 444.84,199.86 463,211.5 C484.5,225.28 479.31,238.94 493,260.5 C531.81,321.61 579.64,393.17 600.69,424.47 " fill="none" id="__13_Expose_Data_Product_as_a_Hybrid_Product-to-__2_Expose_Data_Product_as_Raw_Data" style="stroke:#181818;stroke-width:1.0;"/><polygon fill="#181818" points="603.6,428.79,601.8974,419.0894,600.81,424.6408,595.2587,423.5534,603.6,428.79" style="stroke:#181818;stroke-width:1.0;"/><text fill="#000000" font-family="Arial" font-size="11" lengthAdjust="spacing" textLength="53" x="348.5" y="169.8179">«Can Use»</text><text fill="#000000" font-family="Arial" font-size="11" lengthAdjust="spacing" textLength="3" x="375" y="182.4668"> </text></g><!--link __13_Expose_Data_Product_as_a_Hybrid_Product to __4_Expose_Data_Product_as_Derived_Data--><g id="link___13_Expose_Data_Product_as_a_Hybrid_Product___4_Expose_Data_Product_as_Derived_Data"><path codeLine="38" d="M197.27,154.97 C264.14,139.1 372.59,121.45 463,144.5 C508.38,156.07 554.85,184.66 583.44,204.57 " fill="none" id="__13_Expose_Data_Product_as_a_Hybrid_Product-to-__4_Expose_Data_Product_as_Derived_Data" style="stroke:#181818;stroke-width:1.0;"/><polygon fill="#181818" points="587.87,207.69,582.8263,199.2306,583.786,204.8055,578.2111,205.7651,587.87,207.69" style="stroke:#181818;stroke-width:1.0;"/><text fill="#000000" font-family="Arial" font-size="11" lengthAdjust="spacing" textLength="53" x="348.5" y="117.8179">«Can Use»</text><text fill="#000000" font-family="Arial" font-size="11" lengthAdjust="spacing" textLength="3" x="375" y="130.4668"> </text></g><!--link __13_Expose_Data_Product_as_a_Hybrid_Product to __10_Expose_Data_Product_as_an_algorithm--><g id="link___13_Expose_Data_Product_as_a_Hybrid_Product___10_Expose_Data_Product_as_an_algorithm"><path codeLine="39" d="M142.15,190.25 C160.8,231.22 212.83,332.56 290,380.5 C356.42,421.76 400.03,366.14 463,412.5 C486.05,429.47 476.6,446.03 493,469.5 C522.3,511.43 563.72,554.33 589.04,579.14 " fill="none" id="__13_Expose_Data_Product_as_a_Hybrid_Product-to-__10_Expose_Data_Product_as_an_algorithm" style="stroke:#181818;stroke-width:1.0;"/><polygon fill="#181818" points="592.65,582.67,588.9848,573.5285,589.0648,579.1848,583.4085,579.2648,592.65,582.67" style="stroke:#181818;stroke-width:1.0;"/><text fill="#000000" font-family="Arial" font-size="11" lengthAdjust="spacing" textLength="53" x="348.5" y="364.8179">«Can Use»</text><text fill="#000000" font-family="Arial" font-size="11" lengthAdjust="spacing" textLength="3" x="375" y="377.4668"> </text></g><!--link __14_Expose_Data_Product_as_a_Composite_Product to __2_Expose_Data_Product_as_Raw_Data--><g id="link___14_Expose_Data_Product_as_a_Composite_Product___2_Expose_Data_Product_as_Raw_Data"><path codeLine="40" d="M260.29,502.26 C321.73,497.55 396.55,490.06 463,478.5 C498.94,472.25 538.96,461.8 568.4,453.43 " fill="none" id="__14_Expose_Data_Product_as_a_Composite_Product-to-__2_Expose_Data_Product_as_Raw_Data" style="stroke:#181818;stroke-width:1.0;"/><polygon fill="#181818" points="573.4,452.01,563.6474,450.6364,568.5924,453.3836,565.8452,458.3286,573.4,452.01" style="stroke:#181818;stroke-width:1.0;"/><text fill="#000000" font-family="Arial" font-size="11" lengthAdjust="spacing" textLength="53" x="348.5" y="462.8179">«Can Use»</text><text fill="#000000" font-family="Arial" font-size="11" lengthAdjust="spacing" textLength="3" x="375" y="475.4668"> </text></g><!--link __14_Expose_Data_Product_as_a_Composite_Product to __4_Expose_Data_Product_as_Derived_Data--><g id="link___14_Expose_Data_Product_as_a_Composite_Product___4_Expose_Data_Product_as_Derived_Data"><path codeLine="41" d="M236.29,491.88 C245.08,487.31 253.2,481.61 260,474.5 C300.71,431.98 247.44,386.16 290,345.5 C346.54,291.48 389.79,340.97 463,313.5 C507.93,296.64 554.75,266.45 583.52,246.19 " fill="none" id="__14_Expose_Data_Product_as_a_Composite_Product-to-__4_Expose_Data_Product_as_Derived_Data" style="stroke:#181818;stroke-width:1.0;"/><polygon fill="#181818" points="587.63,243.28,577.9711,245.2049,583.546,246.1645,582.5863,251.7394,587.63,243.28" style="stroke:#181818;stroke-width:1.0;"/><text fill="#000000" font-family="Arial" font-size="11" lengthAdjust="spacing" textLength="53" x="348.5" y="297.8179">«Can Use»</text><text fill="#000000" font-family="Arial" font-size="11" lengthAdjust="spacing" textLength="3" x="375" y="310.4668"> </text></g><!--link __14_Expose_Data_Product_as_a_Composite_Product to __10_Expose_Data_Product_as_an_algorithm--><g id="link___14_Expose_Data_Product_as_a_Composite_Product___10_Expose_Data_Product_as_an_algorithm"><path codeLine="42" d="M146.01,527.01 C168.83,559.9 223.38,629.99 290,656.5 C386.97,695.08 510.84,649.15 572.7,620.35 " fill="none" id="__14_Expose_Data_Product_as_a_Composite_Product-to-__10_Expose_Data_Product_as_an_algorithm" style="stroke:#181818;stroke-width:1.0;"/><polygon fill="#181818" points="577.41,618.13,567.5633,618.3384,572.8849,620.2569,570.9664,625.5785,577.41,618.13" style="stroke:#181818;stroke-width:1.0;"/><text fill="#000000" font-family="Arial" font-size="11" lengthAdjust="spacing" textLength="53" x="348.5" y="640.8179">«Can Use»</text><text fill="#000000" font-family="Arial" font-size="11" lengthAdjust="spacing" textLength="3" x="375" y="653.4668"> </text></g><!--SRC=[hLRRRjD047tFLupo7a7QSgi4AAGWAZLGDOA-M1fjx8cpghrhxQvR0kAB-0JU-cMirtRa42VnfM_9pimv9pExSwBlk4YOOZ74KaX_fMHCO5HA0xs9J2EczGVctuLAfYAOoaWgk5rnGuCL3mWeJimQOeeNf7H-v7FbHrMCW9OiZSmdASmNPYacYhEeFZxdFmd6uqhGpmGiRKYRTKIma54mY6Xfm4XGF5mP2BWYtt0f1YuNXhShPiFhX40k8M26GQ9aaFe6V2PWGPRmdYAPKF3U4t0E5-HpRUk7m3GWZZ43m0m0vH8p02m0q0BWWd03W2Ndnn-9r0GN6TjrmMRHRjX3VdPkJvbLwLF1Se9v2MPXB4gGQRGbxgn4dijK-JHY4Gy51TiCEwYdcATZaRw5VaJh1Ib-Np2ullo7VRPFSL6ufNfc1yeJEp1bE-1ceCbeI8LHJDXvgfY2Ef8NM5QYhSoRdrNYLcN9SgreL3dEYNOmNrgnX9Ky1rjYNCc7KPJD4rWOAWfPTfNqBiehj9deCh6QMU9C3bQ_nabDpTH-JcDI3QVx1ik2BlErTvz5eLJShEAwre-VxnkmlVIRokCaNnF3OwxTBnqjcCv-Ll72F35FaqGg0_ErDbGlOtn0HXKR7JQMs5X0OmvzNEVayjdi2cOoeAXMnya17PDBd5sXgpr619_N2yM3ygoMwdGl5URLJKSCKndRY5tF1_dEzlDj03QKBJSYZ4RlckotSnW-_idcASNZN_34Bv5vmriOVjELhR6qfWHcHUwR9mhMuM_FRkkEoXhjiOFgWc9JRYdqHDLgUYbizX8FIjnaQMUKP58bW8ji_xd7umcfFC65pYnKRzGUdLgXyA3FE64tP4C_IJjfhR2FRBazw8scMZ0qCnb7z9tPFol2TEEfDvx-kFkig3_ojatrn-joJzhWTxihpTvN-HYVne_gUzbEIKD7UWAgZdrjx6EjJ69gpThkj1uypLT-VwuMotkNh8qnz-nX1we-RUn0rxcJ_m00]--></g></svg>