<?xml version="1.0" encoding="UTF-8" standalone="no"?><svg xmlns="http://www.w3.org/2000/svg" xmlns:xlink="http://www.w3.org/1999/xlink" contentStyleType="text/css" height="438px" preserveAspectRatio="none" style="width:1443px;height:438px;background:#FFFFFF;" version="1.1" viewBox="0 0 1443 438" width="1443px" zoomAndPan="magnify"><defs/><g><!--class __1_What_type_of_data_product_can_be_developed_--><g id="elem___1_What_type_of_data_product_can_be_developed_"><rect codeLine="8" fill="#FFFFFF" height="35.2979" id="__1_What_type_of_data_product_can_be_developed_" rx="2.5" ry="2.5" style="stroke:#181818;stroke-width:0.5;" width="253" x="268" y="7"/><text fill="#000000" font-family="Arial" font-size="11" font-weight="bold" lengthAdjust="spacing" textLength="247" x="271" y="22.3179">What type of data product can be developed?</text><text fill="#000000" font-family="Arial" font-size="11" font-weight="bold" lengthAdjust="spacing" textLength="53" x="369.5" y="34.9668">: Decision</text></g><!--class __2_Source_aligned_Data_Product--><g id="elem___2_Source_aligned_Data_Product"><rect codeLine="9" fill="#FFFFFF" height="22.6489" id="__2_Source_aligned_Data_Product" rx="2.5" ry="2.5" style="stroke:#181818;stroke-width:0.5;" width="214" x="287.5" y="147"/><text fill="#000000" font-family="Arial" font-size="11" font-weight="bold" lengthAdjust="spacing" textLength="208" x="290.5" y="162.3179">Source-aligned Data Product : Practice</text></g><!--class __3_Expose_Data_Product_as_Derived_Data--><g id="elem___3_Expose_Data_Product_as_Derived_Data"><rect codeLine="10" fill="#FFFFFF" height="35.2979" id="__3_Expose_Data_Product_as_Derived_Data" rx="2.5" ry="2.5" style="stroke:#181818;stroke-width:0.5;" width="205" x="244" y="263"/><text fill="#000000" font-family="Arial" font-size="11" font-weight="bold" lengthAdjust="spacing" textLength="199" x="247" y="278.3179">Expose Data Product as Derived Data</text><text fill="#000000" font-family="Arial" font-size="11" font-weight="bold" lengthAdjust="spacing" textLength="50" x="323" y="290.9668">: Practice</text></g><!--class __4_Multiple_raw_data_sets_untransformed--><g id="elem___4_Multiple_raw_data_sets_untransformed"><rect codeLine="11" fill="#FFFFFF" height="35.2979" id="__4_Multiple_raw_data_sets_untransformed" rx="2.5" ry="2.5" style="stroke:#181818;stroke-width:0.5;" width="215" x="7" y="391.5"/><text fill="#000000" font-family="Arial" font-size="11" font-weight="bold" lengthAdjust="spacing" textLength="209" x="10" y="406.8179">Multiple raw data sets untransformed</text><text fill="#000000" font-family="Arial" font-size="11" font-weight="bold" lengthAdjust="spacing" textLength="50" x="91" y="419.4668">: Practice</text></g><!--class __5_Pre_transformed_data--><g id="elem___5_Pre_transformed_data"><rect codeLine="12" fill="#FFFFFF" height="22.6489" id="__5_Pre_transformed_data" rx="2.5" ry="2.5" style="stroke:#181818;stroke-width:0.5;" width="178" x="257.5" y="397.5"/><text fill="#000000" font-family="Arial" font-size="11" font-weight="bold" lengthAdjust="spacing" textLength="172" x="260.5" y="412.8179">Pre-transformed data : Practice</text></g><!--class __6_Low_level_events--><g id="elem___6_Low_level_events"><rect codeLine="13" fill="#FFFFFF" height="22.6489" id="__6_Low_level_events" rx="2.5" ry="2.5" style="stroke:#181818;stroke-width:0.5;" width="154" x="470.5" y="397.5"/><text fill="#000000" font-family="Arial" font-size="11" font-weight="bold" lengthAdjust="spacing" textLength="148" x="473.5" y="412.8179">Low-level events : Practice</text></g><!--class __7_Aggregations--><g id="elem___7_Aggregations"><rect codeLine="14" fill="#FFFFFF" height="22.6489" id="__7_Aggregations" rx="2.5" ry="2.5" style="stroke:#181818;stroke-width:0.5;" width="134" x="118.5" y="147"/><text fill="#000000" font-family="Arial" font-size="11" font-weight="bold" lengthAdjust="spacing" textLength="128" x="121.5" y="162.3179">Aggregations : Practice</text></g><!--class __8_Expose_Data_Product_as_Raw_Data--><g id="elem___8_Expose_Data_Product_as_Raw_Data"><rect codeLine="15" fill="#FFFFFF" height="22.6489" id="__8_Expose_Data_Product_as_Raw_Data" rx="2.5" ry="2.5" style="stroke:#181818;stroke-width:0.5;" width="239" x="619" y="269"/><text fill="#000000" font-family="Arial" font-size="11" font-weight="bold" lengthAdjust="spacing" textLength="233" x="622" y="284.3179">Expose Data Product as Raw Data : Practice</text></g><!--class __9_Consumer_aligned_Data_Product--><g id="elem___9_Consumer_aligned_Data_Product"><rect codeLine="16" fill="#FFFFFF" height="22.6489" id="__9_Consumer_aligned_Data_Product" rx="2.5" ry="2.5" style="stroke:#181818;stroke-width:0.5;" width="234" x="536.5" y="147"/><text fill="#000000" font-family="Arial" font-size="11" font-weight="bold" lengthAdjust="spacing" textLength="228" x="539.5" y="162.3179">Consumer-aligned Data Product : Practice</text></g><!--class __10_Expose_Data_Product_as_an_algorithm--><g id="elem___10_Expose_Data_Product_as_an_algorithm"><rect codeLine="17" fill="#FFFFFF" height="35.2979" id="__10_Expose_Data_Product_as_an_algorithm" rx="2.5" ry="2.5" style="stroke:#181818;stroke-width:0.5;" width="206" x="1027.5" y="263"/><text fill="#000000" font-family="Arial" font-size="11" font-weight="bold" lengthAdjust="spacing" textLength="200" x="1030.5" y="278.3179">Expose Data Product as an algorithm</text><text fill="#000000" font-family="Arial" font-size="11" font-weight="bold" lengthAdjust="spacing" textLength="50" x="1107" y="290.9668">: Practice</text></g><!--class __11_Expose_Data_Product_as_an_Optimisation_based_Decision_Support_System--><g id="elem___11_Expose_Data_Product_as_an_Optimisation_based_Decision_Support_System"><rect codeLine="18" fill="#FFFFFF" height="47.9468" id="__11_Expose_Data_Product_as_an_Optimisation_based_Decision_Support_System" rx="2.5" ry="2.5" style="stroke:#181818;stroke-width:0.5;" width="311" x="1125" y="385"/><text fill="#000000" font-family="Arial" font-size="11" font-weight="bold" lengthAdjust="spacing" textLength="305" x="1128" y="400.3179">Expose Data Product as an Optimisation-based Decision</text><text fill="#000000" font-family="Arial" font-size="11" font-weight="bold" lengthAdjust="spacing" textLength="89" x="1236" y="412.9668">Support System</text><text fill="#000000" font-family="Arial" font-size="11" font-weight="bold" lengthAdjust="spacing" textLength="50" x="1257" y="425.6157">: Practice</text></g><!--class __12_Expose_Data_Product_as_an_AI_ML_Model--><g id="elem___12_Expose_Data_Product_as_an_AI_ML_Model"><rect codeLine="19" fill="#FFFFFF" height="35.2979" id="__12_Expose_Data_Product_as_an_AI_ML_Model" rx="2.5" ry="2.5" style="stroke:#181818;stroke-width:0.5;" width="221" x="869" y="391.5"/><text fill="#000000" font-family="Arial" font-size="11" font-weight="bold" lengthAdjust="spacing" textLength="215" x="872" y="406.8179">Expose Data Product as an AI/ML Model</text><text fill="#000000" font-family="Arial" font-size="11" font-weight="bold" lengthAdjust="spacing" textLength="50" x="956" y="419.4668">: Practice</text></g><!--class __13_Expose_Data_Product_as_a_Hybrid_Product--><g id="elem___13_Expose_Data_Product_as_a_Hybrid_Product"><rect codeLine="20" fill="#FFFFFF" height="35.2979" id="__13_Expose_Data_Product_as_a_Hybrid_Product" rx="2.5" ry="2.5" style="stroke:#181818;stroke-width:0.5;" width="227" x="806" y="141"/><text fill="#000000" font-family="Arial" font-size="11" font-weight="bold" lengthAdjust="spacing" textLength="221" x="809" y="156.3179">Expose Data Product as a Hybrid Product</text><text fill="#000000" font-family="Arial" font-size="11" font-weight="bold" lengthAdjust="spacing" textLength="50" x="896" y="168.9668">: Practice</text></g><!--class __14_Expose_Data_Product_as_a_Composite_Product--><g id="elem___14_Expose_Data_Product_as_a_Composite_Product"><rect codeLine="21" fill="#FFFFFF" height="35.2979" id="__14_Expose_Data_Product_as_a_Composite_Product" rx="2.5" ry="2.5" style="stroke:#181818;stroke-width:0.5;" width="253" x="1102" y="141"/><text fill="#000000" font-family="Arial" font-size="11" font-weight="bold" lengthAdjust="spacing" textLength="247" x="1105" y="156.3179">Expose Data Product as a Composite Product</text><text fill="#000000" font-family="Arial" font-size="11" font-weight="bold" lengthAdjust="spacing" textLength="50" x="1205" y="168.9668">: Practice</text></g><!--link __1_What_type_of_data_product_can_be_developed_ to __2_Source_aligned_Data_Product--><g id="link___1_What_type_of_data_product_can_be_developed____2_Source_aligned_Data_Product"><path codeLine="22" d="M394.5,42.22 C394.5,67.76 394.5,116.17 394.5,141.36 " fill="none" id="__1_What_type_of_data_product_can_be_developed_-to-__2_Source_aligned_Data_Product" style="stroke:#181818;stroke-width:1.0;"/><polygon fill="#181818" points="394.5,146.66,398.5,137.66,394.5,141.66,390.5,137.66,394.5,146.66" style="stroke:#181818;stroke-width:1.0;"/><text fill="#000000" font-family="Arial" font-size="11" lengthAdjust="spacing" textLength="147" x="395.5" y="83.3179">Generate a data product close</text><text fill="#000000" font-family="Arial" font-size="11" lengthAdjust="spacing" textLength="83" x="427.5" y="95.9668">to the operational</text><text fill="#000000" font-family="Arial" font-size="11" lengthAdjust="spacing" textLength="45" x="446.5" y="108.6157">database</text><text fill="#000000" font-family="Arial" font-size="11" lengthAdjust="spacing" textLength="43" x="342.3188" y="60.6595">«Option»</text><text fill="#000000" font-family="Arial" font-size="11" lengthAdjust="spacing" textLength="39" x="344.3188" y="73.3084">{name =</text><text fill="#000000" font-family="Arial" font-size="11" lengthAdjust="spacing" textLength="4" x="389.8375" y="124.0227">}</text><text fill="#000000" font-family="Arial" font-size="11" lengthAdjust="spacing" textLength="3" x="390.3375" y="136.6717"> </text></g><!--link __1_What_type_of_data_product_can_be_developed_ to __7_Aggregations--><g id="link___1_What_type_of_data_product_can_be_developed____7_Aggregations"><path codeLine="23" d="M301.91,42.01 C280.34,48.84 258.45,58.46 240.5,72 C216.29,90.26 199.8,122.53 191.57,141.78 " fill="none" id="__1_What_type_of_data_product_can_be_developed_-to-__7_Aggregations" style="stroke:#181818;stroke-width:1.0;"/><polygon fill="#181818" points="189.47,146.84,196.606,140.052,191.3809,142.2196,189.2133,136.9945,189.47,146.84" style="stroke:#181818;stroke-width:1.0;"/><text fill="#000000" font-family="Arial" font-size="11" lengthAdjust="spacing" textLength="144" x="241.5" y="89.3179">Aggregate data from different</text><text fill="#000000" font-family="Arial" font-size="11" lengthAdjust="spacing" textLength="67" x="280" y="101.9668">data products</text><text fill="#000000" font-family="Arial" font-size="11" lengthAdjust="spacing" textLength="43" x="223.4003" y="60.7682">«Option»</text><text fill="#000000" font-family="Arial" font-size="11" lengthAdjust="spacing" textLength="39" x="225.4003" y="73.4171">{name =</text><text fill="#000000" font-family="Arial" font-size="11" lengthAdjust="spacing" textLength="4" x="186.1472" y="123.9644">}</text><text fill="#000000" font-family="Arial" font-size="11" lengthAdjust="spacing" textLength="3" x="186.6472" y="136.6133"> </text></g><!--link __1_What_type_of_data_product_can_be_developed_ to __9_Consumer_aligned_Data_Product--><g id="link___1_What_type_of_data_product_can_be_developed____9_Consumer_aligned_Data_Product"><path codeLine="24" d="M473.25,42.05 C499.08,49.22 527.33,59.02 551.5,72 C587.08,91.11 621.62,123.98 639.96,142.91 " fill="none" id="__1_What_type_of_data_product_can_be_developed_-to-__9_Consumer_aligned_Data_Product" style="stroke:#181818;stroke-width:1.0;"/><polygon fill="#181818" points="643.83,146.96,640.4996,137.6913,640.3739,143.3468,634.7184,143.2211,643.83,146.96" style="stroke:#181818;stroke-width:1.0;"/><text fill="#000000" font-family="Arial" font-size="11" lengthAdjust="spacing" textLength="147" x="605.5" y="89.3179">Generate a data product close</text><text fill="#000000" font-family="Arial" font-size="11" lengthAdjust="spacing" textLength="78" x="640" y="101.9668">to the consumer</text><text fill="#000000" font-family="Arial" font-size="11" lengthAdjust="spacing" textLength="43" x="442.2328" y="60.4438">«Option»</text><text fill="#000000" font-family="Arial" font-size="11" lengthAdjust="spacing" textLength="39" x="444.2328" y="73.0927">{name =</text><text fill="#000000" font-family="Arial" font-size="11" lengthAdjust="spacing" textLength="4" x="635.8184" y="124.1257">}</text><text fill="#000000" font-family="Arial" font-size="11" lengthAdjust="spacing" textLength="3" x="636.3184" y="136.7746"> </text></g><!--link __2_Source_aligned_Data_Product to __3_Expose_Data_Product_as_Derived_Data--><g id="link___2_Source_aligned_Data_Product___3_Expose_Data_Product_as_Derived_Data"><path codeLine="25" d="M299.43,170.06 C278.44,177.03 258.59,188.21 245.5,206 C228.42,229.22 256.29,248.13 287.05,260.96 " fill="none" id="__2_Source_aligned_Data_Product-to-__3_Expose_Data_Product_as_Derived_Data" style="stroke:#181818;stroke-width:1.0;"/><polygon fill="#181818" points="292,262.97,285.1556,255.8881,287.3646,261.0958,282.1568,263.3048,292,262.97" style="stroke:#181818;stroke-width:1.0;"/><text fill="#000000" font-family="Arial" font-size="11" lengthAdjust="spacing" textLength="53" x="246.5" y="217.3179">«Can Use»</text><text fill="#000000" font-family="Arial" font-size="11" lengthAdjust="spacing" textLength="3" x="273" y="229.9668"> </text></g><!--link __2_Source_aligned_Data_Product to __8_Expose_Data_Product_as_Raw_Data--><g id="link___2_Source_aligned_Data_Product___8_Expose_Data_Product_as_Raw_Data"><path codeLine="26" d="M484.28,170.04 C521.89,176.86 565.21,187.98 601.5,206 C618.17,214.28 617.72,223.13 633.5,233 C655.82,246.96 683.04,258.88 704.17,267.16 " fill="none" id="__2_Source_aligned_Data_Product-to-__8_Expose_Data_Product_as_Raw_Data" style="stroke:#181818;stroke-width:1.0;"/><polygon fill="#181818" points="708.86,268.98,701.9259,261.9859,704.2011,267.165,699.0219,269.4402,708.86,268.98" style="stroke:#181818;stroke-width:1.0;"/><text fill="#000000" font-family="Arial" font-size="11" lengthAdjust="spacing" textLength="53" x="634.5" y="217.3179">«Can Use»</text><text fill="#000000" font-family="Arial" font-size="11" lengthAdjust="spacing" textLength="3" x="661" y="229.9668"> </text></g><!--link __3_Expose_Data_Product_as_Derived_Data to __4_Multiple_raw_data_sets_untransformed--><g id="link___3_Expose_Data_Product_as_Derived_Data___4_Multiple_raw_data_sets_untransformed"><path codeLine="27" d="M316.17,298.04 C273.18,321.48 194.73,364.25 149.39,388.98 " fill="none" id="__3_Expose_Data_Product_as_Derived_Data-to-__4_Multiple_raw_data_sets_untransformed" style="stroke:#181818;stroke-width:1.0;"/><polygon fill="#181818" points="144.84,391.46,154.6554,390.6485,149.2262,389.0597,150.8149,383.6306,144.84,391.46" style="stroke:#181818;stroke-width:1.0;"/><text fill="#000000" font-family="Arial" font-size="11" lengthAdjust="spacing" textLength="53" x="259.5" y="339.3179">«Can Use»</text><text fill="#000000" font-family="Arial" font-size="11" lengthAdjust="spacing" textLength="3" x="286" y="351.9668"> </text></g><!--link __3_Expose_Data_Product_as_Derived_Data to __5_Pre_transformed_data--><g id="link___3_Expose_Data_Product_as_Derived_Data___5_Pre_transformed_data"><path codeLine="28" d="M346.5,298.04 C346.5,322.57 346.5,368.28 346.5,392.31 " fill="none" id="__3_Expose_Data_Product_as_Derived_Data-to-__5_Pre_transformed_data" style="stroke:#181818;stroke-width:1.0;"/><polygon fill="#181818" points="346.5,397.37,350.5,388.37,346.5,392.37,342.5,388.37,346.5,397.37" style="stroke:#181818;stroke-width:1.0;"/><text fill="#000000" font-family="Arial" font-size="11" lengthAdjust="spacing" textLength="53" x="347.5" y="339.3179">«Can Use»</text><text fill="#000000" font-family="Arial" font-size="11" lengthAdjust="spacing" textLength="3" x="374" y="351.9668"> </text></g><!--link __3_Expose_Data_Product_as_Derived_Data to __6_Low_level_events--><g id="link___3_Expose_Data_Product_as_Derived_Data___6_Low_level_events"><path codeLine="29" d="M372.78,298.04 C413.07,323.39 489.31,371.38 526.31,394.66 " fill="none" id="__3_Expose_Data_Product_as_Derived_Data-to-__6_Low_level_events" style="stroke:#181818;stroke-width:1.0;"/><polygon fill="#181818" points="530.62,397.37,525.1476,389.1814,526.3929,394.6995,520.8748,395.9448,530.62,397.37" style="stroke:#181818;stroke-width:1.0;"/><text fill="#000000" font-family="Arial" font-size="11" lengthAdjust="spacing" textLength="53" x="460.5" y="339.3179">«Can Use»</text><text fill="#000000" font-family="Arial" font-size="11" lengthAdjust="spacing" textLength="3" x="487" y="351.9668"> </text></g><!--link __7_Aggregations to __3_Expose_Data_Product_as_Derived_Data--><g id="link___7_Aggregations___3_Expose_Data_Product_as_Derived_Data"><path codeLine="30" d="M179.43,170.21 C171.56,185.71 160.38,214.56 174.5,233 C183.61,244.9 210.46,254.45 240.33,261.73 " fill="none" id="__7_Aggregations-to-__3_Expose_Data_Product_as_Derived_Data" style="stroke:#181818;stroke-width:1.0;"/><polygon fill="#181818" points="245.53,262.97,237.6981,256.9983,240.6654,261.8145,235.8492,264.7818,245.53,262.97" style="stroke:#181818;stroke-width:1.0;"/><text fill="#000000" font-family="Arial" font-size="11" lengthAdjust="spacing" textLength="53" x="175.5" y="217.3179">«Can Use»</text><text fill="#000000" font-family="Arial" font-size="11" lengthAdjust="spacing" textLength="3" x="202" y="229.9668"> </text></g><!--link __7_Aggregations to __8_Expose_Data_Product_as_Raw_Data--><g id="link___7_Aggregations___8_Expose_Data_Product_as_Raw_Data"><path codeLine="31" d="M236.49,170.08 C247.36,172.18 258.79,174.26 269.5,176 C373,192.78 407.51,163.8 503.5,206 C520.53,213.49 518.85,224.69 535.5,233 C569.88,250.16 610.7,261.09 646.69,268 " fill="none" id="__7_Aggregations-to-__8_Expose_Data_Product_as_Raw_Data" style="stroke:#181818;stroke-width:1.0;"/><polygon fill="#181818" points="651.96,268.99,643.8592,263.3885,647.0469,268.0617,642.3738,271.2494,651.96,268.99" style="stroke:#181818;stroke-width:1.0;"/><text fill="#000000" font-family="Arial" font-size="11" lengthAdjust="spacing" textLength="53" x="536.5" y="217.3179">«Can Use»</text><text fill="#000000" font-family="Arial" font-size="11" lengthAdjust="spacing" textLength="3" x="563" y="229.9668"> </text></g><!--link __9_Consumer_aligned_Data_Product to __3_Expose_Data_Product_as_Derived_Data--><g id="link___9_Consumer_aligned_Data_Product___3_Expose_Data_Product_as_Derived_Data"><path codeLine="32" d="M574.92,170.02 C484.34,182.33 347.3,201.59 343.5,206 C331.42,220.03 333.98,241.75 338.48,257.94 " fill="none" id="__9_Consumer_aligned_Data_Product-to-__3_Expose_Data_Product_as_Derived_Data" style="stroke:#181818;stroke-width:1.0;"/><polygon fill="#181818" points="339.93,262.78,341.1618,253.0085,338.4867,257.9928,333.5023,255.3177,339.93,262.78" style="stroke:#181818;stroke-width:1.0;"/><text fill="#000000" font-family="Arial" font-size="11" lengthAdjust="spacing" textLength="53" x="344.5" y="217.3179">«Can Use»</text><text fill="#000000" font-family="Arial" font-size="11" lengthAdjust="spacing" textLength="3" x="371" y="229.9668"> </text></g><!--link __9_Consumer_aligned_Data_Product to __8_Expose_Data_Product_as_Raw_Data--><g id="link___9_Consumer_aligned_Data_Product___8_Expose_Data_Product_as_Raw_Data"><path codeLine="33" d="M665.84,170.12 C675.73,179.03 689.55,192.46 699.5,206 C713.18,224.61 724.99,248.65 731.93,264.08 " fill="none" id="__9_Consumer_aligned_Data_Product-to-__8_Expose_Data_Product_as_Raw_Data" style="stroke:#181818;stroke-width:1.0;"/><polygon fill="#181818" points="734.09,268.96,734.1215,259.1112,732.0739,264.3845,726.8006,262.3369,734.09,268.96" style="stroke:#181818;stroke-width:1.0;"/><text fill="#000000" font-family="Arial" font-size="11" lengthAdjust="spacing" textLength="53" x="715.5" y="217.3179">«Can Use»</text><text fill="#000000" font-family="Arial" font-size="11" lengthAdjust="spacing" textLength="3" x="742" y="229.9668"> </text></g><!--link __9_Consumer_aligned_Data_Product to __10_Expose_Data_Product_as_an_algorithm--><g id="link___9_Consumer_aligned_Data_Product___10_Expose_Data_Product_as_an_algorithm"><path codeLine="34" d="M739.34,170.03 C836.22,182.09 981.95,200.86 993.5,206 C1010.5,213.56 1009.72,223.13 1025.5,233 C1042.65,243.73 1062.7,253.25 1080.66,260.85 " fill="none" id="__9_Consumer_aligned_Data_Product-to-__10_Expose_Data_Product_as_an_algorithm" style="stroke:#181818;stroke-width:1.0;"/><polygon fill="#181818" points="1085.66,262.94,1078.8986,255.7787,1081.0467,261.0119,1075.8136,263.16,1085.66,262.94" style="stroke:#181818;stroke-width:1.0;"/><text fill="#000000" font-family="Arial" font-size="11" lengthAdjust="spacing" textLength="53" x="1026.5" y="217.3179">«Can Use»</text><text fill="#000000" font-family="Arial" font-size="11" lengthAdjust="spacing" textLength="3" x="1053" y="229.9668"> </text></g><!--link __10_Expose_Data_Product_as_an_algorithm to __11_Expose_Data_Product_as_an_Optimisation_based_Decision_Support_System--><g id="link___10_Expose_Data_Product_as_an_algorithm___11_Expose_Data_Product_as_an_Optimisation_based_Decision_Support_System"><path codeLine="35" d="M1150.11,298.04 C1175.27,319.25 1219.21,356.31 1249.06,381.48 " fill="none" id="__10_Expose_Data_Product_as_an_algorithm-to-__11_Expose_Data_Product_as_an_Optimisation_based_Decision_Support_System" style="stroke:#181818;stroke-width:1.0;"/><polygon fill="#181818" points="1252.99,384.8,1248.7048,375.9323,1249.1736,381.5696,1243.5362,382.0385,1252.99,384.8" style="stroke:#181818;stroke-width:1.0;"/><text fill="#000000" font-family="Arial" font-size="11" lengthAdjust="spacing" textLength="53" x="1214.5" y="339.3179">«Can Use»</text><text fill="#000000" font-family="Arial" font-size="11" lengthAdjust="spacing" textLength="3" x="1241" y="351.9668"> </text></g><!--link __10_Expose_Data_Product_as_an_algorithm to __12_Expose_Data_Product_as_an_AI_ML_Model--><g id="link___10_Expose_Data_Product_as_an_algorithm___12_Expose_Data_Product_as_an_AI_ML_Model"><path codeLine="36" d="M1110.76,298.04 C1083.06,321.24 1032.75,363.39 1003.11,388.22 " fill="none" id="__10_Expose_Data_Product_as_an_algorithm-to-__12_Expose_Data_Product_as_an_AI_ML_Model" style="stroke:#181818;stroke-width:1.0;"/><polygon fill="#181818" points="999.25,391.46,1008.7148,388.7366,1003.0794,388.245,1003.5709,382.6096,999.25,391.46" style="stroke:#181818;stroke-width:1.0;"/><text fill="#000000" font-family="Arial" font-size="11" lengthAdjust="spacing" textLength="53" x="1073.5" y="339.3179">«Can Use»</text><text fill="#000000" font-family="Arial" font-size="11" lengthAdjust="spacing" textLength="3" x="1100" y="351.9668"> </text></g><!--link __13_Expose_Data_Product_as_a_Hybrid_Product to __8_Expose_Data_Product_as_Raw_Data--><g id="link___13_Expose_Data_Product_as_a_Hybrid_Product___8_Expose_Data_Product_as_Raw_Data"><path codeLine="37" d="M885.69,176.16 C869.54,184.52 850.14,195.17 833.5,206 C804.58,224.83 773.35,250.03 754.88,265.49 " fill="none" id="__13_Expose_Data_Product_as_a_Hybrid_Product-to-__8_Expose_Data_Product_as_Raw_Data" style="stroke:#181818;stroke-width:1.0;"/><polygon fill="#181818" points="750.92,268.83,760.3848,266.1066,754.7494,265.615,755.2409,259.9796,750.92,268.83" style="stroke:#181818;stroke-width:1.0;"/><text fill="#000000" font-family="Arial" font-size="11" lengthAdjust="spacing" textLength="53" x="834.5" y="217.3179">«Can Use»</text><text fill="#000000" font-family="Arial" font-size="11" lengthAdjust="spacing" textLength="3" x="861" y="229.9668"> </text></g><!--link __13_Expose_Data_Product_as_a_Hybrid_Product to __3_Expose_Data_Product_as_Derived_Data--><g id="link___13_Expose_Data_Product_as_a_Hybrid_Product___3_Expose_Data_Product_as_Derived_Data"><path codeLine="38" d="M805.92,174.09 C800.03,174.76 794.2,175.4 788.5,176 C710.65,184.23 509.81,176.02 437.5,206 C420.31,213.13 419.92,221.24 405.5,233 C394.61,241.88 382.45,251.52 372,259.7 " fill="none" id="__13_Expose_Data_Product_as_a_Hybrid_Product-to-__3_Expose_Data_Product_as_Derived_Data" style="stroke:#181818;stroke-width:1.0;"/><polygon fill="#181818" points="367.94,262.88,377.4981,260.5048,371.8845,259.8073,372.5819,254.1936,367.94,262.88" style="stroke:#181818;stroke-width:1.0;"/><text fill="#000000" font-family="Arial" font-size="11" lengthAdjust="spacing" textLength="53" x="438.5" y="217.3179">«Can Use»</text><text fill="#000000" font-family="Arial" font-size="11" lengthAdjust="spacing" textLength="3" x="465" y="229.9668"> </text></g><!--link __13_Expose_Data_Product_as_a_Hybrid_Product to __10_Expose_Data_Product_as_an_algorithm--><g id="link___13_Expose_Data_Product_as_a_Hybrid_Product___10_Expose_Data_Product_as_an_algorithm"><path codeLine="39" d="M1033.15,176.08 C1054.05,182.9 1074.57,192.49 1091.5,206 C1108.08,219.23 1118.47,241.46 1124.31,258.01 " fill="none" id="__13_Expose_Data_Product_as_a_Hybrid_Product-to-__10_Expose_Data_Product_as_an_algorithm" style="stroke:#181818;stroke-width:1.0;"/><polygon fill="#181818" points="1125.99,262.95,1126.8678,253.1403,1124.3746,258.2181,1119.2968,255.725,1125.99,262.95" style="stroke:#181818;stroke-width:1.0;"/><text fill="#000000" font-family="Arial" font-size="11" lengthAdjust="spacing" textLength="53" x="1113.5" y="217.3179">«Can Use»</text><text fill="#000000" font-family="Arial" font-size="11" lengthAdjust="spacing" textLength="3" x="1140" y="229.9668"> </text></g><!--link __14_Expose_Data_Product_as_a_Composite_Product to __8_Expose_Data_Product_as_Raw_Data--><g id="link___14_Expose_Data_Product_as_a_Composite_Product___8_Expose_Data_Product_as_Raw_Data"><path codeLine="40" d="M1222.18,176.12 C1214.63,193.49 1200.22,220 1178.5,233 C1151.91,248.91 984.05,263.24 863.56,271.66 " fill="none" id="__14_Expose_Data_Product_as_a_Composite_Product-to-__8_Expose_Data_Product_as_Raw_Data" style="stroke:#181818;stroke-width:1.0;"/><polygon fill="#181818" points="858.22,272.03,867.4828,275.3767,863.2072,271.6727,866.9112,267.3972,858.22,272.03" style="stroke:#181818;stroke-width:1.0;"/><text fill="#000000" font-family="Arial" font-size="11" lengthAdjust="spacing" textLength="53" x="1206.5" y="217.3179">«Can Use»</text><text fill="#000000" font-family="Arial" font-size="11" lengthAdjust="spacing" textLength="3" x="1233" y="229.9668"> </text></g><!--link __14_Expose_Data_Product_as_a_Composite_Product to __3_Expose_Data_Product_as_Derived_Data--><g id="link___14_Expose_Data_Product_as_a_Composite_Product___3_Expose_Data_Product_as_Derived_Data"><path codeLine="41" d="M1101.89,172.14 C1034.14,180.27 958.42,191.93 927.5,206 C910.56,213.71 912.69,225.88 895.5,233 C875.48,241.29 608.68,261.15 454.53,272.04 " fill="none" id="__14_Expose_Data_Product_as_a_Composite_Product-to-__3_Expose_Data_Product_as_Derived_Data" style="stroke:#181818;stroke-width:1.0;"/><polygon fill="#181818" points="449.09,272.42,458.3426,275.7949,454.0783,272.0779,457.7953,267.8137,449.09,272.42" style="stroke:#181818;stroke-width:1.0;"/><text fill="#000000" font-family="Arial" font-size="11" lengthAdjust="spacing" textLength="53" x="928.5" y="217.3179">«Can Use»</text><text fill="#000000" font-family="Arial" font-size="11" lengthAdjust="spacing" textLength="3" x="955" y="229.9668"> </text></g><!--link __14_Expose_Data_Product_as_a_Composite_Product to __10_Expose_Data_Product_as_an_algorithm--><g id="link___14_Expose_Data_Product_as_a_Composite_Product___10_Expose_Data_Product_as_an_algorithm"><path codeLine="42" d="M1257.17,176.17 C1278.79,190.9 1302.38,213.07 1287.5,233 C1275.35,249.27 1257.75,260.09 1238.69,267.22 " fill="none" id="__14_Expose_Data_Product_as_a_Composite_Product-to-__10_Expose_Data_Product_as_an_algorithm" style="stroke:#181818;stroke-width:1.0;"/><polygon fill="#181818" points="1233.82,268.95,1243.642,269.6767,1238.5264,267.262,1240.9412,262.1464,1233.82,268.95" style="stroke:#181818;stroke-width:1.0;"/><text fill="#000000" font-family="Arial" font-size="11" lengthAdjust="spacing" textLength="53" x="1292.5" y="217.3179">«Can Use»</text><text fill="#000000" font-family="Arial" font-size="11" lengthAdjust="spacing" textLength="3" x="1319" y="229.9668"> </text></g><!--SRC=[jLNRRjf047tFLunuHorfUaDgAmgzH0fjL5Jb1Mcqs0EiOkzQk-kajEeNzHFwbY_hh2y84eCDJbyGsfrpySpiZBsMAX56n11hfOEbqJ61CocTsFNDC1BMlXV1zSBeL8L37Ma3Lqlfw6GfGmAA4xU2cE8P6PiV1T84qIP7I7EHHkwZLkwBO8c1aIAglf_8dmIztiPbu0tC-SgwLKGmqr5uafr1vsef7BXLGg3d40ed834wJ0C7WL0m8oQ-eKWd5BwRAkZ3Y09ffLOT41OGU-W9q1EWdgCdm880cG1dX6i2B3KdEZK1TKKa5uf267dLoqArp_z4u6H0XS8fvk5OXACFnoAyPFpm8z6MjfaOFI8ZRmg5pFqzxcUO0xSuKLWiWDbvgJ7czCg4qsV4RPufIyv2gfmHYhDhOWghHCwmH28ZynHv96uXIvLBGzsDurpe0UTpDaku4PVHbXmN-hOR-Qm3_t3H7-9V8CTW5eDvJ8aTB1Q65i9nYIjmBt7plYRxtpXFeqhxhtRbdI5REH-oIXgJQTWhhx447DCjtEyYMcWZtJAkAcJlwIxRtEXhPBt8ryJ9MDeiXzsPiFwpYbSrLPCqIRHnC5bPHzKsUdjiR79ZneqbDnRKc5FN-noSFnbVm5Y755NwEDtZOt2EumlCi7L2y7arCp8ipogbTZvKWJcwQObXg6E-uT6xL-zijzwQO2rvu1I4RlTjtLphG-VkZw-bLdT_OQf-AJ_ptq3d4oaoWjsBUyCwOhTJvJIu9O_on0SnM73bV9plXCxlAK_j8zrkF_oTzieWojtDUHj2AETpCZnZSYkbPTlAJyrBRvc_eE1UMznRhC9IesMI6Hlou_fkANFMcBvsPbPJDt9LI3JRLErrghTNUzw7MwsQSxkPsvUlak_8UjKqTdkppGJ-g_jcYxHQeHcs57gSLVaOJXekonrIZVTVk_8ThDEY3m_MQjKrXopqbZayGgfD6e-GEpgJ_m00]--></g></svg>