<?xml version="1.0" encoding="UTF-8" standalone="no"?><svg xmlns="http://www.w3.org/2000/svg" xmlns:xlink="http://www.w3.org/1999/xlink" contentStyleType="text/css" height="560px" preserveAspectRatio="none" style="width:1403px;height:560px;background:#FFFFFF;" version="1.1" viewBox="0 0 1403 560" width="1403px" zoomAndPan="magnify"><defs/><g><!--class __1_How_to_deploy_a_data_product_--><g id="elem___1_How_to_deploy_a_data_product_"><rect codeLine="9" fill="#FFFFFF" height="22.6489" id="__1_How_to_deploy_a_data_product_" rx="2.5" ry="2.5" style="stroke:#181818;stroke-width:0.5;" width="228" x="7" y="375.5"/><text fill="#000000" font-family="Arial" font-size="11" font-weight="bold" lengthAdjust="spacing" textLength="222" x="10" y="390.8179">How to deploy a data product? : Decision</text></g><!--class __2_Function_as_a_Service--><g id="elem___2_Function_as_a_Service"><rect codeLine="10" fill="#FFFFFF" height="22.6489" id="__2_Function_as_a_Service" rx="2.5" ry="2.5" style="stroke:#181818;stroke-width:0.5;" width="178" x="461.5" y="192.5"/><text fill="#000000" font-family="Arial" font-size="11" font-weight="bold" lengthAdjust="spacing" textLength="172" x="464.5" y="207.8179">Function-as-a-Service : Practice</text></g><!--class __3_Containerisation--><g id="elem___3_Containerisation"><rect codeLine="11" fill="#FFFFFF" height="22.6489" id="__3_Containerisation" rx="2.5" ry="2.5" style="stroke:#181818;stroke-width:0.5;" width="150" x="475.5" y="250.5"/><text fill="#000000" font-family="Arial" font-size="11" font-weight="bold" lengthAdjust="spacing" textLength="144" x="478.5" y="265.8179">Containerisation : Practice</text></g><!--class __4_Container_Orchestration_System--><g id="elem___4_Container_Orchestration_System"><rect codeLine="12" fill="#FFFFFF" height="22.6489" id="__4_Container_Orchestration_System" rx="2.5" ry="2.5" style="stroke:#181818;stroke-width:0.5;" width="237" x="839.5" y="151.5"/><text fill="#000000" font-family="Arial" font-size="11" font-weight="bold" lengthAdjust="spacing" textLength="231" x="842.5" y="166.8179">Container Orchestration System : Practice</text></g><!--class __5_Infrastructure_as_Code--><g id="elem___5_Infrastructure_as_Code"><rect codeLine="13" fill="#FFFFFF" height="22.6489" id="__5_Infrastructure_as_Code" rx="2.5" ry="2.5" style="stroke:#181818;stroke-width:0.5;" width="184" x="1212" y="196.5"/><text fill="#000000" font-family="Arial" font-size="11" font-weight="bold" lengthAdjust="spacing" textLength="178" x="1215" y="211.8179">Infrastructure as Code : Practice</text></g><!--class __6_Zero_trust_runtime_environment--><g id="elem___6_Zero_trust_runtime_environment"><rect codeLine="14" fill="#FFFFFF" height="22.6489" id="__6_Zero_trust_runtime_environment" rx="2.5" ry="2.5" style="stroke:#181818;stroke-width:0.5;" width="232" x="842" y="420.5"/><text fill="#000000" font-family="Arial" font-size="11" font-weight="bold" lengthAdjust="spacing" textLength="226" x="845" y="435.8179">Zero trust runtime environment : Pattern</text></g><!--class __7_VMs--><g id="elem___7_VMs"><rect codeLine="15" fill="#FFFFFF" height="22.6489" id="__7_VMs" rx="2.5" ry="2.5" style="stroke:#181818;stroke-width:0.5;" width="80" x="510.5" y="346.5"/><text fill="#000000" font-family="Arial" font-size="11" font-weight="bold" lengthAdjust="spacing" textLength="74" x="513.5" y="361.8179">VMs : Pattern</text></g><!--class __8_Shared_Event_Streaming_Environment--><g id="elem___8_Shared_Event_Streaming_Environment"><rect codeLine="16" fill="#FFFFFF" height="22.6489" id="__8_Shared_Event_Streaming_Environment" rx="2.5" ry="2.5" style="stroke:#181818;stroke-width:0.5;" width="264" x="826" y="358.5"/><text fill="#000000" font-family="Arial" font-size="11" font-weight="bold" lengthAdjust="spacing" textLength="258" x="829" y="373.8179">Shared Event Streaming Environment : Practice</text></g><!--class __9_Single_container_design--><g id="elem___9_Single_container_design"><rect codeLine="17" fill="#FFFFFF" height="22.6489" id="__9_Single_container_design" rx="2.5" ry="2.5" style="stroke:#181818;stroke-width:0.5;" width="186" x="865" y="93.5"/><text fill="#000000" font-family="Arial" font-size="11" font-weight="bold" lengthAdjust="spacing" textLength="180" x="868" y="108.8179">Single-container design : Pattern</text></g><!--class __10_Templated_Data_Pipeline--><g id="elem___10_Templated_Data_Pipeline"><rect codeLine="18" fill="#FFFFFF" height="22.6489" id="__10_Templated_Data_Pipeline" rx="2.5" ry="2.5" style="stroke:#181818;stroke-width:0.5;" width="187" x="864.5" y="28.5"/><text fill="#000000" font-family="Arial" font-size="11" font-weight="bold" lengthAdjust="spacing" textLength="181" x="867.5" y="43.8179">Templated Data Pipeline : Pattern</text></g><!--class __11__CI_CD_process--><g id="elem___11__CI_CD_process"><rect codeLine="19" fill="#FFFFFF" height="22.6489" id="__11__CI_CD_process" rx="2.5" ry="2.5" style="stroke:#181818;stroke-width:0.5;" width="140" x="1234" y="28.5"/><text fill="#000000" font-family="Arial" font-size="11" font-weight="bold" lengthAdjust="spacing" textLength="131" x="1240" y="43.8179">CI/CD process : Practice</text></g><!--class __12_Lakehouse_Architecture--><g id="elem___12_Lakehouse_Architecture"><rect codeLine="20" fill="#FFFFFF" height="22.6489" id="__12_Lakehouse_Architecture" rx="2.5" ry="2.5" style="stroke:#181818;stroke-width:0.5;" width="193" x="454" y="404.5"/><text fill="#000000" font-family="Arial" font-size="11" font-weight="bold" lengthAdjust="spacing" textLength="187" x="457" y="419.8179">Lakehouse Architecture : Practice</text></g><!--class __13_Hybrid_Deployment--><g id="elem___13_Hybrid_Deployment"><rect codeLine="21" fill="#FFFFFF" height="22.6489" id="__13_Hybrid_Deployment" rx="2.5" ry="2.5" style="stroke:#181818;stroke-width:0.5;" width="163" x="469" y="462.5"/><text fill="#000000" font-family="Arial" font-size="11" font-weight="bold" lengthAdjust="spacing" textLength="157" x="472" y="477.8179">Hybrid Deployment : Practice</text></g><!--class __14_Multi_Cloud_Deployment--><g id="elem___14_Multi_Cloud_Deployment"><rect codeLine="22" fill="#FFFFFF" height="22.6489" id="__14_Multi_Cloud_Deployment" rx="2.5" ry="2.5" style="stroke:#181818;stroke-width:0.5;" width="191" x="455" y="520.5"/><text fill="#000000" font-family="Arial" font-size="11" font-weight="bold" lengthAdjust="spacing" textLength="185" x="458" y="535.8179">Multi-Cloud Deployment : Practice</text></g><!--link __1_How_to_deploy_a_data_product_ to __2_Function_as_a_Service--><g id="link___1_How_to_deploy_a_data_product____2_Function_as_a_Service"><path codeLine="23" d="M133.49,375.45 C156.42,353.06 210.38,303.62 265,277 C328.41,246.1 406.36,227.28 464.62,216.51 " fill="none" id="__1_How_to_deploy_a_data_product_-to-__2_Function_as_a_Service" style="stroke:#181818;stroke-width:1.0;"/><polygon fill="#181818" points="469.84,215.55,460.2732,213.2098,464.9193,216.4369,461.6922,221.0829,469.84,215.55" style="stroke:#181818;stroke-width:1.0;"/><text fill="#000000" font-family="Arial" font-size="11" lengthAdjust="spacing" textLength="144" x="272.5" y="222.3179">Use a serverless architecture</text><text fill="#000000" font-family="Arial" font-size="11" lengthAdjust="spacing" textLength="43" x="83.8772" y="352.6122">«Option»</text><text fill="#000000" font-family="Arial" font-size="11" lengthAdjust="spacing" textLength="39" x="85.8772" y="365.2611">{name =</text><text fill="#000000" font-family="Arial" font-size="11" lengthAdjust="spacing" textLength="4" x="449.5663" y="230.6666">}</text><text fill="#000000" font-family="Arial" font-size="11" lengthAdjust="spacing" textLength="3" x="450.0663" y="243.3155"> </text></g><!--link __1_How_to_deploy_a_data_product_ to __3_Containerisation--><g id="link___1_How_to_deploy_a_data_product____3_Containerisation"><path codeLine="24" d="M159.9,375.47 C188.7,366.74 229.31,354.51 265,344 C349.24,319.19 447.75,290.98 503.97,274.95 " fill="none" id="__1_How_to_deploy_a_data_product_-to-__3_Containerisation" style="stroke:#181818;stroke-width:1.0;"/><polygon fill="#181818" points="508.94,273.53,499.1874,272.1564,504.1324,274.9036,501.3852,279.8486,508.94,273.53" style="stroke:#181818;stroke-width:1.0;"/><text fill="#000000" font-family="Arial" font-size="11" lengthAdjust="spacing" textLength="157" x="266" y="296.3179">Use a containerised architecture</text><text fill="#000000" font-family="Arial" font-size="11" lengthAdjust="spacing" textLength="43" x="181.1781" y="352.6391">«Option»</text><text fill="#000000" font-family="Arial" font-size="11" lengthAdjust="spacing" textLength="39" x="183.1781" y="365.288">{name =</text><text fill="#000000" font-family="Arial" font-size="11" lengthAdjust="spacing" textLength="4" x="491.0553" y="291.6109">}</text><text fill="#000000" font-family="Arial" font-size="11" lengthAdjust="spacing" textLength="3" x="491.5553" y="304.2598"> </text></g><!--link __1_How_to_deploy_a_data_product_ to __12_Lakehouse_Architecture--><g id="link___1_How_to_deploy_a_data_product____12_Lakehouse_Architecture"><path codeLine="25" d="M165.44,398.55 C193.59,405.43 231.19,413.49 265,417 C335.29,424.29 353.33,417.28 424,417 C432.03,416.97 440.35,416.92 448.71,416.87 " fill="none" id="__1_How_to_deploy_a_data_product_-to-__12_Lakehouse_Architecture" style="stroke:#181818;stroke-width:1.0;"/><polygon fill="#181818" points="453.91,416.84,444.8873,412.8915,448.9101,416.8686,444.933,420.8914,453.91,416.84" style="stroke:#181818;stroke-width:1.0;"/><text fill="#000000" font-family="Arial" font-size="11" lengthAdjust="spacing" textLength="141" x="274" y="414.3179">Use a lakehouse architecture</text><text fill="#000000" font-family="Arial" font-size="11" lengthAdjust="spacing" textLength="43" x="186.0935" y="416.3326">«Option»</text><text fill="#000000" font-family="Arial" font-size="11" lengthAdjust="spacing" textLength="39" x="188.0935" y="428.9815">{name =</text><text fill="#000000" font-family="Arial" font-size="11" lengthAdjust="spacing" textLength="4" x="442.0536" y="428.2468">}</text><text fill="#000000" font-family="Arial" font-size="11" lengthAdjust="spacing" textLength="3" x="442.5536" y="440.8957"> </text></g><!--link __1_How_to_deploy_a_data_product_ to __7_VMs--><g id="link___1_How_to_deploy_a_data_product____7_VMs"><path codeLine="26" d="M235.16,379.32 C323.7,373.32 442.07,365.29 505.3,361 " fill="none" id="__1_How_to_deploy_a_data_product_-to-__7_VMs" style="stroke:#181818;stroke-width:1.0;"/><polygon fill="#181818" points="510.49,360.64,501.2464,357.2405,505.5008,360.9688,501.7725,365.2232,510.49,360.64" style="stroke:#181818;stroke-width:1.0;"/><text fill="#000000" font-family="Arial" font-size="11" lengthAdjust="spacing" textLength="100" x="294.5" y="363.3179">Use virtual machines</text><text fill="#000000" font-family="Arial" font-size="11" lengthAdjust="spacing" textLength="43" x="243.0896" y="363.49">«Option»</text><text fill="#000000" font-family="Arial" font-size="11" lengthAdjust="spacing" textLength="39" x="245.0896" y="376.1389">{name =</text><text fill="#000000" font-family="Arial" font-size="11" lengthAdjust="spacing" textLength="4" x="498.4818" y="373.9058">}</text><text fill="#000000" font-family="Arial" font-size="11" lengthAdjust="spacing" textLength="3" x="498.9818" y="386.5547"> </text></g><!--link __1_How_to_deploy_a_data_product_ to __13_Hybrid_Deployment--><g id="link___1_How_to_deploy_a_data_product____13_Hybrid_Deployment"><path codeLine="27" d="M146.44,398.61 C174.43,411.38 221.98,431.49 265,442 C330.62,458.03 406.74,466.06 463.73,470.06 " fill="none" id="__1_How_to_deploy_a_data_product_-to-__13_Hybrid_Deployment" style="stroke:#181818;stroke-width:1.0;"/><polygon fill="#181818" points="468.83,470.41,460.1379,465.7789,463.8427,470.0538,459.5679,473.7586,468.83,470.41" style="stroke:#181818;stroke-width:1.0;"/><text fill="#000000" font-family="Arial" font-size="11" lengthAdjust="spacing" textLength="110" x="289.5" y="439.3179">Use hybrid deployment</text><text fill="#000000" font-family="Arial" font-size="11" lengthAdjust="spacing" textLength="43" x="101.1872" y="416.4109">«Option»</text><text fill="#000000" font-family="Arial" font-size="11" lengthAdjust="spacing" textLength="39" x="103.1872" y="429.0599">{name =</text><text fill="#000000" font-family="Arial" font-size="11" lengthAdjust="spacing" textLength="4" x="457.1167" y="481.5792">}</text><text fill="#000000" font-family="Arial" font-size="11" lengthAdjust="spacing" textLength="3" x="457.6167" y="494.2281"> </text></g><!--link __1_How_to_deploy_a_data_product_ to __14_Multi_Cloud_Deployment--><g id="link___1_How_to_deploy_a_data_product____14_Multi_Cloud_Deployment"><path codeLine="28" d="M134.2,398.68 C157.51,420.25 210.9,466.13 265,488 C323.58,511.68 393.7,522.7 449.66,527.8 " fill="none" id="__1_How_to_deploy_a_data_product_-to-__14_Multi_Cloud_Deployment" style="stroke:#181818;stroke-width:1.0;"/><polygon fill="#181818" points="454.69,528.24,446.0804,523.4572,449.7097,527.7964,445.3706,531.4257,454.69,528.24" style="stroke:#181818;stroke-width:1.0;"/><text fill="#000000" font-family="Arial" font-size="11" lengthAdjust="spacing" textLength="78" x="305.5" y="485.3179">Use multi clouds</text><text fill="#000000" font-family="Arial" font-size="11" lengthAdjust="spacing" textLength="43" x="145.2863" y="416.5024">«Option»</text><text fill="#000000" font-family="Arial" font-size="11" lengthAdjust="spacing" textLength="39" x="147.2863" y="429.1513">{name =</text><text fill="#000000" font-family="Arial" font-size="11" lengthAdjust="spacing" textLength="4" x="442.8958" y="539.2802">}</text><text fill="#000000" font-family="Arial" font-size="11" lengthAdjust="spacing" textLength="3" x="443.3958" y="551.9291"> </text></g><!--link __3_Containerisation to __4_Container_Orchestration_System--><g id="link___3_Containerisation___4_Container_Orchestration_System"><path codeLine="29" d="M597.99,250.36 C613.85,245.75 631.48,239.89 647,233 C661.21,226.69 662.46,220.51 677,215 C728.63,195.44 788.49,183.06 839.58,175.3 " fill="none" id="__3_Containerisation-to-__4_Container_Orchestration_System" style="stroke:#181818;stroke-width:1.0;"/><polygon fill="#181818" points="844.82,174.52,835.3255,171.902,839.8755,175.2631,836.5144,179.8132,844.82,174.52" style="stroke:#181818;stroke-width:1.0;"/><text fill="#000000" font-family="Arial" font-size="11" lengthAdjust="spacing" textLength="52" x="709" y="168.3179">«Includes»</text><text fill="#000000" font-family="Arial" font-size="11" lengthAdjust="spacing" textLength="3" x="735" y="180.9668"> </text></g><!--link __3_Containerisation to __6_Zero_trust_runtime_environment--><g id="link___3_Containerisation___6_Zero_trust_runtime_environment"><path codeLine="30" d="M570.28,273.53 C590.17,286.12 622.07,307.36 647,329 C661.72,341.78 660.22,351.08 677,361 C681.98,363.94 825.52,399.59 905.09,419.23 " fill="none" id="__3_Containerisation-to-__6_Zero_trust_runtime_environment" style="stroke:#181818;stroke-width:1.0;"/><polygon fill="#181818" points="910.24,420.5,902.4454,414.4797,905.3826,419.3142,900.5481,422.2515,910.24,420.5" style="stroke:#181818;stroke-width:1.0;"/><text fill="#000000" font-family="Arial" font-size="11" lengthAdjust="spacing" textLength="53" x="708.5" y="345.3179">«Can Use»</text><text fill="#000000" font-family="Arial" font-size="11" lengthAdjust="spacing" textLength="3" x="735" y="357.9668"> </text></g><!--link __3_Containerisation to __8_Shared_Event_Streaming_Environment--><g id="link___3_Containerisation___8_Shared_Event_Streaming_Environment"><path codeLine="31" d="M596.15,273.53 C645.2,286.24 726.27,307.34 796,326 C834.53,336.3 878.17,348.25 910.28,357.09 " fill="none" id="__3_Containerisation-to-__8_Shared_Event_Streaming_Environment" style="stroke:#181818;stroke-width:1.0;"/><polygon fill="#181818" points="915.34,358.48,907.7236,352.2357,910.5192,357.1536,905.6013,359.9491,915.34,358.48" style="stroke:#181818;stroke-width:1.0;"/><text fill="#000000" font-family="Arial" font-size="11" lengthAdjust="spacing" textLength="53" x="708.5" y="279.3179">«Can Use»</text><text fill="#000000" font-family="Arial" font-size="11" lengthAdjust="spacing" textLength="3" x="735" y="291.9668"> </text></g><!--link __3_Containerisation to __9_Single_container_design--><g id="link___3_Containerisation___9_Single_container_design"><path codeLine="32" d="M618.53,250.44 C628.99,246.29 638.97,240.65 647,233 C675.7,205.65 646.47,174.29 677,149 C704.38,126.32 790.04,115.22 859.48,109.86 " fill="none" id="__3_Containerisation-to-__9_Single_container_design" style="stroke:#181818;stroke-width:1.0;"/><polygon fill="#181818" points="864.87,109.45,855.5977,106.1297,859.8838,109.8215,856.192,114.1076,864.87,109.45" style="stroke:#181818;stroke-width:1.0;"/><text fill="#000000" font-family="Arial" font-size="11" lengthAdjust="spacing" textLength="114" x="678" y="102.3179">«Can be Realized With»</text><text fill="#000000" font-family="Arial" font-size="11" lengthAdjust="spacing" textLength="3" x="735" y="114.9668"> </text></g><!--link __3_Containerisation to __5_Infrastructure_as_Code--><g id="link___3_Containerisation___5_Infrastructure_as_Code"><path codeLine="33" d="M625.61,256.67 C762.39,246.84 1054.37,225.86 1206.43,214.94 " fill="none" id="__3_Containerisation-to-__5_Infrastructure_as_Code" style="stroke:#181818;stroke-width:1.0;"/><polygon fill="#181818" points="1211.78,214.55,1202.5172,211.2033,1206.7928,214.9073,1203.0888,219.1828,1211.78,214.55" style="stroke:#181818;stroke-width:1.0;"/><text fill="#000000" font-family="Arial" font-size="11" lengthAdjust="spacing" textLength="53" x="930" y="208.3179">«Can Use»</text><text fill="#000000" font-family="Arial" font-size="11" lengthAdjust="spacing" textLength="3" x="956.5" y="220.9668"> </text></g><!--link __3_Containerisation to __10_Templated_Data_Pipeline--><g id="link___3_Containerisation___10_Templated_Data_Pipeline"><path codeLine="34" d="M621.92,250.36 C631.36,246.19 640.13,240.57 647,233 C692.68,182.64 627.86,129.98 677,83 C724.63,37.46 799.1,27.81 859.27,28.96 " fill="none" id="__3_Containerisation-to-__10_Templated_Data_Pipeline" style="stroke:#181818;stroke-width:1.0;"/><polygon fill="#181818" points="864.31,29.08,855.4038,24.8754,859.3113,28.9657,855.2209,32.8733,864.31,29.08" style="stroke:#181818;stroke-width:1.0;"/><text fill="#000000" font-family="Arial" font-size="11" lengthAdjust="spacing" textLength="53" x="708.5" y="17.3179">«Can Use»</text><text fill="#000000" font-family="Arial" font-size="11" lengthAdjust="spacing" textLength="3" x="735" y="29.9668"> </text></g><!--link __4_Container_Orchestration_System to __5_Infrastructure_as_Code--><g id="link___4_Container_Orchestration_System___5_Infrastructure_as_Code"><path codeLine="35" d="M1047.14,174.53 C1096.99,181.05 1159.28,189.2 1209.91,195.82 " fill="none" id="__4_Container_Orchestration_System-to-__5_Infrastructure_as_Code" style="stroke:#181818;stroke-width:1.0;"/><polygon fill="#181818" points="1215.09,196.5,1206.6937,191.352,1210.1334,195.8429,1205.6424,199.2826,1215.09,196.5" style="stroke:#181818;stroke-width:1.0;"/><text fill="#000000" font-family="Arial" font-size="11" lengthAdjust="spacing" textLength="53" x="1123" y="169.3179">«Can Use»</text><text fill="#000000" font-family="Arial" font-size="11" lengthAdjust="spacing" textLength="3" x="1149.5" y="181.9668"> </text></g><!--link __7_VMs to __6_Zero_trust_runtime_environment--><g id="link___7_VMs___6_Zero_trust_runtime_environment"><path codeLine="36" d="M590.54,361.57 C609.71,365.21 631.88,372.48 647,387 C676.2,415.03 644,449.56 677,473 C756.32,529.33 880.46,473.98 932.63,446.02 " fill="none" id="__7_VMs-to-__6_Zero_trust_runtime_environment" style="stroke:#181818;stroke-width:1.0;"/><polygon fill="#181818" points="937.15,443.57,927.3316,444.3435,932.7545,445.9533,931.1448,451.3762,937.15,443.57" style="stroke:#181818;stroke-width:1.0;"/><text fill="#000000" font-family="Arial" font-size="11" lengthAdjust="spacing" textLength="53" x="708.5" y="457.3179">«Can Use»</text><text fill="#000000" font-family="Arial" font-size="11" lengthAdjust="spacing" textLength="3" x="735" y="469.9668"> </text></g><!--link __7_VMs to __8_Shared_Event_Streaming_Environment--><g id="link___7_VMs___8_Shared_Event_Streaming_Environment"><path codeLine="37" d="M590.51,364.35 C608.79,368.65 630.18,375.68 647,387 C664.57,398.81 657.89,414.89 677,424 C724.74,446.75 745.56,439.9 796,424 C811.52,419.11 811.2,409.76 826,403 C844.98,394.32 866.58,387.69 886.7,382.73 " fill="none" id="__7_VMs-to-__8_Shared_Event_Streaming_Environment" style="stroke:#181818;stroke-width:1.0;"/><polygon fill="#181818" points="891.78,381.51,882.093,379.7316,886.9194,382.6823,883.9687,387.5086,891.78,381.51" style="stroke:#181818;stroke-width:1.0;"/><text fill="#000000" font-family="Arial" font-size="11" lengthAdjust="spacing" textLength="53" x="708.5" y="408.3179">«Can Use»</text><text fill="#000000" font-family="Arial" font-size="11" lengthAdjust="spacing" textLength="3" x="735" y="420.9668"> </text></g><!--link __10_Templated_Data_Pipeline to __11__CI_CD_process--><g id="link___10_Templated_Data_Pipeline___11__CI_CD_process"><path codeLine="38" d="M1051.64,40 C1107.14,40 1176.77,40 1228.66,40 " fill="none" id="__10_Templated_Data_Pipeline-to-__11__CI_CD_process" style="stroke:#181818;stroke-width:1.0;"/><polygon fill="#181818" points="1233.94,40,1224.94,36,1228.94,40,1224.94,44,1233.94,40" style="stroke:#181818;stroke-width:1.0;"/><text fill="#000000" font-family="Arial" font-size="11" lengthAdjust="spacing" textLength="57" x="1121" y="24.3179">«Leads To»</text><text fill="#000000" font-family="Arial" font-size="11" lengthAdjust="spacing" textLength="3" x="1149.5" y="36.9668"> </text></g><!--SRC=[fLPRRzCm57xVhpZgUmNTncqI84WtCMc3YGuceKb7fyvfOysnAziPAeXVn4_WRRyCEsdITkbbtLxjxtAkJjoDr1Eob4Dkj16PDJc3jmNlkUOcKUJSHn8tOsiAdIP66GjNcVIybycKWVE9dqBE-P2jguw4j48jQgGyeaBv4wFzPmeM7wmajVf-87ynz7eBbo86C0fNpayLmz2eT4_no8CtOEKuyv1Aoy9Be_TAB7G-cP_nDkM9CbCWICaJJAn92-7Vmn7qMKWNy1qW1uWz30Jq1Yi24aO2pWXOgvuKkdJfakjITy3sLWeEQXUMmhdWcTe-ra0a5xHcm5eb2PcGr6obemXg2npWVKoB2r-ioDXvMqaCfivptbOwd2lX4WChHgrxgaUMmbt8jh0SkOb9LwJs0fUHCS68h7L-i3LnVfm7MsWlGwjPtqfhTCxQHptodcrTzvSO2LWIS4R01K8j-_tSjRYlC9pMW456bbCuleqk0s-PSgd7SBpilPpBQwnOMBAmOU5nEu11E5VS5KtvKtPoh5j1lS4AYGqIAsGjT1csHP4FiVRZI5x82Qi0QmdrdcC3nGZ56behGNBwBEd7eHRiN3kzNWynESMaZpD8JJoZ6yvCuU8MYhZ6LS_R0llOG74HsYpPT6XbIAJScTKrxXrWXS8vggQVXuMNtKIPOel68PPGBA6BGbiN5xhTT-iNyWWwTt-_JEBvtJ-urhzrV9hUGkTRg0s12oYsAXQN5hBl_BaEJNgmTtkNjzYAEJnCoHESr_PlIm2gcOydc9VRkT4ex9WlI45EmKIpspMx5PErqI-hfZLjqBiQhXl3ZQvvf8GlMA3CCspFnCnZstDTMfrgeOhmgfHcc_MslQ-bNa8QGgWFa7l8YxcZvDe7iz4PCdnbKk6l88KhwRC7YAxxIkqOs_etUBNGjkuzAhfoaPxKpaM5ntTmVJ7gQjt_tfGwPqofWqip4_eF]--></g></svg>