<?xml version="1.0" encoding="UTF-8" standalone="no"?><svg xmlns="http://www.w3.org/2000/svg" xmlns:xlink="http://www.w3.org/1999/xlink" contentStyleType="text/css" height="368px" preserveAspectRatio="none" style="width:1679px;height:368px;background:#FFFFFF;" version="1.1" viewBox="0 0 1679 368" width="1679px" zoomAndPan="magnify"><defs/><g><!--class __1_How_to_deploy_a_data_product_--><g id="elem___1_How_to_deploy_a_data_product_"><rect codeLine="8" fill="#FFFFFF" height="22.6489" id="__1_How_to_deploy_a_data_product_" rx="2.5" ry="2.5" style="stroke:#181818;stroke-width:0.5;" width="228" x="951.5" y="19.3305"/><text fill="#000000" font-family="Arial" font-size="11" font-weight="bold" lengthAdjust="spacing" textLength="222" x="954.5" y="34.6484">How to deploy a data product? : Decision</text></g><!--class __2_Function_as_a_Service--><g id="elem___2_Function_as_a_Service"><rect codeLine="9" fill="#FFFFFF" height="22.6489" id="__2_Function_as_a_Service" rx="2.5" ry="2.5" style="stroke:#181818;stroke-width:0.5;" width="178" x="421.5" y="116.3305"/><text fill="#000000" font-family="Arial" font-size="11" font-weight="bold" lengthAdjust="spacing" textLength="172" x="424.5" y="131.6484">Function-as-a-Service : Practice</text></g><!--class __3_Containerisation--><g id="elem___3_Containerisation"><rect codeLine="10" fill="#FFFFFF" height="22.6489" id="__3_Containerisation" rx="2.5" ry="2.5" style="stroke:#181818;stroke-width:0.5;" width="150" x="634.5" y="116.3305"/><text fill="#000000" font-family="Arial" font-size="11" font-weight="bold" lengthAdjust="spacing" textLength="144" x="637.5" y="131.6484">Containerisation : Practice</text></g><!--class __4_Container_Orchestration_System--><g id="elem___4_Container_Orchestration_System"><rect codeLine="11" fill="#FFFFFF" height="22.6489" id="__4_Container_Orchestration_System" rx="2.5" ry="2.5" style="stroke:#181818;stroke-width:0.5;" width="237" x="7" y="228.3305"/><text fill="#000000" font-family="Arial" font-size="11" font-weight="bold" lengthAdjust="spacing" textLength="231" x="10" y="243.6484">Container Orchestration System : Practice</text></g><!--class __5_Infrastructure_as_Code--><g id="elem___5_Infrastructure_as_Code"><rect codeLine="12" fill="#FFFFFF" height="22.6489" id="__5_Infrastructure_as_Code" rx="2.5" ry="2.5" style="stroke:#181818;stroke-width:0.5;" width="184" x="155.5" y="340.3305"/><text fill="#000000" font-family="Arial" font-size="11" font-weight="bold" lengthAdjust="spacing" textLength="178" x="158.5" y="355.6484">Infrastructure as Code : Practice</text></g><!--class __6_Zero_trust_runtime_environment--><g id="elem___6_Zero_trust_runtime_environment"><rect codeLine="13" fill="#FFFFFF" height="22.6489" id="__6_Zero_trust_runtime_environment" rx="2.5" ry="2.5" style="stroke:#181818;stroke-width:0.5;" width="232" x="851.5" y="228.3305"/><text fill="#000000" font-family="Arial" font-size="11" font-weight="bold" lengthAdjust="spacing" textLength="226" x="854.5" y="243.6484">Zero trust runtime environment : Pattern</text></g><!--class __7_VMs--><g id="elem___7_VMs"><rect codeLine="14" fill="#FFFFFF" height="22.6489" id="__7_VMs" rx="2.5" ry="2.5" style="stroke:#181818;stroke-width:0.5;" width="80" x="939.5" y="116.3305"/><text fill="#000000" font-family="Arial" font-size="11" font-weight="bold" lengthAdjust="spacing" textLength="74" x="942.5" y="131.6484">VMs : Pattern</text></g><!--class __8_Shared_Event_Streaming_Environment--><g id="elem___8_Shared_Event_Streaming_Environment"><rect codeLine="15" fill="#FFFFFF" height="22.6489" id="__8_Shared_Event_Streaming_Environment" rx="2.5" ry="2.5" style="stroke:#181818;stroke-width:0.5;" width="264" x="1118.5" y="228.3305"/><text fill="#000000" font-family="Arial" font-size="11" font-weight="bold" lengthAdjust="spacing" textLength="258" x="1121.5" y="243.6484">Shared Event Streaming Environment : Practice</text></g><!--class __9_Single_container_design--><g id="elem___9_Single_container_design"><rect codeLine="16" fill="#FFFFFF" height="22.6489" id="__9_Single_container_design" rx="2.5" ry="2.5" style="stroke:#181818;stroke-width:0.5;" width="186" x="407.5" y="228.3305"/><text fill="#000000" font-family="Arial" font-size="11" font-weight="bold" lengthAdjust="spacing" textLength="180" x="410.5" y="243.6484">Single-container design : Pattern</text></g><!--class __10_Templated_Data_Pipeline--><g id="elem___10_Templated_Data_Pipeline"><rect codeLine="17" fill="#FFFFFF" height="22.6489" id="__10_Templated_Data_Pipeline" rx="2.5" ry="2.5" style="stroke:#181818;stroke-width:0.5;" width="187" x="629" y="228.3305"/><text fill="#000000" font-family="Arial" font-size="11" font-weight="bold" lengthAdjust="spacing" textLength="181" x="632" y="243.6484">Templated Data Pipeline : Pattern</text></g><!--class __11__CI_CD_process--><g id="elem___11__CI_CD_process"><rect codeLine="18" fill="#FFFFFF" height="22.6489" id="__11__CI_CD_process" rx="2.5" ry="2.5" style="stroke:#181818;stroke-width:0.5;" width="140" x="652.5" y="340.3305"/><text fill="#000000" font-family="Arial" font-size="11" font-weight="bold" lengthAdjust="spacing" textLength="131" x="658.5" y="355.6484">CI/CD process : Practice</text></g><!--class __12_Lakehouse_Architecture--><g id="elem___12_Lakehouse_Architecture"><rect codeLine="19" fill="#FFFFFF" height="22.6489" id="__12_Lakehouse_Architecture" rx="2.5" ry="2.5" style="stroke:#181818;stroke-width:0.5;" width="193" x="1055" y="116.3305"/><text fill="#000000" font-family="Arial" font-size="11" font-weight="bold" lengthAdjust="spacing" textLength="187" x="1058" y="131.6484">Lakehouse Architecture : Practice</text></g><!--class __13_Hybrid_Deployment--><g id="elem___13_Hybrid_Deployment"><rect codeLine="20" fill="#FFFFFF" height="22.6489" id="__13_Hybrid_Deployment" rx="2.5" ry="2.5" style="stroke:#181818;stroke-width:0.5;" width="163" x="1283" y="116.3305"/><text fill="#000000" font-family="Arial" font-size="11" font-weight="bold" lengthAdjust="spacing" textLength="157" x="1286" y="131.6484">Hybrid Deployment : Practice</text></g><!--class __14_Multi_Cloud_Deployment--><g id="elem___14_Multi_Cloud_Deployment"><rect codeLine="21" fill="#FFFFFF" height="22.6489" id="__14_Multi_Cloud_Deployment" rx="2.5" ry="2.5" style="stroke:#181818;stroke-width:0.5;" width="191" x="1481" y="116.3305"/><text fill="#000000" font-family="Arial" font-size="11" font-weight="bold" lengthAdjust="spacing" textLength="185" x="1484" y="131.6484">Multi-Cloud Deployment : Practice</text></g><!--link __1_How_to_deploy_a_data_product_ to __2_Function_as_a_Service--><g id="link___1_How_to_deploy_a_data_product____2_Function_as_a_Service"><path codeLine="22" d="M951.14,32.4105 C862.81,35.2705 738.21,44.5805 632.5,72.3305 C596.53,81.7705 557.77,100.7605 533.82,113.6405 " fill="none" id="__1_How_to_deploy_a_data_product_-to-__2_Function_as_a_Service" style="stroke:#181818;stroke-width:1.0;"/><polygon fill="#181818" points="529.23,116.1305,539.0484,115.357,533.6255,113.7472,535.2352,108.3243,529.23,116.1305" style="stroke:#181818;stroke-width:1.0;"/><text fill="#000000" font-family="Arial" font-size="11" lengthAdjust="spacing" textLength="144" x="633.5" y="83.6484">Use a serverless architecture</text><text fill="#000000" font-family="Arial" font-size="11" lengthAdjust="spacing" textLength="43" x="897.6281" y="17.1489">«Option»</text><text fill="#000000" font-family="Arial" font-size="11" lengthAdjust="spacing" textLength="39" x="899.6281" y="29.7979">{name =</text><text fill="#000000" font-family="Arial" font-size="11" lengthAdjust="spacing" textLength="4" x="530.9809" y="93.2412">}</text><text fill="#000000" font-family="Arial" font-size="11" lengthAdjust="spacing" textLength="3" x="531.4809" y="105.8901"> </text></g><!--link __1_How_to_deploy_a_data_product_ to __3_Containerisation--><g id="link___1_How_to_deploy_a_data_product____3_Containerisation"><path codeLine="23" d="M960.19,42.3705 C916.31,48.5205 865.25,57.9905 820.5,72.3305 C788.05,82.7305 753.17,101.1805 731.35,113.7005 " fill="none" id="__1_How_to_deploy_a_data_product_-to-__3_Containerisation" style="stroke:#181818;stroke-width:1.0;"/><polygon fill="#181818" points="726.9,116.2805,736.6941,115.2431,731.2297,113.7798,732.693,108.3155,726.9,116.2805" style="stroke:#181818;stroke-width:1.0;"/><text fill="#000000" font-family="Arial" font-size="11" lengthAdjust="spacing" textLength="157" x="821.5" y="83.6484">Use a containerised architecture</text><text fill="#000000" font-family="Arial" font-size="11" lengthAdjust="spacing" textLength="43" x="897.7503" y="55.8101">«Option»</text><text fill="#000000" font-family="Arial" font-size="11" lengthAdjust="spacing" textLength="39" x="899.7503" y="68.459">{name =</text><text fill="#000000" font-family="Arial" font-size="11" lengthAdjust="spacing" textLength="4" x="728.1938" y="93.4427">}</text><text fill="#000000" font-family="Arial" font-size="11" lengthAdjust="spacing" textLength="3" x="728.6938" y="106.0916"> </text></g><!--link __1_How_to_deploy_a_data_product_ to __12_Lakehouse_Architecture--><g id="link___1_How_to_deploy_a_data_product____12_Lakehouse_Architecture"><path codeLine="24" d="M1075.93,42.3405 C1083.88,50.4305 1095.03,61.9405 1104.5,72.3305 C1116.64,85.6505 1130.03,101.2705 1139.4,112.3605 " fill="none" id="__1_How_to_deploy_a_data_product_-to-__12_Lakehouse_Architecture" style="stroke:#181818;stroke-width:1.0;"/><polygon fill="#181818" points="1142.66,116.2305,1139.8985,106.7767,1139.4296,112.4141,1133.7923,111.9453,1142.66,116.2305" style="stroke:#181818;stroke-width:1.0;"/><text fill="#000000" font-family="Arial" font-size="11" lengthAdjust="spacing" textLength="141" x="1117.5" y="83.6484">Use a lakehouse architecture</text><text fill="#000000" font-family="Arial" font-size="11" lengthAdjust="spacing" textLength="43" x="1086.5858" y="60.415">«Option»</text><text fill="#000000" font-family="Arial" font-size="11" lengthAdjust="spacing" textLength="39" x="1088.5858" y="73.0639">{name =</text><text fill="#000000" font-family="Arial" font-size="11" lengthAdjust="spacing" textLength="4" x="1134.9338" y="93.3755">}</text><text fill="#000000" font-family="Arial" font-size="11" lengthAdjust="spacing" textLength="3" x="1135.4338" y="106.0245"> </text></g><!--link __1_How_to_deploy_a_data_product_ to __7_VMs--><g id="link___1_How_to_deploy_a_data_product____7_VMs"><path codeLine="25" d="M1035.88,42.4305 C1021.47,48.9805 1005.03,58.7705 994.5,72.3305 C985.83,83.4905 982.17,99.3305 980.62,111.0605 " fill="none" id="__1_How_to_deploy_a_data_product_-to-__7_VMs" style="stroke:#181818;stroke-width:1.0;"/><polygon fill="#181818" points="980.05,116.1305,985.0516,107.6461,980.621,111.1632,977.1039,106.7326,980.05,116.1305" style="stroke:#181818;stroke-width:1.0;"/><text fill="#000000" font-family="Arial" font-size="11" lengthAdjust="spacing" textLength="100" x="995.5" y="83.6484">Use virtual machines</text><text fill="#000000" font-family="Arial" font-size="11" lengthAdjust="spacing" textLength="43" x="973.7651" y="60.2284">«Option»</text><text fill="#000000" font-family="Arial" font-size="11" lengthAdjust="spacing" textLength="39" x="975.7651" y="72.8773">{name =</text><text fill="#000000" font-family="Arial" font-size="11" lengthAdjust="spacing" textLength="4" x="975.5516" y="93.2412">}</text><text fill="#000000" font-family="Arial" font-size="11" lengthAdjust="spacing" textLength="3" x="976.0516" y="105.8901"> </text></g><!--link __1_How_to_deploy_a_data_product_ to __13_Hybrid_Deployment--><g id="link___1_How_to_deploy_a_data_product____13_Hybrid_Deployment"><path codeLine="26" d="M1148.2,42.3905 C1185.41,48.6605 1229.43,58.2205 1267.5,72.3305 C1295.72,82.7905 1325.52,100.7005 1344.52,113.1205 " fill="none" id="__1_How_to_deploy_a_data_product_-to-__13_Hybrid_Deployment" style="stroke:#181818;stroke-width:1.0;"/><polygon fill="#181818" points="1349.11,116.1605,1343.8074,107.8609,1344.9388,113.4035,1339.3962,114.5349,1349.11,116.1605" style="stroke:#181818;stroke-width:1.0;"/><text fill="#000000" font-family="Arial" font-size="11" lengthAdjust="spacing" textLength="110" x="1299.5" y="83.6484">Use hybrid deployment</text><text fill="#000000" font-family="Arial" font-size="11" lengthAdjust="spacing" textLength="43" x="1180.5706" y="60.1761">«Option»</text><text fill="#000000" font-family="Arial" font-size="11" lengthAdjust="spacing" textLength="39" x="1182.5706" y="72.825">{name =</text><text fill="#000000" font-family="Arial" font-size="11" lengthAdjust="spacing" textLength="4" x="1339.1322" y="93.2815">}</text><text fill="#000000" font-family="Arial" font-size="11" lengthAdjust="spacing" textLength="3" x="1339.6322" y="105.9304"> </text></g><!--link __1_How_to_deploy_a_data_product_ to __14_Multi_Cloud_Deployment--><g id="link___1_How_to_deploy_a_data_product____14_Multi_Cloud_Deployment"><path codeLine="27" d="M1179.83,38.6105 C1249.45,44.3005 1339.85,54.4805 1418.5,72.3305 C1464.3,82.7205 1515.34,101.7605 1546.69,114.3505 " fill="none" id="__1_How_to_deploy_a_data_product_-to-__14_Multi_Cloud_Deployment" style="stroke:#181818;stroke-width:1.0;"/><polygon fill="#181818" points="1551.54,116.3205,1544.688,109.2459,1546.9026,114.4513,1541.6972,116.6658,1551.54,116.3205" style="stroke:#181818;stroke-width:1.0;"/><text fill="#000000" font-family="Arial" font-size="11" lengthAdjust="spacing" textLength="78" x="1467.5" y="83.6484">Use multi clouds</text><text fill="#000000" font-family="Arial" font-size="11" lengthAdjust="spacing" textLength="43" x="1187.3402" y="23.688">«Option»</text><text fill="#000000" font-family="Arial" font-size="11" lengthAdjust="spacing" textLength="39" x="1189.3402" y="36.3369">{name =</text><text fill="#000000" font-family="Arial" font-size="11" lengthAdjust="spacing" textLength="4" x="1538.2725" y="93.4965">}</text><text fill="#000000" font-family="Arial" font-size="11" lengthAdjust="spacing" textLength="3" x="1538.7725" y="106.1454"> </text></g><!--link __3_Containerisation to __4_Container_Orchestration_System--><g id="link___3_Containerisation___4_Container_Orchestration_System"><path codeLine="28" d="M634.4,137.5305 C628.35,138.1705 622.32,138.7705 616.5,139.3305 C445.65,155.6305 393.92,113.8705 231.5,169.3305 C196.07,181.4305 160.92,208.1405 141.32,224.7005 " fill="none" id="__3_Containerisation-to-__4_Container_Orchestration_System" style="stroke:#181818;stroke-width:1.0;"/><polygon fill="#181818" points="137.15,228.2705,146.5926,225.4709,140.9533,225.0248,141.3994,219.3856,137.15,228.2705" style="stroke:#181818;stroke-width:1.0;"/><text fill="#000000" font-family="Arial" font-size="11" lengthAdjust="spacing" textLength="52" x="232.5" y="180.6484">«Includes»</text><text fill="#000000" font-family="Arial" font-size="11" lengthAdjust="spacing" textLength="3" x="258.5" y="193.2973"> </text></g><!--link __3_Containerisation to __6_Zero_trust_runtime_environment--><g id="link___3_Containerisation___6_Zero_trust_runtime_environment"><path codeLine="29" d="M721.96,139.4805 C743.14,157.5005 784.64,192.4305 792.5,196.3305 C822.14,211.0405 857.19,220.8505 888.1,227.3005 " fill="none" id="__3_Containerisation-to-__6_Zero_trust_runtime_environment" style="stroke:#181818;stroke-width:1.0;"/><polygon fill="#181818" points="893.02,228.3005,885.021,222.5546,888.1244,227.2842,883.3948,230.3876,893.02,228.3005" style="stroke:#181818;stroke-width:1.0;"/><text fill="#000000" font-family="Arial" font-size="11" lengthAdjust="spacing" textLength="53" x="793.5" y="180.6484">«Can Use»</text><text fill="#000000" font-family="Arial" font-size="11" lengthAdjust="spacing" textLength="3" x="820" y="193.2973"> </text></g><!--link __3_Containerisation to __8_Shared_Event_Streaming_Environment--><g id="link___3_Containerisation___8_Shared_Event_Streaming_Environment"><path codeLine="30" d="M756.67,139.3805 C785.43,146.4605 822.65,156.7705 854.5,169.3305 C878.73,178.8805 881.63,188.6105 906.5,196.3305 C945.94,208.5705 1041.95,219.9005 1122.55,227.7805 " fill="none" id="__3_Containerisation-to-__8_Shared_Event_Streaming_Environment" style="stroke:#181818;stroke-width:1.0;"/><polygon fill="#181818" points="1127.83,228.2905,1119.2616,223.4343,1122.8537,227.8043,1118.4837,231.3964,1127.83,228.2905" style="stroke:#181818;stroke-width:1.0;"/><text fill="#000000" font-family="Arial" font-size="11" lengthAdjust="spacing" textLength="53" x="907.5" y="180.6484">«Can Use»</text><text fill="#000000" font-family="Arial" font-size="11" lengthAdjust="spacing" textLength="3" x="934" y="193.2973"> </text></g><!--link __3_Containerisation to __9_Single_container_design--><g id="link___3_Containerisation___9_Single_container_design"><path codeLine="31" d="M645.29,139.3405 C619.53,145.4605 590.35,154.9205 566.5,169.3305 C543.07,183.4905 522.49,208.1605 510.78,223.9805 " fill="none" id="__3_Containerisation-to-__9_Single_container_design" style="stroke:#181818;stroke-width:1.0;"/><polygon fill="#181818" points="507.72,228.1905,516.2506,223.2681,510.6626,224.1481,509.7826,218.5601,507.72,228.1905" style="stroke:#181818;stroke-width:1.0;"/><text fill="#000000" font-family="Arial" font-size="11" lengthAdjust="spacing" textLength="114" x="567.5" y="180.6484">«Can be Realized With»</text><text fill="#000000" font-family="Arial" font-size="11" lengthAdjust="spacing" textLength="3" x="624.5" y="193.2973"> </text></g><!--link __3_Containerisation to __5_Infrastructure_as_Code--><g id="link___3_Containerisation___5_Infrastructure_as_Code"><path codeLine="32" d="M645.88,139.3705 C551.81,155.9305 381.37,189.9005 331.5,226.3305 C310.91,241.3705 272.77,306.0705 255.9,335.7905 " fill="none" id="__3_Containerisation-to-__5_Infrastructure_as_Code" style="stroke:#181818;stroke-width:1.0;"/><polygon fill="#181818" points="253.38,340.2505,261.2933,334.3871,255.8422,335.8988,254.3305,330.4476,253.38,340.2505" style="stroke:#181818;stroke-width:1.0;"/><text fill="#000000" font-family="Arial" font-size="11" lengthAdjust="spacing" textLength="53" x="332.5" y="237.6484">«Can Use»</text><text fill="#000000" font-family="Arial" font-size="11" lengthAdjust="spacing" textLength="3" x="359" y="250.2973"> </text></g><!--link __3_Containerisation to __10_Templated_Data_Pipeline--><g id="link___3_Containerisation___10_Templated_Data_Pipeline"><path codeLine="33" d="M703.8,139.4705 C697.38,152.8805 688.57,176.5505 694.5,196.3305 C697.54,206.4705 703.87,216.4305 709.74,224.1505 " fill="none" id="__3_Containerisation-to-__10_Templated_Data_Pipeline" style="stroke:#181818;stroke-width:1.0;"/><polygon fill="#181818" points="712.93,228.2005,710.495,218.6574,709.8327,224.2754,704.2148,223.6131,712.93,228.2005" style="stroke:#181818;stroke-width:1.0;"/><text fill="#000000" font-family="Arial" font-size="11" lengthAdjust="spacing" textLength="53" x="695.5" y="180.6484">«Can Use»</text><text fill="#000000" font-family="Arial" font-size="11" lengthAdjust="spacing" textLength="3" x="722" y="193.2973"> </text></g><!--link __4_Container_Orchestration_System to __5_Infrastructure_as_Code--><g id="link___4_Container_Orchestration_System___5_Infrastructure_as_Code"><path codeLine="34" d="M137.2,251.3805 C159.28,271.2805 207.09,314.4005 231.88,336.7505 " fill="none" id="__4_Container_Orchestration_System-to-__5_Infrastructure_as_Code" style="stroke:#181818;stroke-width:1.0;"/><polygon fill="#181818" points="235.66,340.1505,231.6826,331.1405,231.9571,336.7907,226.3069,337.0652,235.66,340.1505" style="stroke:#181818;stroke-width:1.0;"/><text fill="#000000" font-family="Arial" font-size="11" lengthAdjust="spacing" textLength="53" x="202.5" y="294.6484">«Can Use»</text><text fill="#000000" font-family="Arial" font-size="11" lengthAdjust="spacing" textLength="3" x="229" y="307.2973"> </text></g><!--link __7_VMs to __6_Zero_trust_runtime_environment--><g id="link___7_VMs___6_Zero_trust_runtime_environment"><path codeLine="35" d="M978.35,139.3805 C976.23,158.7905 971.71,200.2805 969.22,223.0605 " fill="none" id="__7_VMs-to-__6_Zero_trust_runtime_environment" style="stroke:#181818;stroke-width:1.0;"/><polygon fill="#181818" points="968.66,228.1505,973.6133,219.6379,969.2028,223.18,965.6606,218.7695,968.66,228.1505" style="stroke:#181818;stroke-width:1.0;"/><text fill="#000000" font-family="Arial" font-size="11" lengthAdjust="spacing" textLength="53" x="976.5" y="180.6484">«Can Use»</text><text fill="#000000" font-family="Arial" font-size="11" lengthAdjust="spacing" textLength="3" x="1003" y="193.2973"> </text></g><!--link __7_VMs to __8_Shared_Event_Streaming_Environment--><g id="link___7_VMs___8_Shared_Event_Streaming_Environment"><path codeLine="36" d="M1005.48,139.3805 C1055.77,159.7905 1166.14,204.5905 1219.89,226.4005 " fill="none" id="__7_VMs-to-__8_Shared_Event_Streaming_Environment" style="stroke:#181818;stroke-width:1.0;"/><polygon fill="#181818" points="1224.59,228.3105,1217.7567,221.2178,1219.9575,226.429,1214.7463,228.6298,1224.59,228.3105" style="stroke:#181818;stroke-width:1.0;"/><text fill="#000000" font-family="Arial" font-size="11" lengthAdjust="spacing" textLength="53" x="1140.5" y="180.6484">«Can Use»</text><text fill="#000000" font-family="Arial" font-size="11" lengthAdjust="spacing" textLength="3" x="1167" y="193.2973"> </text></g><!--link __10_Templated_Data_Pipeline to __11__CI_CD_process--><g id="link___10_Templated_Data_Pipeline___11__CI_CD_process"><path codeLine="37" d="M722.5,251.3805 C722.5,270.7905 722.5,312.2805 722.5,335.0605 " fill="none" id="__10_Templated_Data_Pipeline-to-__11__CI_CD_process" style="stroke:#181818;stroke-width:1.0;"/><polygon fill="#181818" points="722.5,340.1505,726.5,331.1505,722.5,335.1505,718.5,331.1505,722.5,340.1505" style="stroke:#181818;stroke-width:1.0;"/><text fill="#000000" font-family="Arial" font-size="11" lengthAdjust="spacing" textLength="57" x="723.5" y="294.6484">«Leads To»</text><text fill="#000000" font-family="Arial" font-size="11" lengthAdjust="spacing" textLength="3" x="752" y="307.2973"> </text></g><!--SRC=[fPNRRXCn48Rl-nIZt4UGjfmg0O9DAoArK9529LHfDF5EkrQzTcHxYmBYYNW4xlfasBlPJTBDiRsr__-R6Nl6ThTIZybI3hdHHcJMv0pU5hpdcfr4aNCVITpUM5FeD37AMBZCfEUzJAOCd8_z17BEHsnTjIIa5MgUaV8r5SgV6Eq_KmZnmKfIo_U7yXT3hpUtAM82rs7B-ObY61cLxfLhqFbaVe8tmJvMPW84ANc2iJLf8VnxE88-2-caqHqW1uWz30Rq1Yi34aO3JWrOKqyABNnmTSbrgJjaUoS51zgvfR0kU4hRnrg8v09hAgmfISYOf6Oh7KLH6t203pKjBton8cFdROKOJfpdl4qwd95mmO6Le-OEzBMbi1UgBIn7RsBI9QMzm4LbB30gQyuFjYRsYVDW2-rbk5BMTz8QdRFsaKVUiwtF_IL60vO6d1fmpb1Zlv-vblSLXjLQCCp8SWh7Tp7Aq5kcNEeRE5wClLZBQwnSMBgmSU5nEu5XM5VS5Stnf-paZMubzGOh9JPAh9Grw29CXI8VSkt7bZoNOrP1rWBrdcCZnIZ5MbgJ81ayI_gngGKxrowlrqDC1fZqSIgfZQTqovafN9ms4SUrklCsO1yRASvBco6RZAmCXPGpi_oCUmTOgN2cgkrdOR1bDr6csC0un5AAfNGUj75meTjzjteWZw1p__VBEAxV_uCh_Ll79-WjTBw5io5mGSLMnSEbkUexVwx29MqTkptB6yAAcJnqoHCYhxo_3GcefZ-U4BoSphM1mepvWXJa589eThjMjwIpriRBgcvD6_Mk0LUruTgeURI4dofOPXMsUs8QOzDpNOOQQA6AyAgKmTRpDhsl9IyX3I7LBN3Rl9Wx8bS-c0rdnF2LIONVFuLBwRCjeAj-gHrpM_q6BmTjkhr7PLSEqfEkSvxm-1jSVHZrQJtyRqhEALFguC9CGVy1]--></g></svg>