<?xml version="1.0" encoding="UTF-8" standalone="no"?><svg xmlns="http://www.w3.org/2000/svg" xmlns:xlink="http://www.w3.org/1999/xlink" contentStyleType="text/css" height="368px" preserveAspectRatio="none" style="width:1690px;height:368px;background:#FFFFFF;" version="1.1" viewBox="0 0 1690 368" width="1690px" zoomAndPan="magnify"><defs/><g><!--class __1_How_to_deploy_a_data_product_--><g id="elem___1_How_to_deploy_a_data_product_"><rect codeLine="8" fill="#FFFFFF" height="22.6489" id="__1_How_to_deploy_a_data_product_" rx="2.5" ry="2.5" style="stroke:#181818;stroke-width:0.5;" width="228" x="954.5" y="19.3094"/><text fill="#000000" font-family="Arial" font-size="11" font-weight="bold" lengthAdjust="spacing" textLength="222" x="957.5" y="34.6273">How to deploy a data product? : Decision</text></g><!--class __2_Function_as_a_Service--><g id="elem___2_Function_as_a_Service"><rect codeLine="9" fill="#FFFFFF" height="22.6489" id="__2_Function_as_a_Service" rx="2.5" ry="2.5" style="stroke:#181818;stroke-width:0.5;" width="178" x="421.5" y="116.3094"/><text fill="#000000" font-family="Arial" font-size="11" font-weight="bold" lengthAdjust="spacing" textLength="172" x="424.5" y="131.6273">Function-as-a-Service : Practice</text></g><!--class __3_Containerisation--><g id="elem___3_Containerisation"><rect codeLine="10" fill="#FFFFFF" height="22.6489" id="__3_Containerisation" rx="2.5" ry="2.5" style="stroke:#181818;stroke-width:0.5;" width="150" x="634.5" y="116.3094"/><text fill="#000000" font-family="Arial" font-size="11" font-weight="bold" lengthAdjust="spacing" textLength="144" x="637.5" y="131.6273">Containerisation : Practice</text></g><!--class __4_Container_Orchestration_System--><g id="elem___4_Container_Orchestration_System"><rect codeLine="11" fill="#FFFFFF" height="22.6489" id="__4_Container_Orchestration_System" rx="2.5" ry="2.5" style="stroke:#181818;stroke-width:0.5;" width="237" x="7" y="228.3094"/><text fill="#000000" font-family="Arial" font-size="11" font-weight="bold" lengthAdjust="spacing" textLength="231" x="10" y="243.6273">Container Orchestration System : Practice</text></g><!--class __5_Infrastructure_as_Code--><g id="elem___5_Infrastructure_as_Code"><rect codeLine="12" fill="#FFFFFF" height="22.6489" id="__5_Infrastructure_as_Code" rx="2.5" ry="2.5" style="stroke:#181818;stroke-width:0.5;" width="184" x="155.5" y="340.3094"/><text fill="#000000" font-family="Arial" font-size="11" font-weight="bold" lengthAdjust="spacing" textLength="178" x="158.5" y="355.6273">Infrastructure as Code : Practice</text></g><!--class __6_Zero_trust_runtime_environment--><g id="elem___6_Zero_trust_runtime_environment"><rect codeLine="13" fill="#FFFFFF" height="22.6489" id="__6_Zero_trust_runtime_environment" rx="2.5" ry="2.5" style="stroke:#181818;stroke-width:0.5;" width="232" x="851.5" y="228.3094"/><text fill="#000000" font-family="Arial" font-size="11" font-weight="bold" lengthAdjust="spacing" textLength="226" x="854.5" y="243.6273">Zero trust runtime environment : Pattern</text></g><!--class __7_VMs--><g id="elem___7_VMs"><rect codeLine="14" fill="#FFFFFF" height="22.6489" id="__7_VMs" rx="2.5" ry="2.5" style="stroke:#181818;stroke-width:0.5;" width="80" x="939.5" y="116.3094"/><text fill="#000000" font-family="Arial" font-size="11" font-weight="bold" lengthAdjust="spacing" textLength="74" x="942.5" y="131.6273">VMs : Pattern</text></g><!--class __8_Shared_Event_Streaming_Environment--><g id="elem___8_Shared_Event_Streaming_Environment"><rect codeLine="15" fill="#FFFFFF" height="22.6489" id="__8_Shared_Event_Streaming_Environment" rx="2.5" ry="2.5" style="stroke:#181818;stroke-width:0.5;" width="264" x="1118.5" y="228.3094"/><text fill="#000000" font-family="Arial" font-size="11" font-weight="bold" lengthAdjust="spacing" textLength="258" x="1121.5" y="243.6273">Shared Event Streaming Environment : Practice</text></g><!--class __9_Single_container_design--><g id="elem___9_Single_container_design"><rect codeLine="16" fill="#FFFFFF" height="22.6489" id="__9_Single_container_design" rx="2.5" ry="2.5" style="stroke:#181818;stroke-width:0.5;" width="186" x="407.5" y="228.3094"/><text fill="#000000" font-family="Arial" font-size="11" font-weight="bold" lengthAdjust="spacing" textLength="180" x="410.5" y="243.6273">Single-container design : Pattern</text></g><!--class __10_Templated_Data_Pipeline--><g id="elem___10_Templated_Data_Pipeline"><rect codeLine="17" fill="#FFFFFF" height="22.6489" id="__10_Templated_Data_Pipeline" rx="2.5" ry="2.5" style="stroke:#181818;stroke-width:0.5;" width="187" x="629" y="228.3094"/><text fill="#000000" font-family="Arial" font-size="11" font-weight="bold" lengthAdjust="spacing" textLength="181" x="632" y="243.6273">Templated Data Pipeline : Pattern</text></g><!--class __11__CI_CD_process--><g id="elem___11__CI_CD_process"><rect codeLine="18" fill="#FFFFFF" height="22.6489" id="__11__CI_CD_process" rx="2.5" ry="2.5" style="stroke:#181818;stroke-width:0.5;" width="140" x="652.5" y="340.3094"/><text fill="#000000" font-family="Arial" font-size="11" font-weight="bold" lengthAdjust="spacing" textLength="131" x="658.5" y="355.6273">CI/CD process : Practice</text></g><!--class __12_Data_Storage_Infrastructure--><g id="elem___12_Data_Storage_Infrastructure"><rect codeLine="19" fill="#FFFFFF" height="22.6489" id="__12_Data_Storage_Infrastructure" rx="2.5" ry="2.5" style="stroke:#181818;stroke-width:0.5;" width="204" x="1054.5" y="116.3094"/><text fill="#000000" font-family="Arial" font-size="11" font-weight="bold" lengthAdjust="spacing" textLength="198" x="1057.5" y="131.6273">Data Storage Infrastructure : Pattern</text></g><!--class __13_Hybrid_Deployment--><g id="elem___13_Hybrid_Deployment"><rect codeLine="20" fill="#FFFFFF" height="22.6489" id="__13_Hybrid_Deployment" rx="2.5" ry="2.5" style="stroke:#181818;stroke-width:0.5;" width="163" x="1294" y="116.3094"/><text fill="#000000" font-family="Arial" font-size="11" font-weight="bold" lengthAdjust="spacing" textLength="157" x="1297" y="131.6273">Hybrid Deployment : Practice</text></g><!--class __14_Multi_Cloud_Deployment--><g id="elem___14_Multi_Cloud_Deployment"><rect codeLine="21" fill="#FFFFFF" height="22.6489" id="__14_Multi_Cloud_Deployment" rx="2.5" ry="2.5" style="stroke:#181818;stroke-width:0.5;" width="191" x="1492" y="116.3094"/><text fill="#000000" font-family="Arial" font-size="11" font-weight="bold" lengthAdjust="spacing" textLength="185" x="1495" y="131.6273">Multi-Cloud Deployment : Practice</text></g><!--link __1_How_to_deploy_a_data_product_ to __2_Function_as_a_Service--><g id="link___1_How_to_deploy_a_data_product____2_Function_as_a_Service"><path codeLine="22" d="M954.1,32.4094 C865.34,35.2594 739.92,44.5694 633.5,72.3094 C597.27,81.7494 558.18,100.7394 534.02,113.6194 " fill="none" id="__1_How_to_deploy_a_data_product_-to-__2_Function_as_a_Service" style="stroke:#181818;stroke-width:1.0;"/><polygon fill="#181818" points="529.39,116.1094,539.2104,115.3606,533.7914,113.7372,535.4148,108.3183,529.39,116.1094" style="stroke:#181818;stroke-width:1.0;"/><text fill="#000000" font-family="Arial" font-size="11" lengthAdjust="spacing" textLength="144" x="634.5" y="83.6273">Use a serverless architecture</text><text fill="#000000" font-family="Arial" font-size="11" lengthAdjust="spacing" textLength="43" x="900.5859" y="17.1489">«Option»</text><text fill="#000000" font-family="Arial" font-size="11" lengthAdjust="spacing" textLength="39" x="902.5859" y="29.7979">{name =</text><text fill="#000000" font-family="Arial" font-size="11" lengthAdjust="spacing" textLength="4" x="531.1959" y="93.2201">}</text><text fill="#000000" font-family="Arial" font-size="11" lengthAdjust="spacing" textLength="3" x="531.6959" y="105.869"> </text></g><!--link __1_How_to_deploy_a_data_product_ to __3_Containerisation--><g id="link___1_How_to_deploy_a_data_product____3_Containerisation"><path codeLine="23" d="M963.72,42.3394 C919.46,48.4994 867.79,57.9894 822.5,72.3094 C789.54,82.7294 754.02,101.1794 731.78,113.6894 " fill="none" id="__1_How_to_deploy_a_data_product_-to-__3_Containerisation" style="stroke:#181818;stroke-width:1.0;"/><polygon fill="#181818" points="727.24,116.2694,737.0405,115.2945,731.5856,113.7964,733.0837,108.3415,727.24,116.2694" style="stroke:#181818;stroke-width:1.0;"/><text fill="#000000" font-family="Arial" font-size="11" lengthAdjust="spacing" textLength="157" x="823.5" y="83.6273">Use a containerised architecture</text><text fill="#000000" font-family="Arial" font-size="11" lengthAdjust="spacing" textLength="43" x="900.5496" y="55.9299">«Option»</text><text fill="#000000" font-family="Arial" font-size="11" lengthAdjust="spacing" textLength="39" x="902.5496" y="68.5788">{name =</text><text fill="#000000" font-family="Arial" font-size="11" lengthAdjust="spacing" textLength="4" x="728.6506" y="93.4351">}</text><text fill="#000000" font-family="Arial" font-size="11" lengthAdjust="spacing" textLength="3" x="729.1506" y="106.084"> </text></g><!--link __1_How_to_deploy_a_data_product_ to __12_Data_Storage_Infrastructure--><g id="link___1_How_to_deploy_a_data_product____12_Data_Storage_Infrastructure"><path codeLine="24" d="M1078.86,42.3694 C1086.78,50.4894 1097.92,62.0194 1107.5,72.3094 C1120.01,85.7494 1133.98,101.3494 1143.79,112.4094 " fill="none" id="__1_How_to_deploy_a_data_product_-to-__12_Data_Storage_Infrastructure" style="stroke:#181818;stroke-width:1.0;"/><polygon fill="#181818" points="1147.21,116.2694,1144.2382,106.8796,1143.8953,112.5261,1138.2488,112.1832,1147.21,116.2694" style="stroke:#181818;stroke-width:1.0;"/><text fill="#000000" font-family="Arial" font-size="11" lengthAdjust="spacing" textLength="163" x="1121.5" y="83.6273">Use a Data Storage Infrastructure</text><text fill="#000000" font-family="Arial" font-size="11" lengthAdjust="spacing" textLength="43" x="1089.0765" y="60.155">«Option»</text><text fill="#000000" font-family="Arial" font-size="11" lengthAdjust="spacing" textLength="39" x="1091.0765" y="72.8039">{name =</text><text fill="#000000" font-family="Arial" font-size="11" lengthAdjust="spacing" textLength="4" x="1139.3291" y="93.4351">}</text><text fill="#000000" font-family="Arial" font-size="11" lengthAdjust="spacing" textLength="3" x="1139.8291" y="106.084"> </text></g><!--link __1_How_to_deploy_a_data_product_ to __7_VMs--><g id="link___1_How_to_deploy_a_data_product____7_VMs"><path codeLine="25" d="M1039.52,42.4694 C1025.1,49.0794 1008.46,58.9094 997.5,72.3094 C988.42,83.4094 983.86,99.2594 981.61,111.0094 " fill="none" id="__1_How_to_deploy_a_data_product_-to-__7_VMs" style="stroke:#181818;stroke-width:1.0;"/><polygon fill="#181818" points="980.73,116.0894,986.2169,107.9106,981.5891,111.1638,978.3359,106.536,980.73,116.0894" style="stroke:#181818;stroke-width:1.0;"/><text fill="#000000" font-family="Arial" font-size="11" lengthAdjust="spacing" textLength="100" x="998.5" y="83.6273">Use virtual machines</text><text fill="#000000" font-family="Arial" font-size="11" lengthAdjust="spacing" textLength="43" x="977.6011" y="60.2856">«Option»</text><text fill="#000000" font-family="Arial" font-size="11" lengthAdjust="spacing" textLength="39" x="979.6011" y="72.9346">{name =</text><text fill="#000000" font-family="Arial" font-size="11" lengthAdjust="spacing" textLength="4" x="976.4653" y="93.1932">}</text><text fill="#000000" font-family="Arial" font-size="11" lengthAdjust="spacing" textLength="3" x="976.9653" y="105.8421"> </text></g><!--link __1_How_to_deploy_a_data_product_ to __13_Hybrid_Deployment--><g id="link___1_How_to_deploy_a_data_product____13_Hybrid_Deployment"><path codeLine="26" d="M1177.73,42.3294 C1215.35,48.3194 1257.14,57.6894 1293.5,72.3094 C1318.14,82.2194 1343.08,100.1794 1358.88,112.7694 " fill="none" id="__1_How_to_deploy_a_data_product_-to-__13_Hybrid_Deployment" style="stroke:#181818;stroke-width:1.0;"/><polygon fill="#181818" points="1363.08,116.1594,1358.5979,107.3895,1359.1924,113.0151,1353.5669,113.6096,1363.08,116.1594" style="stroke:#181818;stroke-width:1.0;"/><text fill="#000000" font-family="Arial" font-size="11" lengthAdjust="spacing" textLength="110" x="1321.5" y="83.6273">Use hybrid deployment</text><text fill="#000000" font-family="Arial" font-size="11" lengthAdjust="spacing" textLength="43" x="1159.2158" y="60.4071">«Option»</text><text fill="#000000" font-family="Arial" font-size="11" lengthAdjust="spacing" textLength="39" x="1161.2158" y="73.056">{name =</text><text fill="#000000" font-family="Arial" font-size="11" lengthAdjust="spacing" textLength="4" x="1354.1231" y="93.2872">}</text><text fill="#000000" font-family="Arial" font-size="11" lengthAdjust="spacing" textLength="3" x="1354.6231" y="105.9362"> </text></g><!--link __1_How_to_deploy_a_data_product_ to __14_Multi_Cloud_Deployment--><g id="link___1_How_to_deploy_a_data_product____14_Multi_Cloud_Deployment"><path codeLine="27" d="M1182.88,36.9594 C1257.09,42.0794 1355.46,52.2394 1440.5,72.3094 C1483.2,82.3894 1530.4,101.3794 1559.51,114.0594 " fill="none" id="__1_How_to_deploy_a_data_product_-to-__14_Multi_Cloud_Deployment" style="stroke:#181818;stroke-width:1.0;"/><polygon fill="#181818" points="1564.38,116.1994,1557.7569,108.91,1559.8045,114.1833,1554.5312,116.2309,1564.38,116.1994" style="stroke:#181818;stroke-width:1.0;"/><text fill="#000000" font-family="Arial" font-size="11" lengthAdjust="spacing" textLength="78" x="1486.5" y="83.6273">Use multi clouds</text><text fill="#000000" font-family="Arial" font-size="11" lengthAdjust="spacing" textLength="43" x="1190.393" y="21.9478">«Option»</text><text fill="#000000" font-family="Arial" font-size="11" lengthAdjust="spacing" textLength="39" x="1192.393" y="34.5967">{name =</text><text fill="#000000" font-family="Arial" font-size="11" lengthAdjust="spacing" textLength="4" x="1551.745" y="93.341">}</text><text fill="#000000" font-family="Arial" font-size="11" lengthAdjust="spacing" textLength="3" x="1552.245" y="105.9899"> </text></g><!--link __3_Containerisation to __4_Container_Orchestration_System--><g id="link___3_Containerisation___4_Container_Orchestration_System"><path codeLine="28" d="M634.4,137.5094 C628.35,138.1494 622.32,138.7494 616.5,139.3094 C445.65,155.6094 393.92,113.8494 231.5,169.3094 C196.07,181.4094 160.92,208.1194 141.32,224.6794 " fill="none" id="__3_Containerisation-to-__4_Container_Orchestration_System" style="stroke:#181818;stroke-width:1.0;"/><polygon fill="#181818" points="137.15,228.2494,146.5926,225.4498,140.9533,225.0037,141.3994,219.3645,137.15,228.2494" style="stroke:#181818;stroke-width:1.0;"/><text fill="#000000" font-family="Arial" font-size="11" lengthAdjust="spacing" textLength="52" x="232.5" y="180.6273">«Includes»</text><text fill="#000000" font-family="Arial" font-size="11" lengthAdjust="spacing" textLength="3" x="258.5" y="193.2762"> </text></g><!--link __3_Containerisation to __6_Zero_trust_runtime_environment--><g id="link___3_Containerisation___6_Zero_trust_runtime_environment"><path codeLine="29" d="M721.96,139.4594 C743.14,157.4794 784.64,192.4094 792.5,196.3094 C822.14,211.0194 857.19,220.8294 888.1,227.2794 " fill="none" id="__3_Containerisation-to-__6_Zero_trust_runtime_environment" style="stroke:#181818;stroke-width:1.0;"/><polygon fill="#181818" points="893.02,228.2794,885.021,222.5335,888.1244,227.2631,883.3948,230.3665,893.02,228.2794" style="stroke:#181818;stroke-width:1.0;"/><text fill="#000000" font-family="Arial" font-size="11" lengthAdjust="spacing" textLength="53" x="793.5" y="180.6273">«Can Use»</text><text fill="#000000" font-family="Arial" font-size="11" lengthAdjust="spacing" textLength="3" x="820" y="193.2762"> </text></g><!--link __3_Containerisation to __8_Shared_Event_Streaming_Environment--><g id="link___3_Containerisation___8_Shared_Event_Streaming_Environment"><path codeLine="30" d="M756.67,139.3594 C785.43,146.4394 822.65,156.7494 854.5,169.3094 C878.73,178.8594 881.63,188.5894 906.5,196.3094 C945.94,208.5494 1041.95,219.8794 1122.55,227.7594 " fill="none" id="__3_Containerisation-to-__8_Shared_Event_Streaming_Environment" style="stroke:#181818;stroke-width:1.0;"/><polygon fill="#181818" points="1127.83,228.2694,1119.2616,223.4132,1122.8537,227.7832,1118.4837,231.3753,1127.83,228.2694" style="stroke:#181818;stroke-width:1.0;"/><text fill="#000000" font-family="Arial" font-size="11" lengthAdjust="spacing" textLength="53" x="907.5" y="180.6273">«Can Use»</text><text fill="#000000" font-family="Arial" font-size="11" lengthAdjust="spacing" textLength="3" x="934" y="193.2762"> </text></g><!--link __3_Containerisation to __9_Single_container_design--><g id="link___3_Containerisation___9_Single_container_design"><path codeLine="31" d="M645.29,139.3194 C619.53,145.4394 590.35,154.8994 566.5,169.3094 C543.07,183.4694 522.49,208.1394 510.78,223.9594 " fill="none" id="__3_Containerisation-to-__9_Single_container_design" style="stroke:#181818;stroke-width:1.0;"/><polygon fill="#181818" points="507.72,228.1694,516.2506,223.247,510.6626,224.127,509.7826,218.539,507.72,228.1694" style="stroke:#181818;stroke-width:1.0;"/><text fill="#000000" font-family="Arial" font-size="11" lengthAdjust="spacing" textLength="114" x="567.5" y="180.6273">«Can be Realized With»</text><text fill="#000000" font-family="Arial" font-size="11" lengthAdjust="spacing" textLength="3" x="624.5" y="193.2762"> </text></g><!--link __3_Containerisation to __5_Infrastructure_as_Code--><g id="link___3_Containerisation___5_Infrastructure_as_Code"><path codeLine="32" d="M645.88,139.3494 C551.81,155.9094 381.37,189.8794 331.5,226.3094 C310.91,241.3494 272.77,306.0494 255.9,335.7694 " fill="none" id="__3_Containerisation-to-__5_Infrastructure_as_Code" style="stroke:#181818;stroke-width:1.0;"/><polygon fill="#181818" points="253.38,340.2294,261.2933,334.366,255.8422,335.8777,254.3305,330.4265,253.38,340.2294" style="stroke:#181818;stroke-width:1.0;"/><text fill="#000000" font-family="Arial" font-size="11" lengthAdjust="spacing" textLength="53" x="332.5" y="237.6273">«Can Use»</text><text fill="#000000" font-family="Arial" font-size="11" lengthAdjust="spacing" textLength="3" x="359" y="250.2762"> </text></g><!--link __3_Containerisation to __10_Templated_Data_Pipeline--><g id="link___3_Containerisation___10_Templated_Data_Pipeline"><path codeLine="33" d="M703.8,139.4494 C697.38,152.8594 688.57,176.5294 694.5,196.3094 C697.54,206.4494 703.87,216.4094 709.74,224.1294 " fill="none" id="__3_Containerisation-to-__10_Templated_Data_Pipeline" style="stroke:#181818;stroke-width:1.0;"/><polygon fill="#181818" points="712.93,228.1794,710.495,218.6363,709.8327,224.2543,704.2148,223.592,712.93,228.1794" style="stroke:#181818;stroke-width:1.0;"/><text fill="#000000" font-family="Arial" font-size="11" lengthAdjust="spacing" textLength="53" x="695.5" y="180.6273">«Can Use»</text><text fill="#000000" font-family="Arial" font-size="11" lengthAdjust="spacing" textLength="3" x="722" y="193.2762"> </text></g><!--link __4_Container_Orchestration_System to __5_Infrastructure_as_Code--><g id="link___4_Container_Orchestration_System___5_Infrastructure_as_Code"><path codeLine="34" d="M137.2,251.3594 C159.28,271.2594 207.09,314.3794 231.88,336.7294 " fill="none" id="__4_Container_Orchestration_System-to-__5_Infrastructure_as_Code" style="stroke:#181818;stroke-width:1.0;"/><polygon fill="#181818" points="235.66,340.1294,231.6826,331.1194,231.9571,336.7696,226.3069,337.0441,235.66,340.1294" style="stroke:#181818;stroke-width:1.0;"/><text fill="#000000" font-family="Arial" font-size="11" lengthAdjust="spacing" textLength="53" x="202.5" y="294.6273">«Can Use»</text><text fill="#000000" font-family="Arial" font-size="11" lengthAdjust="spacing" textLength="3" x="229" y="307.2762"> </text></g><!--link __7_VMs to __6_Zero_trust_runtime_environment--><g id="link___7_VMs___6_Zero_trust_runtime_environment"><path codeLine="35" d="M978.35,139.3594 C976.23,158.7694 971.71,200.2594 969.22,223.0394 " fill="none" id="__7_VMs-to-__6_Zero_trust_runtime_environment" style="stroke:#181818;stroke-width:1.0;"/><polygon fill="#181818" points="968.66,228.1294,973.6133,219.6168,969.2028,223.1589,965.6606,218.7484,968.66,228.1294" style="stroke:#181818;stroke-width:1.0;"/><text fill="#000000" font-family="Arial" font-size="11" lengthAdjust="spacing" textLength="53" x="976.5" y="180.6273">«Can Use»</text><text fill="#000000" font-family="Arial" font-size="11" lengthAdjust="spacing" textLength="3" x="1003" y="193.2762"> </text></g><!--link __7_VMs to __8_Shared_Event_Streaming_Environment--><g id="link___7_VMs___8_Shared_Event_Streaming_Environment"><path codeLine="36" d="M1005.48,139.3594 C1055.77,159.7694 1166.14,204.5694 1219.89,226.3794 " fill="none" id="__7_VMs-to-__8_Shared_Event_Streaming_Environment" style="stroke:#181818;stroke-width:1.0;"/><polygon fill="#181818" points="1224.59,228.2894,1217.7567,221.1967,1219.9575,226.4079,1214.7463,228.6087,1224.59,228.2894" style="stroke:#181818;stroke-width:1.0;"/><text fill="#000000" font-family="Arial" font-size="11" lengthAdjust="spacing" textLength="53" x="1140.5" y="180.6273">«Can Use»</text><text fill="#000000" font-family="Arial" font-size="11" lengthAdjust="spacing" textLength="3" x="1167" y="193.2762"> </text></g><!--link __10_Templated_Data_Pipeline to __11__CI_CD_process--><g id="link___10_Templated_Data_Pipeline___11__CI_CD_process"><path codeLine="37" d="M722.5,251.3594 C722.5,270.7694 722.5,312.2594 722.5,335.0394 " fill="none" id="__10_Templated_Data_Pipeline-to-__11__CI_CD_process" style="stroke:#181818;stroke-width:1.0;"/><polygon fill="#181818" points="722.5,340.1294,726.5,331.1294,722.5,335.1294,718.5,331.1294,722.5,340.1294" style="stroke:#181818;stroke-width:1.0;"/><text fill="#000000" font-family="Arial" font-size="11" lengthAdjust="spacing" textLength="57" x="723.5" y="294.6273">«Leads To»</text><text fill="#000000" font-family="Arial" font-size="11" lengthAdjust="spacing" textLength="3" x="752" y="307.2762"> </text></g><!--SRC=[fLRRRXCn47tlLupo7a7QSgi423QjY4HfHGgLKAMHipjDh7hjoFOM1SGNyGcyzSiOxosNJR99-sgVoynuPdRTdTHJOKKAgT4cdbYJ4dYRqO6hRo8bdFieuhknDPbE8gECXUk9z7GmaGa1fLC_WvJI4LbN7CNIncfH8w5RaIb_PhJ_8jZYWvL2hRyVoby4lTx2PHm2kEKhvsUAO6HKSf2VGUUJ-GdUC7sgp0m49C8Bc5gJPB5_3oVGfrWwQNG7X0F47Z81lS62W0830Ki2LgfdcOuzixh2TKLtIFPUniHgbrRmUKobsY5MG1IEjKfWfH9nn49gijA906eA7E4gfi652njFo7bRI0ndpbFQL3gUA-4I0mj6fJlGjrRm7MURMGhSo2HhKdk1oyYGO41MEZ_8cj0dpeFDj9VyfAJlfJKw9Us3dl2UR5NtbnW8c1Em9E02ePBzVkuQt5V8fnLWE16M4ZYz3ov3RqcaKe_XTDbxEPVNMB0mPs7DmjDc04C-LzIDw_8dvEHODu9wWmKIQoGMo4heYgT22S-nzaDBNiefAOOrX7hFiOPYW685hPGW6ZoB-g6fOtAkcLwlXnWDCEfZ2Qc8kV7G6ol612iFtmZZi30luIklNq_RR6GbPvGFp_fYzuwmGE4SLT7FUS9bDr8cQz4unXoAENHHg7M2eTjzjtaoJw3pyFTY6iuV_i6D_gt3BdeBdM-EPm4SeyYgK6N1CyGBBi- -y-U6oxIpTtEeMspZEPpRvGdEsn-n9OejtR9d6Fd0RdNZiVEPK90ApbMJspVFDJssrMzIz6rIe_SrtDIGMrtJGE6F5rFc6JQxe_Hes-2vrK37AkD5avjjrsjRkRbU93Hmg3l8xR94zvJSk4DhdH71LnAAVmWIk9P-ieFefW_Ndh5jNilhXTfUxr7HvOFqfETSL7Zy2sukHbMjrKzGhlEPHEBWofH2_m40]--></g></svg>