<?xml version="1.0" encoding="UTF-8" standalone="no"?><svg xmlns="http://www.w3.org/2000/svg" xmlns:xlink="http://www.w3.org/1999/xlink" contentStyleType="text/css" height="512px" preserveAspectRatio="none" style="width:1989px;height:512px;background:#FFFFFF;" version="1.1" viewBox="0 0 1989 512" width="1989px" zoomAndPan="magnify"><defs/><g><!--class __1_What_are_the_elements_of_a_data_product_interface_contract_--><g id="elem___1_What_are_the_elements_of_a_data_product_interface_contract_"><rect codeLine="8" fill="#FFFFFF" height="35.2979" id="__1_What_are_the_elements_of_a_data_product_interface_contract_" rx="2.5" ry="2.5" style="stroke:#181818;stroke-width:0.5;" width="333" x="556.5" y="7"/><text fill="#000000" font-family="Arial" font-size="11" font-weight="bold" lengthAdjust="spacing" textLength="327" x="559.5" y="22.3179">What are the elements of a data product interface/contract?</text><text fill="#000000" font-family="Arial" font-size="11" font-weight="bold" lengthAdjust="spacing" textLength="53" x="698" y="34.9668">: Decision</text></g><!--class __2_Observation_Port--><g id="elem___2_Observation_Port"><rect codeLine="9" fill="#FFFFFF" height="22.6489" id="__2_Observation_Port" rx="2.5" ry="2.5" style="stroke:#181818;stroke-width:0.5;" width="148" x="84" y="239"/><text fill="#000000" font-family="Arial" font-size="11" font-weight="bold" lengthAdjust="spacing" textLength="142" x="87" y="254.3179">Observation Port : Pattern</text></g><!--class __3_Provide_a_single_integrated_experience_for_monitoring--><g id="elem___3_Provide_a_single_integrated_experience_for_monitoring"><rect codeLine="10" fill="#FFFFFF" height="35.2979" id="__3_Provide_a_single_integrated_experience_for_monitoring" rx="2.5" ry="2.5" style="stroke:#181818;stroke-width:0.5;" width="302" x="7" y="349"/><text fill="#000000" font-family="Arial" font-size="11" font-weight="bold" lengthAdjust="spacing" textLength="296" x="10" y="364.3179">Provide a single integrated experience for monitoring</text><text fill="#000000" font-family="Arial" font-size="11" font-weight="bold" lengthAdjust="spacing" textLength="50" x="134.5" y="376.9668">: Practice</text></g><!--class __4_Overarching_Management_Layer--><g id="elem___4_Overarching_Management_Layer"><rect codeLine="11" fill="#FFFFFF" height="22.6489" id="__4_Overarching_Management_Layer" rx="2.5" ry="2.5" style="stroke:#181818;stroke-width:0.5;" width="235" x="324.5" y="129"/><text fill="#000000" font-family="Arial" font-size="11" font-weight="bold" lengthAdjust="spacing" textLength="229" x="327.5" y="144.3179">Overarching Management Layer : Practice</text></g><!--class __5_Control_Port--><g id="elem___5_Control_Port"><rect codeLine="12" fill="#FFFFFF" height="22.6489" id="__5_Control_Port" rx="2.5" ry="2.5" style="stroke:#181818;stroke-width:0.5;" width="122" x="381" y="239"/><text fill="#000000" font-family="Arial" font-size="11" font-weight="bold" lengthAdjust="spacing" textLength="116" x="384" y="254.3179">Control Port : Pattern</text></g><!--class __6_Policy_Enforcement--><g id="elem___6_Policy_Enforcement"><rect codeLine="13" fill="#FFFFFF" height="22.6489" id="__6_Policy_Enforcement" rx="2.5" ry="2.5" style="stroke:#181818;stroke-width:0.5;" width="165" x="344.5" y="355"/><text fill="#000000" font-family="Arial" font-size="11" font-weight="bold" lengthAdjust="spacing" textLength="159" x="347.5" y="370.3179">Policy Enforcement : Practice</text></g><!--class __7_Retention_policies--><g id="elem___7_Retention_policies"><rect codeLine="14" fill="#FFFFFF" height="22.6489" id="__7_Retention_policies" rx="2.5" ry="2.5" style="stroke:#181818;stroke-width:0.5;" width="158" x="338" y="477"/><text fill="#000000" font-family="Arial" font-size="11" font-weight="bold" lengthAdjust="spacing" textLength="152" x="341" y="492.3179">Retention policies : Practice</text></g><!--class __8_Discovery_Port--><g id="elem___8_Discovery_Port"><rect codeLine="15" fill="#FFFFFF" height="22.6489" id="__8_Discovery_Port" rx="2.5" ry="2.5" style="stroke:#181818;stroke-width:0.5;" width="135" x="553.5" y="239"/><text fill="#000000" font-family="Arial" font-size="11" font-weight="bold" lengthAdjust="spacing" textLength="129" x="556.5" y="254.3179">Discovery Port : Pattern</text></g><!--class __9_Data_Marketplace--><g id="elem___9_Data_Marketplace"><rect codeLine="16" fill="#FFFFFF" height="22.6489" id="__9_Data_Marketplace" rx="2.5" ry="2.5" style="stroke:#181818;stroke-width:0.5;" width="153" x="544.5" y="355"/><text fill="#000000" font-family="Arial" font-size="11" font-weight="bold" lengthAdjust="spacing" textLength="147" x="547.5" y="370.3179">Data Marketplace : Practice</text></g><!--class __10_Input_Port--><g id="elem___10_Input_Port"><rect codeLine="17" fill="#FFFFFF" height="22.6489" id="__10_Input_Port" rx="2.5" ry="2.5" style="stroke:#181818;stroke-width:0.5;" width="109" x="982.5" y="129"/><text fill="#000000" font-family="Arial" font-size="11" font-weight="bold" lengthAdjust="spacing" textLength="103" x="985.5" y="144.3179">Input Port : Pattern</text></g><!--class __11_Static_Coupling--><g id="elem___11_Static_Coupling"><rect codeLine="18" fill="#FFFFFF" height="22.6489" id="__11_Static_Coupling" rx="2.5" ry="2.5" style="stroke:#181818;stroke-width:0.5;" width="141" x="950.5" y="239"/><text fill="#000000" font-family="Arial" font-size="11" font-weight="bold" lengthAdjust="spacing" textLength="135" x="953.5" y="254.3179">Static Coupling : Practice</text></g><!--class __12_Output_Port--><g id="elem___12_Output_Port"><rect codeLine="19" fill="#FFFFFF" height="22.6489" id="__12_Output_Port" rx="2.5" ry="2.5" style="stroke:#181818;stroke-width:0.5;" width="118" x="1298" y="129"/><text fill="#000000" font-family="Arial" font-size="11" font-weight="bold" lengthAdjust="spacing" textLength="112" x="1301" y="144.3179">Output Port : Pattern</text></g><!--class __13_Dynamic_Coupling--><g id="elem___13_Dynamic_Coupling"><rect codeLine="20" fill="#FFFFFF" height="22.6489" id="__13_Dynamic_Coupling" rx="2.5" ry="2.5" style="stroke:#181818;stroke-width:0.5;" width="157" x="1139.5" y="239"/><text fill="#000000" font-family="Arial" font-size="11" font-weight="bold" lengthAdjust="spacing" textLength="151" x="1142.5" y="254.3179">Dynamic Coupling : Practice</text></g><!--class __14_Synchronous--><g id="elem___14_Synchronous"><rect codeLine="21" fill="#FFFFFF" height="22.6489" id="__14_Synchronous" rx="2.5" ry="2.5" style="stroke:#181818;stroke-width:0.5;" width="132" x="1044" y="355"/><text fill="#000000" font-family="Arial" font-size="11" font-weight="bold" lengthAdjust="spacing" textLength="126" x="1047" y="370.3179">Synchronous : Practice</text></g><!--class __15_CRUD_style_operations--><g id="elem___15_CRUD_style_operations"><rect codeLine="22" fill="#FFFFFF" height="22.6489" id="__15_CRUD_style_operations" rx="2.5" ry="2.5" style="stroke:#181818;stroke-width:0.5;" width="182" x="531" y="477"/><text fill="#000000" font-family="Arial" font-size="11" font-weight="bold" lengthAdjust="spacing" textLength="176" x="534" y="492.3179">CRUD-style operations : Practice</text></g><!--class __16_Attach_REST_APIs_to_each_data_product--><g id="elem___16_Attach_REST_APIs_to_each_data_product"><rect codeLine="23" fill="#FFFFFF" height="35.2979" id="__16_Attach_REST_APIs_to_each_data_product" rx="2.5" ry="2.5" style="stroke:#181818;stroke-width:0.5;" width="214" x="1573" y="471"/><text fill="#000000" font-family="Arial" font-size="11" font-weight="bold" lengthAdjust="spacing" textLength="208" x="1576" y="486.3179">Attach REST APIs to each data product</text><text fill="#000000" font-family="Arial" font-size="11" font-weight="bold" lengthAdjust="spacing" textLength="50" x="1656.5" y="498.9668">: Practice</text></g><!--class __17_Asynchronous--><g id="elem___17_Asynchronous"><rect codeLine="24" fill="#FFFFFF" height="22.6489" id="__17_Asynchronous" rx="2.5" ry="2.5" style="stroke:#181818;stroke-width:0.5;" width="140" x="1242" y="355"/><text fill="#000000" font-family="Arial" font-size="11" font-weight="bold" lengthAdjust="spacing" textLength="134" x="1245" y="370.3179">Asynchronous : Practice</text></g><!--class __18_gRPC--><g id="elem___18_gRPC"><rect codeLine="25" fill="#FFFFFF" height="22.6489" id="__18_gRPC" rx="2.5" ry="2.5" style="stroke:#181818;stroke-width:0.5;" width="88" x="1373" y="477"/><text fill="#000000" font-family="Arial" font-size="11" font-weight="bold" lengthAdjust="spacing" textLength="82" x="1376" y="492.3179">gRPC : Practice</text></g><!--class __19_Attach_a_DBQuery_Endpoint_to_each_Data_Product--><g id="elem___19_Attach_a_DBQuery_Endpoint_to_each_Data_Product"><rect codeLine="26" fill="#FFFFFF" height="35.2979" id="__19_Attach_a_DBQuery_Endpoint_to_each_Data_Product" rx="2.5" ry="2.5" style="stroke:#181818;stroke-width:0.5;" width="266" x="1033" y="471"/><text fill="#000000" font-family="Arial" font-size="11" font-weight="bold" lengthAdjust="spacing" textLength="260" x="1036" y="486.3179">Attach a DBQuery Endpoint to each Data Product</text><text fill="#000000" font-family="Arial" font-size="11" font-weight="bold" lengthAdjust="spacing" textLength="50" x="1142.5" y="498.9668">: Practice</text></g><!--class __20_Pub_Sub--><g id="elem___20_Pub_Sub"><rect codeLine="27" fill="#FFFFFF" height="22.6489" id="__20_Pub_Sub" rx="2.5" ry="2.5" style="stroke:#181818;stroke-width:0.5;" width="100" x="1860" y="477"/><text fill="#000000" font-family="Arial" font-size="11" font-weight="bold" lengthAdjust="spacing" textLength="94" x="1863" y="492.3179">Pub/Sub : Pattern</text></g><!--class __21_GraphQL--><g id="elem___21_GraphQL"><rect codeLine="28" fill="#FFFFFF" height="22.6489" id="__21_GraphQL" rx="2.5" ry="2.5" style="stroke:#181818;stroke-width:0.5;" width="107" x="748.5" y="477"/><text fill="#000000" font-family="Arial" font-size="11" font-weight="bold" lengthAdjust="spacing" textLength="101" x="751.5" y="492.3179">GraphQL : Practice</text></g><!--class __22_Provide_information_about_runtime--><g id="elem___22_Provide_information_about_runtime"><rect codeLine="29" fill="#FFFFFF" height="22.6489" id="__22_Provide_information_about_runtime" rx="2.5" ry="2.5" style="stroke:#181818;stroke-width:0.5;" width="249" x="1417.5" y="355"/><text fill="#000000" font-family="Arial" font-size="11" font-weight="bold" lengthAdjust="spacing" textLength="243" x="1420.5" y="370.3179">Provide information about runtime : Practice</text></g><!--class __23_Multimodal_access--><g id="elem___23_Multimodal_access"><rect codeLine="30" fill="#FFFFFF" height="22.6489" id="__23_Multimodal_access" rx="2.5" ry="2.5" style="stroke:#181818;stroke-width:0.5;" width="162" x="1762" y="239"/><text fill="#000000" font-family="Arial" font-size="11" font-weight="bold" lengthAdjust="spacing" textLength="156" x="1765" y="254.3179">Multimodal access : Practice</text></g><!--class __24_Bitemporal_data--><g id="elem___24_Bitemporal_data"><rect codeLine="31" fill="#FFFFFF" height="22.6489" id="__24_Bitemporal_data" rx="2.5" ry="2.5" style="stroke:#181818;stroke-width:0.5;" width="145" x="1331.5" y="239"/><text fill="#000000" font-family="Arial" font-size="11" font-weight="bold" lengthAdjust="spacing" textLength="139" x="1334.5" y="254.3179">Bitemporal data : Practice</text></g><!--class __25_Immutable_read_only_access--><g id="elem___25_Immutable_read_only_access"><rect codeLine="32" fill="#FFFFFF" height="22.6489" id="__25_Immutable_read_only_access" rx="2.5" ry="2.5" style="stroke:#181818;stroke-width:0.5;" width="215" x="1511.5" y="239"/><text fill="#000000" font-family="Arial" font-size="11" font-weight="bold" lengthAdjust="spacing" textLength="209" x="1514.5" y="254.3179">Immutable read-only access : Practice</text></g><!--class __26_Provide_information_about_build_time_libraries--><g id="elem___26_Provide_information_about_build_time_libraries"><rect codeLine="33" fill="#FFFFFF" height="35.2979" id="__26_Provide_information_about_build_time_libraries" rx="2.5" ry="2.5" style="stroke:#181818;stroke-width:0.5;" width="257" x="751.5" y="349"/><text fill="#000000" font-family="Arial" font-size="11" font-weight="bold" lengthAdjust="spacing" textLength="251" x="754.5" y="364.3179">Provide information about build-time libraries</text><text fill="#000000" font-family="Arial" font-size="11" font-weight="bold" lengthAdjust="spacing" textLength="50" x="856.5" y="376.9668">: Practice</text></g><!--link __1_What_are_the_elements_of_a_data_product_interface_contract_ to __2_Observation_Port--><g id="link___1_What_are_the_elements_of_a_data_product_interface_contract____2_Observation_Port"><path codeLine="34" d="M556.47,32.93 C409.06,43.46 209.92,68.72 161,129 C136.62,159.04 145.89,208.52 152.92,233.71 " fill="none" id="__1_What_are_the_elements_of_a_data_product_interface_contract_-to-__2_Observation_Port" style="stroke:#181818;stroke-width:1.0;"/><polygon fill="#181818" points="154.37,238.7,155.69,228.94,152.97,233.9,148.01,231.18,154.37,238.7" style="stroke:#181818;stroke-width:1.0;"/><text fill="#000000" font-family="Arial" font-size="11" lengthAdjust="spacing" textLength="144" x="162" y="144.8179">Implement an observation port</text><text fill="#000000" font-family="Arial" font-size="11" lengthAdjust="spacing" textLength="43" x="502.4742" y="18.0762">«Option»</text><text fill="#000000" font-family="Arial" font-size="11" lengthAdjust="spacing" textLength="39" x="504.4742" y="30.7251">{name =</text><text fill="#000000" font-family="Arial" font-size="11" lengthAdjust="spacing" textLength="4" x="148.5051" y="216.076">}</text><text fill="#000000" font-family="Arial" font-size="11" lengthAdjust="spacing" textLength="3" x="149.0051" y="228.7249"> </text></g><!--link __1_What_are_the_elements_of_a_data_product_interface_contract_ to __5_Control_Port--><g id="link___1_What_are_the_elements_of_a_data_product_interface_contract____5_Control_Port"><path codeLine="35" d="M703.35,42.18 C682.22,61.14 649.12,94.02 630,129 C612.31,161.36 634.45,183.31 608,209 C593.64,222.95 548.3,233.44 508.62,240.25 " fill="none" id="__1_What_are_the_elements_of_a_data_product_interface_contract_-to-__5_Control_Port" style="stroke:#181818;stroke-width:1.0;"/><polygon fill="#181818" points="503.32,241.15,512.8586,243.6025,508.2508,240.3211,511.5323,235.7133,503.32,241.15" style="stroke:#181818;stroke-width:1.0;"/><text fill="#000000" font-family="Arial" font-size="11" lengthAdjust="spacing" textLength="114" x="631" y="144.8179">Implement a control port</text><text fill="#000000" font-family="Arial" font-size="11" lengthAdjust="spacing" textLength="43" x="645.8878" y="60.6087">«Option»</text><text fill="#000000" font-family="Arial" font-size="11" lengthAdjust="spacing" textLength="39" x="647.8878" y="73.2577">{name =</text><text fill="#000000" font-family="Arial" font-size="11" lengthAdjust="spacing" textLength="4" x="511.0371" y="223.8444">}</text><text fill="#000000" font-family="Arial" font-size="11" lengthAdjust="spacing" textLength="3" x="511.5371" y="236.4934"> </text></g><!--link __1_What_are_the_elements_of_a_data_product_interface_contract_ to __8_Discovery_Port--><g id="link___1_What_are_the_elements_of_a_data_product_interface_contract____8_Discovery_Port"><path codeLine="36" d="M734.19,42.31 C749.34,67.37 772.5,115.49 754,152 C732.84,193.74 684.48,221.93 652.28,236.85 " fill="none" id="__1_What_are_the_elements_of_a_data_product_interface_contract_-to-__8_Discovery_Port" style="stroke:#181818;stroke-width:1.0;"/><polygon fill="#181818" points="647.65,238.96,657.4984,238.8656,652.1994,236.8856,654.1794,231.5866,647.65,238.96" style="stroke:#181818;stroke-width:1.0;"/><text fill="#000000" font-family="Arial" font-size="11" lengthAdjust="spacing" textLength="129" x="762" y="144.8179">Implement a discovery port</text><text fill="#000000" font-family="Arial" font-size="11" lengthAdjust="spacing" textLength="43" x="743.3786" y="60.7737">«Option»</text><text fill="#000000" font-family="Arial" font-size="11" lengthAdjust="spacing" textLength="39" x="745.3786" y="73.4226">{name =</text><text fill="#000000" font-family="Arial" font-size="11" lengthAdjust="spacing" textLength="4" x="652.1234" y="216.1257">}</text><text fill="#000000" font-family="Arial" font-size="11" lengthAdjust="spacing" textLength="3" x="652.6234" y="228.7746"> </text></g><!--link __1_What_are_the_elements_of_a_data_product_interface_contract_ to __4_Overarching_Management_Layer--><g id="link___1_What_are_the_elements_of_a_data_product_interface_contract____4_Overarching_Management_Layer"><path codeLine="37" d="M556.5,31.54 C494.54,37.59 434.49,49.35 415,72 C401.76,87.39 415.82,110.1 428.1,124.84 " fill="none" id="__1_What_are_the_elements_of_a_data_product_interface_contract_-to-__4_Overarching_Management_Layer" style="stroke:#181818;stroke-width:1.0;"/><polygon fill="#181818" points="431.49,128.78,428.6523,119.3488,428.229,124.9898,422.588,124.5664,431.49,128.78" style="stroke:#181818;stroke-width:1.0;"/><text fill="#000000" font-family="Arial" font-size="11" lengthAdjust="spacing" textLength="187" x="416" y="83.3179">Implement an overarching management</text><text fill="#000000" font-family="Arial" font-size="11" lengthAdjust="spacing" textLength="24" x="497.5" y="95.9668">layer</text><text fill="#000000" font-family="Arial" font-size="11" lengthAdjust="spacing" textLength="43" x="502.5055" y="42.6822">«Option»</text><text fill="#000000" font-family="Arial" font-size="11" lengthAdjust="spacing" textLength="39" x="504.5055" y="55.3311">{name =</text><text fill="#000000" font-family="Arial" font-size="11" lengthAdjust="spacing" textLength="4" x="423.1897" y="105.8838">}</text><text fill="#000000" font-family="Arial" font-size="11" lengthAdjust="spacing" textLength="3" x="423.6897" y="118.5327"> </text></g><!--link __1_What_are_the_elements_of_a_data_product_interface_contract_ to __10_Input_Port--><g id="link___1_What_are_the_elements_of_a_data_product_interface_contract____10_Input_Port"><path codeLine="38" d="M768.66,42.08 C832.23,65.16 945.96,106.45 1002.76,127.07 " fill="none" id="__1_What_are_the_elements_of_a_data_product_interface_contract_-to-__10_Input_Port" style="stroke:#181818;stroke-width:1.0;"/><polygon fill="#181818" points="1007.75,128.88,1000.6472,122.0573,1003.0481,127.1793,997.9261,129.5803,1007.75,128.88" style="stroke:#181818;stroke-width:1.0;"/><text fill="#000000" font-family="Arial" font-size="11" lengthAdjust="spacing" textLength="110" x="919" y="89.8179">Implement an input port</text><text fill="#000000" font-family="Arial" font-size="11" lengthAdjust="spacing" textLength="43" x="787.1124" y="60.4819">«Option»</text><text fill="#000000" font-family="Arial" font-size="11" lengthAdjust="spacing" textLength="39" x="789.1124" y="73.1308">{name =</text><text fill="#000000" font-family="Arial" font-size="11" lengthAdjust="spacing" textLength="4" x="993.0078" y="106.0182">}</text><text fill="#000000" font-family="Arial" font-size="11" lengthAdjust="spacing" textLength="3" x="993.5078" y="118.6671"> </text></g><!--link __1_What_are_the_elements_of_a_data_product_interface_contract_ to __12_Output_Port--><g id="link___1_What_are_the_elements_of_a_data_product_interface_contract____12_Output_Port"><path codeLine="39" d="M847.09,42.01 C905.2,50.2 975.29,60.75 1038,72 C1133.38,89.11 1243.84,113.52 1306.57,127.82 " fill="none" id="__1_What_are_the_elements_of_a_data_product_interface_contract_-to-__12_Output_Port" style="stroke:#181818;stroke-width:1.0;"/><polygon fill="#181818" points="1311.74,129,1303.8585,123.0939,1306.8659,127.8851,1302.0747,130.8925,1311.74,129" style="stroke:#181818;stroke-width:1.0;"/><text fill="#000000" font-family="Arial" font-size="11" lengthAdjust="spacing" textLength="110" x="1170" y="89.8179">Implement an input port</text><text fill="#000000" font-family="Arial" font-size="11" lengthAdjust="spacing" textLength="43" x="888.4591" y="60.7682">«Option»</text><text fill="#000000" font-family="Arial" font-size="11" lengthAdjust="spacing" textLength="39" x="890.4591" y="73.4171">{name =</text><text fill="#000000" font-family="Arial" font-size="11" lengthAdjust="spacing" textLength="4" x="1290.9036" y="105.8835">}</text><text fill="#000000" font-family="Arial" font-size="11" lengthAdjust="spacing" textLength="3" x="1291.4036" y="118.5324"> </text></g><!--link __2_Observation_Port to __3_Provide_a_single_integrated_experience_for_monitoring--><g id="link___2_Observation_Port___3_Provide_a_single_integrated_experience_for_monitoring"><path codeLine="40" d="M158,262.02 C158,280.47 158,319.02 158,343.5 " fill="none" id="__2_Observation_Port-to-__3_Provide_a_single_integrated_experience_for_monitoring" style="stroke:#181818;stroke-width:1.0;"/><polygon fill="#181818" points="158,348.8,162,339.8,158,343.8,154,339.8,158,348.8" style="stroke:#181818;stroke-width:1.0;"/><text fill="#000000" font-family="Arial" font-size="11" lengthAdjust="spacing" textLength="53" x="159" y="303.3179">«Realizes»</text><text fill="#000000" font-family="Arial" font-size="11" lengthAdjust="spacing" textLength="3" x="185.5" y="315.9668"> </text></g><!--link __4_Overarching_Management_Layer to __5_Control_Port--><g id="link___4_Overarching_Management_Layer___5_Control_Port"><path codeLine="41" d="M442,152.25 C442,171.33 442,211.22 442,233.52 " fill="none" id="__4_Overarching_Management_Layer-to-__5_Control_Port" style="stroke:#181818;stroke-width:1.0;"/><polygon fill="#181818" points="442,238.79,446,229.79,442,233.79,438,229.79,442,238.79" style="stroke:#181818;stroke-width:1.0;"/><text fill="#000000" font-family="Arial" font-size="11" lengthAdjust="spacing" textLength="52" x="443" y="193.3179">«Includes»</text><text fill="#000000" font-family="Arial" font-size="11" lengthAdjust="spacing" textLength="3" x="469" y="205.9668"> </text></g><!--link __4_Overarching_Management_Layer to __8_Discovery_Port--><g id="link___4_Overarching_Management_Layer___8_Discovery_Port"><path codeLine="42" d="M459.49,152.05 C492.24,171.81 562.75,214.36 598.8,236.11 " fill="none" id="__4_Overarching_Management_Layer-to-__8_Discovery_Port" style="stroke:#181818;stroke-width:1.0;"/><polygon fill="#181818" points="603.44,238.91,597.8003,230.8357,599.1588,236.327,593.6675,237.6856,603.44,238.91" style="stroke:#181818;stroke-width:1.0;"/><text fill="#000000" font-family="Arial" font-size="11" lengthAdjust="spacing" textLength="52" x="554" y="193.3179">«Includes»</text><text fill="#000000" font-family="Arial" font-size="11" lengthAdjust="spacing" textLength="3" x="580" y="205.9668"> </text></g><!--link __4_Overarching_Management_Layer to __2_Observation_Port--><g id="link___4_Overarching_Management_Layer___2_Observation_Port"><path codeLine="43" d="M414.25,152.05 C361.55,172.09 247.2,215.58 190.81,237.02 " fill="none" id="__4_Overarching_Management_Layer-to-__2_Observation_Port" style="stroke:#181818;stroke-width:1.0;"/><polygon fill="#181818" points="185.86,238.91,195.695,239.4327,190.5304,237.1247,192.8385,231.9601,185.86,238.91" style="stroke:#181818;stroke-width:1.0;"/><text fill="#000000" font-family="Arial" font-size="11" lengthAdjust="spacing" textLength="52" x="335" y="193.3179">«Includes»</text><text fill="#000000" font-family="Arial" font-size="11" lengthAdjust="spacing" textLength="3" x="361" y="205.9668"> </text></g><!--link __5_Control_Port to __6_Policy_Enforcement--><g id="link___5_Control_Port___6_Policy_Enforcement"><path codeLine="44" d="M440.62,262.02 C437.97,282.11 432.19,326.03 429.08,349.67 " fill="none" id="__5_Control_Port-to-__6_Policy_Enforcement" style="stroke:#181818;stroke-width:1.0;"/><polygon fill="#181818" points="428.42,354.67,433.5442,346.2592,429.063,349.7115,425.6107,345.2303,428.42,354.67" style="stroke:#181818;stroke-width:1.0;"/><text fill="#000000" font-family="Arial" font-size="11" lengthAdjust="spacing" textLength="50" x="438" y="303.3179">«Enables»</text><text fill="#000000" font-family="Arial" font-size="11" lengthAdjust="spacing" textLength="3" x="463" y="315.9668"> </text></g><!--link __6_Policy_Enforcement to __7_Retention_policies--><g id="link___6_Policy_Enforcement___7_Retention_policies"><path codeLine="45" d="M426.11,378.15 C424.35,399.27 420.41,446.55 418.34,471.46 " fill="none" id="__6_Policy_Enforcement-to-__7_Retention_policies" style="stroke:#181818;stroke-width:1.0;"/><polygon fill="#181818" points="417.9,476.7,422.6315,468.0621,418.314,471.7172,414.659,467.3997,417.9,476.7" style="stroke:#181818;stroke-width:1.0;"/><text fill="#000000" font-family="Arial" font-size="11" lengthAdjust="spacing" textLength="52" x="424" y="425.3179">«Includes»</text><text fill="#000000" font-family="Arial" font-size="11" lengthAdjust="spacing" textLength="3" x="450" y="437.9668"> </text></g><!--link __8_Discovery_Port to __9_Data_Marketplace--><g id="link___8_Discovery_Port___9_Data_Marketplace"><path codeLine="46" d="M621,262.02 C621,282.02 621,325.66 621,349.37 " fill="none" id="__8_Discovery_Port-to-__9_Data_Marketplace" style="stroke:#181818;stroke-width:1.0;"/><polygon fill="#181818" points="621,354.67,625,345.67,621,349.67,617,345.67,621,354.67" style="stroke:#181818;stroke-width:1.0;"/><text fill="#000000" font-family="Arial" font-size="11" lengthAdjust="spacing" textLength="50" x="622" y="303.3179">«Enables»</text><text fill="#000000" font-family="Arial" font-size="11" lengthAdjust="spacing" textLength="3" x="647" y="315.9668"> </text></g><!--link __10_Input_Port to __11_Static_Coupling--><g id="link___10_Input_Port___11_Static_Coupling"><path codeLine="47" d="M1029.24,152.22 C1024.08,160.05 1017.76,171.14 1015,182 C1010.6,199.31 1013.53,219.84 1016.64,233.67 " fill="none" id="__10_Input_Port-to-__11_Static_Coupling" style="stroke:#181818;stroke-width:1.0;"/><polygon fill="#181818" points="1017.88,238.8,1019.6584,229.113,1016.7077,233.9394,1011.8814,230.9887,1017.88,238.8" style="stroke:#181818;stroke-width:1.0;"/><text fill="#000000" font-family="Arial" font-size="11" lengthAdjust="spacing" textLength="53" x="1016" y="193.3179">«Realizes»</text><text fill="#000000" font-family="Arial" font-size="11" lengthAdjust="spacing" textLength="3" x="1042.5" y="205.9668"> </text></g><!--link __10_Input_Port to __13_Dynamic_Coupling--><g id="link___10_Input_Port___13_Dynamic_Coupling"><path codeLine="48" d="M1046.86,152.42 C1060.5,167 1086.48,192.84 1113,209 C1132.54,220.9 1156.16,230.39 1176.06,237.18 " fill="none" id="__10_Input_Port-to-__13_Dynamic_Coupling" style="stroke:#181818;stroke-width:1.0;"/><polygon fill="#181818" points="1181.03,238.85,1173.7628,232.2026,1176.288,237.2646,1171.2261,239.7898,1181.03,238.85" style="stroke:#181818;stroke-width:1.0;"/><text fill="#000000" font-family="Arial" font-size="11" lengthAdjust="spacing" textLength="50" x="1114" y="193.3179">«Enables»</text><text fill="#000000" font-family="Arial" font-size="11" lengthAdjust="spacing" textLength="3" x="1139" y="205.9668"> </text></g><!--link __11_Static_Coupling to __14_Synchronous--><g id="link___11_Static_Coupling___14_Synchronous"><path codeLine="49" d="M1017.14,262 C1012.66,276.1 1007.18,301.41 1018,319 C1027.94,335.16 1045.43,345.91 1062.51,352.96 " fill="none" id="__11_Static_Coupling-to-__14_Synchronous" style="stroke:#181818;stroke-width:1.0;"/><polygon fill="#181818" points="1067.31,354.86,1060.4132,347.8291,1062.6608,353.0203,1057.4696,355.2679,1067.31,354.86" style="stroke:#181818;stroke-width:1.0;"/><text fill="#000000" font-family="Arial" font-size="11" lengthAdjust="spacing" textLength="53" x="1019" y="303.3179">«Realizes»</text><text fill="#000000" font-family="Arial" font-size="11" lengthAdjust="spacing" textLength="3" x="1045.5" y="315.9668"> </text></g><!--link __11_Static_Coupling to __17_Asynchronous--><g id="link___11_Static_Coupling___17_Asynchronous"><path codeLine="50" d="M1037.33,262.08 C1049.35,270.01 1065.97,281.31 1080,292 C1094.8,303.28 1095.36,310.66 1112,319 C1150.73,338.42 1197.77,349.88 1236.5,356.56 " fill="none" id="__11_Static_Coupling-to-__17_Asynchronous" style="stroke:#181818;stroke-width:1.0;"/><polygon fill="#181818" points="1241.66,357.43,1233.4451,351.9971,1236.7288,356.6034,1232.1226,359.887,1241.66,357.43" style="stroke:#181818;stroke-width:1.0;"/><text fill="#000000" font-family="Arial" font-size="11" lengthAdjust="spacing" textLength="50" x="1113" y="303.3179">«Enables»</text><text fill="#000000" font-family="Arial" font-size="11" lengthAdjust="spacing" textLength="3" x="1138" y="315.9668"> </text></g><!--link __11_Static_Coupling to __26_Provide_information_about_build_time_libraries--><g id="link___11_Static_Coupling___26_Provide_information_about_build_time_libraries"><path codeLine="51" d="M998.16,262.09 C983.43,269.45 964.24,280.06 949,292 C928.93,307.72 909.36,329.35 896.22,345.07 " fill="none" id="__11_Static_Coupling-to-__26_Provide_information_about_build_time_libraries" style="stroke:#181818;stroke-width:1.0;"/><polygon fill="#181818" points="893.02,348.93,901.8433,344.5541,896.2111,345.0807,895.6845,339.4484,893.02,348.93" style="stroke:#181818;stroke-width:1.0;"/><text fill="#000000" font-family="Arial" font-size="11" lengthAdjust="spacing" textLength="50" x="950" y="303.3179">«Enables»</text><text fill="#000000" font-family="Arial" font-size="11" lengthAdjust="spacing" textLength="3" x="975" y="315.9668"> </text></g><!--link __12_Output_Port to __11_Static_Coupling--><g id="link___12_Output_Port___11_Static_Coupling"><path codeLine="52" d="M1297.73,150.84 C1268.4,157.01 1233.13,166.84 1204,182 C1187.49,190.59 1188.49,200.38 1172,209 C1146.52,222.31 1116.28,231.54 1089.58,237.79 " fill="none" id="__12_Output_Port-to-__11_Static_Coupling" style="stroke:#181818;stroke-width:1.0;"/><polygon fill="#181818" points="1084.64,238.92,1094.3053,240.8125,1089.5141,237.8051,1092.5215,233.0139,1084.64,238.92" style="stroke:#181818;stroke-width:1.0;"/><text fill="#000000" font-family="Arial" font-size="11" lengthAdjust="spacing" textLength="53" x="1205" y="193.3179">«Realizes»</text><text fill="#000000" font-family="Arial" font-size="11" lengthAdjust="spacing" textLength="3" x="1231.5" y="205.9668"> </text></g><!--link __12_Output_Port to __13_Dynamic_Coupling--><g id="link___12_Output_Port___13_Dynamic_Coupling"><path codeLine="53" d="M1343.42,152.05 C1318.16,171.68 1263.96,213.79 1235.8,235.67 " fill="none" id="__12_Output_Port-to-__13_Dynamic_Coupling" style="stroke:#181818;stroke-width:1.0;"/><polygon fill="#181818" points="1231.84,238.75,1241.4035,236.3964,1235.7914,235.6862,1236.5015,230.0741,1231.84,238.75" style="stroke:#181818;stroke-width:1.0;"/><text fill="#000000" font-family="Arial" font-size="11" lengthAdjust="spacing" textLength="50" x="1305" y="193.3179">«Enables»</text><text fill="#000000" font-family="Arial" font-size="11" lengthAdjust="spacing" textLength="3" x="1330" y="205.9668"> </text></g><!--link __12_Output_Port to __23_Multimodal_access--><g id="link___12_Output_Port___23_Multimodal_access"><path codeLine="54" d="M1416.31,150.7 C1462.47,158.18 1528.06,169.51 1585,182 C1661.95,198.87 1750.59,223.14 1801.38,237.51 " fill="none" id="__12_Output_Port-to-__23_Multimodal_access" style="stroke:#181818;stroke-width:1.0;"/><polygon fill="#181818" points="1806.48,238.96,1798.9202,232.6473,1801.6713,237.5902,1796.7285,240.3413,1806.48,238.96" style="stroke:#181818;stroke-width:1.0;"/><text fill="#000000" font-family="Arial" font-size="11" lengthAdjust="spacing" textLength="53" x="1692" y="193.3179">«Realizes»</text><text fill="#000000" font-family="Arial" font-size="11" lengthAdjust="spacing" textLength="3" x="1718.5" y="205.9668"> </text></g><!--link __12_Output_Port to __24_Bitemporal_data--><g id="link___12_Output_Port___24_Bitemporal_data"><path codeLine="55" d="M1361.68,152.25 C1370.05,171.5 1387.63,211.89 1397.29,234.09 " fill="none" id="__12_Output_Port-to-__24_Bitemporal_data" style="stroke:#181818;stroke-width:1.0;"/><polygon fill="#181818" points="1399.34,238.79,1399.4085,228.9414,1397.3412,234.2069,1392.0756,232.1395,1399.34,238.79" style="stroke:#181818;stroke-width:1.0;"/><text fill="#000000" font-family="Arial" font-size="11" lengthAdjust="spacing" textLength="50" x="1387" y="193.3179">«Enables»</text><text fill="#000000" font-family="Arial" font-size="11" lengthAdjust="spacing" textLength="3" x="1412" y="205.9668"> </text></g><!--link __12_Output_Port to __25_Immutable_read_only_access--><g id="link___12_Output_Port___25_Immutable_read_only_access"><path codeLine="56" d="M1382.6,152.05 C1431.12,172.05 1536.28,215.4 1588.42,236.89 " fill="none" id="__12_Output_Port-to-__25_Immutable_read_only_access" style="stroke:#181818;stroke-width:1.0;"/><polygon fill="#181818" points="1593.3,238.91,1586.4932,231.7919,1588.6745,237.0113,1583.4552,239.1927,1593.3,238.91" style="stroke:#181818;stroke-width:1.0;"/><text fill="#000000" font-family="Arial" font-size="11" lengthAdjust="spacing" textLength="53" x="1520" y="193.3179">«Realizes»</text><text fill="#000000" font-family="Arial" font-size="11" lengthAdjust="spacing" textLength="3" x="1546.5" y="205.9668"> </text></g><!--link __13_Dynamic_Coupling to __14_Synchronous--><g id="link___13_Dynamic_Coupling___14_Synchronous"><path codeLine="57" d="M1212.71,262.44 C1205.52,276.57 1191.63,301.45 1175,319 C1162.65,332.03 1146.18,343.77 1132.91,352.19 " fill="none" id="__13_Dynamic_Coupling-to-__14_Synchronous" style="stroke:#181818;stroke-width:1.0;"/><polygon fill="#181818" points="1128.55,354.91,1138.3041,353.5468,1132.794,352.2664,1134.0743,346.7564,1128.55,354.91" style="stroke:#181818;stroke-width:1.0;"/><text fill="#000000" font-family="Arial" font-size="11" lengthAdjust="spacing" textLength="53" x="1196" y="303.3179">«Realizes»</text><text fill="#000000" font-family="Arial" font-size="11" lengthAdjust="spacing" textLength="3" x="1222.5" y="315.9668"> </text></g><!--link __13_Dynamic_Coupling to __17_Asynchronous--><g id="link___13_Dynamic_Coupling___17_Asynchronous"><path codeLine="58" d="M1236.49,262.13 C1248.04,269.44 1262.62,279.97 1273,292 C1288.18,309.59 1299.68,334.08 1306.13,349.87 " fill="none" id="__13_Dynamic_Coupling-to-__17_Asynchronous" style="stroke:#181818;stroke-width:1.0;"/><polygon fill="#181818" points="1308.12,354.86,1308.5018,345.0185,1306.268,350.2157,1301.0709,347.9818,1308.12,354.86" style="stroke:#181818;stroke-width:1.0;"/><text fill="#000000" font-family="Arial" font-size="11" lengthAdjust="spacing" textLength="50" x="1291" y="303.3179">«Enables»</text><text fill="#000000" font-family="Arial" font-size="11" lengthAdjust="spacing" textLength="3" x="1316" y="315.9668"> </text></g><!--link __13_Dynamic_Coupling to __22_Provide_information_about_runtime--><g id="link___13_Dynamic_Coupling___22_Provide_information_about_runtime"><path codeLine="59" d="M1256.08,262.05 C1283.27,269.79 1320.6,280.86 1353,292 C1409.87,311.56 1475,337.74 1512.05,353 " fill="none" id="__13_Dynamic_Coupling-to-__22_Provide_information_about_runtime" style="stroke:#181818;stroke-width:1.0;"/><polygon fill="#181818" points="1516.86,354.99,1510.072,347.854,1512.2396,353.0791,1507.0145,355.2467,1516.86,354.99" style="stroke:#181818;stroke-width:1.0;"/><text fill="#000000" font-family="Arial" font-size="11" lengthAdjust="spacing" textLength="50" x="1427" y="303.3179">«Enables»</text><text fill="#000000" font-family="Arial" font-size="11" lengthAdjust="spacing" textLength="3" x="1452" y="315.9668"> </text></g><!--link __14_Synchronous to __15_CRUD_style_operations--><g id="link___14_Synchronous___15_CRUD_style_operations"><path codeLine="60" d="M1060.38,378 C1049.11,380.18 1037.17,382.31 1026,384 C900.93,402.87 862.83,373.52 743,414 C702.66,427.62 661.52,456.46 639.12,473.69 " fill="none" id="__14_Synchronous-to-__15_CRUD_style_operations" style="stroke:#181818;stroke-width:1.0;"/><polygon fill="#181818" points="635.16,476.76,644.7276,474.4231,639.1167,473.7032,639.8367,468.0923,635.16,476.76" style="stroke:#181818;stroke-width:1.0;"/><text fill="#000000" font-family="Arial" font-size="11" lengthAdjust="spacing" textLength="50" x="744" y="425.3179">«Enables»</text><text fill="#000000" font-family="Arial" font-size="11" lengthAdjust="spacing" textLength="3" x="769" y="437.9668"> </text></g><!--link __14_Synchronous to __16_Attach_REST_APIs_to_each_data_product--><g id="link___14_Synchronous___16_Attach_REST_APIs_to_each_data_product"><path codeLine="61" d="M1176.27,377.57 C1256.49,389.89 1382.18,409.64 1392,414 C1409.64,421.82 1408.43,433.02 1426,441 C1470.02,460.98 1522.03,472.38 1567.48,478.88 " fill="none" id="__14_Synchronous-to-__16_Attach_REST_APIs_to_each_data_product" style="stroke:#181818;stroke-width:1.0;"/><polygon fill="#181818" points="1572.71,479.61,1564.345,474.4112,1567.7574,478.9229,1563.2457,482.3353,1572.71,479.61" style="stroke:#181818;stroke-width:1.0;"/><text fill="#000000" font-family="Arial" font-size="11" lengthAdjust="spacing" textLength="114" x="1427" y="425.3179">«Can be Realized With»</text><text fill="#000000" font-family="Arial" font-size="11" lengthAdjust="spacing" textLength="3" x="1484" y="437.9668"> </text></g><!--link __14_Synchronous to __21_GraphQL--><g id="link___14_Synchronous___21_GraphQL"><path codeLine="62" d="M1058.54,378.02 C1047.81,380.1 1036.55,382.19 1026,384 C980.62,391.77 855.26,383.24 821,414 C804.88,428.48 801.63,454.67 801.36,471.57 " fill="none" id="__14_Synchronous-to-__21_GraphQL" style="stroke:#181818;stroke-width:1.0;"/><polygon fill="#181818" points="801.38,476.91,805.38,467.91,801.38,471.91,797.38,467.91,801.38,476.91" style="stroke:#181818;stroke-width:1.0;"/><text fill="#000000" font-family="Arial" font-size="11" lengthAdjust="spacing" textLength="114" x="822" y="425.3179">«Can be Realized With»</text><text fill="#000000" font-family="Arial" font-size="11" lengthAdjust="spacing" textLength="3" x="879" y="437.9668"> </text></g><!--link __14_Synchronous to __18_gRPC--><g id="link___14_Synchronous___18_gRPC"><path codeLine="63" d="M1105.69,378.23 C1100.13,394.03 1092.87,423.54 1108,441 C1138.73,476.46 1270.63,463.85 1317,471 C1333.55,473.55 1351.61,476.49 1367.78,479.17 " fill="none" id="__14_Synchronous-to-__18_gRPC" style="stroke:#181818;stroke-width:1.0;"/><polygon fill="#181818" points="1372.73,479.99,1364.4999,474.5803,1367.7965,479.1773,1363.1995,482.4739,1372.73,479.99" style="stroke:#181818;stroke-width:1.0;"/><text fill="#000000" font-family="Arial" font-size="11" lengthAdjust="spacing" textLength="114" x="1109" y="425.3179">«Can be Realized With»</text><text fill="#000000" font-family="Arial" font-size="11" lengthAdjust="spacing" textLength="3" x="1166" y="437.9668"> </text></g><!--link __14_Synchronous to __19_Attach_a_DBQuery_Endpoint_to_each_Data_Product--><g id="link___14_Synchronous___19_Attach_a_DBQuery_Endpoint_to_each_Data_Product"><path codeLine="64" d="M1064.42,378.07 C1020.55,388.7 959.87,404.8 953,414 C945.82,423.61 945.47,431.65 953,441 C963.78,454.38 993.7,464.12 1027.83,471.12 " fill="none" id="__14_Synchronous-to-__19_Attach_a_DBQuery_Endpoint_to_each_Data_Product" style="stroke:#181818;stroke-width:1.0;"/><polygon fill="#181818" points="1032.89,472.13,1024.8365,466.4606,1027.9849,471.1604,1023.2852,474.3088,1032.89,472.13" style="stroke:#181818;stroke-width:1.0;"/><text fill="#000000" font-family="Arial" font-size="11" lengthAdjust="spacing" textLength="114" x="954" y="425.3179">«Can be Realized With»</text><text fill="#000000" font-family="Arial" font-size="11" lengthAdjust="spacing" textLength="3" x="1011" y="437.9668"> </text></g><!--link __17_Asynchronous to __16_Attach_REST_APIs_to_each_data_product--><g id="link___17_Asynchronous___16_Attach_REST_APIs_to_each_data_product"><path codeLine="65" d="M1364.47,378.06 C1376.13,380.2 1388.46,382.32 1400,384 C1463.23,393.23 1643.23,366.51 1686,414 C1698.5,427.88 1694.8,449.81 1689.31,466.11 " fill="none" id="__17_Asynchronous-to-__16_Attach_REST_APIs_to_each_data_product" style="stroke:#181818;stroke-width:1.0;"/><polygon fill="#181818" points="1687.56,470.97,1694.3636,463.8488,1689.248,466.2636,1686.8333,461.148,1687.56,470.97" style="stroke:#181818;stroke-width:1.0;"/><text fill="#000000" font-family="Arial" font-size="11" lengthAdjust="spacing" textLength="114" x="1695" y="425.3179">«Can be Realized With»</text><text fill="#000000" font-family="Arial" font-size="11" lengthAdjust="spacing" textLength="3" x="1752" y="437.9668"> </text></g><!--link __17_Asynchronous to __18_gRPC--><g id="link___17_Asynchronous___18_gRPC"><path codeLine="66" d="M1367.68,378.02 C1438.62,391.46 1552.25,413.1 1553,414 C1581.33,448.32 1515.91,469.01 1466.3,479.34 " fill="none" id="__17_Asynchronous-to-__18_gRPC" style="stroke:#181818;stroke-width:1.0;"/><polygon fill="#181818" points="1461.25,480.36,1470.8681,482.4796,1466.149,479.3602,1469.2684,474.6411,1461.25,480.36" style="stroke:#181818;stroke-width:1.0;"/><text fill="#000000" font-family="Arial" font-size="11" lengthAdjust="spacing" textLength="114" x="1560" y="425.3179">«Can be Realized With»</text><text fill="#000000" font-family="Arial" font-size="11" lengthAdjust="spacing" textLength="3" x="1617" y="437.9668"> </text></g><!--link __17_Asynchronous to __19_Attach_a_DBQuery_Endpoint_to_each_Data_Product--><g id="link___17_Asynchronous___19_Attach_a_DBQuery_Endpoint_to_each_Data_Product"><path codeLine="67" d="M1302.05,378.07 C1287.84,392.9 1260.63,420.38 1235,441 C1223.17,450.52 1209.43,460.06 1197.33,468 " fill="none" id="__17_Asynchronous-to-__19_Attach_a_DBQuery_Endpoint_to_each_Data_Product" style="stroke:#181818;stroke-width:1.0;"/><polygon fill="#181818" points="1192.96,470.85,1202.6839,469.2861,1197.1486,468.1195,1198.3151,462.5843,1192.96,470.85" style="stroke:#181818;stroke-width:1.0;"/><text fill="#000000" font-family="Arial" font-size="11" lengthAdjust="spacing" textLength="114" x="1266" y="425.3179">«Can be Realized With»</text><text fill="#000000" font-family="Arial" font-size="11" lengthAdjust="spacing" textLength="3" x="1323" y="437.9668"> </text></g><!--link __17_Asynchronous to __20_Pub_Sub--><g id="link___17_Asynchronous___20_Pub_Sub"><path codeLine="68" d="M1362.57,378 C1374.78,380.26 1387.82,382.43 1400,384 C1493.02,396 1733.92,379.15 1821,414 C1853,426.81 1882.17,455.58 1897.88,473.09 " fill="none" id="__17_Asynchronous-to-__20_Pub_Sub" style="stroke:#181818;stroke-width:1.0;"/><polygon fill="#181818" points="1901.2,476.85,1898.2483,467.4539,1897.8933,473.0996,1892.2476,472.7446,1901.2,476.85" style="stroke:#181818;stroke-width:1.0;"/><text fill="#000000" font-family="Arial" font-size="11" lengthAdjust="spacing" textLength="114" x="1864" y="425.3179">«Can be Realized With»</text><text fill="#000000" font-family="Arial" font-size="11" lengthAdjust="spacing" textLength="3" x="1921" y="437.9668"> </text></g><!--SRC=[lLVRRkCs47tFLn1vDtRjPBCNe2qIEoq2RBfUUnTv2J2WA3ec8f42HGLrYtvHFw5l-sKTKg8iMPHNTjq-sZpdpE5mo1dbpq9cLDEKf4egjjOgvSJeWf_bzSeqeNb-GzdparQ5ZASgKPeyh8NXPsiHSyBJp6n8ojE8wxpyYmdDagP6p5UqICpFIffVAOQure8cuVMb-9sJyRYnoAo15IxbPfDm4gaaFdF_aVE7DJM4QlIyHYC9JpcYY5eHIc9gACcqYWjcY926wnLb_1L37KsP-UbHaWzanfd8XPBdXEO4O0nM450GK12y8AWLKB22K0b2BGXU4BodJr7EzGirA4lcIXiCCwS6uJxA11eGi11FdMlrOlD7IIxa4-xLXddIrF2OyDyohWMNZ9CL7W2Ubp1A8ynjP6uj2CQh41TGIQ7lKWgsKh2L0fI2hLIzXHUkgMPh_8lSKqcVN1x8HxhXkXli4XfusEB1uRtcrEP99U6Kl85gkPqEbGYs8RSINRBIGYVu5PGeQA0yVy4D_hBda5cCu7cN_nPg57YKvyz4pXHkRHCs_GvgGClsp5RUFTNFt6G9baWtw7km66XWFFTEPeK9Xnk_1hVQYhKqM4MCJ5MH9VQqEg76OoWnu37r8HUcFnRMg5jkRsmZQRe_sWLKe4wuvKRQzqMg8d0AuqjehDSbi_Ww6vMNNc75kliI8cFr818S4hP8BtDj36LhihXTVY7NyxkS64Mu_QVvH8HkqVWAIYvOBbWk60MMsteDwa3vtZs-XIR0avuMysa0_0ximiuMA9dTV2viGTxAE5DufUkzkAARxzdBUxyN2fK8U95wKwugv-rDpOlerRA8kg_OQy0bm2MF_4NJRFtvOpVsP0pLskv39-obJSktaaOAor4NU1VJm9sPJEethS42nuAAvUNliPU8LCKq8PGndWTEOt81MnIKA4-_mTwMPaeZtPL8btm9MumhXVh-fcbXQ8GLgpcDHqecctuBRw26WuM3XUzuwSzKL8Wa7hba9IB2znTVhj39Jwxs9Cw9W1M1MkJiNpP2CXhz66np7yZvjxy-PVRtjx_9e_n3sbdW1vkrh8n0g2IgqJynmURypqUikHEPQZUQ8OO8gnhNoRtizez1RkAw9vtSp_u-Fl3m6fD3MYiyoiHAdDHjgnqECoTSSprvtjhDycWhtVjIwHyvp3aZ2quJ7AXpPyM5sN_A_TVaJhAaY0zM2XRvaLezBqfNhMs_OeScHSU_bVO5Rj13o4eaD2xscDZTUQNGdVt29bhrxIkjCypr77AGt9tDUY9tedY5rfJM5xgNtPv_3enzS1VhqM_TrOFJ6cGFpck87Pf33edU7KKE2Rvl0kbpqTtkGUNHJnzK7xtq8VDXZsRBjtVJyr5nYCJ0pmSdESMc475I9Imc3yAilwE_7QkFLQY-Cewc7_fDCIHGkmh-WrI60mpFH9Z_lwLY-ztrFOb_0000]--></g></svg>