<?xml version="1.0" encoding="UTF-8" standalone="no"?><svg xmlns="http://www.w3.org/2000/svg" xmlns:xlink="http://www.w3.org/1999/xlink" contentStyleType="text/css" height="804px" preserveAspectRatio="none" style="width:2029px;height:804px;background:#FFFFFF;" version="1.1" viewBox="0 0 2029 804" width="2029px" zoomAndPan="magnify"><defs/><g><!--class __1_What_are_the_elements_of_a_data_product_interface_contract_--><g id="elem___1_What_are_the_elements_of_a_data_product_interface_contract_"><rect codeLine="9" fill="#FFFFFF" height="35.2979" id="__1_What_are_the_elements_of_a_data_product_interface_contract_" rx="2.5" ry="2.5" style="stroke:#181818;stroke-width:0.5;" width="333" x="7" y="212.5"/><text fill="#000000" font-family="Arial" font-size="11" font-weight="bold" lengthAdjust="spacing" textLength="327" x="10" y="227.8179">What are the elements of a data product interface/contract?</text><text fill="#000000" font-family="Arial" font-size="11" font-weight="bold" lengthAdjust="spacing" textLength="53" x="148.5" y="240.4668">: Decision</text></g><!--class __2_Observation_Port--><g id="elem___2_Observation_Port"><rect codeLine="10" fill="#FFFFFF" height="22.6489" id="__2_Observation_Port" rx="2.5" ry="2.5" style="stroke:#181818;stroke-width:0.5;" width="148" x="975.5" y="21.5"/><text fill="#000000" font-family="Arial" font-size="11" font-weight="bold" lengthAdjust="spacing" textLength="142" x="978.5" y="36.8179">Observation Port : Pattern</text></g><!--class __3_Provide_a_single_integrated_experience_for_monitoring--><g id="elem___3_Provide_a_single_integrated_experience_for_monitoring"><rect codeLine="11" fill="#FFFFFF" height="35.2979" id="__3_Provide_a_single_integrated_experience_for_monitoring" rx="2.5" ry="2.5" style="stroke:#181818;stroke-width:0.5;" width="302" x="1275" y="15.5"/><text fill="#000000" font-family="Arial" font-size="11" font-weight="bold" lengthAdjust="spacing" textLength="296" x="1278" y="30.8179">Provide a single integrated experience for monitoring</text><text fill="#000000" font-family="Arial" font-size="11" font-weight="bold" lengthAdjust="spacing" textLength="50" x="1402.5" y="43.4668">: Practice</text></g><!--class __4_Overarching_Management_Layer--><g id="elem___4_Overarching_Management_Layer"><rect codeLine="12" fill="#FFFFFF" height="22.6489" id="__4_Overarching_Management_Layer" rx="2.5" ry="2.5" style="stroke:#181818;stroke-width:0.5;" width="235" x="589" y="171.5"/><text fill="#000000" font-family="Arial" font-size="11" font-weight="bold" lengthAdjust="spacing" textLength="229" x="592" y="186.8179">Overarching Management Layer : Practice</text></g><!--class __5_Control_Port--><g id="elem___5_Control_Port"><rect codeLine="13" fill="#FFFFFF" height="22.6489" id="__5_Control_Port" rx="2.5" ry="2.5" style="stroke:#181818;stroke-width:0.5;" width="122" x="988.5" y="222.5"/><text fill="#000000" font-family="Arial" font-size="11" font-weight="bold" lengthAdjust="spacing" textLength="116" x="991.5" y="237.8179">Control Port : Pattern</text></g><!--class __6_Policy_Enforcement--><g id="elem___6_Policy_Enforcement"><rect codeLine="14" fill="#FFFFFF" height="22.6489" id="__6_Policy_Enforcement" rx="2.5" ry="2.5" style="stroke:#181818;stroke-width:0.5;" width="165" x="1343.5" y="185.5"/><text fill="#000000" font-family="Arial" font-size="11" font-weight="bold" lengthAdjust="spacing" textLength="159" x="1346.5" y="200.8179">Policy Enforcement : Practice</text></g><!--class __7_Retention_policies--><g id="elem___7_Retention_policies"><rect codeLine="15" fill="#FFFFFF" height="22.6489" id="__7_Retention_policies" rx="2.5" ry="2.5" style="stroke:#181818;stroke-width:0.5;" width="158" x="1810" y="134.5"/><text fill="#000000" font-family="Arial" font-size="11" font-weight="bold" lengthAdjust="spacing" textLength="152" x="1813" y="149.8179">Retention policies : Practice</text></g><!--class __8_Discovery_Port--><g id="elem___8_Discovery_Port"><rect codeLine="16" fill="#FFFFFF" height="22.6489" id="__8_Discovery_Port" rx="2.5" ry="2.5" style="stroke:#181818;stroke-width:0.5;" width="135" x="982" y="122.5"/><text fill="#000000" font-family="Arial" font-size="11" font-weight="bold" lengthAdjust="spacing" textLength="129" x="985" y="137.8179">Discovery Port : Pattern</text></g><!--class __9_Data_Marketplace--><g id="elem___9_Data_Marketplace"><rect codeLine="17" fill="#FFFFFF" height="22.6489" id="__9_Data_Marketplace" rx="2.5" ry="2.5" style="stroke:#181818;stroke-width:0.5;" width="153" x="1349.5" y="122.5"/><text fill="#000000" font-family="Arial" font-size="11" font-weight="bold" lengthAdjust="spacing" textLength="147" x="1352.5" y="137.8179">Data Marketplace : Practice</text></g><!--class __10_Input_Port--><g id="elem___10_Input_Port"><rect codeLine="18" fill="#FFFFFF" height="22.6489" id="__10_Input_Port" rx="2.5" ry="2.5" style="stroke:#181818;stroke-width:0.5;" width="109" x="652" y="362.5"/><text fill="#000000" font-family="Arial" font-size="11" font-weight="bold" lengthAdjust="spacing" textLength="103" x="655" y="377.8179">Input Port : Pattern</text></g><!--class __11_Static_Coupling--><g id="elem___11_Static_Coupling"><rect codeLine="19" fill="#FFFFFF" height="22.6489" id="__11_Static_Coupling" rx="2.5" ry="2.5" style="stroke:#181818;stroke-width:0.5;" width="141" x="979" y="380.5"/><text fill="#000000" font-family="Arial" font-size="11" font-weight="bold" lengthAdjust="spacing" textLength="135" x="982" y="395.8179">Static Coupling : Practice</text></g><!--class __12_Output_Port--><g id="elem___12_Output_Port"><rect codeLine="20" fill="#FFFFFF" height="22.6489" id="__12_Output_Port" rx="2.5" ry="2.5" style="stroke:#181818;stroke-width:0.5;" width="118" x="647.5" y="580.5"/><text fill="#000000" font-family="Arial" font-size="11" font-weight="bold" lengthAdjust="spacing" textLength="112" x="650.5" y="595.8179">Output Port : Pattern</text></g><!--class __13_Dynamic_Coupling--><g id="elem___13_Dynamic_Coupling"><rect codeLine="21" fill="#FFFFFF" height="22.6489" id="__13_Dynamic_Coupling" rx="2.5" ry="2.5" style="stroke:#181818;stroke-width:0.5;" width="157" x="971" y="547.5"/><text fill="#000000" font-family="Arial" font-size="11" font-weight="bold" lengthAdjust="spacing" textLength="151" x="974" y="562.8179">Dynamic Coupling : Practice</text></g><!--class __14_Synchronous--><g id="elem___14_Synchronous"><rect codeLine="22" fill="#FFFFFF" height="22.6489" id="__14_Synchronous" rx="2.5" ry="2.5" style="stroke:#181818;stroke-width:0.5;" width="132" x="1360" y="380.5"/><text fill="#000000" font-family="Arial" font-size="11" font-weight="bold" lengthAdjust="spacing" textLength="126" x="1363" y="395.8179">Synchronous : Practice</text></g><!--class __15_CRUD_style_operations--><g id="elem___15_CRUD_style_operations"><rect codeLine="23" fill="#FFFFFF" height="22.6489" id="__15_CRUD_style_operations" rx="2.5" ry="2.5" style="stroke:#181818;stroke-width:0.5;" width="182" x="1798" y="201.5"/><text fill="#000000" font-family="Arial" font-size="11" font-weight="bold" lengthAdjust="spacing" textLength="176" x="1801" y="216.8179">CRUD-style operations : Practice</text></g><!--class __16_Attach_REST_APIs_to_each_data_product--><g id="elem___16_Attach_REST_APIs_to_each_data_product"><rect codeLine="24" fill="#FFFFFF" height="35.2979" id="__16_Attach_REST_APIs_to_each_data_product" rx="2.5" ry="2.5" style="stroke:#181818;stroke-width:0.5;" width="214" x="1782" y="647.5"/><text fill="#000000" font-family="Arial" font-size="11" font-weight="bold" lengthAdjust="spacing" textLength="208" x="1785" y="662.8179">Attach REST APIs to each data product</text><text fill="#000000" font-family="Arial" font-size="11" font-weight="bold" lengthAdjust="spacing" textLength="50" x="1865.5" y="675.4668">: Practice</text></g><!--class __17_Asynchronous--><g id="elem___17_Asynchronous"><rect codeLine="25" fill="#FFFFFF" height="22.6489" id="__17_Asynchronous" rx="2.5" ry="2.5" style="stroke:#181818;stroke-width:0.5;" width="140" x="1356" y="585.5"/><text fill="#000000" font-family="Arial" font-size="11" font-weight="bold" lengthAdjust="spacing" textLength="134" x="1359" y="600.8179">Asynchronous : Practice</text></g><!--class __18_gRPC--><g id="elem___18_gRPC"><rect codeLine="26" fill="#FFFFFF" height="22.6489" id="__18_gRPC" rx="2.5" ry="2.5" style="stroke:#181818;stroke-width:0.5;" width="88" x="1845" y="402.5"/><text fill="#000000" font-family="Arial" font-size="11" font-weight="bold" lengthAdjust="spacing" textLength="82" x="1848" y="417.8179">gRPC : Practice</text></g><!--class __19_Attach_a_DBQuery_Endpoint_to_each_Data_Product--><g id="elem___19_Attach_a_DBQuery_Endpoint_to_each_Data_Product"><rect codeLine="27" fill="#FFFFFF" height="35.2979" id="__19_Attach_a_DBQuery_Endpoint_to_each_Data_Product" rx="2.5" ry="2.5" style="stroke:#181818;stroke-width:0.5;" width="266" x="1756" y="493.5"/><text fill="#000000" font-family="Arial" font-size="11" font-weight="bold" lengthAdjust="spacing" textLength="260" x="1759" y="508.8179">Attach a DBQuery Endpoint to each Data Product</text><text fill="#000000" font-family="Arial" font-size="11" font-weight="bold" lengthAdjust="spacing" textLength="50" x="1865.5" y="521.4668">: Practice</text></g><!--class __20_Pub_Sub--><g id="elem___20_Pub_Sub"><rect codeLine="28" fill="#FFFFFF" height="22.6489" id="__20_Pub_Sub" rx="2.5" ry="2.5" style="stroke:#181818;stroke-width:0.5;" width="100" x="1839" y="737.5"/><text fill="#000000" font-family="Arial" font-size="11" font-weight="bold" lengthAdjust="spacing" textLength="94" x="1842" y="752.8179">Pub/Sub : Pattern</text></g><!--class __21_GraphQL--><g id="elem___21_GraphQL"><rect codeLine="29" fill="#FFFFFF" height="22.6489" id="__21_GraphQL" rx="2.5" ry="2.5" style="stroke:#181818;stroke-width:0.5;" width="107" x="1835.5" y="268.5"/><text fill="#000000" font-family="Arial" font-size="11" font-weight="bold" lengthAdjust="spacing" textLength="101" x="1838.5" y="283.8179">GraphQL : Practice</text></g><!--class __22_Provide_information_about_runtime--><g id="elem___22_Provide_information_about_runtime"><rect codeLine="30" fill="#FFFFFF" height="22.6489" id="__22_Provide_information_about_runtime" rx="2.5" ry="2.5" style="stroke:#181818;stroke-width:0.5;" width="249" x="1301.5" y="648.5"/><text fill="#000000" font-family="Arial" font-size="11" font-weight="bold" lengthAdjust="spacing" textLength="243" x="1304.5" y="663.8179">Provide information about runtime : Practice</text></g><!--class __23_Multimodal_access--><g id="elem___23_Multimodal_access"><rect codeLine="31" fill="#FFFFFF" height="22.6489" id="__23_Multimodal_access" rx="2.5" ry="2.5" style="stroke:#181818;stroke-width:0.5;" width="162" x="968.5" y="614.5"/><text fill="#000000" font-family="Arial" font-size="11" font-weight="bold" lengthAdjust="spacing" textLength="156" x="971.5" y="629.8179">Multimodal access : Practice</text></g><!--class __24_Bitemporal_data--><g id="elem___24_Bitemporal_data"><rect codeLine="32" fill="#FFFFFF" height="22.6489" id="__24_Bitemporal_data" rx="2.5" ry="2.5" style="stroke:#181818;stroke-width:0.5;" width="145" x="977" y="681.5"/><text fill="#000000" font-family="Arial" font-size="11" font-weight="bold" lengthAdjust="spacing" textLength="139" x="980" y="696.8179">Bitemporal data : Practice</text></g><!--class __25_Immutable_read_only_access--><g id="elem___25_Immutable_read_only_access"><rect codeLine="33" fill="#FFFFFF" height="22.6489" id="__25_Immutable_read_only_access" rx="2.5" ry="2.5" style="stroke:#181818;stroke-width:0.5;" width="215" x="942" y="748.5"/><text fill="#000000" font-family="Arial" font-size="11" font-weight="bold" lengthAdjust="spacing" textLength="209" x="945" y="763.8179">Immutable read-only access : Practice</text></g><!--class __26_Provide_information_about_build_time_libraries--><g id="elem___26_Provide_information_about_build_time_libraries"><rect codeLine="34" fill="#FFFFFF" height="35.2979" id="__26_Provide_information_about_build_time_libraries" rx="2.5" ry="2.5" style="stroke:#181818;stroke-width:0.5;" width="257" x="1297.5" y="307.5"/><text fill="#000000" font-family="Arial" font-size="11" font-weight="bold" lengthAdjust="spacing" textLength="251" x="1300.5" y="322.8179">Provide information about build-time libraries</text><text fill="#000000" font-family="Arial" font-size="11" font-weight="bold" lengthAdjust="spacing" textLength="50" x="1402.5" y="335.4668">: Practice</text></g><!--link __1_What_are_the_elements_of_a_data_product_interface_contract_ to __2_Observation_Port--><g id="link___1_What_are_the_elements_of_a_data_product_interface_contract____2_Observation_Port"><path codeLine="35" d="M198.93,212.33 C234.82,187.1 304.64,140.73 370,113 C573.28,26.76 839.73,23.65 969.96,28.36 " fill="none" id="__1_What_are_the_elements_of_a_data_product_interface_contract_-to-__2_Observation_Port" style="stroke:#181818;stroke-width:1.0;"/><polygon fill="#181818" points="975.3,28.56,966.4547,24.2287,970.3034,28.3744,966.1577,32.2232,975.3,28.56" style="stroke:#181818;stroke-width:1.0;"/><text fill="#000000" font-family="Arial" font-size="11" lengthAdjust="spacing" textLength="144" x="634.5" y="26.3179">Implement an observation port</text><text fill="#000000" font-family="Arial" font-size="11" lengthAdjust="spacing" textLength="43" x="153.5831" y="189.5397">«Option»</text><text fill="#000000" font-family="Arial" font-size="11" lengthAdjust="spacing" textLength="39" x="155.5831" y="202.1886">{name =</text><text fill="#000000" font-family="Arial" font-size="11" lengthAdjust="spacing" textLength="4" x="963.4419" y="39.7425">}</text><text fill="#000000" font-family="Arial" font-size="11" lengthAdjust="spacing" textLength="3" x="963.9419" y="52.3914"> </text></g><!--link __1_What_are_the_elements_of_a_data_product_interface_contract_ to __5_Control_Port--><g id="link___1_What_are_the_elements_of_a_data_product_interface_contract____5_Control_Port"><path codeLine="36" d="M340.18,230.76 C534.68,231.65 847.85,233.09 982.97,233.7 " fill="none" id="__1_What_are_the_elements_of_a_data_product_interface_contract_-to-__5_Control_Port" style="stroke:#181818;stroke-width:1.0;"/><polygon fill="#181818" points="988.09,233.73,979.113,229.6786,983.0901,233.7014,979.0673,237.6785,988.09,233.73" style="stroke:#181818;stroke-width:1.0;"/><text fill="#000000" font-family="Arial" font-size="11" lengthAdjust="spacing" textLength="114" x="649.5" y="229.3179">Implement a control port</text><text fill="#000000" font-family="Arial" font-size="11" lengthAdjust="spacing" textLength="43" x="348.1821" y="241.6373">«Option»</text><text fill="#000000" font-family="Arial" font-size="11" lengthAdjust="spacing" textLength="39" x="350.1821" y="254.2862">{name =</text><text fill="#000000" font-family="Arial" font-size="11" lengthAdjust="spacing" textLength="4" x="976.3619" y="245.5779">}</text><text fill="#000000" font-family="Arial" font-size="11" lengthAdjust="spacing" textLength="3" x="976.8619" y="258.2269"> </text></g><!--link __1_What_are_the_elements_of_a_data_product_interface_contract_ to __8_Discovery_Port--><g id="link___1_What_are_the_elements_of_a_data_product_interface_contract____8_Discovery_Port"><path codeLine="37" d="M218.94,212.39 C258.18,197.36 317.2,176.01 370,162 C581.48,105.9 636.13,92.09 854,72 C879.67,69.64 886.81,66.55 912,72 C954.32,81.17 999.29,104.61 1025.59,119.9 " fill="none" id="__1_What_are_the_elements_of_a_data_product_interface_contract_-to-__8_Discovery_Port" style="stroke:#181818;stroke-width:1.0;"/><polygon fill="#181818" points="1029.96,122.46,1024.2179,114.4582,1025.6463,119.9318,1020.1727,121.3601,1029.96,122.46" style="stroke:#181818;stroke-width:1.0;"/><text fill="#000000" font-family="Arial" font-size="11" lengthAdjust="spacing" textLength="129" x="642" y="73.3179">Implement a discovery port</text><text fill="#000000" font-family="Arial" font-size="11" lengthAdjust="spacing" textLength="43" x="237.3333" y="189.6158">«Option»</text><text fill="#000000" font-family="Arial" font-size="11" lengthAdjust="spacing" textLength="39" x="239.3333" y="202.2647">{name =</text><text fill="#000000" font-family="Arial" font-size="11" lengthAdjust="spacing" textLength="4" x="1018.5556" y="99.6257">}</text><text fill="#000000" font-family="Arial" font-size="11" lengthAdjust="spacing" textLength="3" x="1019.0556" y="112.2746"> </text></g><!--link __1_What_are_the_elements_of_a_data_product_interface_contract_ to __4_Overarching_Management_Layer--><g id="link___1_What_are_the_elements_of_a_data_product_interface_contract____4_Overarching_Management_Layer"><path codeLine="38" d="M340.33,215.33 C419.08,208.36 511.51,200.17 583.68,193.79 " fill="none" id="__1_What_are_the_elements_of_a_data_product_interface_contract_-to-__4_Overarching_Management_Layer" style="stroke:#181818;stroke-width:1.0;"/><polygon fill="#181818" points="588.84,193.33,579.5297,190.1178,583.8585,193.7594,580.2168,198.0882,588.84,193.33" style="stroke:#181818;stroke-width:1.0;"/><text fill="#000000" font-family="Arial" font-size="11" lengthAdjust="spacing" textLength="187" x="371" y="181.3179">Implement an overarching management</text><text fill="#000000" font-family="Arial" font-size="11" lengthAdjust="spacing" textLength="24" x="452.5" y="193.9668">layer</text><text fill="#000000" font-family="Arial" font-size="11" lengthAdjust="spacing" textLength="43" x="347.7452" y="225.5631">«Option»</text><text fill="#000000" font-family="Arial" font-size="11" lengthAdjust="spacing" textLength="39" x="349.7452" y="238.212">{name =</text><text fill="#000000" font-family="Arial" font-size="11" lengthAdjust="spacing" textLength="4" x="577.1743" y="205.1312">}</text><text fill="#000000" font-family="Arial" font-size="11" lengthAdjust="spacing" textLength="3" x="577.6743" y="217.7801"> </text></g><!--link __1_What_are_the_elements_of_a_data_product_interface_contract_ to __10_Input_Port--><g id="link___1_What_are_the_elements_of_a_data_product_interface_contract____10_Input_Port"><path codeLine="39" d="M200.69,247.58 C237.01,271.01 305.5,311.86 370,332 C463.93,361.34 578.7,370.26 646.75,372.93 " fill="none" id="__1_What_are_the_elements_of_a_data_product_interface_contract_-to-__10_Input_Port" style="stroke:#181818;stroke-width:1.0;"/><polygon fill="#181818" points="651.97,373.13,643.1247,368.7987,646.9734,372.9444,642.8277,376.7932,651.97,373.13" style="stroke:#181818;stroke-width:1.0;"/><text fill="#000000" font-family="Arial" font-size="11" lengthAdjust="spacing" textLength="110" x="409.5" y="329.3179">Implement an input port</text><text fill="#000000" font-family="Arial" font-size="11" lengthAdjust="spacing" textLength="43" x="155.8161" y="265.9819">«Option»</text><text fill="#000000" font-family="Arial" font-size="11" lengthAdjust="spacing" textLength="39" x="157.8161" y="278.6308">{name =</text><text fill="#000000" font-family="Arial" font-size="11" lengthAdjust="spacing" textLength="4" x="640.0205" y="385.129">}</text><text fill="#000000" font-family="Arial" font-size="11" lengthAdjust="spacing" textLength="3" x="640.5205" y="397.7779"> </text></g><!--link __1_What_are_the_elements_of_a_data_product_interface_contract_ to __12_Output_Port--><g id="link___1_What_are_the_elements_of_a_data_product_interface_contract____12_Output_Port"><path codeLine="40" d="M194.35,247.53 C228.92,277.72 302.9,340.8 370,388 C480.9,466.02 622.01,545.96 679.43,577.73 " fill="none" id="__1_What_are_the_elements_of_a_data_product_interface_contract_-to-__12_Output_Port" style="stroke:#181818;stroke-width:1.0;"/><polygon fill="#181818" points="684.07,580.3,678.1255,572.4474,679.6932,577.8827,674.2579,579.4504,684.07,580.3" style="stroke:#181818;stroke-width:1.0;"/><text fill="#000000" font-family="Arial" font-size="11" lengthAdjust="spacing" textLength="110" x="409.5" y="385.3179">Implement an input port</text><text fill="#000000" font-family="Arial" font-size="11" lengthAdjust="spacing" textLength="43" x="206.6828" y="266.2938">«Option»</text><text fill="#000000" font-family="Arial" font-size="11" lengthAdjust="spacing" textLength="39" x="208.6828" y="278.9427">{name =</text><text fill="#000000" font-family="Arial" font-size="11" lengthAdjust="spacing" textLength="4" x="671.6722" y="557.4107">}</text><text fill="#000000" font-family="Arial" font-size="11" lengthAdjust="spacing" textLength="3" x="672.1722" y="570.0596"> </text></g><!--link __2_Observation_Port to __3_Provide_a_single_integrated_experience_for_monitoring--><g id="link___2_Observation_Port___3_Provide_a_single_integrated_experience_for_monitoring"><path codeLine="41" d="M1123.6,33 C1165.27,33 1219.14,33 1269.79,33 " fill="none" id="__2_Observation_Port-to-__3_Provide_a_single_integrated_experience_for_monitoring" style="stroke:#181818;stroke-width:1.0;"/><polygon fill="#181818" points="1275,33,1266,29,1270,33,1266,37,1275,33" style="stroke:#181818;stroke-width:1.0;"/><text fill="#000000" font-family="Arial" font-size="11" lengthAdjust="spacing" textLength="53" x="1188" y="17.3179">«Realizes»</text><text fill="#000000" font-family="Arial" font-size="11" lengthAdjust="spacing" textLength="3" x="1214.5" y="29.9668"> </text></g><!--link __4_Overarching_Management_Layer to __5_Control_Port--><g id="link___4_Overarching_Management_Layer___5_Control_Port"><path codeLine="42" d="M760.2,194.53 C788.01,200.34 822.74,207.15 854,212 C896.9,218.67 945.43,224.16 983.28,227.99 " fill="none" id="__4_Overarching_Management_Layer-to-__5_Control_Port" style="stroke:#181818;stroke-width:1.0;"/><polygon fill="#181818" points="988.31,228.49,979.7555,223.6094,983.3351,227.9897,978.9549,231.5693,988.31,228.49" style="stroke:#181818;stroke-width:1.0;"/><text fill="#000000" font-family="Arial" font-size="11" lengthAdjust="spacing" textLength="52" x="855.5" y="196.3179">«Includes»</text><text fill="#000000" font-family="Arial" font-size="11" lengthAdjust="spacing" textLength="3" x="881.5" y="208.9668"> </text></g><!--link __4_Overarching_Management_Layer to __8_Discovery_Port--><g id="link___4_Overarching_Management_Layer___8_Discovery_Port"><path codeLine="43" d="M824.2,179.51 C853.02,177.57 883.73,174.59 912,170 C944.57,164.73 980.63,155.04 1007.51,147.05 " fill="none" id="__4_Overarching_Management_Layer-to-__8_Discovery_Port" style="stroke:#181818;stroke-width:1.0;"/><polygon fill="#181818" points="1012.41,145.58,1002.6385,144.3482,1007.6228,147.0233,1004.9477,152.0077,1012.41,145.58" style="stroke:#181818;stroke-width:1.0;"/><text fill="#000000" font-family="Arial" font-size="11" lengthAdjust="spacing" textLength="52" x="855.5" y="154.3179">«Includes»</text><text fill="#000000" font-family="Arial" font-size="11" lengthAdjust="spacing" textLength="3" x="881.5" y="166.9668"> </text></g><!--link __4_Overarching_Management_Layer to __2_Observation_Port--><g id="link___4_Overarching_Management_Layer___2_Observation_Port"><path codeLine="44" d="M733.69,171.48 C795.68,144.22 951.14,75.83 1017.59,46.6 " fill="none" id="__4_Overarching_Management_Layer-to-__2_Observation_Port" style="stroke:#181818;stroke-width:1.0;"/><polygon fill="#181818" points="1022.22,44.56,1012.3712,44.5285,1017.6445,46.5761,1015.5969,51.8494,1022.22,44.56" style="stroke:#181818;stroke-width:1.0;"/><text fill="#000000" font-family="Arial" font-size="11" lengthAdjust="spacing" textLength="52" x="855.5" y="79.3179">«Includes»</text><text fill="#000000" font-family="Arial" font-size="11" lengthAdjust="spacing" textLength="3" x="881.5" y="91.9668"> </text></g><!--link __5_Control_Port to __6_Policy_Enforcement--><g id="link___5_Control_Port___6_Policy_Enforcement"><path codeLine="45" d="M1110.67,228.06 C1172.25,221.97 1268.56,212.46 1338.35,205.56 " fill="none" id="__5_Control_Port-to-__6_Policy_Enforcement" style="stroke:#181818;stroke-width:1.0;"/><polygon fill="#181818" points="1343.33,205.07,1333.9758,201.988,1338.355,205.5689,1334.7741,209.9481,1343.33,205.07" style="stroke:#181818;stroke-width:1.0;"/><text fill="#000000" font-family="Arial" font-size="11" lengthAdjust="spacing" textLength="50" x="1189.5" y="200.3179">«Enables»</text><text fill="#000000" font-family="Arial" font-size="11" lengthAdjust="spacing" textLength="3" x="1214.5" y="212.9668"> </text></g><!--link __6_Policy_Enforcement to __7_Retention_policies--><g id="link___6_Policy_Enforcement___7_Retention_policies"><path codeLine="46" d="M1508.62,187.97 C1591.96,178.75 1720.68,164.51 1804.64,155.23 " fill="none" id="__6_Policy_Enforcement-to-__7_Retention_policies" style="stroke:#181818;stroke-width:1.0;"/><polygon fill="#181818" points="1809.86,154.65,1800.4705,151.6772,1804.8911,155.2069,1801.3615,159.6275,1809.86,154.65" style="stroke:#181818;stroke-width:1.0;"/><text fill="#000000" font-family="Arial" font-size="11" lengthAdjust="spacing" textLength="52" x="1639" y="148.3179">«Includes»</text><text fill="#000000" font-family="Arial" font-size="11" lengthAdjust="spacing" textLength="3" x="1665" y="160.9668"> </text></g><!--link __8_Discovery_Port to __9_Data_Marketplace--><g id="link___8_Discovery_Port___9_Data_Marketplace"><path codeLine="47" d="M1117.02,134 C1180.53,134 1276.32,134 1344.19,134 " fill="none" id="__8_Discovery_Port-to-__9_Data_Marketplace" style="stroke:#181818;stroke-width:1.0;"/><polygon fill="#181818" points="1349.44,134,1340.44,130,1344.44,134,1340.44,138,1349.44,134" style="stroke:#181818;stroke-width:1.0;"/><text fill="#000000" font-family="Arial" font-size="11" lengthAdjust="spacing" textLength="50" x="1189.5" y="118.3179">«Enables»</text><text fill="#000000" font-family="Arial" font-size="11" lengthAdjust="spacing" textLength="3" x="1214.5" y="130.9668"> </text></g><!--link __10_Input_Port to __11_Static_Coupling--><g id="link___10_Input_Port___11_Static_Coupling"><path codeLine="48" d="M761.16,376.84 C818.35,379.86 909.34,384.66 973.58,388.05 " fill="none" id="__10_Input_Port-to-__11_Static_Coupling" style="stroke:#181818;stroke-width:1.0;"/><polygon fill="#181818" points="978.93,388.33,970.1473,383.873,973.9366,388.0732,969.7364,391.8625,978.93,388.33" style="stroke:#181818;stroke-width:1.0;"/><text fill="#000000" font-family="Arial" font-size="11" lengthAdjust="spacing" textLength="53" x="855" y="365.3179">«Realizes»</text><text fill="#000000" font-family="Arial" font-size="11" lengthAdjust="spacing" textLength="3" x="881.5" y="377.9668"> </text></g><!--link __10_Input_Port to __13_Dynamic_Coupling--><g id="link___10_Input_Port___13_Dynamic_Coupling"><path codeLine="49" d="M738.89,385.63 C779.82,401.27 853.14,430.98 912,464 C956.27,488.84 1004.12,524.38 1029.75,544.2 " fill="none" id="__10_Input_Port-to-__13_Dynamic_Coupling" style="stroke:#181818;stroke-width:1.0;"/><polygon fill="#181818" points="1033.97,547.47,1029.2933,538.8023,1030.0133,544.4132,1024.4024,545.1331,1033.97,547.47" style="stroke:#181818;stroke-width:1.0;"/><text fill="#000000" font-family="Arial" font-size="11" lengthAdjust="spacing" textLength="50" x="856.5" y="419.3179">«Enables»</text><text fill="#000000" font-family="Arial" font-size="11" lengthAdjust="spacing" textLength="3" x="881.5" y="431.9668"> </text></g><!--link __11_Static_Coupling to __14_Synchronous--><g id="link___11_Static_Coupling___14_Synchronous"><path codeLine="50" d="M1120.29,393.83 C1141.69,394.31 1165.31,394.77 1187,395 C1243.41,395.62 1307.35,394.73 1354.73,393.76 " fill="none" id="__11_Static_Coupling-to-__14_Synchronous" style="stroke:#181818;stroke-width:1.0;"/><polygon fill="#181818" points="1359.85,393.65,1350.7718,389.8308,1354.851,393.75,1350.9318,397.8292,1359.85,393.65" style="stroke:#181818;stroke-width:1.0;"/><text fill="#000000" font-family="Arial" font-size="11" lengthAdjust="spacing" textLength="53" x="1188" y="379.3179">«Realizes»</text><text fill="#000000" font-family="Arial" font-size="11" lengthAdjust="spacing" textLength="3" x="1214.5" y="391.9668"> </text></g><!--link __11_Static_Coupling to __17_Asynchronous--><g id="link___11_Static_Coupling___17_Asynchronous"><path codeLine="51" d="M1071.81,403.58 C1107.61,423.04 1182.09,463.56 1245,498 C1300.09,528.16 1364.56,563.67 1399.44,582.9 " fill="none" id="__11_Static_Coupling-to-__17_Asynchronous" style="stroke:#181818;stroke-width:1.0;"/><polygon fill="#181818" points="1403.95,585.39,1398.0055,577.5374,1399.5732,582.9727,1394.1379,584.5404,1403.95,585.39" style="stroke:#181818;stroke-width:1.0;"/><text fill="#000000" font-family="Arial" font-size="11" lengthAdjust="spacing" textLength="50" x="1189.5" y="452.3179">«Enables»</text><text fill="#000000" font-family="Arial" font-size="11" lengthAdjust="spacing" textLength="3" x="1214.5" y="464.9668"> </text></g><!--link __11_Static_Coupling to __26_Provide_information_about_build_time_libraries--><g id="link___11_Static_Coupling___26_Provide_information_about_build_time_libraries"><path codeLine="52" d="M1104.21,380.47 C1129.32,375.21 1159.64,369.05 1187,364 C1226.01,356.81 1268.75,349.6 1307.11,343.37 " fill="none" id="__11_Static_Coupling-to-__26_Provide_information_about_build_time_libraries" style="stroke:#181818;stroke-width:1.0;"/><polygon fill="#181818" points="1312.25,342.54,1302.7254,340.0337,1307.3146,343.3411,1304.0072,347.9303,1312.25,342.54" style="stroke:#181818;stroke-width:1.0;"/><text fill="#000000" font-family="Arial" font-size="11" lengthAdjust="spacing" textLength="50" x="1189.5" y="338.3179">«Enables»</text><text fill="#000000" font-family="Arial" font-size="11" lengthAdjust="spacing" textLength="3" x="1214.5" y="350.9668"> </text></g><!--link __12_Output_Port to __11_Static_Coupling--><g id="link___12_Output_Port___11_Static_Coupling"><path codeLine="53" d="M738.8,580.47 C779.94,564.71 853.83,534.34 912,499 C958.42,470.81 1007.18,429.24 1031.95,407.13 " fill="none" id="__12_Output_Port-to-__11_Static_Coupling" style="stroke:#181818;stroke-width:1.0;"/><polygon fill="#181818" points="1035.71,403.75,1026.3445,406.7975,1031.9935,407.0948,1031.6962,412.7439,1035.71,403.75" style="stroke:#181818;stroke-width:1.0;"/><text fill="#000000" font-family="Arial" font-size="11" lengthAdjust="spacing" textLength="53" x="855" y="483.3179">«Realizes»</text><text fill="#000000" font-family="Arial" font-size="11" lengthAdjust="spacing" textLength="3" x="881.5" y="495.9668"> </text></g><!--link __12_Output_Port to __13_Dynamic_Coupling--><g id="link___12_Output_Port___13_Dynamic_Coupling"><path codeLine="54" d="M765.73,586.37 C820.78,581.04 903.92,573 965.82,567.01 " fill="none" id="__12_Output_Port-to-__13_Dynamic_Coupling" style="stroke:#181818;stroke-width:1.0;"/><polygon fill="#181818" points="970.99,566.5,961.6534,563.365,966.0122,566.9707,962.4065,571.3295,970.99,566.5" style="stroke:#181818;stroke-width:1.0;"/><text fill="#000000" font-family="Arial" font-size="11" lengthAdjust="spacing" textLength="50" x="856.5" y="556.3179">«Enables»</text><text fill="#000000" font-family="Arial" font-size="11" lengthAdjust="spacing" textLength="3" x="881.5" y="568.9668"> </text></g><!--link __12_Output_Port to __23_Multimodal_access--><g id="link___12_Output_Port___23_Multimodal_access"><path codeLine="55" d="M765.5,600.79 C792.38,604.64 824.77,608.96 854,612 C889.64,615.72 929.05,618.75 963.03,621.04 " fill="none" id="__12_Output_Port-to-__23_Multimodal_access" style="stroke:#181818;stroke-width:1.0;"/><polygon fill="#181818" points="968.44,621.4,959.7225,616.8168,963.4508,621.0712,959.1964,624.7995,968.44,621.4" style="stroke:#181818;stroke-width:1.0;"/><text fill="#000000" font-family="Arial" font-size="11" lengthAdjust="spacing" textLength="53" x="855" y="596.3179">«Realizes»</text><text fill="#000000" font-family="Arial" font-size="11" lengthAdjust="spacing" textLength="3" x="881.5" y="608.9668"> </text></g><!--link __12_Output_Port to __24_Bitemporal_data--><g id="link___12_Output_Port___24_Bitemporal_data"><path codeLine="56" d="M732.44,603.57 C761.22,616.56 810.23,637.57 854,651 C893.98,663.27 939.65,673.33 976.68,680.53 " fill="none" id="__12_Output_Port-to-__24_Bitemporal_data" style="stroke:#181818;stroke-width:1.0;"/><polygon fill="#181818" points="981.61,681.48,973.5249,675.8558,976.6996,680.5379,972.0175,683.7125,981.61,681.48" style="stroke:#181818;stroke-width:1.0;"/><text fill="#000000" font-family="Arial" font-size="11" lengthAdjust="spacing" textLength="50" x="856.5" y="635.3179">«Enables»</text><text fill="#000000" font-family="Arial" font-size="11" lengthAdjust="spacing" textLength="3" x="881.5" y="647.9668"> </text></g><!--link __12_Output_Port to __25_Immutable_read_only_access--><g id="link___12_Output_Port___25_Immutable_read_only_access"><path codeLine="57" d="M720.23,603.76 C744.51,625.59 799.83,672.68 854,700 C897.03,721.71 949.41,737.32 988.97,747.16 " fill="none" id="__12_Output_Port-to-__25_Immutable_read_only_access" style="stroke:#181818;stroke-width:1.0;"/><polygon fill="#181818" points="994.22,748.46,986.4421,742.4181,989.3659,747.2608,984.5233,750.1846,994.22,748.46" style="stroke:#181818;stroke-width:1.0;"/><text fill="#000000" font-family="Arial" font-size="11" lengthAdjust="spacing" textLength="53" x="855" y="684.3179">«Realizes»</text><text fill="#000000" font-family="Arial" font-size="11" lengthAdjust="spacing" textLength="3" x="881.5" y="696.9668"> </text></g><!--link __13_Dynamic_Coupling to __14_Synchronous--><g id="link___13_Dynamic_Coupling___14_Synchronous"><path codeLine="58" d="M1128.19,555.86 C1164.79,552.18 1208.37,544.57 1245,529 C1314.87,499.31 1381.86,436.34 1410.48,407.28 " fill="none" id="__13_Dynamic_Coupling-to-__14_Synchronous" style="stroke:#181818;stroke-width:1.0;"/><polygon fill="#181818" points="1414.1,403.58,1404.9438,407.2082,1410.6004,407.1511,1410.6575,412.8076,1414.1,403.58" style="stroke:#181818;stroke-width:1.0;"/><text fill="#000000" font-family="Arial" font-size="11" lengthAdjust="spacing" textLength="53" x="1188" y="513.3179">«Realizes»</text><text fill="#000000" font-family="Arial" font-size="11" lengthAdjust="spacing" textLength="3" x="1214.5" y="525.9668"> </text></g><!--link __13_Dynamic_Coupling to __17_Asynchronous--><g id="link___13_Dynamic_Coupling___17_Asynchronous"><path codeLine="59" d="M1083.38,570.51 C1110.72,579.45 1150.87,591.12 1187,596 C1241.52,603.38 1303.71,603.35 1350.84,601.63 " fill="none" id="__13_Dynamic_Coupling-to-__17_Asynchronous" style="stroke:#181818;stroke-width:1.0;"/><polygon fill="#181818" points="1355.93,601.43,1346.7873,597.7678,1350.9335,601.6161,1347.0851,605.7622,1355.93,601.43" style="stroke:#181818;stroke-width:1.0;"/><text fill="#000000" font-family="Arial" font-size="11" lengthAdjust="spacing" textLength="50" x="1189.5" y="580.3179">«Enables»</text><text fill="#000000" font-family="Arial" font-size="11" lengthAdjust="spacing" textLength="3" x="1214.5" y="592.9668"> </text></g><!--link __13_Dynamic_Coupling to __22_Provide_information_about_runtime--><g id="link___13_Dynamic_Coupling___22_Provide_information_about_runtime"><path codeLine="60" d="M1100.47,570.52 C1119.33,576.43 1140.26,584.98 1157,597 C1174.48,609.55 1168.15,624.62 1187,635 C1219.91,653.14 1259.27,661.58 1296.42,664.91 " fill="none" id="__13_Dynamic_Coupling-to-__22_Provide_information_about_runtime" style="stroke:#181818;stroke-width:1.0;"/><polygon fill="#181818" points="1301.41,665.33,1292.7721,660.5985,1296.4272,664.916,1292.1097,668.571,1301.41,665.33" style="stroke:#181818;stroke-width:1.0;"/><text fill="#000000" font-family="Arial" font-size="11" lengthAdjust="spacing" textLength="50" x="1189.5" y="619.3179">«Enables»</text><text fill="#000000" font-family="Arial" font-size="11" lengthAdjust="spacing" textLength="3" x="1214.5" y="631.9668"> </text></g><!--link __14_Synchronous to __15_CRUD_style_operations--><g id="link___14_Synchronous___15_CRUD_style_operations"><path codeLine="61" d="M1492.31,391.81 C1521.22,388.53 1553.84,380.04 1577,360 C1606.03,334.89 1578.22,304.42 1607,279 C1657.69,234.24 1733.03,218.33 1792.94,213.29 " fill="none" id="__14_Synchronous-to-__15_CRUD_style_operations" style="stroke:#181818;stroke-width:1.0;"/><polygon fill="#181818" points="1797.96,212.89,1788.6682,209.6247,1792.9761,213.291,1789.3098,217.5989,1797.96,212.89" style="stroke:#181818;stroke-width:1.0;"/><text fill="#000000" font-family="Arial" font-size="11" lengthAdjust="spacing" textLength="50" x="1640" y="208.3179">«Enables»</text><text fill="#000000" font-family="Arial" font-size="11" lengthAdjust="spacing" textLength="3" x="1665" y="220.9668"> </text></g><!--link __14_Synchronous to __16_Attach_REST_APIs_to_each_data_product--><g id="link___14_Synchronous___16_Attach_REST_APIs_to_each_data_product"><path codeLine="62" d="M1436.55,403.91 C1461.34,433.99 1531.12,513.62 1607,555 C1655.08,581.23 1674.66,567.93 1726,587 C1770.48,603.53 1819.26,627.94 1851.55,645.03 " fill="none" id="__14_Synchronous-to-__16_Attach_REST_APIs_to_each_data_product" style="stroke:#181818;stroke-width:1.0;"/><polygon fill="#181818" points="1856.19,647.5,1850.1155,639.7475,1851.7735,645.156,1846.3651,646.8139,1856.19,647.5" style="stroke:#181818;stroke-width:1.0;"/><text fill="#000000" font-family="Arial" font-size="11" lengthAdjust="spacing" textLength="114" x="1608" y="539.3179">«Can be Realized With»</text><text fill="#000000" font-family="Arial" font-size="11" lengthAdjust="spacing" textLength="3" x="1665" y="551.9668"> </text></g><!--link __14_Synchronous to __21_GraphQL--><g id="link___14_Synchronous___21_GraphQL"><path codeLine="63" d="M1492.34,381 C1518.92,375.76 1549.74,368.72 1577,360 C1590.84,355.58 1593.21,351.6 1607,347 C1682.75,321.78 1772.95,302.02 1830.34,290.68 " fill="none" id="__14_Synchronous-to-__21_GraphQL" style="stroke:#181818;stroke-width:1.0;"/><polygon fill="#181818" points="1835.45,289.67,1825.8452,287.4912,1830.5449,290.6396,1827.3965,295.3394,1835.45,289.67" style="stroke:#181818;stroke-width:1.0;"/><text fill="#000000" font-family="Arial" font-size="11" lengthAdjust="spacing" textLength="114" x="1608" y="298.3179">«Can be Realized With»</text><text fill="#000000" font-family="Arial" font-size="11" lengthAdjust="spacing" textLength="3" x="1665" y="310.9668"> </text></g><!--link __14_Synchronous to __18_gRPC--><g id="link___14_Synchronous___18_gRPC"><path codeLine="64" d="M1492.16,386.75 C1552.82,382.79 1645.69,379.11 1726,386 C1764.6,389.32 1807.81,396.99 1839.89,403.46 " fill="none" id="__14_Synchronous-to-__18_gRPC" style="stroke:#181818;stroke-width:1.0;"/><polygon fill="#181818" points="1844.94,404.49,1836.9216,398.7711,1840.041,403.4902,1835.3219,406.6096,1844.94,404.49" style="stroke:#181818;stroke-width:1.0;"/><text fill="#000000" font-family="Arial" font-size="11" lengthAdjust="spacing" textLength="114" x="1608" y="366.3179">«Can be Realized With»</text><text fill="#000000" font-family="Arial" font-size="11" lengthAdjust="spacing" textLength="3" x="1665" y="378.9668"> </text></g><!--link __14_Synchronous to __19_Attach_a_DBQuery_Endpoint_to_each_Data_Product--><g id="link___14_Synchronous___19_Attach_a_DBQuery_Endpoint_to_each_Data_Product"><path codeLine="65" d="M1492.08,402.52 C1553.08,413.03 1646.53,430.79 1726,453 C1764.64,463.8 1807.33,479.24 1839.18,491.47 " fill="none" id="__14_Synchronous-to-__19_Attach_a_DBQuery_Endpoint_to_each_Data_Product" style="stroke:#181818;stroke-width:1.0;"/><polygon fill="#181818" points="1844.2,493.4,1837.2401,486.4315,1839.5344,491.6022,1834.3637,493.8965,1844.2,493.4" style="stroke:#181818;stroke-width:1.0;"/><text fill="#000000" font-family="Arial" font-size="11" lengthAdjust="spacing" textLength="114" x="1608" y="409.3179">«Can be Realized With»</text><text fill="#000000" font-family="Arial" font-size="11" lengthAdjust="spacing" textLength="3" x="1665" y="421.9668"> </text></g><!--link __17_Asynchronous to __16_Attach_REST_APIs_to_each_data_product--><g id="link___17_Asynchronous___16_Attach_REST_APIs_to_each_data_product"><path codeLine="66" d="M1496.3,600.61 C1523.62,604.95 1553.93,613.71 1577,631 C1598.97,647.47 1583.34,671.08 1607,685 C1679.06,727.4 1780.18,704.26 1839.42,684.2 " fill="none" id="__17_Asynchronous-to-__16_Attach_REST_APIs_to_each_data_product" style="stroke:#181818;stroke-width:1.0;"/><polygon fill="#181818" points="1844.31,682.52,1834.5003,681.6422,1839.5781,684.1354,1837.085,689.2132,1844.31,682.52" style="stroke:#181818;stroke-width:1.0;"/><text fill="#000000" font-family="Arial" font-size="11" lengthAdjust="spacing" textLength="114" x="1608" y="669.3179">«Can be Realized With»</text><text fill="#000000" font-family="Arial" font-size="11" lengthAdjust="spacing" textLength="3" x="1665" y="681.9668"> </text></g><!--link __17_Asynchronous to __18_gRPC--><g id="link___17_Asynchronous___18_gRPC"><path codeLine="67" d="M1451.03,585.43 C1485.14,569.3 1549.83,539.81 1607,520 C1658.75,502.08 1674.47,506.56 1726,488 C1751.93,478.67 1820.29,446.46 1859.43,427.75 " fill="none" id="__17_Asynchronous-to-__18_gRPC" style="stroke:#181818;stroke-width:1.0;"/><polygon fill="#181818" points="1864.05,425.54,1854.2049,425.8113,1859.5386,427.6958,1857.6541,433.0295,1864.05,425.54" style="stroke:#181818;stroke-width:1.0;"/><text fill="#000000" font-family="Arial" font-size="11" lengthAdjust="spacing" textLength="114" x="1608" y="472.3179">«Can be Realized With»</text><text fill="#000000" font-family="Arial" font-size="11" lengthAdjust="spacing" textLength="3" x="1665" y="484.9668"> </text></g><!--link __17_Asynchronous to __19_Attach_a_DBQuery_Endpoint_to_each_Data_Product--><g id="link___17_Asynchronous___19_Attach_a_DBQuery_Endpoint_to_each_Data_Product"><path codeLine="68" d="M1466.69,608.58 C1524.92,623.62 1636.29,644.96 1726,618 C1781.92,601.2 1836.33,558.15 1865.68,532.06 " fill="none" id="__17_Asynchronous-to-__19_Attach_a_DBQuery_Endpoint_to_each_Data_Product" style="stroke:#181818;stroke-width:1.0;"/><polygon fill="#181818" points="1869.48,528.65,1860.1023,531.6597,1865.7501,531.9798,1865.4299,537.6276,1869.48,528.65" style="stroke:#181818;stroke-width:1.0;"/><text fill="#000000" font-family="Arial" font-size="11" lengthAdjust="spacing" textLength="114" x="1608" y="602.3179">«Can be Realized With»</text><text fill="#000000" font-family="Arial" font-size="11" lengthAdjust="spacing" textLength="3" x="1665" y="614.9668"> </text></g><!--link __17_Asynchronous to __20_Pub_Sub--><g id="link___17_Asynchronous___20_Pub_Sub"><path codeLine="69" d="M1496.29,597.59 C1524.6,601.34 1555.64,610.46 1577,631 C1614.14,666.73 1566.46,711.2 1607,743 C1676.27,797.35 1787.48,778.07 1847.1,761.95 " fill="none" id="__17_Asynchronous-to-__20_Pub_Sub" style="stroke:#181818;stroke-width:1.0;"/><polygon fill="#181818" points="1852.01,760.6,1842.2713,759.1309,1847.1892,761.9264,1844.3936,766.8443,1852.01,760.6" style="stroke:#181818;stroke-width:1.0;"/><text fill="#000000" font-family="Arial" font-size="11" lengthAdjust="spacing" textLength="114" x="1608" y="727.3179">«Can be Realized With»</text><text fill="#000000" font-family="Arial" font-size="11" lengthAdjust="spacing" textLength="3" x="1665" y="739.9668"> </text></g><!--SRC=[lLVRRkCs47tFLmpoRkpQoMOlG5iaJbe4s7IzoIxo4c10KxHDH285YWhg5lsYVaBVziiwf4LPiYYlxRfzj7dEcSFXa3CgdgNAcM4PP5fflZ0w4s1DAKwAUcMSigAuOlnvRdIfah5EjO77XRJYP24J0IBBxH8oaKs5ALP_SMbusjH8n8oLgVrPA_ihen2NHh8qlluWVnSm73OMkJCmewN2BbC1Kvqc9wcOMR0QZ9mlB2JI26wbLYSU2wUF2sQ16ThBWWoc8XF41Zq31Wcp37AZav9RaCeACsDSlEAaRnYtFpqf-03NWik2z4w15O0uH2U898WaY44GzGmPEa6i1B4Mn228mTEdQI7C2tCsOQADfJ0JPWaUeeom0K472TI9qIykhmmAgUQK0nTcRfWL2OZVSc6aK5p0Z0w6pb5QRGZcDp9n5YGNLOWphAJ8zqeArrAubaAImhLKlOKNOPZX2_eBxfXYSvy7-CYMmdI3dMC3ZsiyUdpG7BiywJIUaZTOBRVJeLF9bt2Zo2LVMUW4ly0L2XkemByNbdwvSyWTHegYot-BDGe3Al2lPS4rRMqPD_qEQq3BzhMhl3jcdeNDKogHRj3tw33Om0JkhSfB6mytV8r-jHNhmL8LSHZhCa_TQNL23OUumc30r8TSslvOLAD-kRsnfMBPzcXdM84wuHwMohqxIfUHKnYUOsEzBfdxhzU3rMEWgMBzVOcHgNe8YHw9QsIGkRIMyGNStpnyWSl9RU7U4-7-QJuHiLiqlC0L5nqN7HUjHiTjlGPre6Bh7jzY4n18y_l9E09-XsvXOmiChgy-bwuWRrIIQxhIzLvyqKssxELzs0l3IWI3IBqfNvMJzgOcvVJLGpdjlcAlaPQGbWBo5yFonUUFtTYZ8LPhcm-TT9SsMxsLRAgf74r9Tp6Bt9dHg7xJ6YpqBAnOGVwEUepCTC9IO9oB8d8QepDSet252lGhwdbPhWtHVObqoUUunlXIgEzlbfMMJQbYZM39GAjqsM_X3TPmT71qy0ql_PcQbZ9D1ZvPgPpI-qilL-paHnTR4kT5q8bWBNBoBniX30O_HjlS1pZzzjUdtFt-zZSygJ-Kcn5-S5dBLn60AT2D_aa9jgT_Fb7D7SbKkz7iOWXurRYExcMpV-pa9gbxqj7zRE_ZEnvUOtB8QeKdbJg9exfjjSFTp4dVN8-UjtQpFDXAzxvK-WSESzx8lM0f3Tg5j-B3R3_b_cjogtXQ9dihHOlyGAsU5wMhrhPViMEJekVVAFS2D-WnP2KI6nTxJ6pkl5Bepdvn4wtw3fNM6UPw3ZbAxivcFP4xKO92Qqhh2ztBRiy_UyRUkulrwBVkwjvfZR9tpckC7Pj3zedU7KNs2Rvj0kbpqTtkNkNHJz-fFdhfkyo7FPejty5DpqV5FX8xVZvuoJ4rXQc0Ac49F4gx-8x-Ugm-LA7woZYOlkytnIw1sbNm7wGo7c3tJCJv_rigrjzTtvFu1m00]--></g></svg>