<?xml version="1.0" encoding="UTF-8" standalone="no"?><svg xmlns="http://www.w3.org/2000/svg" xmlns:xlink="http://www.w3.org/1999/xlink" contentStyleType="text/css" height="775px" preserveAspectRatio="none" style="width:1545px;height:775px;background:#FFFFFF;" version="1.1" viewBox="0 0 1545 775" width="1545px" zoomAndPan="magnify"><defs/><g><!--class __1_What_strategy_can_be_used_for_data_product_implementation_--><g id="elem___1_What_strategy_can_be_used_for_data_product_implementation_"><rect codeLine="9" fill="#FFFFFF" height="35.2979" id="__1_What_strategy_can_be_used_for_data_product_implementation_" rx="2.5" ry="2.5" style="stroke:#181818;stroke-width:0.5;" width="340" x="7" y="384.5"/><text fill="#000000" font-family="Arial" font-size="11" font-weight="bold" lengthAdjust="spacing" textLength="334" x="10" y="399.8179">What strategy can be used for data product implementation?</text><text fill="#000000" font-family="Arial" font-size="11" font-weight="bold" lengthAdjust="spacing" textLength="53" x="152" y="412.4668">: Decision</text></g><!--class __2_Cloud_Acceleration--><g id="elem___2_Cloud_Acceleration"><rect codeLine="10" fill="#FFFFFF" height="22.6489" id="__2_Cloud_Acceleration" rx="2.5" ry="2.5" style="stroke:#181818;stroke-width:0.5;" width="159" x="602" y="390.5"/><text fill="#000000" font-family="Arial" font-size="11" font-weight="bold" lengthAdjust="spacing" textLength="153" x="605" y="405.8179">Cloud Acceleration : Pattern</text></g><!--class __3_Starting_federated--><g id="elem___3_Starting_federated"><rect codeLine="11" fill="#FFFFFF" height="22.6489" id="__3_Starting_federated" rx="2.5" ry="2.5" style="stroke:#181818;stroke-width:0.5;" width="159" x="1011.5" y="189.5"/><text fill="#000000" font-family="Arial" font-size="11" font-weight="bold" lengthAdjust="spacing" textLength="153" x="1014.5" y="204.8179">Starting federated : Practice</text></g><!--class __4_Legacy_Modernization--><g id="elem___4_Legacy_Modernization"><rect codeLine="12" fill="#FFFFFF" height="22.6489" id="__4_Legacy_Modernization" rx="2.5" ry="2.5" style="stroke:#181818;stroke-width:0.5;" width="176" x="593.5" y="170.5"/><text fill="#000000" font-family="Arial" font-size="11" font-weight="bold" lengthAdjust="spacing" textLength="170" x="596.5" y="185.8179">Legacy Modernization : Pattern</text></g><!--class __5_Starting_central_and_decentralize_at_a_later_stage--><g id="elem___5_Starting_central_and_decentralize_at_a_later_stage"><rect codeLine="13" fill="#FFFFFF" height="35.2979" id="__5_Starting_central_and_decentralize_at_a_later_stage" rx="2.5" ry="2.5" style="stroke:#181818;stroke-width:0.5;" width="268" x="957" y="518.5"/><text fill="#000000" font-family="Arial" font-size="11" font-weight="bold" lengthAdjust="spacing" textLength="262" x="960" y="533.8179">Starting central and decentralize at a later stage</text><text fill="#000000" font-family="Arial" font-size="11" font-weight="bold" lengthAdjust="spacing" textLength="50" x="1067.5" y="546.4668">: Practice</text></g><!--class __6_Greenfield_Development--><g id="elem___6_Greenfield_Development"><rect codeLine="14" fill="#FFFFFF" height="22.6489" id="__6_Greenfield_Development" rx="2.5" ry="2.5" style="stroke:#181818;stroke-width:0.5;" width="193" x="585" y="452.5"/><text fill="#000000" font-family="Arial" font-size="11" font-weight="bold" lengthAdjust="spacing" textLength="187" x="588" y="467.8179">Greenfield Development : Practice</text></g><!--class __7_Starting_central_and_federated_at_the_same_time--><g id="elem___7_Starting_central_and_federated_at_the_same_time"><rect codeLine="15" fill="#FFFFFF" height="35.2979" id="__7_Starting_central_and_federated_at_the_same_time" rx="2.5" ry="2.5" style="stroke:#181818;stroke-width:0.5;" width="266" x="958" y="384.5"/><text fill="#000000" font-family="Arial" font-size="11" font-weight="bold" lengthAdjust="spacing" textLength="260" x="961" y="399.8179">Starting central and federated at the same time</text><text fill="#000000" font-family="Arial" font-size="11" font-weight="bold" lengthAdjust="spacing" textLength="50" x="1067.5" y="412.4668">: Practice</text></g><!--class __8_Master_Data_Management--><g id="elem___8_Master_Data_Management"><rect codeLine="16" fill="#FFFFFF" height="22.6489" id="__8_Master_Data_Management" rx="2.5" ry="2.5" style="stroke:#181818;stroke-width:0.5;" width="195" x="1343" y="122.5"/><text fill="#000000" font-family="Arial" font-size="11" font-weight="bold" lengthAdjust="spacing" textLength="189" x="1346" y="137.8179">Master Data Management : Pattern</text></g><!--class __9_CQRS--><g id="elem___9_CQRS"><rect codeLine="17" fill="#FFFFFF" height="22.6489" id="__9_CQRS" rx="2.5" ry="2.5" style="stroke:#181818;stroke-width:0.5;" width="85" x="1398" y="524.5"/><text fill="#000000" font-family="Arial" font-size="11" font-weight="bold" lengthAdjust="spacing" textLength="79" x="1401" y="539.8179">CQRS : Pattern</text></g><!--class __10_Zero_Trust_Architecture--><g id="elem___10_Zero_Trust_Architecture"><rect codeLine="18" fill="#FFFFFF" height="22.6489" id="__10_Zero_Trust_Architecture" rx="2.5" ry="2.5" style="stroke:#181818;stroke-width:0.5;" width="186" x="1347.5" y="323.5"/><text fill="#000000" font-family="Arial" font-size="11" font-weight="bold" lengthAdjust="spacing" textLength="180" x="1350.5" y="338.8179">Zero Trust Architecture : Pattern</text></g><!--class __11_Strangler_Fig--><g id="elem___11_Strangler_Fig"><rect codeLine="19" fill="#FFFFFF" height="22.6489" id="__11_Strangler_Fig" rx="2.5" ry="2.5" style="stroke:#181818;stroke-width:0.5;" width="126" x="1377.5" y="658.5"/><text fill="#000000" font-family="Arial" font-size="11" font-weight="bold" lengthAdjust="spacing" textLength="120" x="1380.5" y="673.8179">Strangler-Fig : Pattern</text></g><!--link __1_What_strategy_can_be_used_for_data_product_implementation_ to __2_Cloud_Acceleration--><g id="link___1_What_strategy_can_be_used_for_data_product_implementation____2_Cloud_Acceleration"><path codeLine="20" d="M347.07,402 C430.96,402 528.59,402 596.44,402 " fill="none" id="__1_What_strategy_can_be_used_for_data_product_implementation_-to-__2_Cloud_Acceleration" style="stroke:#181818;stroke-width:1.0;"/><polygon fill="#181818" points="601.68,402,592.68,398,596.68,402,592.68,406,601.68,402" style="stroke:#181818;stroke-width:1.0;"/><text fill="#000000" font-family="Arial" font-size="11" lengthAdjust="spacing" textLength="152" x="390" y="374.3179">Migration of enterprise systems</text><text fill="#000000" font-family="Arial" font-size="11" lengthAdjust="spacing" textLength="27" x="452.5" y="386.9668">to the</text><text fill="#000000" font-family="Arial" font-size="11" lengthAdjust="spacing" textLength="26" x="453" y="399.6157">cloud</text><text fill="#000000" font-family="Arial" font-size="11" lengthAdjust="spacing" textLength="43" x="355.2151" y="393.3042">«Option»</text><text fill="#000000" font-family="Arial" font-size="11" lengthAdjust="spacing" textLength="39" x="357.2151" y="405.9531">{name =</text><text fill="#000000" font-family="Arial" font-size="11" lengthAdjust="spacing" textLength="4" x="589.8815" y="413.5402">}</text><text fill="#000000" font-family="Arial" font-size="11" lengthAdjust="spacing" textLength="3" x="590.3815" y="426.1891"> </text></g><!--link __1_What_strategy_can_be_used_for_data_product_implementation_ to __4_Legacy_Modernization--><g id="link___1_What_strategy_can_be_used_for_data_product_implementation____4_Legacy_Modernization"><path codeLine="21" d="M218.27,384.37 C315.64,341.74 562.21,233.79 649.38,195.63 " fill="none" id="__1_What_strategy_can_be_used_for_data_product_implementation_-to-__4_Legacy_Modernization" style="stroke:#181818;stroke-width:1.0;"/><polygon fill="#181818" points="654.16,193.54,644.3112,193.4972,649.5822,195.5508,647.5286,200.8218,654.16,193.54" style="stroke:#181818;stroke-width:1.0;"/><text fill="#000000" font-family="Arial" font-size="11" lengthAdjust="spacing" textLength="147" x="392.5" y="214.3179">Migration from legacy systems</text><text fill="#000000" font-family="Arial" font-size="11" lengthAdjust="spacing" textLength="48" x="442" y="226.9668">to modern</text><text fill="#000000" font-family="Arial" font-size="11" lengthAdjust="spacing" textLength="67" x="432.5" y="239.6157">data products</text><text fill="#000000" font-family="Arial" font-size="11" lengthAdjust="spacing" textLength="43" x="177.1801" y="361.5904">«Option»</text><text fill="#000000" font-family="Arial" font-size="11" lengthAdjust="spacing" textLength="39" x="179.1801" y="374.2394">{name =</text><text fill="#000000" font-family="Arial" font-size="11" lengthAdjust="spacing" textLength="4" x="641.1746" y="211.3195">}</text><text fill="#000000" font-family="Arial" font-size="11" lengthAdjust="spacing" textLength="3" x="641.6746" y="223.9684"> </text></g><!--link __1_What_strategy_can_be_used_for_data_product_implementation_ to __6_Greenfield_Development--><g id="link___1_What_strategy_can_be_used_for_data_product_implementation____6_Greenfield_Development"><path codeLine="22" d="M319.98,419.52 C403.59,429.84 507.25,442.63 581.93,451.84 " fill="none" id="__1_What_strategy_can_be_used_for_data_product_implementation_-to-__6_Greenfield_Development" style="stroke:#181818;stroke-width:1.0;"/><polygon fill="#181818" points="587.25,452.5,578.7959,447.4475,582.2862,451.8992,577.8346,455.3896,587.25,452.5" style="stroke:#181818;stroke-width:1.0;"/><text fill="#000000" font-family="Arial" font-size="11" lengthAdjust="spacing" textLength="176" x="378" y="425.3179">Starting with greenfield development</text><text fill="#000000" font-family="Arial" font-size="11" lengthAdjust="spacing" textLength="43" x="307.7244" y="438.281">«Option»</text><text fill="#000000" font-family="Arial" font-size="11" lengthAdjust="spacing" textLength="39" x="309.7244" y="450.9299">{name =</text><text fill="#000000" font-family="Arial" font-size="11" lengthAdjust="spacing" textLength="4" x="572.7227" y="435.2284">}</text><text fill="#000000" font-family="Arial" font-size="11" lengthAdjust="spacing" textLength="3" x="573.2227" y="447.8773"> </text></g><!--link __2_Cloud_Acceleration to __3_Starting_federated--><g id="link___2_Cloud_Acceleration___3_Starting_federated"><path codeLine="23" d="M687.73,390.08 C701.96,359.24 744.56,276.71 808,240 C840.79,221.03 935.46,210.79 1006.12,205.64 " fill="none" id="__2_Cloud_Acceleration-to-__3_Starting_federated" style="stroke:#181818;stroke-width:1.0;"/><polygon fill="#181818" points="1011.16,205.27,1001.8972,201.9233,1006.1728,205.6273,1002.4688,209.9028,1011.16,205.27" style="stroke:#181818;stroke-width:1.0;"/><text fill="#000000" font-family="Arial" font-size="11" lengthAdjust="spacing" textLength="114" x="809" y="198.3179">«Can be Realized With»</text><text fill="#000000" font-family="Arial" font-size="11" lengthAdjust="spacing" textLength="3" x="866" y="210.9668"> </text></g><!--link __2_Cloud_Acceleration to __5_Starting_central_and_decentralize_at_a_later_stage--><g id="link___2_Cloud_Acceleration___5_Starting_central_and_decentralize_at_a_later_stage"><path codeLine="24" d="M738.22,413.56 C752.31,418.44 766.65,425.33 778,435 C799.49,453.32 785,474.63 808,491 C849.29,520.4 902.58,533.49 951.7,538.62 " fill="none" id="__2_Cloud_Acceleration-to-__5_Starting_central_and_decentralize_at_a_later_stage" style="stroke:#181818;stroke-width:1.0;"/><polygon fill="#181818" points="956.75,539.12,948.1816,534.2638,951.7737,538.6338,947.4037,542.2259,956.75,539.12" style="stroke:#181818;stroke-width:1.0;"/><text fill="#000000" font-family="Arial" font-size="11" lengthAdjust="spacing" textLength="114" x="809" y="475.3179">«Can be Realized With»</text><text fill="#000000" font-family="Arial" font-size="11" lengthAdjust="spacing" textLength="3" x="866" y="487.9668"> </text></g><!--link __2_Cloud_Acceleration to __7_Starting_central_and_federated_at_the_same_time--><g id="link___2_Cloud_Acceleration___7_Starting_central_and_federated_at_the_same_time"><path codeLine="25" d="M761.16,404.17 C776.68,404.52 792.85,404.82 808,405 C860.89,405.64 874.11,405.49 927,405 C935.32,404.93 943.88,404.83 952.51,404.71 " fill="none" id="__2_Cloud_Acceleration-to-__7_Starting_central_and_federated_at_the_same_time" style="stroke:#181818;stroke-width:1.0;"/><polygon fill="#181818" points="957.9,404.64,948.8438,400.769,952.9005,404.7114,948.9581,408.7682,957.9,404.64" style="stroke:#181818;stroke-width:1.0;"/><text fill="#000000" font-family="Arial" font-size="11" lengthAdjust="spacing" textLength="114" x="809" y="389.3179">«Can be Realized With»</text><text fill="#000000" font-family="Arial" font-size="11" lengthAdjust="spacing" textLength="3" x="866" y="401.9668"> </text></g><!--link __3_Starting_federated to __8_Master_Data_Management--><g id="link___3_Starting_federated___8_Master_Data_Management"><path codeLine="26" d="M1098.95,189.39 C1118.62,157.81 1178.28,70.64 1255,39 C1321.57,11.55 1396.66,84.88 1426.38,118.35 " fill="none" id="__3_Starting_federated-to-__8_Master_Data_Management" style="stroke:#181818;stroke-width:1.0;"/><polygon fill="#181818" points="1429.78,122.22,1426.8461,112.8183,1426.4804,118.4633,1420.8354,118.0976,1429.78,122.22" style="stroke:#181818;stroke-width:1.0;"/><text fill="#000000" font-family="Arial" font-size="11" lengthAdjust="spacing" textLength="53" x="1256" y="17.3179">«Can Use»</text><text fill="#000000" font-family="Arial" font-size="11" lengthAdjust="spacing" textLength="3" x="1282.5" y="29.9668"> </text></g><!--link __3_Starting_federated to __9_CQRS--><g id="link___3_Starting_federated___9_CQRS"><path codeLine="27" d="M1123.07,212.58 C1169.02,230.92 1255.82,270.37 1313,326 C1344.71,356.86 1408.36,476.12 1431.15,519.83 " fill="none" id="__3_Starting_federated-to-__9_CQRS" style="stroke:#181818;stroke-width:1.0;"/><polygon fill="#181818" points="1433.47,524.3,1432.8846,514.4686,1431.1713,519.8597,1425.7802,518.1464,1433.47,524.3" style="stroke:#181818;stroke-width:1.0;"/><text fill="#000000" font-family="Arial" font-size="11" lengthAdjust="spacing" textLength="53" x="1256" y="267.3179">«Can Use»</text><text fill="#000000" font-family="Arial" font-size="11" lengthAdjust="spacing" textLength="3" x="1282.5" y="279.9668"> </text></g><!--link __3_Starting_federated to __10_Zero_Trust_Architecture--><g id="link___3_Starting_federated___10_Zero_Trust_Architecture"><path codeLine="28" d="M1102.62,189.49 C1135.39,155.42 1237.21,60.24 1313,106 C1337.51,120.8 1329.33,137.85 1343,163 C1374.35,220.69 1412.88,288.45 1430.24,318.84 " fill="none" id="__3_Starting_federated-to-__10_Zero_Trust_Architecture" style="stroke:#181818;stroke-width:1.0;"/><polygon fill="#181818" points="1432.84,323.39,1431.8651,313.5895,1430.367,319.0444,1424.9121,317.5463,1432.84,323.39" style="stroke:#181818;stroke-width:1.0;"/><text fill="#000000" font-family="Arial" font-size="11" lengthAdjust="spacing" textLength="53" x="1256" y="78.3179">«Can Use»</text><text fill="#000000" font-family="Arial" font-size="11" lengthAdjust="spacing" textLength="3" x="1282.5" y="90.9668"> </text></g><!--link __3_Starting_federated to __11_Strangler_Fig--><g id="link___3_Starting_federated___11_Strangler_Fig"><path codeLine="29" d="M1104.27,212.68 C1130.37,238.19 1191.75,301.88 1225,367 C1247.85,411.76 1223.89,436.55 1255,476 C1273.23,499.12 1292.39,486.98 1313,508 C1333.04,528.45 1326.51,541.6 1343,565 C1367.57,599.87 1402.77,635.36 1423.17,654.85 " fill="none" id="__3_Starting_federated-to-__11_Strangler_Fig" style="stroke:#181818;stroke-width:1.0;"/><polygon fill="#181818" points="1426.8,658.29,1423.0244,649.1936,1423.1729,654.8485,1417.518,654.997,1426.8,658.29" style="stroke:#181818;stroke-width:1.0;"/><text fill="#000000" font-family="Arial" font-size="11" lengthAdjust="spacing" textLength="53" x="1256" y="460.3179">«Can Use»</text><text fill="#000000" font-family="Arial" font-size="11" lengthAdjust="spacing" textLength="3" x="1282.5" y="472.9668"> </text></g><!--link __4_Legacy_Modernization to __3_Starting_federated--><g id="link___4_Legacy_Modernization___3_Starting_federated"><path codeLine="30" d="M695.99,170.34 C717.77,152.36 762.86,118.61 808,106 C858.94,91.78 875.94,92.21 927,106 C984.87,121.64 1043.29,163.46 1071.91,186.05 " fill="none" id="__4_Legacy_Modernization-to-__3_Starting_federated" style="stroke:#181818;stroke-width:1.0;"/><polygon fill="#181818" points="1075.91,189.24,1071.3576,180.5064,1071.9973,186.127,1066.3767,186.7667,1075.91,189.24" style="stroke:#181818;stroke-width:1.0;"/><text fill="#000000" font-family="Arial" font-size="11" lengthAdjust="spacing" textLength="114" x="809" y="80.3179">«Can be Realized With»</text><text fill="#000000" font-family="Arial" font-size="11" lengthAdjust="spacing" textLength="3" x="866" y="92.9668"> </text></g><!--link __4_Legacy_Modernization to __5_Starting_central_and_decentralize_at_a_later_stage--><g id="link___4_Legacy_Modernization___5_Starting_central_and_decentralize_at_a_later_stage"><path codeLine="31" d="M688.27,193.77 C703.47,223.5 747.63,302.09 808,342 C853.69,372.21 884.92,338.95 927,374 C950.83,393.85 937.32,413.04 957,437 C984.06,469.94 1024.31,497.9 1053.44,515.62 " fill="none" id="__4_Legacy_Modernization-to-__5_Starting_central_and_decentralize_at_a_later_stage" style="stroke:#181818;stroke-width:1.0;"/><polygon fill="#181818" points="1058.02,518.37,1052.3803,510.2957,1053.7388,515.787,1048.2475,517.1456,1058.02,518.37" style="stroke:#181818;stroke-width:1.0;"/><text fill="#000000" font-family="Arial" font-size="11" lengthAdjust="spacing" textLength="114" x="809" y="326.3179">«Can be Realized With»</text><text fill="#000000" font-family="Arial" font-size="11" lengthAdjust="spacing" textLength="3" x="866" y="338.9668"> </text></g><!--link __4_Legacy_Modernization to __7_Starting_central_and_federated_at_the_same_time--><g id="link___4_Legacy_Modernization___7_Starting_central_and_federated_at_the_same_time"><path codeLine="32" d="M720.21,170.44 C770.9,157.24 862.14,141.91 927,179 C949.83,192.06 942.26,208.23 957,230 C995.07,286.25 1045.32,348.39 1071.83,380.36 " fill="none" id="__4_Legacy_Modernization-to-__7_Starting_central_and_federated_at_the_same_time" style="stroke:#181818;stroke-width:1.0;"/><polygon fill="#181818" points="1075.25,384.48,1072.5647,375.0043,1072.0505,380.6377,1066.417,380.1235,1075.25,384.48" style="stroke:#181818;stroke-width:1.0;"/><text fill="#000000" font-family="Arial" font-size="11" lengthAdjust="spacing" textLength="114" x="809" y="140.3179">«Can be Realized With»</text><text fill="#000000" font-family="Arial" font-size="11" lengthAdjust="spacing" textLength="3" x="866" y="152.9668"> </text></g><!--link __5_Starting_central_and_decentralize_at_a_later_stage to __8_Master_Data_Management--><g id="link___5_Starting_central_and_decentralize_at_a_later_stage___8_Master_Data_Management"><path codeLine="33" d="M1129.41,518.47 C1160.27,501.95 1202.5,474.19 1225,437 C1269.03,364.24 1207.87,318.8 1255,248 C1260.13,240.3 1366.25,177.16 1415.18,148.3 " fill="none" id="__5_Starting_central_and_decentralize_at_a_later_stage-to-__8_Master_Data_Management" style="stroke:#181818;stroke-width:1.0;"/><polygon fill="#181818" points="1419.73,145.62,1409.9443,146.734,1415.42,148.1545,1413.9995,153.6301,1419.73,145.62" style="stroke:#181818;stroke-width:1.0;"/><text fill="#000000" font-family="Arial" font-size="11" lengthAdjust="spacing" textLength="53" x="1256" y="194.3179">«Can Use»</text><text fill="#000000" font-family="Arial" font-size="11" lengthAdjust="spacing" textLength="3" x="1282.5" y="206.9668"> </text></g><!--link __5_Starting_central_and_decentralize_at_a_later_stage to __9_CQRS--><g id="link___5_Starting_central_and_decentralize_at_a_later_stage___9_CQRS"><path codeLine="34" d="M1117.26,553.68 C1158.05,580.02 1241.1,624.57 1313,606 C1354.41,595.31 1396.74,567.84 1420.42,550.66 " fill="none" id="__5_Starting_central_and_decentralize_at_a_later_stage-to-__9_CQRS" style="stroke:#181818;stroke-width:1.0;"/><polygon fill="#181818" points="1424.62,547.58,1414.9979,549.6811,1420.5893,550.5387,1419.7318,556.1301,1424.62,547.58" style="stroke:#181818;stroke-width:1.0;"/><text fill="#000000" font-family="Arial" font-size="11" lengthAdjust="spacing" textLength="53" x="1256" y="590.3179">«Can Use»</text><text fill="#000000" font-family="Arial" font-size="11" lengthAdjust="spacing" textLength="3" x="1282.5" y="602.9668"> </text></g><!--link __5_Starting_central_and_decentralize_at_a_later_stage to __10_Zero_Trust_Architecture--><g id="link___5_Starting_central_and_decentralize_at_a_later_stage___10_Zero_Trust_Architecture"><path codeLine="35" d="M1122.01,518.44 C1154.69,499.33 1208.51,467.91 1255,441 C1312.07,407.98 1379.25,369.48 1414.69,349.19 " fill="none" id="__5_Starting_central_and_decentralize_at_a_later_stage-to-__10_Zero_Trust_Architecture" style="stroke:#181818;stroke-width:1.0;"/><polygon fill="#181818" points="1419.27,346.57,1409.472,347.5692,1414.9305,349.0538,1413.446,354.5123,1419.27,346.57" style="stroke:#181818;stroke-width:1.0;"/><text fill="#000000" font-family="Arial" font-size="11" lengthAdjust="spacing" textLength="53" x="1256" y="393.3179">«Can Use»</text><text fill="#000000" font-family="Arial" font-size="11" lengthAdjust="spacing" textLength="3" x="1282.5" y="405.9668"> </text></g><!--link __5_Starting_central_and_decentralize_at_a_later_stage to __11_Strangler_Fig--><g id="link___5_Starting_central_and_decentralize_at_a_later_stage___11_Strangler_Fig"><path codeLine="36" d="M1099.54,553.8 C1118.43,595.73 1172.27,700.21 1255,740 C1314.98,768.85 1390.18,713.6 1422.96,685.28 " fill="none" id="__5_Starting_central_and_decentralize_at_a_later_stage-to-__11_Strangler_Fig" style="stroke:#181818;stroke-width:1.0;"/><polygon fill="#181818" points="1427.11,681.64,1417.702,684.5537,1423.3462,684.9315,1422.9684,690.5757,1427.11,681.64" style="stroke:#181818;stroke-width:1.0;"/><text fill="#000000" font-family="Arial" font-size="11" lengthAdjust="spacing" textLength="53" x="1256" y="724.3179">«Can Use»</text><text fill="#000000" font-family="Arial" font-size="11" lengthAdjust="spacing" textLength="3" x="1282.5" y="736.9668"> </text></g><!--link __6_Greenfield_Development to __3_Starting_federated--><g id="link___6_Greenfield_Development___3_Starting_federated"><path codeLine="37" d="M744.94,452.44 C757.29,447.6 769.15,440.74 778,431 C816.14,389.05 768.42,347.6 808,307 C846.23,267.79 875.45,293.5 927,275 C976.21,257.35 1031.13,230.94 1063.01,214.91 " fill="none" id="__6_Greenfield_Development-to-__3_Starting_federated" style="stroke:#181818;stroke-width:1.0;"/><polygon fill="#181818" points="1067.54,212.62,1057.7031,213.1049,1063.0765,214.8732,1061.3081,220.2465,1067.54,212.62" style="stroke:#181818;stroke-width:1.0;"/><text fill="#000000" font-family="Arial" font-size="11" lengthAdjust="spacing" textLength="114" x="809" y="259.3179">«Can be Realized With»</text><text fill="#000000" font-family="Arial" font-size="11" lengthAdjust="spacing" textLength="3" x="866" y="271.9668"> </text></g><!--link __6_Greenfield_Development to __5_Starting_central_and_decentralize_at_a_later_stage--><g id="link___6_Greenfield_Development___5_Starting_central_and_decentralize_at_a_later_stage"><path codeLine="38" d="M688.36,475.79 C703.45,504.63 746.81,578.42 808,606 C894.55,645.02 1006.26,588.83 1059.36,556.34 " fill="none" id="__6_Greenfield_Development-to-__5_Starting_central_and_decentralize_at_a_later_stage" style="stroke:#181818;stroke-width:1.0;"/><polygon fill="#181818" points="1063.69,553.66,1053.9327,554.9995,1059.4396,556.2933,1058.1459,561.8002,1063.69,553.66" style="stroke:#181818;stroke-width:1.0;"/><text fill="#000000" font-family="Arial" font-size="11" lengthAdjust="spacing" textLength="114" x="809" y="590.3179">«Can be Realized With»</text><text fill="#000000" font-family="Arial" font-size="11" lengthAdjust="spacing" textLength="3" x="866" y="602.9668"> </text></g><!--link __6_Greenfield_Development to __7_Starting_central_and_federated_at_the_same_time--><g id="link___6_Greenfield_Development___7_Starting_central_and_federated_at_the_same_time"><path codeLine="39" d="M778.12,458.15 C823.43,454.58 878.21,449.09 927,441 C958.07,435.85 992.01,428.08 1020.83,420.83 " fill="none" id="__6_Greenfield_Development-to-__7_Starting_central_and_federated_at_the_same_time" style="stroke:#181818;stroke-width:1.0;"/><polygon fill="#181818" points="1025.78,419.58,1016.0739,417.9091,1020.9327,420.8061,1018.0357,425.6648,1025.78,419.58" style="stroke:#181818;stroke-width:1.0;"/><text fill="#000000" font-family="Arial" font-size="11" lengthAdjust="spacing" textLength="114" x="809" y="425.3179">«Can be Realized With»</text><text fill="#000000" font-family="Arial" font-size="11" lengthAdjust="spacing" textLength="3" x="866" y="437.9668"> </text></g><!--link __7_Starting_central_and_federated_at_the_same_time to __8_Master_Data_Management--><g id="link___7_Starting_central_and_federated_at_the_same_time___8_Master_Data_Management"><path codeLine="40" d="M1107.46,384.19 C1133.46,353.79 1186.83,289.38 1225,230 C1240.48,205.92 1232.16,190.27 1255,173 C1278.7,155.09 1308.78,144.97 1337.74,139.38 " fill="none" id="__7_Starting_central_and_federated_at_the_same_time-to-__8_Master_Data_Management" style="stroke:#181818;stroke-width:1.0;"/><polygon fill="#181818" points="1342.76,138.45,1333.1802,136.1637,1337.8443,139.3645,1334.6435,144.0287,1342.76,138.45" style="stroke:#181818;stroke-width:1.0;"/><text fill="#000000" font-family="Arial" font-size="11" lengthAdjust="spacing" textLength="53" x="1256" y="131.3179">«Can Use»</text><text fill="#000000" font-family="Arial" font-size="11" lengthAdjust="spacing" textLength="3" x="1282.5" y="143.9668"> </text></g><!--link __7_Starting_central_and_federated_at_the_same_time to __9_CQRS--><g id="link___7_Starting_central_and_federated_at_the_same_time___9_CQRS"><path codeLine="41" d="M1119.89,419.61 C1148,438.07 1191.87,468.8 1225,501 C1240.43,516 1235.64,529.62 1255,539 C1298.18,559.93 1353.99,555.34 1392.87,547.93 " fill="none" id="__7_Starting_central_and_federated_at_the_same_time-to-__9_CQRS" style="stroke:#181818;stroke-width:1.0;"/><polygon fill="#181818" points="1398,546.92,1388.3952,544.7412,1393.0949,547.8896,1389.9465,552.5894,1398,546.92" style="stroke:#181818;stroke-width:1.0;"/><text fill="#000000" font-family="Arial" font-size="11" lengthAdjust="spacing" textLength="53" x="1256" y="523.3179">«Can Use»</text><text fill="#000000" font-family="Arial" font-size="11" lengthAdjust="spacing" textLength="3" x="1282.5" y="535.9668"> </text></g><!--link __7_Starting_central_and_federated_at_the_same_time to __10_Zero_Trust_Architecture--><g id="link___7_Starting_central_and_federated_at_the_same_time___10_Zero_Trust_Architecture"><path codeLine="42" d="M1182.85,384.49 C1243.04,372.88 1320.58,357.93 1374.61,347.52 " fill="none" id="__7_Starting_central_and_federated_at_the_same_time-to-__10_Zero_Trust_Architecture" style="stroke:#181818;stroke-width:1.0;"/><polygon fill="#181818" points="1379.76,346.52,1370.1675,344.2875,1374.8496,347.4621,1371.6749,352.1442,1379.76,346.52" style="stroke:#181818;stroke-width:1.0;"/><text fill="#000000" font-family="Arial" font-size="11" lengthAdjust="spacing" textLength="53" x="1256" y="345.3179">«Can Use»</text><text fill="#000000" font-family="Arial" font-size="11" lengthAdjust="spacing" textLength="3" x="1282.5" y="357.9668"> </text></g><!--link __7_Starting_central_and_federated_at_the_same_time to __11_Strangler_Fig--><g id="link___7_Starting_central_and_federated_at_the_same_time___11_Strangler_Fig"><path codeLine="43" d="M1128.66,419.65 C1159.26,436.32 1201.53,464.25 1225,501 C1260.18,556.11 1207.17,600.44 1255,645 C1285.78,673.68 1332.96,679.66 1371.9,678.61 " fill="none" id="__7_Starting_central_and_federated_at_the_same_time-to-__11_Strangler_Fig" style="stroke:#181818;stroke-width:1.0;"/><polygon fill="#181818" points="1377.09,678.43,1367.9582,674.7407,1372.0929,678.6013,1368.2323,682.736,1377.09,678.43" style="stroke:#181818;stroke-width:1.0;"/><text fill="#000000" font-family="Arial" font-size="11" lengthAdjust="spacing" textLength="53" x="1256" y="629.3179">«Can Use»</text><text fill="#000000" font-family="Arial" font-size="11" lengthAdjust="spacing" textLength="3" x="1282.5" y="641.9668"> </text></g><!--SRC=[jLJ9Rjim4BtxAmQ-1wYxDq1Rf0xIIzCbQH6WC32WgP5CX28DachX5FsYV49l-R8EPKjMOdcFRxRuvhrPteo_LcOidCWXjyRAaRCvGN05TNpzqjV2-mz2NcVE5YRfMsqTN8rKeCv89GIKZyC4Sig7vFpqarHEwYP7GgaeT3Yp9dmMB77YbD3jxvVgXg3NQppAc43AJpvCDC7GwgIZAGqGB3YLZG8aof4CoffEYONkrKW4yC69GDa4f30m92Wy9P1oyea80iRE9eKCeFAnffnC497W_S30CPoIL9x_TK5uGEnXvCEA3vaFXuIH3vaF8n_E-F0-7rOPzRKj4ZYHaZIvyebrleeGo5KoJx44OHDKXLy6uO8o6QIKn2UkXCETuAebpUAVOON26bN5Vw9Co0cSM_vkr4rx0izn2iDxi8KK91VdX0PX4XxSx5-S6lTSW6PPnxqN6PMzV93aYtcIiqXa7cpo8FTQOCc39K-LmKT7P595Ek49_I9jnx7FYnelSOx41d9b9VF6SXbXHE2ZKOFAMyjurLv6JH9hO1AC91X9AkrpuMD_JgC5puNXwgeQxetYDKw1684u1zPs-dPnkH3q1kFd2lAJd8Nlhl21rqt6VPMXSBGGrNk24Oeb59lGUR-SC1bRykXCPOlnFQm1o83EVWi3HqVlbYp3CNJlRh-Cuy-xVp0mVqmSqLjkgifcEsLJO2PoOwSyZt32FSpzmF2bu6aCZ8oStRy3plrnqcnVcGqIJVdKWfvkPJFDlEGPcEQDye-PyRBbM9fplIs_LHX1Dj_1P1vS9zWsjfbmstagHVlJytn1vVOdSCKwPGhh67Uv9VifRhts6yYrzMKcj-mArAm_F6r4DBqCMuSjFmtRKpsu4kq4xUkqdu5MSXx8GYir3s6YNUhOoMHx2AqouHwqsvfq7wcDJBpimkvdupMi1pBo6jL3M7bhpfrylAlAAXFlohcjWtVMMM_V_m00]--></g></svg>