<?xml version="1.0" encoding="UTF-8" standalone="no"?><svg xmlns="http://www.w3.org/2000/svg" xmlns:xlink="http://www.w3.org/1999/xlink" contentStyleType="text/css" height="401px" preserveAspectRatio="none" style="width:1417px;height:401px;background:#FFFFFF;" version="1.1" viewBox="0 0 1417 401" width="1417px" zoomAndPan="magnify"><defs/><g><!--class __1_What_strategy_can_be_used_for_data_product_implementation_--><g id="elem___1_What_strategy_can_be_used_for_data_product_implementation_"><rect codeLine="8" fill="#FFFFFF" height="35.2979" id="__1_What_strategy_can_be_used_for_data_product_implementation_" rx="2.5" ry="2.5" style="stroke:#181818;stroke-width:0.5;" width="340" x="412.5" y="7"/><text fill="#000000" font-family="Arial" font-size="11" font-weight="bold" lengthAdjust="spacing" textLength="334" x="415.5" y="22.3179">What strategy can be used for data product implementation?</text><text fill="#000000" font-family="Arial" font-size="11" font-weight="bold" lengthAdjust="spacing" textLength="53" x="557.5" y="34.9668">: Decision</text></g><!--class __2_Cloud_Acceleration--><g id="elem___2_Cloud_Acceleration"><rect codeLine="9" fill="#FFFFFF" height="22.6489" id="__2_Cloud_Acceleration" rx="2.5" ry="2.5" style="stroke:#181818;stroke-width:0.5;" width="159" x="292" y="141"/><text fill="#000000" font-family="Arial" font-size="11" font-weight="bold" lengthAdjust="spacing" textLength="153" x="295" y="156.3179">Cloud Acceleration : Pattern</text></g><!--class __3_Starting_federated--><g id="elem___3_Starting_federated"><rect codeLine="10" fill="#FFFFFF" height="22.6489" id="__3_Starting_federated" rx="2.5" ry="2.5" style="stroke:#181818;stroke-width:0.5;" width="159" x="451" y="257"/><text fill="#000000" font-family="Arial" font-size="11" font-weight="bold" lengthAdjust="spacing" textLength="153" x="454" y="272.3179">Starting federated : Practice</text></g><!--class __4_Legacy_Modernization--><g id="elem___4_Legacy_Modernization"><rect codeLine="11" fill="#FFFFFF" height="22.6489" id="__4_Legacy_Modernization" rx="2.5" ry="2.5" style="stroke:#181818;stroke-width:0.5;" width="176" x="896.5" y="141"/><text fill="#000000" font-family="Arial" font-size="11" font-weight="bold" lengthAdjust="spacing" textLength="170" x="899.5" y="156.3179">Legacy Modernization : Pattern</text></g><!--class __5_Starting_central_and_decentralize_at_a_later_stage--><g id="elem___5_Starting_central_and_decentralize_at_a_later_stage"><rect codeLine="12" fill="#FFFFFF" height="35.2979" id="__5_Starting_central_and_decentralize_at_a_later_stage" rx="2.5" ry="2.5" style="stroke:#181818;stroke-width:0.5;" width="268" x="83.5" y="251"/><text fill="#000000" font-family="Arial" font-size="11" font-weight="bold" lengthAdjust="spacing" textLength="262" x="86.5" y="266.3179">Starting central and decentralize at a later stage</text><text fill="#000000" font-family="Arial" font-size="11" font-weight="bold" lengthAdjust="spacing" textLength="50" x="194" y="278.9668">: Practice</text></g><!--class __6_Greenfield_Development--><g id="elem___6_Greenfield_Development"><rect codeLine="13" fill="#FFFFFF" height="22.6489" id="__6_Greenfield_Development" rx="2.5" ry="2.5" style="stroke:#181818;stroke-width:0.5;" width="193" x="486" y="141"/><text fill="#000000" font-family="Arial" font-size="11" font-weight="bold" lengthAdjust="spacing" textLength="187" x="489" y="156.3179">Greenfield Development : Practice</text></g><!--class __7_Starting_central_and_federated_at_the_same_time--><g id="elem___7_Starting_central_and_federated_at_the_same_time"><rect codeLine="14" fill="#FFFFFF" height="35.2979" id="__7_Starting_central_and_federated_at_the_same_time" rx="2.5" ry="2.5" style="stroke:#181818;stroke-width:0.5;" width="266" x="868.5" y="251"/><text fill="#000000" font-family="Arial" font-size="11" font-weight="bold" lengthAdjust="spacing" textLength="260" x="871.5" y="266.3179">Starting central and federated at the same time</text><text fill="#000000" font-family="Arial" font-size="11" font-weight="bold" lengthAdjust="spacing" textLength="50" x="978" y="278.9668">: Practice</text></g><!--class __8_Master_Data_Management--><g id="elem___8_Master_Data_Management"><rect codeLine="15" fill="#FFFFFF" height="22.6489" id="__8_Master_Data_Management" rx="2.5" ry="2.5" style="stroke:#181818;stroke-width:0.5;" width="195" x="7" y="373"/><text fill="#000000" font-family="Arial" font-size="11" font-weight="bold" lengthAdjust="spacing" textLength="189" x="10" y="388.3179">Master Data Management : Pattern</text></g><!--class __9_CQRS--><g id="elem___9_CQRS"><rect codeLine="16" fill="#FFFFFF" height="22.6489" id="__9_CQRS" rx="2.5" ry="2.5" style="stroke:#181818;stroke-width:0.5;" width="85" x="567" y="373"/><text fill="#000000" font-family="Arial" font-size="11" font-weight="bold" lengthAdjust="spacing" textLength="79" x="570" y="388.3179">CQRS : Pattern</text></g><!--class __10_Zero_Trust_Architecture--><g id="elem___10_Zero_Trust_Architecture"><rect codeLine="17" fill="#FFFFFF" height="22.6489" id="__10_Zero_Trust_Architecture" rx="2.5" ry="2.5" style="stroke:#181818;stroke-width:0.5;" width="186" x="237.5" y="373"/><text fill="#000000" font-family="Arial" font-size="11" font-weight="bold" lengthAdjust="spacing" textLength="180" x="240.5" y="388.3179">Zero Trust Architecture : Pattern</text></g><!--class __11_Strangler_Fig--><g id="elem___11_Strangler_Fig"><rect codeLine="18" fill="#FFFFFF" height="22.6489" id="__11_Strangler_Fig" rx="2.5" ry="2.5" style="stroke:#181818;stroke-width:0.5;" width="126" x="840.5" y="373"/><text fill="#000000" font-family="Arial" font-size="11" font-weight="bold" lengthAdjust="spacing" textLength="120" x="843.5" y="388.3179">Strangler-Fig : Pattern</text></g><!--link __1_What_strategy_can_be_used_for_data_product_implementation_ to __2_Cloud_Acceleration--><g id="link___1_What_strategy_can_be_used_for_data_product_implementation____2_Cloud_Acceleration"><path codeLine="19" d="M477.26,42.1 C456.02,48.9 434.89,58.49 417.5,72 C396.09,88.63 382.83,118.24 376.34,136.25 " fill="none" id="__1_What_strategy_can_be_used_for_data_product_implementation_-to-__2_Cloud_Acceleration" style="stroke:#181818;stroke-width:1.0;"/><polygon fill="#181818" points="374.68,141,381.4121,133.8112,376.3209,136.2769,373.8552,131.1857,374.68,141" style="stroke:#181818;stroke-width:1.0;"/><text fill="#000000" font-family="Arial" font-size="11" lengthAdjust="spacing" textLength="152" x="418.5" y="83.3179">Migration of enterprise systems</text><text fill="#000000" font-family="Arial" font-size="11" lengthAdjust="spacing" textLength="27" x="481" y="95.9668">to the</text><text fill="#000000" font-family="Arial" font-size="11" lengthAdjust="spacing" textLength="26" x="481.5" y="108.6157">cloud</text><text fill="#000000" font-family="Arial" font-size="11" lengthAdjust="spacing" textLength="43" x="396.7955" y="60.5072">«Option»</text><text fill="#000000" font-family="Arial" font-size="11" lengthAdjust="spacing" textLength="39" x="398.7955" y="73.1562">{name =</text><text fill="#000000" font-family="Arial" font-size="11" lengthAdjust="spacing" textLength="4" x="371.1004" y="117.8835">}</text><text fill="#000000" font-family="Arial" font-size="11" lengthAdjust="spacing" textLength="3" x="371.6004" y="130.5324"> </text></g><!--link __1_What_strategy_can_be_used_for_data_product_implementation_ to __4_Legacy_Modernization--><g id="link___1_What_strategy_can_be_used_for_data_product_implementation____4_Legacy_Modernization"><path codeLine="20" d="M652.58,42.03 C686.05,50.32 726.56,60.95 762.5,72 C831.07,93.09 909.8,122.56 952.64,139.05 " fill="none" id="__1_What_strategy_can_be_used_for_data_product_implementation_-to-__4_Legacy_Modernization" style="stroke:#181818;stroke-width:1.0;"/><polygon fill="#181818" points="957.43,140.9,950.4773,133.9244,952.7662,139.0974,947.5932,141.3864,957.43,140.9" style="stroke:#181818;stroke-width:1.0;"/><text fill="#000000" font-family="Arial" font-size="11" lengthAdjust="spacing" textLength="147" x="872.5" y="83.3179">Migration from legacy systems</text><text fill="#000000" font-family="Arial" font-size="11" lengthAdjust="spacing" textLength="48" x="922" y="95.9668">to modern</text><text fill="#000000" font-family="Arial" font-size="11" lengthAdjust="spacing" textLength="67" x="912.5" y="108.6157">data products</text><text fill="#000000" font-family="Arial" font-size="11" lengthAdjust="spacing" textLength="43" x="619.8213" y="60.7938">«Option»</text><text fill="#000000" font-family="Arial" font-size="11" lengthAdjust="spacing" textLength="39" x="621.8213" y="73.4427">{name =</text><text fill="#000000" font-family="Arial" font-size="11" lengthAdjust="spacing" textLength="4" x="943.4372" y="118.045">}</text><text fill="#000000" font-family="Arial" font-size="11" lengthAdjust="spacing" textLength="3" x="943.9372" y="130.694"> </text></g><!--link __1_What_strategy_can_be_used_for_data_product_implementation_ to __6_Greenfield_Development--><g id="link___1_What_strategy_can_be_used_for_data_product_implementation____6_Greenfield_Development"><path codeLine="21" d="M581.6,42.28 C581.18,51.12 580.71,62.14 580.5,72 C580.13,89.33 580.07,93.67 580.5,111 C580.7,119.08 581.12,128.05 581.53,135.49 " fill="none" id="__1_What_strategy_can_be_used_for_data_product_implementation_-to-__6_Greenfield_Development" style="stroke:#181818;stroke-width:1.0;"/><polygon fill="#181818" points="581.83,140.85,585.3348,131.6459,581.5582,135.8574,577.3467,132.0808,581.83,140.85" style="stroke:#181818;stroke-width:1.0;"/><text fill="#000000" font-family="Arial" font-size="11" lengthAdjust="spacing" textLength="176" x="581.5" y="95.8179">Starting with greenfield development</text><text fill="#000000" font-family="Arial" font-size="11" lengthAdjust="spacing" textLength="43" x="529.1769" y="60.7356">«Option»</text><text fill="#000000" font-family="Arial" font-size="11" lengthAdjust="spacing" textLength="39" x="531.1769" y="73.3845">{name =</text><text fill="#000000" font-family="Arial" font-size="11" lengthAdjust="spacing" textLength="4" x="576.9122" y="117.9778">}</text><text fill="#000000" font-family="Arial" font-size="11" lengthAdjust="spacing" textLength="3" x="577.4122" y="130.6268"> </text></g><!--link __2_Cloud_Acceleration to __3_Starting_federated--><g id="link___2_Cloud_Acceleration___3_Starting_federated"><path codeLine="22" d="M372.27,164.14 C373.89,178.87 378.93,205.41 394.5,221 C411.31,237.82 434.44,248.56 456.87,255.42 " fill="none" id="__2_Cloud_Acceleration-to-__3_Starting_federated" style="stroke:#181818;stroke-width:1.0;"/><polygon fill="#181818" points="461.95,256.91,454.4475,250.5294,457.1539,255.4969,452.1864,258.2032,461.95,256.91" style="stroke:#181818;stroke-width:1.0;"/><text fill="#000000" font-family="Arial" font-size="11" lengthAdjust="spacing" textLength="114" x="395.5" y="205.3179">«Can be Realized With»</text><text fill="#000000" font-family="Arial" font-size="11" lengthAdjust="spacing" textLength="3" x="452.5" y="217.9668"> </text></g><!--link __2_Cloud_Acceleration to __5_Starting_central_and_decentralize_at_a_later_stage--><g id="link___2_Cloud_Acceleration___5_Starting_central_and_decentralize_at_a_later_stage"><path codeLine="23" d="M291.71,158.13 C201.86,164.18 66.24,176.15 50.5,194 C26.69,221 56.92,238.51 97.91,249.64 " fill="none" id="__2_Cloud_Acceleration-to-__5_Starting_central_and_decentralize_at_a_later_stage" style="stroke:#181818;stroke-width:1.0;"/><polygon fill="#181818" points="102.96,250.96,95.2707,244.8057,98.1239,249.6903,93.2393,252.5435,102.96,250.96" style="stroke:#181818;stroke-width:1.0;"/><text fill="#000000" font-family="Arial" font-size="11" lengthAdjust="spacing" textLength="114" x="51.5" y="205.3179">«Can be Realized With»</text><text fill="#000000" font-family="Arial" font-size="11" lengthAdjust="spacing" textLength="3" x="108.5" y="217.9668"> </text></g><!--link __2_Cloud_Acceleration to __7_Starting_central_and_federated_at_the_same_time--><g id="link___2_Cloud_Acceleration___7_Starting_central_and_federated_at_the_same_time"><path codeLine="24" d="M451.15,162.25 C457.02,162.86 462.85,163.45 468.5,164 C544.21,171.43 739.27,164.78 809.5,194 C826.68,201.15 825.1,212.21 841.5,221 C864.33,233.23 890.76,242.59 915.48,249.6 " fill="none" id="__2_Cloud_Acceleration-to-__7_Starting_central_and_federated_at_the_same_time" style="stroke:#181818;stroke-width:1.0;"/><polygon fill="#181818" points="920.4,250.97,912.8056,244.699,915.5838,249.6266,910.6562,252.4048,920.4,250.97" style="stroke:#181818;stroke-width:1.0;"/><text fill="#000000" font-family="Arial" font-size="11" lengthAdjust="spacing" textLength="114" x="842.5" y="205.3179">«Can be Realized With»</text><text fill="#000000" font-family="Arial" font-size="11" lengthAdjust="spacing" textLength="3" x="899.5" y="217.9668"> </text></g><!--link __3_Starting_federated to __8_Master_Data_Management--><g id="link___3_Starting_federated___8_Master_Data_Management"><path codeLine="25" d="M450.61,278.13 C338.64,290.35 147.86,311.7 141.5,316 C123.59,328.1 113.54,351.85 108.57,367.7 " fill="none" id="__3_Starting_federated-to-__8_Master_Data_Management" style="stroke:#181818;stroke-width:1.0;"/><polygon fill="#181818" points="107.08,372.75,113.4811,365.2649,108.5063,367.9577,105.8135,362.9829,107.08,372.75" style="stroke:#181818;stroke-width:1.0;"/><text fill="#000000" font-family="Arial" font-size="11" lengthAdjust="spacing" textLength="53" x="142.5" y="327.3179">«Can Use»</text><text fill="#000000" font-family="Arial" font-size="11" lengthAdjust="spacing" textLength="3" x="169" y="339.9668"> </text></g><!--link __3_Starting_federated to __9_CQRS--><g id="link___3_Starting_federated___9_CQRS"><path codeLine="26" d="M540.64,280.11 C549.11,289.25 561.26,302.97 570.5,316 C582.6,333.06 594.31,354.12 601.68,368.13 " fill="none" id="__3_Starting_federated-to-__9_CQRS" style="stroke:#181818;stroke-width:1.0;"/><polygon fill="#181818" points="604.01,372.6,603.4117,362.7693,601.7055,368.1627,596.3121,366.4565,604.01,372.6" style="stroke:#181818;stroke-width:1.0;"/><text fill="#000000" font-family="Arial" font-size="11" lengthAdjust="spacing" textLength="53" x="587.5" y="327.3179">«Can Use»</text><text fill="#000000" font-family="Arial" font-size="11" lengthAdjust="spacing" textLength="3" x="614" y="339.9668"> </text></g><!--link __3_Starting_federated to __10_Zero_Trust_Architecture--><g id="link___3_Starting_federated___10_Zero_Trust_Architecture"><path codeLine="27" d="M450.75,276.11 C395.89,282.5 329.91,294.49 312.5,316 C300.33,331.04 310.31,353.54 319.57,368.37 " fill="none" id="__3_Starting_federated-to-__10_Zero_Trust_Architecture" style="stroke:#181818;stroke-width:1.0;"/><polygon fill="#181818" points="322.39,372.71,320.8261,362.9861,319.6595,368.5214,314.1243,367.3549,322.39,372.71" style="stroke:#181818;stroke-width:1.0;"/><text fill="#000000" font-family="Arial" font-size="11" lengthAdjust="spacing" textLength="53" x="313.5" y="327.3179">«Can Use»</text><text fill="#000000" font-family="Arial" font-size="11" lengthAdjust="spacing" textLength="3" x="340" y="339.9668"> </text></g><!--link __3_Starting_federated to __11_Strangler_Fig--><g id="link___3_Starting_federated___11_Strangler_Fig"><path codeLine="28" d="M610.37,272.64 C695.72,277.37 824.19,288.86 864.5,316 C882.66,328.22 893.44,351.94 898.91,367.75 " fill="none" id="__3_Starting_federated-to-__11_Strangler_Fig" style="stroke:#181818;stroke-width:1.0;"/><polygon fill="#181818" points="900.57,372.78,901.563,362.9813,899.0103,368.0295,893.9622,365.4768,900.57,372.78" style="stroke:#181818;stroke-width:1.0;"/><text fill="#000000" font-family="Arial" font-size="11" lengthAdjust="spacing" textLength="53" x="888.5" y="327.3179">«Can Use»</text><text fill="#000000" font-family="Arial" font-size="11" lengthAdjust="spacing" textLength="3" x="915" y="339.9668"> </text></g><!--link __4_Legacy_Modernization to __3_Starting_federated--><g id="link___4_Legacy_Modernization___3_Starting_federated"><path codeLine="29" d="M1045.32,164.01 C1090.64,174.37 1140.55,192.79 1114.5,221 C1097.82,239.06 773.03,256.37 615.19,263.76 " fill="none" id="__4_Legacy_Modernization-to-__3_Starting_federated" style="stroke:#181818;stroke-width:1.0;"/><polygon fill="#181818" points="610.11,264,619.2833,267.5848,615.1048,263.7717,618.9179,259.5932,610.11,264" style="stroke:#181818;stroke-width:1.0;"/><text fill="#000000" font-family="Arial" font-size="11" lengthAdjust="spacing" textLength="114" x="1122.5" y="205.3179">«Can be Realized With»</text><text fill="#000000" font-family="Arial" font-size="11" lengthAdjust="spacing" textLength="3" x="1179.5" y="217.9668"> </text></g><!--link __4_Legacy_Modernization to __5_Starting_central_and_decentralize_at_a_later_stage--><g id="link___4_Legacy_Modernization___5_Starting_central_and_decentralize_at_a_later_stage"><path codeLine="30" d="M896.25,159.84 C821.13,166.23 719.68,177.53 682.5,194 C665.49,201.54 667.61,213.69 650.5,221 C623.78,232.42 473.04,246.89 356.84,256.63 " fill="none" id="__4_Legacy_Modernization-to-__5_Starting_central_and_decentralize_at_a_later_stage" style="stroke:#181818;stroke-width:1.0;"/><polygon fill="#181818" points="351.68,257.06,360.9803,260.301,356.6628,256.646,360.3179,252.3285,351.68,257.06" style="stroke:#181818;stroke-width:1.0;"/><text fill="#000000" font-family="Arial" font-size="11" lengthAdjust="spacing" textLength="114" x="683.5" y="205.3179">«Can be Realized With»</text><text fill="#000000" font-family="Arial" font-size="11" lengthAdjust="spacing" textLength="3" x="740.5" y="217.9668"> </text></g><!--link __4_Legacy_Modernization to __7_Starting_central_and_federated_at_the_same_time--><g id="link___4_Legacy_Modernization___7_Starting_central_and_federated_at_the_same_time"><path codeLine="31" d="M1072.79,152.96 C1151.77,154.59 1259.16,162.75 1286.5,194 C1294.4,203.03 1294.27,211.86 1286.5,221 C1266.92,244.03 1202.53,255.69 1139.9,261.57 " fill="none" id="__4_Legacy_Modernization-to-__7_Starting_central_and_federated_at_the_same_time" style="stroke:#181818;stroke-width:1.0;"/><polygon fill="#181818" points="1134.62,262.05,1143.9476,265.2115,1139.5991,261.5935,1143.2172,257.2449,1134.62,262.05" style="stroke:#181818;stroke-width:1.0;"/><text fill="#000000" font-family="Arial" font-size="11" lengthAdjust="spacing" textLength="114" x="1292.5" y="205.3179">«Can be Realized With»</text><text fill="#000000" font-family="Arial" font-size="11" lengthAdjust="spacing" textLength="3" x="1349.5" y="217.9668"> </text></g><!--link __5_Starting_central_and_decentralize_at_a_later_stage to __8_Master_Data_Management--><g id="link___5_Starting_central_and_decentralize_at_a_later_stage___8_Master_Data_Management"><path codeLine="32" d="M92,286.04 C58.6,293.14 28.89,302.9 18.5,316 C11.04,325.4 12.07,332.87 18.5,343 C26.76,356.02 40.45,364.93 54.5,371 " fill="none" id="__5_Starting_central_and_decentralize_at_a_later_stage-to-__8_Master_Data_Management" style="stroke:#181818;stroke-width:1.0;"/><polygon fill="#181818" points="59.27,372.95,52.4632,365.8319,54.6445,371.0513,49.4252,373.2327,59.27,372.95" style="stroke:#181818;stroke-width:1.0;"/><text fill="#000000" font-family="Arial" font-size="11" lengthAdjust="spacing" textLength="53" x="19.5" y="327.3179">«Can Use»</text><text fill="#000000" font-family="Arial" font-size="11" lengthAdjust="spacing" textLength="3" x="46" y="339.9668"> </text></g><!--link __5_Starting_central_and_decentralize_at_a_later_stage to __9_CQRS--><g id="link___5_Starting_central_and_decentralize_at_a_later_stage___9_CQRS"><path codeLine="33" d="M351.6,280.62 C391.82,287.43 435.16,298.39 472.5,316 C489.33,323.94 488.49,333.52 504.5,343 C524.58,354.89 548.78,364.5 568.88,371.37 " fill="none" id="__5_Starting_central_and_decentralize_at_a_later_stage-to-__9_CQRS" style="stroke:#181818;stroke-width:1.0;"/><polygon fill="#181818" points="573.63,372.97,566.3808,366.303,568.8923,371.3717,563.8236,373.8833,573.63,372.97" style="stroke:#181818;stroke-width:1.0;"/><text fill="#000000" font-family="Arial" font-size="11" lengthAdjust="spacing" textLength="53" x="505.5" y="327.3179">«Can Use»</text><text fill="#000000" font-family="Arial" font-size="11" lengthAdjust="spacing" textLength="3" x="532" y="339.9668"> </text></g><!--link __5_Starting_central_and_decentralize_at_a_later_stage to __10_Zero_Trust_Architecture--><g id="link___5_Starting_central_and_decentralize_at_a_later_stage___10_Zero_Trust_Architecture"><path codeLine="34" d="M211.47,286.03 C206.75,302.1 202.74,326.44 214.5,343 C223.85,356.16 237.8,365.08 252.83,371.12 " fill="none" id="__5_Starting_central_and_decentralize_at_a_later_stage-to-__10_Zero_Trust_Architecture" style="stroke:#181818;stroke-width:1.0;"/><polygon fill="#181818" points="257.52,372.9,250.5415,365.9501,252.8496,371.1147,247.685,373.4227,257.52,372.9" style="stroke:#181818;stroke-width:1.0;"/><text fill="#000000" font-family="Arial" font-size="11" lengthAdjust="spacing" textLength="53" x="215.5" y="327.3179">«Can Use»</text><text fill="#000000" font-family="Arial" font-size="11" lengthAdjust="spacing" textLength="3" x="242" y="339.9668"> </text></g><!--link __5_Starting_central_and_decentralize_at_a_later_stage to __11_Strangler_Fig--><g id="link___5_Starting_central_and_decentralize_at_a_later_stage___11_Strangler_Fig"><path codeLine="35" d="M351.58,279.85 C511.01,292.31 756.97,312.05 766.5,316 C783.69,323.12 782.49,333.52 798.5,343 C818.58,354.89 842.78,364.5 862.88,371.37 " fill="none" id="__5_Starting_central_and_decentralize_at_a_later_stage-to-__11_Strangler_Fig" style="stroke:#181818;stroke-width:1.0;"/><polygon fill="#181818" points="867.63,372.97,860.3808,366.303,862.8923,371.3717,857.8236,373.8833,867.63,372.97" style="stroke:#181818;stroke-width:1.0;"/><text fill="#000000" font-family="Arial" font-size="11" lengthAdjust="spacing" textLength="53" x="799.5" y="327.3179">«Can Use»</text><text fill="#000000" font-family="Arial" font-size="11" lengthAdjust="spacing" textLength="3" x="826" y="339.9668"> </text></g><!--link __6_Greenfield_Development to __3_Starting_federated--><g id="link___6_Greenfield_Development___3_Starting_federated"><path codeLine="36" d="M559.29,164.07 C547.46,170.81 534.19,180.77 527.5,194 C518.29,212.23 521.75,236.36 525.66,251.91 " fill="none" id="__6_Greenfield_Development-to-__3_Starting_federated" style="stroke:#181818;stroke-width:1.0;"/><polygon fill="#181818" points="526.98,256.84,528.5296,247.1138,525.6935,252.0084,520.7989,249.1723,526.98,256.84" style="stroke:#181818;stroke-width:1.0;"/><text fill="#000000" font-family="Arial" font-size="11" lengthAdjust="spacing" textLength="114" x="528.5" y="205.3179">«Can be Realized With»</text><text fill="#000000" font-family="Arial" font-size="11" lengthAdjust="spacing" textLength="3" x="585.5" y="217.9668"> </text></g><!--link __6_Greenfield_Development to __5_Starting_central_and_decentralize_at_a_later_stage--><g id="link___6_Greenfield_Development___5_Starting_central_and_decentralize_at_a_later_stage"><path codeLine="37" d="M485.66,163.03 C391.41,172.67 260.99,187.09 251.5,194 C234.71,206.23 225.98,228.82 221.59,245.74 " fill="none" id="__6_Greenfield_Development-to-__5_Starting_central_and_decentralize_at_a_later_stage" style="stroke:#181818;stroke-width:1.0;"/><polygon fill="#181818" points="220.37,250.79,226.3686,242.9787,221.5423,245.9294,218.5916,241.103,220.37,250.79" style="stroke:#181818;stroke-width:1.0;"/><text fill="#000000" font-family="Arial" font-size="11" lengthAdjust="spacing" textLength="114" x="252.5" y="205.3179">«Can be Realized With»</text><text fill="#000000" font-family="Arial" font-size="11" lengthAdjust="spacing" textLength="3" x="309.5" y="217.9668"> </text></g><!--link __6_Greenfield_Development to __7_Starting_central_and_federated_at_the_same_time--><g id="link___6_Greenfield_Development___7_Starting_central_and_federated_at_the_same_time"><path codeLine="38" d="M679.34,152.88 C778.36,154.11 923.81,161.65 968.5,194 C985.24,206.12 993.65,228.72 997.77,245.68 " fill="none" id="__6_Greenfield_Development-to-__7_Starting_central_and_federated_at_the_same_time" style="stroke:#181818;stroke-width:1.0;"/><polygon fill="#181818" points="998.91,250.74,1000.8294,241.08,997.8087,245.8628,993.0259,242.8421,998.91,250.74" style="stroke:#181818;stroke-width:1.0;"/><text fill="#000000" font-family="Arial" font-size="11" lengthAdjust="spacing" textLength="114" x="988.5" y="205.3179">«Can be Realized With»</text><text fill="#000000" font-family="Arial" font-size="11" lengthAdjust="spacing" textLength="3" x="1045.5" y="217.9668"> </text></g><!--link __7_Starting_central_and_federated_at_the_same_time to __8_Master_Data_Management--><g id="link___7_Starting_central_and_federated_at_the_same_time___8_Master_Data_Management"><path codeLine="39" d="M868.2,275.59 C705.85,283.69 448.02,298.96 406.5,316 C389.28,323.06 391.45,335.33 374.5,343 C345.15,356.28 270.85,366.87 207.6,373.89 " fill="none" id="__7_Starting_central_and_federated_at_the_same_time-to-__8_Master_Data_Management" style="stroke:#181818;stroke-width:1.0;"/><polygon fill="#181818" points="202.3,374.48,211.6895,377.4528,207.2689,373.9231,210.7985,369.5025,202.3,374.48" style="stroke:#181818;stroke-width:1.0;"/><text fill="#000000" font-family="Arial" font-size="11" lengthAdjust="spacing" textLength="53" x="407.5" y="327.3179">«Can Use»</text><text fill="#000000" font-family="Arial" font-size="11" lengthAdjust="spacing" textLength="3" x="434" y="339.9668"> </text></g><!--link __7_Starting_central_and_federated_at_the_same_time to __9_CQRS--><g id="link___7_Starting_central_and_federated_at_the_same_time___9_CQRS"><path codeLine="40" d="M995.59,286.05 C988.47,303.37 974.75,329.84 953.5,343 C905.11,372.99 740.12,380.77 657.48,382.79 " fill="none" id="__7_Starting_central_and_federated_at_the_same_time-to-__9_CQRS" style="stroke:#181818;stroke-width:1.0;"/><polygon fill="#181818" points="652.16,382.92,661.2598,386.6873,657.1583,382.7915,661.0542,378.69,652.16,382.92" style="stroke:#181818;stroke-width:1.0;"/><text fill="#000000" font-family="Arial" font-size="11" lengthAdjust="spacing" textLength="53" x="980.5" y="327.3179">«Can Use»</text><text fill="#000000" font-family="Arial" font-size="11" lengthAdjust="spacing" textLength="3" x="1007" y="339.9668"> </text></g><!--link __7_Starting_central_and_federated_at_the_same_time to __10_Zero_Trust_Architecture--><g id="link___7_Starting_central_and_federated_at_the_same_time___10_Zero_Trust_Architecture"><path codeLine="41" d="M868.49,281.02 C816.45,287.92 756.82,298.83 704.5,316 C679.76,324.12 677.36,335.25 652.5,343 C579.5,365.74 493.4,375.76 428.61,380.14 " fill="none" id="__7_Starting_central_and_federated_at_the_same_time-to-__10_Zero_Trust_Architecture" style="stroke:#181818;stroke-width:1.0;"/><polygon fill="#181818" points="423.59,380.47,432.8336,383.8695,428.5792,380.1412,432.3075,375.8868,423.59,380.47" style="stroke:#181818;stroke-width:1.0;"/><text fill="#000000" font-family="Arial" font-size="11" lengthAdjust="spacing" textLength="53" x="705.5" y="327.3179">«Can Use»</text><text fill="#000000" font-family="Arial" font-size="11" lengthAdjust="spacing" textLength="3" x="732" y="339.9668"> </text></g><!--link __7_Starting_central_and_federated_at_the_same_time to __11_Strangler_Fig--><g id="link___7_Starting_central_and_federated_at_the_same_time___11_Strangler_Fig"><path codeLine="42" d="M1029.91,286.01 C1051.76,300.82 1075.83,323.21 1060.5,343 C1049.24,357.53 1008.59,367.78 971.47,374.33 " fill="none" id="__7_Starting_central_and_federated_at_the_same_time-to-__11_Strangler_Fig" style="stroke:#181818;stroke-width:1.0;"/><polygon fill="#181818" points="966.5,375.19,976.0534,377.5841,971.4256,374.3309,974.6788,369.7031,966.5,375.19" style="stroke:#181818;stroke-width:1.0;"/><text fill="#000000" font-family="Arial" font-size="11" lengthAdjust="spacing" textLength="53" x="1065.5" y="327.3179">«Can Use»</text><text fill="#000000" font-family="Arial" font-size="11" lengthAdjust="spacing" textLength="3" x="1092" y="339.9668"> </text></g><!--SRC=[jLJRRXCn47tFLupoNebmfnAWaggyK2ujg1AAD7AyaurLhntPNb2A-A9-0c_zCiQRxANDvjwy9UipvypbpFXhPIR2YGmoQwmSEviH19TJnrSlVIsy_o3aTUfiRfA-rTR1rLW5wenLGa3P94mXesn8piy-IUMaRd8aD1Av3cVMXC-29KwS4hhz_LBT4FHwZKSP4nZnamzJJJ2qEkaKtw1xDHO1V70YK3e5AGmC2N9F2OmuoKG40HDdarm6KDb4KqOcYA2iUJymS0od99NdVrqG7X1x6Fcmv4Fcmo5Xv4FcmyY7SpwypuTbHdrjymHEf2HDhdXYdQyY17Abp5CiGDW4bU6NGRYWJ0eZIk8JLyBXJiYW9CtZds69mWfLnd-YLCWfd5l-RjHDUmBFSGR3Ux2552GNvuG6OH8UqFnVd0xtN81cMSUz5oaLlNoGv8iwoNaaCWysUP1xBR3WmOAdpE2Z8p8ZHJhX2VqYRIUnpuiQBx56OWEvifAwiLn661FuQCYWijOoNhMNKP746fW48mb6abBxNFZOdzDemNDXkBgoXdkZU8qp84OWri3AJjykBXU2tc3yN49-ahFmtUK-y5h9k9Sov8uMedfFC4AnW68JMlVB2PEo9O_ELBeOtyCAW0pexBSmS7JqRiao74FtxlRB9Fwy-mS3yyV44RtbfgfqlbDs1Cn4RkAKvn5EkOUP7vXWuqW7HaRExjy1v_uuQRQlp0Q9ZlYaWfvjPJFDhE0PcEQDye-PyRBbM9fpjIs_LHX3MkzWKWTN2RQDRIxSTfuAqVxiF5zGiVq9NB5EaS8wnbrkoNwAMw_z1d9jVPdBBRi25UiFJniHpIx3rc7BJyFsL0-kH3j1-phjPw2Ld0Uoq4hDGvXebpfsCjaUGgjCk0VjjYRTHseZ4o-xiFlPU0thWOoyHlKGLjwQSoSVxwgooiIxScxhu9rrrjltFm00]--></g></svg>