<?xml version="1.0" encoding="UTF-8" standalone="no"?><svg xmlns="http://www.w3.org/2000/svg" xmlns:xlink="http://www.w3.org/1999/xlink" contentStyleType="text/css" height="591px" preserveAspectRatio="none" style="width:1162px;height:591px;background:#FFFFFF;" version="1.1" viewBox="0 0 1162 591" width="1162px" zoomAndPan="magnify"><defs/><g><!--class __1_What_type_of_data_product_can_be_developed_--><g id="elem___1_What_type_of_data_product_can_be_developed_"><rect codeLine="9" fill="#FFFFFF" height="35.2979" id="__1_What_type_of_data_product_can_be_developed_" rx="2.5" ry="2.5" style="stroke:#181818;stroke-width:0.5;" width="253" x="7" y="335.5"/><text fill="#000000" font-family="Arial" font-size="11" font-weight="bold" lengthAdjust="spacing" textLength="247" x="10" y="350.8179">What type of data product can be developed?</text><text fill="#000000" font-family="Arial" font-size="11" font-weight="bold" lengthAdjust="spacing" textLength="53" x="108.5" y="363.4668">: Decision</text></g><!--class __2_Expose_Data_Product_as_Raw_Data--><g id="elem___2_Expose_Data_Product_as_Raw_Data"><rect codeLine="10" fill="#FFFFFF" height="22.6489" id="__2_Expose_Data_Product_as_Raw_Data" rx="2.5" ry="2.5" style="stroke:#181818;stroke-width:0.5;" width="239" x="493" y="129.5"/><text fill="#000000" font-family="Arial" font-size="11" font-weight="bold" lengthAdjust="spacing" textLength="233" x="496" y="144.8179">Expose Data Product as Raw Data : Practice</text></g><!--class __3_Expose_Data_Product_as_a_Hybrid_Product--><g id="elem___3_Expose_Data_Product_as_a_Hybrid_Product"><rect codeLine="11" fill="#FFFFFF" height="35.2979" id="__3_Expose_Data_Product_as_a_Hybrid_Product" rx="2.5" ry="2.5" style="stroke:#181818;stroke-width:0.5;" width="227" x="20" y="56.5"/><text fill="#000000" font-family="Arial" font-size="11" font-weight="bold" lengthAdjust="spacing" textLength="221" x="23" y="71.8179">Expose Data Product as a Hybrid Product</text><text fill="#000000" font-family="Arial" font-size="11" font-weight="bold" lengthAdjust="spacing" textLength="50" x="110" y="84.4668">: Practice</text></g><!--class __4_Expose_Data_Product_as_Derived_Data--><g id="elem___4_Expose_Data_Product_as_Derived_Data"><rect codeLine="12" fill="#FFFFFF" height="35.2979" id="__4_Expose_Data_Product_as_Derived_Data" rx="2.5" ry="2.5" style="stroke:#181818;stroke-width:0.5;" width="205" x="510" y="470.5"/><text fill="#000000" font-family="Arial" font-size="11" font-weight="bold" lengthAdjust="spacing" textLength="199" x="513" y="485.8179">Expose Data Product as Derived Data</text><text fill="#000000" font-family="Arial" font-size="11" font-weight="bold" lengthAdjust="spacing" textLength="50" x="589" y="498.4668">: Practice</text></g><!--class __5_Expose_Data_Product_as_a_Composite_Product--><g id="elem___5_Expose_Data_Product_as_a_Composite_Product"><rect codeLine="13" fill="#FFFFFF" height="35.2979" id="__5_Expose_Data_Product_as_a_Composite_Product" rx="2.5" ry="2.5" style="stroke:#181818;stroke-width:0.5;" width="253" x="7" y="405.5"/><text fill="#000000" font-family="Arial" font-size="11" font-weight="bold" lengthAdjust="spacing" textLength="247" x="10" y="420.8179">Expose Data Product as a Composite Product</text><text fill="#000000" font-family="Arial" font-size="11" font-weight="bold" lengthAdjust="spacing" textLength="50" x="110" y="433.4668">: Practice</text></g><!--class __6_Expose_Data_Product_as_an_algorithm--><g id="elem___6_Expose_Data_Product_as_an_algorithm"><rect codeLine="14" fill="#FFFFFF" height="35.2979" id="__6_Expose_Data_Product_as_an_algorithm" rx="2.5" ry="2.5" style="stroke:#181818;stroke-width:0.5;" width="206" x="509.5" y="336.5"/><text fill="#000000" font-family="Arial" font-size="11" font-weight="bold" lengthAdjust="spacing" textLength="200" x="512.5" y="351.8179">Expose Data Product as an algorithm</text><text fill="#000000" font-family="Arial" font-size="11" font-weight="bold" lengthAdjust="spacing" textLength="50" x="589" y="364.4668">: Practice</text></g><!--class __7_Expose_Data_Product_as_an_Optimisation_based_Decision_Support_System--><g id="elem___7_Expose_Data_Product_as_an_Optimisation_based_Decision_Support_System"><rect codeLine="15" fill="#FFFFFF" height="47.9468" id="__7_Expose_Data_Product_as_an_Optimisation_based_Decision_Support_System" rx="2.5" ry="2.5" style="stroke:#181818;stroke-width:0.5;" width="311" x="844" y="291"/><text fill="#000000" font-family="Arial" font-size="11" font-weight="bold" lengthAdjust="spacing" textLength="305" x="847" y="306.3179">Expose Data Product as an Optimisation-based Decision</text><text fill="#000000" font-family="Arial" font-size="11" font-weight="bold" lengthAdjust="spacing" textLength="89" x="955" y="318.9668">Support System</text><text fill="#000000" font-family="Arial" font-size="11" font-weight="bold" lengthAdjust="spacing" textLength="50" x="976" y="331.6157">: Practice</text></g><!--class __8_Expose_Data_Product_as_an_AI_ML_Model--><g id="elem___8_Expose_Data_Product_as_an_AI_ML_Model"><rect codeLine="16" fill="#FFFFFF" height="35.2979" id="__8_Expose_Data_Product_as_an_AI_ML_Model" rx="2.5" ry="2.5" style="stroke:#181818;stroke-width:0.5;" width="221" x="889" y="374.5"/><text fill="#000000" font-family="Arial" font-size="11" font-weight="bold" lengthAdjust="spacing" textLength="215" x="892" y="389.8179">Expose Data Product as an AI/ML Model</text><text fill="#000000" font-family="Arial" font-size="11" font-weight="bold" lengthAdjust="spacing" textLength="50" x="976" y="402.4668">: Practice</text></g><!--link __1_What_type_of_data_product_can_be_developed_ to __2_Expose_Data_Product_as_Raw_Data--><g id="link___1_What_type_of_data_product_can_be_developed____2_Expose_Data_Product_as_Raw_Data"><path codeLine="17" d="M144.39,335.24 C165.66,298.95 219.6,216.62 290,180 C323.79,162.42 411.88,152.53 487.32,147.1 " fill="none" id="__1_What_type_of_data_product_can_be_developed_-to-__2_Expose_Data_Product_as_Raw_Data" style="stroke:#181818;stroke-width:1.0;"/><polygon fill="#181818" points="492.73,146.72,483.4672,143.3733,487.7428,147.0773,484.0388,151.3528,492.73,146.72" style="stroke:#181818;stroke-width:1.0;"/><text fill="#000000" font-family="Arial" font-size="11" lengthAdjust="spacing" textLength="133" x="310" y="134.3179">Use raw data from the data</text><text fill="#000000" font-family="Arial" font-size="11" lengthAdjust="spacing" textLength="37" x="358" y="146.9668">product</text><text fill="#000000" font-family="Arial" font-size="11" lengthAdjust="spacing" textLength="43" x="95.1354" y="312.4255">«Option»</text><text fill="#000000" font-family="Arial" font-size="11" lengthAdjust="spacing" textLength="39" x="97.1354" y="325.0744">{name =</text><text fill="#000000" font-family="Arial" font-size="11" lengthAdjust="spacing" textLength="4" x="480.9291" y="158.2259">}</text><text fill="#000000" font-family="Arial" font-size="11" lengthAdjust="spacing" textLength="3" x="481.4291" y="170.8748"> </text></g><!--link __1_What_type_of_data_product_can_be_developed_ to __4_Expose_Data_Product_as_Derived_Data--><g id="link___1_What_type_of_data_product_can_be_developed____4_Expose_Data_Product_as_Derived_Data"><path codeLine="18" d="M230.56,370.54 C241.17,375.09 251.27,380.8 260,388 C283,406.97 265.66,430.79 290,448 C351.77,491.68 437.37,500.5 504.72,499.04 " fill="none" id="__1_What_type_of_data_product_can_be_developed_-to-__4_Expose_Data_Product_as_Derived_Data" style="stroke:#181818;stroke-width:1.0;"/><polygon fill="#181818" points="509.95,498.9,500.8502,495.1327,504.9517,499.0285,501.0558,503.13,509.95,498.9" style="stroke:#181818;stroke-width:1.0;"/><text fill="#000000" font-family="Arial" font-size="11" lengthAdjust="spacing" textLength="125" x="314" y="432.3179">Use derived data from the</text><text fill="#000000" font-family="Arial" font-size="11" lengthAdjust="spacing" textLength="61" x="346" y="444.9668">data product</text><text fill="#000000" font-family="Arial" font-size="11" lengthAdjust="spacing" textLength="43" x="223.8436" y="382.3545">«Option»</text><text fill="#000000" font-family="Arial" font-size="11" lengthAdjust="spacing" textLength="39" x="225.8436" y="395.0034">{name =</text><text fill="#000000" font-family="Arial" font-size="11" lengthAdjust="spacing" textLength="4" x="497.9454" y="511.0094">}</text><text fill="#000000" font-family="Arial" font-size="11" lengthAdjust="spacing" textLength="3" x="498.4454" y="523.6584"> </text></g><!--link __1_What_type_of_data_product_can_be_developed_ to __6_Expose_Data_Product_as_an_algorithm--><g id="link___1_What_type_of_data_product_can_be_developed____6_Expose_Data_Product_as_an_algorithm"><path codeLine="19" d="M260.1,356.51 C270.22,356.71 280.28,356.88 290,357 C366.88,357.99 386.12,357.78 463,357 C476.32,356.87 490.31,356.66 504.16,356.43 " fill="none" id="__1_What_type_of_data_product_can_be_developed_-to-__6_Expose_Data_Product_as_an_algorithm" style="stroke:#181818;stroke-width:1.0;"/><polygon fill="#181818" points="509.25,356.34,500.1828,352.4949,504.2507,356.4257,500.3199,360.4937,509.25,356.34" style="stroke:#181818;stroke-width:1.0;"/><text fill="#000000" font-family="Arial" font-size="11" lengthAdjust="spacing" textLength="171" x="291" y="329.3179">Use algorithms to return information</text><text fill="#000000" font-family="Arial" font-size="11" lengthAdjust="spacing" textLength="10" x="371.5" y="341.9668">or</text><text fill="#000000" font-family="Arial" font-size="11" lengthAdjust="spacing" textLength="37" x="358" y="354.6157">insights</text><text fill="#000000" font-family="Arial" font-size="11" lengthAdjust="spacing" textLength="43" x="267.8137" y="367.6534">«Option»</text><text fill="#000000" font-family="Arial" font-size="11" lengthAdjust="spacing" textLength="39" x="269.8137" y="380.3023">{name =</text><text fill="#000000" font-family="Arial" font-size="11" lengthAdjust="spacing" textLength="4" x="497.5207" y="367.7477">}</text><text fill="#000000" font-family="Arial" font-size="11" lengthAdjust="spacing" textLength="3" x="498.0207" y="380.3966"> </text></g><!--link __3_Expose_Data_Product_as_a_Hybrid_Product to __2_Expose_Data_Product_as_Raw_Data--><g id="link___3_Expose_Data_Product_as_a_Hybrid_Product___2_Expose_Data_Product_as_Raw_Data"><path codeLine="20" d="M192.74,56.47 C259.42,39.26 371.26,19.17 463,46 C516.54,61.66 569.11,103.17 594.96,125.79 " fill="none" id="__3_Expose_Data_Product_as_a_Hybrid_Product-to-__2_Expose_Data_Product_as_Raw_Data" style="stroke:#181818;stroke-width:1.0;"/><polygon fill="#181818" points="598.87,129.25,594.7646,120.2976,595.1196,125.9433,589.4739,126.2983,598.87,129.25" style="stroke:#181818;stroke-width:1.0;"/><text fill="#000000" font-family="Arial" font-size="11" lengthAdjust="spacing" textLength="53" x="348.5" y="17.3179">«Can Use»</text><text fill="#000000" font-family="Arial" font-size="11" lengthAdjust="spacing" textLength="3" x="375" y="29.9668"> </text></g><!--link __3_Expose_Data_Product_as_a_Hybrid_Product to __4_Expose_Data_Product_as_Derived_Data--><g id="link___3_Expose_Data_Product_as_a_Hybrid_Product___4_Expose_Data_Product_as_Derived_Data"><path codeLine="21" d="M142.15,91.75 C160.8,132.72 212.83,234.06 290,282 C356.42,323.26 402.52,264.43 463,314 C490.77,336.76 471.92,359.94 493,389 C516.44,421.31 552.7,449.52 578.93,467.48 " fill="none" id="__3_Expose_Data_Product_as_a_Hybrid_Product-to-__4_Expose_Data_Product_as_Derived_Data" style="stroke:#181818;stroke-width:1.0;"/><polygon fill="#181818" points="583.38,470.49,578.1766,462.1279,579.2419,467.6835,573.6863,468.7489,583.38,470.49" style="stroke:#181818;stroke-width:1.0;"/><text fill="#000000" font-family="Arial" font-size="11" lengthAdjust="spacing" textLength="53" x="348.5" y="266.3179">«Can Use»</text><text fill="#000000" font-family="Arial" font-size="11" lengthAdjust="spacing" textLength="3" x="375" y="278.9668"> </text></g><!--link __3_Expose_Data_Product_as_a_Hybrid_Product to __6_Expose_Data_Product_as_an_algorithm--><g id="link___3_Expose_Data_Product_as_a_Hybrid_Product___6_Expose_Data_Product_as_an_algorithm"><path codeLine="22" d="M247.22,82.99 C335.1,90.84 445.16,102.85 463,115 C486.02,130.67 478.79,146.06 493,170 C528.36,229.57 573.46,297.61 596.49,331.85 " fill="none" id="__3_Expose_Data_Product_as_a_Hybrid_Product-to-__6_Expose_Data_Product_as_an_algorithm" style="stroke:#181818;stroke-width:1.0;"/><polygon fill="#181818" points="599.45,336.25,597.7474,326.5494,596.66,332.1008,591.1087,331.0134,599.45,336.25" style="stroke:#181818;stroke-width:1.0;"/><text fill="#000000" font-family="Arial" font-size="11" lengthAdjust="spacing" textLength="53" x="348.5" y="72.3179">«Can Use»</text><text fill="#000000" font-family="Arial" font-size="11" lengthAdjust="spacing" textLength="3" x="375" y="84.9668"> </text></g><!--link __5_Expose_Data_Product_as_a_Composite_Product to __2_Expose_Data_Product_as_Raw_Data--><g id="link___5_Expose_Data_Product_as_a_Composite_Product___2_Expose_Data_Product_as_Raw_Data"><path codeLine="23" d="M236.74,405.35 C245.38,400.78 253.34,395.09 260,388 C303.87,341.31 244.09,291.69 290,247 C346.03,192.45 388.84,239.79 463,215 C509.42,199.48 559.64,171.97 588.16,155.21 " fill="none" id="__5_Expose_Data_Product_as_a_Composite_Product-to-__2_Expose_Data_Product_as_Raw_Data" style="stroke:#181818;stroke-width:1.0;"/><polygon fill="#181818" points="592.55,152.62,582.77,153.7822,588.2525,155.1757,586.859,160.6582,592.55,152.62" style="stroke:#181818;stroke-width:1.0;"/><text fill="#000000" font-family="Arial" font-size="11" lengthAdjust="spacing" textLength="53" x="348.5" y="199.3179">«Can Use»</text><text fill="#000000" font-family="Arial" font-size="11" lengthAdjust="spacing" textLength="3" x="375" y="211.9668"> </text></g><!--link __5_Expose_Data_Product_as_a_Composite_Product to __4_Expose_Data_Product_as_Derived_Data--><g id="link___5_Expose_Data_Product_as_a_Composite_Product___4_Expose_Data_Product_as_Derived_Data"><path codeLine="24" d="M147.49,440.55 C171.53,471.38 226.37,534.23 290,558 C362.03,584.9 387.97,574.8 463,558 C505.51,548.48 550.18,525.38 579.29,508.31 " fill="none" id="__5_Expose_Data_Product_as_a_Composite_Product-to-__4_Expose_Data_Product_as_Derived_Data" style="stroke:#181818;stroke-width:1.0;"/><polygon fill="#181818" points="583.83,505.62,574.05,506.7822,579.5325,508.1757,578.139,513.6582,583.83,505.62" style="stroke:#181818;stroke-width:1.0;"/><text fill="#000000" font-family="Arial" font-size="11" lengthAdjust="spacing" textLength="53" x="348.5" y="542.3179">«Can Use»</text><text fill="#000000" font-family="Arial" font-size="11" lengthAdjust="spacing" textLength="3" x="375" y="554.9668"> </text></g><!--link __5_Expose_Data_Product_as_a_Composite_Product to __6_Expose_Data_Product_as_an_algorithm--><g id="link___5_Expose_Data_Product_as_a_Composite_Product___6_Expose_Data_Product_as_an_algorithm"><path codeLine="25" d="M260.29,415.76 C321.73,411.05 396.55,403.57 463,392 C490.65,387.19 520.72,379.89 546.53,372.97 " fill="none" id="__5_Expose_Data_Product_as_a_Composite_Product-to-__6_Expose_Data_Product_as_an_algorithm" style="stroke:#181818;stroke-width:1.0;"/><polygon fill="#181818" points="551.63,371.6,541.8996,370.0773,546.8019,372.8999,543.9794,377.8022,551.63,371.6" style="stroke:#181818;stroke-width:1.0;"/><text fill="#000000" font-family="Arial" font-size="11" lengthAdjust="spacing" textLength="53" x="348.5" y="376.3179">«Can Use»</text><text fill="#000000" font-family="Arial" font-size="11" lengthAdjust="spacing" textLength="3" x="375" y="388.9668"> </text></g><!--link __6_Expose_Data_Product_as_an_algorithm to __7_Expose_Data_Product_as_an_Optimisation_based_Decision_Support_System--><g id="link___6_Expose_Data_Product_as_an_algorithm___7_Expose_Data_Product_as_an_Optimisation_based_Decision_Support_System"><path codeLine="26" d="M715.66,343.65 C753.45,339.82 797.23,335.39 838.9,331.17 " fill="none" id="__6_Expose_Data_Product_as_an_algorithm-to-__7_Expose_Data_Product_as_an_Optimisation_based_Decision_Support_System" style="stroke:#181818;stroke-width:1.0;"/><polygon fill="#181818" points="843.97,330.65,834.6149,327.5707,838.9951,331.1503,835.4155,335.5306,843.97,330.65" style="stroke:#181818;stroke-width:1.0;"/><text fill="#000000" font-family="Arial" font-size="11" lengthAdjust="spacing" textLength="47" x="763" y="319.3179">«Variant»</text><text fill="#000000" font-family="Arial" font-size="11" lengthAdjust="spacing" textLength="3" x="786.5" y="331.9668"> </text></g><!--link __6_Expose_Data_Product_as_an_algorithm to __8_Expose_Data_Product_as_an_AI_ML_Model--><g id="link___6_Expose_Data_Product_as_an_algorithm___8_Expose_Data_Product_as_an_AI_ML_Model"><path codeLine="27" d="M684.84,371.55 C709.17,376.82 736.63,382 762,385 C801.53,389.67 845.02,391.81 883.8,392.67 " fill="none" id="__6_Expose_Data_Product_as_an_algorithm-to-__8_Expose_Data_Product_as_an_AI_ML_Model" style="stroke:#181818;stroke-width:1.0;"/><polygon fill="#181818" points="889,392.77,880.0938,388.5654,884.0013,392.6557,879.9109,396.5633,889,392.77" style="stroke:#181818;stroke-width:1.0;"/><text fill="#000000" font-family="Arial" font-size="11" lengthAdjust="spacing" textLength="47" x="763" y="369.3179">«Variant»</text><text fill="#000000" font-family="Arial" font-size="11" lengthAdjust="spacing" textLength="3" x="786.5" y="381.9668"> </text></g><!--SRC=[hPRFZjCm4CRlVOfHxnKg_xKIeDA2M6aBY0hs4cdan9F6MiUER6UX89ve7u7RFXcscqO5qZPjEMOcy_s-SSQZs1kXAcPO2QLMEYkCBWcSgMbWsynKCcjVi-ncQNIj-5HBRU2w48u6XU04L5Pk1IMLAHcx3cN2P79RWrFEQkdUQkNUCu-O6C5aTtuXlXECnrl9B1Z8VSgwbIH8jUG3IRa3fy68PU602qEP4reDuhiml2wOJwyg0fq3Puv1PJIlCmSPKv2I1zwIr1NnLuc22vXH9gol7mApW3Z6881107MEGG0R0VG2c1As0hXXllbMQKim2xIF3SshVM9Vrx4B7sNUPKODvI6kIp2aiIb1Pj6NnDW1PGRlLgaHV1EBdVp5UBIBmN1Tl8aTOCt8Y5lYCTx5URoBqnJswsUgIv_naxMlfIUxMshhUtRbPu79fJR25MKNwkbEbCAsy33ZG-L4AImB4pfAcGtds0nSeXPrLMdZOB6oZZfTFDlZObiQepHkfB5HnhNoOPkJomVpAvXhJhBBnlCzDYQNEB_2M3euylh0QFIopsMuWE7zNMXNg_jVaAWVAYoI5p3yxBin_fB5Qvxx3GQkeFYKg8Ow_9dugtsYirwZlTSTRoxF7muJjRsNpdBOQqptEcpVid6fagkD0g5oRSeuMedI9b52sR1kRMksztOvwYDF_InwKz7bIPZ-N-niLF-Z_mTrp1uxx_nE89rnX2VGpZZ5NgKDvlyiqkZZ2_D_CCgTvgFd9kq0_GO0]--></g></svg>