<?xml version="1.0" encoding="UTF-8" standalone="no"?><svg xmlns="http://www.w3.org/2000/svg" xmlns:xlink="http://www.w3.org/1999/xlink" contentStyleType="text/css" height="231px" preserveAspectRatio="none" style="width:1469px;height:231px;background:#FFFFFF;" version="1.1" viewBox="0 0 1469 231" width="1469px" zoomAndPan="magnify"><defs/><g><!--class __1_How_to_deploy_a_data_product_--><g id="elem___1_How_to_deploy_a_data_product_"><rect codeLine="9" fill="#FFFFFF" height="22.6489" id="__1_How_to_deploy_a_data_product_" rx="2.5" ry="2.5" style="stroke:#181818;stroke-width:0.5;" width="228" x="7" y="171.5"/><text fill="#000000" font-family="Arial" font-size="11" font-weight="bold" lengthAdjust="spacing" textLength="222" x="10" y="186.8179">How to deploy a data product? : Decision</text></g><!--class __2_Kubernetes--><g id="elem___2_Kubernetes"><rect codeLine="10" fill="#FFFFFF" height="22.6489" id="__2_Kubernetes" rx="2.5" ry="2.5" style="stroke:#181818;stroke-width:0.5;" width="124" x="390.5" y="107.5"/><text fill="#000000" font-family="Arial" font-size="11" font-weight="bold" lengthAdjust="spacing" textLength="118" x="393.5" y="122.8179">Kubernetes : Practice</text></g><!--class __3_Docker--><g id="elem___3_Docker"><rect codeLine="11" fill="#FFFFFF" height="22.6489" id="__3_Docker" rx="2.5" ry="2.5" style="stroke:#181818;stroke-width:0.5;" width="98" x="693" y="142.5"/><text fill="#000000" font-family="Arial" font-size="11" font-weight="bold" lengthAdjust="spacing" textLength="92" x="696" y="157.8179">Docker : Practice</text></g><!--class __4_Single_container_design--><g id="elem___4_Single_container_design"><rect codeLine="12" fill="#FFFFFF" height="22.6489" id="__4_Single_container_design" rx="2.5" ry="2.5" style="stroke:#181818;stroke-width:0.5;" width="186" x="1013.5" y="202.5"/><text fill="#000000" font-family="Arial" font-size="11" font-weight="bold" lengthAdjust="spacing" textLength="180" x="1016.5" y="217.8179">Single-container design : Pattern</text></g><!--class __5_Infrastructure_as_Code--><g id="elem___5_Infrastructure_as_Code"><rect codeLine="13" fill="#FFFFFF" height="22.6489" id="__5_Infrastructure_as_Code" rx="2.5" ry="2.5" style="stroke:#181818;stroke-width:0.5;" width="184" x="1014.5" y="27.5"/><text fill="#000000" font-family="Arial" font-size="11" font-weight="bold" lengthAdjust="spacing" textLength="178" x="1017.5" y="42.8179">Infrastructure as Code : Practice</text></g><!--class __6_Templated_Data_Pipeline--><g id="elem___6_Templated_Data_Pipeline"><rect codeLine="14" fill="#FFFFFF" height="22.6489" id="__6_Templated_Data_Pipeline" rx="2.5" ry="2.5" style="stroke:#181818;stroke-width:0.5;" width="187" x="1013" y="135.5"/><text fill="#000000" font-family="Arial" font-size="11" font-weight="bold" lengthAdjust="spacing" textLength="181" x="1016" y="150.8179">Templated Data Pipeline : Pattern</text></g><!--class __7__CI_CD_process--><g id="elem___7__CI_CD_process"><rect codeLine="15" fill="#FFFFFF" height="22.6489" id="__7__CI_CD_process" rx="2.5" ry="2.5" style="stroke:#181818;stroke-width:0.5;" width="140" x="1322" y="135.5"/><text fill="#000000" font-family="Arial" font-size="11" font-weight="bold" lengthAdjust="spacing" textLength="131" x="1328" y="150.8179">CI/CD process : Practice</text></g><!--class __8_Functiona_as_a_Service--><g id="elem___8_Functiona_as_a_Service"><rect codeLine="16" fill="#FFFFFF" height="22.6489" id="__8_Functiona_as_a_Service" rx="2.5" ry="2.5" style="stroke:#181818;stroke-width:0.5;" width="184" x="650" y="80.5"/><text fill="#000000" font-family="Arial" font-size="11" font-weight="bold" lengthAdjust="spacing" textLength="178" x="653" y="95.8179">Functiona-as-a-Service : Practice</text></g><!--link __1_How_to_deploy_a_data_product_ to __2_Kubernetes--><g id="link___1_How_to_deploy_a_data_product____2_Kubernetes"><path codeLine="17" d="M181.29,171.48 C239.32,160.21 327.46,143.09 387.17,131.5 " fill="none" id="__1_How_to_deploy_a_data_product_-to-__2_Kubernetes" style="stroke:#181818;stroke-width:1.0;"/><polygon fill="#181818" points="392.13,130.53,382.5301,128.3296,387.2227,131.4886,384.0638,136.1812,392.13,130.53" style="stroke:#181818;stroke-width:1.0;"/><text fill="#000000" font-family="Arial" font-size="11" lengthAdjust="spacing" textLength="76" x="266" y="139.3179">Use kubernetes</text><text fill="#000000" font-family="Arial" font-size="11" lengthAdjust="spacing" textLength="43" x="148.1084" y="148.6525">«Option»</text><text fill="#000000" font-family="Arial" font-size="11" lengthAdjust="spacing" textLength="39" x="150.1084" y="161.3015">{name =</text><text fill="#000000" font-family="Arial" font-size="11" lengthAdjust="spacing" textLength="4" x="378.5796" y="144.5771">}</text><text fill="#000000" font-family="Arial" font-size="11" lengthAdjust="spacing" textLength="3" x="379.0796" y="157.2261"> </text></g><!--link __1_How_to_deploy_a_data_product_ to __3_Docker--><g id="link___1_How_to_deploy_a_data_product____3_Docker"><path codeLine="18" d="M235.17,177.7 C369.36,171.41 587.38,161.2 687.57,156.5 " fill="none" id="__1_How_to_deploy_a_data_product_-to-__3_Docker" style="stroke:#181818;stroke-width:1.0;"/><polygon fill="#181818" points="692.83,156.26,683.6465,152.7013,687.8359,156.5026,684.0347,160.6919,692.83,156.26" style="stroke:#181818;stroke-width:1.0;"/><text fill="#000000" font-family="Arial" font-size="11" lengthAdjust="spacing" textLength="157" x="374" y="161.3179">Use a containerised architecture</text><text fill="#000000" font-family="Arial" font-size="11" lengthAdjust="spacing" textLength="43" x="243.1001" y="188.4529">«Option»</text><text fill="#000000" font-family="Arial" font-size="11" lengthAdjust="spacing" textLength="39" x="245.1001" y="201.1018">{name =</text><text fill="#000000" font-family="Arial" font-size="11" lengthAdjust="spacing" textLength="4" x="680.9946" y="168.8877">}</text><text fill="#000000" font-family="Arial" font-size="11" lengthAdjust="spacing" textLength="3" x="681.4946" y="181.5366"> </text></g><!--link __2_Kubernetes to __3_Docker--><g id="link___2_Kubernetes___3_Docker"><path codeLine="19" d="M495.96,130.55 C515.86,135.51 539.99,140.87 562,144 C604,149.97 652.02,152.42 687.74,153.4 " fill="none" id="__2_Kubernetes-to-__3_Docker" style="stroke:#181818;stroke-width:1.0;"/><polygon fill="#181818" points="692.92,153.53,684.0379,149.2746,687.922,153.3872,683.8094,157.2713,692.92,153.53" style="stroke:#181818;stroke-width:1.0;"/><text fill="#000000" font-family="Arial" font-size="11" lengthAdjust="spacing" textLength="52" x="563.5" y="128.3179">«Includes»</text><text fill="#000000" font-family="Arial" font-size="11" lengthAdjust="spacing" textLength="3" x="589.5" y="140.9668"> </text></g><!--link __2_Kubernetes to __5_Infrastructure_as_Code--><g id="link___2_Kubernetes___5_Infrastructure_as_Code"><path codeLine="20" d="M473.11,107.42 C494.27,95.56 529.32,77.65 562,69 C714.42,28.64 899.04,28.15 1009.13,32.7 " fill="none" id="__2_Kubernetes-to-__5_Infrastructure_as_Code" style="stroke:#181818;stroke-width:1.0;"/><polygon fill="#181818" points="1014.31,32.92,1005.4901,28.5372,1009.3146,32.7053,1005.1465,36.5298,1014.31,32.92" style="stroke:#181818;stroke-width:1.0;"/><text fill="#000000" font-family="Arial" font-size="11" lengthAdjust="spacing" textLength="53" x="714" y="17.3179">«Can Use»</text><text fill="#000000" font-family="Arial" font-size="11" lengthAdjust="spacing" textLength="3" x="740.5" y="29.9668"> </text></g><!--link __2_Kubernetes to __8_Functiona_as_a_Service--><g id="link___2_Kubernetes___8_Functiona_as_a_Service"><path codeLine="21" d="M514.82,113.24 C552.54,109.7 601.69,105.08 644.53,101.06 " fill="none" id="__2_Kubernetes-to-__8_Functiona_as_a_Service" style="stroke:#181818;stroke-width:1.0;"/><polygon fill="#181818" points="649.73,100.57,640.3926,97.4375,644.7523,101.042,641.1478,105.4018,649.73,100.57" style="stroke:#181818;stroke-width:1.0;"/><text fill="#000000" font-family="Arial" font-size="11" lengthAdjust="spacing" textLength="53" x="563" y="88.3179">«Can Use»</text><text fill="#000000" font-family="Arial" font-size="11" lengthAdjust="spacing" textLength="3" x="589.5" y="100.9668"> </text></g><!--link __3_Docker to __4_Single_container_design--><g id="link___3_Docker___4_Single_container_design"><path codeLine="22" d="M781.1,165.57 C804.77,172.39 835.92,180.69 864,186 C911.12,194.92 963.99,201.43 1008.22,205.92 " fill="none" id="__3_Docker-to-__4_Single_container_design" style="stroke:#181818;stroke-width:1.0;"/><polygon fill="#181818" points="1013.29,206.43,1004.7355,201.5494,1008.3151,205.9297,1003.9349,209.5093,1013.29,206.43" style="stroke:#181818;stroke-width:1.0;"/><text fill="#000000" font-family="Arial" font-size="11" lengthAdjust="spacing" textLength="114" x="865" y="170.3179">«Can be Realized With»</text><text fill="#000000" font-family="Arial" font-size="11" lengthAdjust="spacing" textLength="3" x="922" y="182.9668"> </text></g><!--link __3_Docker to __5_Infrastructure_as_Code--><g id="link___3_Docker___5_Infrastructure_as_Code"><path codeLine="23" d="M778.72,142.42 C802.8,134.62 835.29,124.14 864,115 C934.05,92.69 1015.65,67.09 1063.81,52.02 " fill="none" id="__3_Docker-to-__5_Infrastructure_as_Code" style="stroke:#181818;stroke-width:1.0;"/><polygon fill="#181818" points="1068.65,50.51,1058.8677,49.3665,1063.8761,51.9965,1061.2461,57.0048,1068.65,50.51" style="stroke:#181818;stroke-width:1.0;"/><text fill="#000000" font-family="Arial" font-size="11" lengthAdjust="spacing" textLength="53" x="895.5" y="62.3179">«Can Use»</text><text fill="#000000" font-family="Arial" font-size="11" lengthAdjust="spacing" textLength="3" x="922" y="74.9668"> </text></g><!--link __3_Docker to __6_Templated_Data_Pipeline--><g id="link___3_Docker___6_Templated_Data_Pipeline"><path codeLine="24" d="M791.14,153.07 C846.15,152.01 937.63,150.24 1007.76,148.89 " fill="none" id="__3_Docker-to-__6_Templated_Data_Pipeline" style="stroke:#181818;stroke-width:1.0;"/><polygon fill="#181818" points="1012.77,148.79,1003.6918,144.9708,1007.771,148.89,1003.8518,152.9692,1012.77,148.79" style="stroke:#181818;stroke-width:1.0;"/><text fill="#000000" font-family="Arial" font-size="11" lengthAdjust="spacing" textLength="53" x="895.5" y="134.3179">«Can Use»</text><text fill="#000000" font-family="Arial" font-size="11" lengthAdjust="spacing" textLength="3" x="922" y="146.9668"> </text></g><!--link __6_Templated_Data_Pipeline to __7__CI_CD_process--><g id="link___6_Templated_Data_Pipeline___7__CI_CD_process"><path codeLine="25" d="M1200.33,147 C1238.04,147 1281.01,147 1316.6,147 " fill="none" id="__6_Templated_Data_Pipeline-to-__7__CI_CD_process" style="stroke:#181818;stroke-width:1.0;"/><polygon fill="#181818" points="1321.8,147,1312.8,143,1316.8,147,1312.8,151,1321.8,147" style="stroke:#181818;stroke-width:1.0;"/><text fill="#000000" font-family="Arial" font-size="11" lengthAdjust="spacing" textLength="57" x="1231" y="131.3179">«Leads To»</text><text fill="#000000" font-family="Arial" font-size="11" lengthAdjust="spacing" textLength="3" x="1259.5" y="143.9668"> </text></g><!--SRC=[bPJTZjCm48Nl-nIZtaUe_6ibG91eHGM25LsqDokDflQqiUhOaUs02kA9U0JkzidMJfDijsqMkEsSytbcpgH-eqnDZYgehB6YTBPY2AxXYHygkIRltv7Oh9rjZCojjWwkIXLuKYh9m5KTjb1njMJdTpy9vOJUPqXUKQF3kJNX4yKdtZf5-dHzeNump6PxHP4QMCMI3rlDiBHQJZIl0WGBJgtB058v5a5PCscrC7rllwUgv5hRBH182WIrix8HuGsSGS52-QYV0db0d64qOB2uCo1XCc1dm9xweOaZ6Wxi8-B2KNnIS8TuZ7VLNbzOiM5th7s2kqglMoYprfo9E28f4nsIlLgRPAGG8hJpFSMT4WSbxfGzQ6vMZdpCJuJ6SJBbDiPnrC0plAz4yfYKFUSoPgefi8GYBUv2rQpZSqSDFST1YKc9lR87GJv_b1TfyuBzYQszGCpdc1VOANhVUMFQF2aZdr6sOFSjcexzBt5GfXa8E-Nahvb2bhq-YEqCfZU_FzU9TlC7hirFaqxr5Ko_UeRD89l-kexp__CBVTWFqWc6I9MFQoSdqWVMXZEyjz_hAVZS2Dt4WsZnOuwnw5j2JWPYEmy2nbP-6j0ts9b7BtXmBnc-CEdu9o3XIeLo5FL_WnoOHm_tj7jKtk4EpxYbV6II7YvjXxa5]--></g></svg>